<?xml version="1.0" encoding="UTF-8" standalone="no"?>
<!DOCTYPE svg PUBLIC "-//W3C//DTD SVG 1.1//EN"
 "http://www.w3.org/Graphics/SVG/1.1/DTD/svg11.dtd">
<!-- Generated by graphviz version 2.43.0 (0)
 -->
<!-- Title: OpenAPI_Dependencies Pages: 1 -->
<svg width="483pt" height="349pt"
 viewBox="0.00 0.00 483.00 349.00" xmlns="http://www.w3.org/2000/svg" xmlns:xlink="http://www.w3.org/1999/xlink">
<g id="graph0" class="graph" transform="scale(1 1) rotate(0) translate(4 345)">
<title>OpenAPI_Dependencies</title>
<polygon fill="#2d333b" stroke="transparent" points="-4,4 -4,-345 479,-345 479,4 -4,4"/>
<g id="clust1" class="cluster">
<title>cluster_endpoints</title>
<polygon fill="#2d333b" stroke="#cdd9e5" points="8,-224 8,-333 314,-333 314,-224 8,-224"/>
<text text-anchor="middle" x="161" y="-317.8" font-family="Times,serif" font-size="14.00" fill="#cdd9e5">Endpoints &#45; Aliases</text>
</g>
<g id="clust2" class="cluster">
<title>cluster_responses</title>
<polygon fill="#2d333b" stroke="#cdd9e5" points="17,-8 17,-117 289,-117 289,-8 17,-8"/>
<text text-anchor="middle" x="153" y="-101.8" font-family="Times,serif" font-size="14.00" fill="#cdd9e5">Responses</text>
</g>
<g id="clust3" class="cluster">
<title>cluster_security</title>
<polygon fill="#2d333b" stroke="#cdd9e5" points="297,-8 297,-117 467,-117 467,-8 297,-8"/>
<text text-anchor="middle" x="382" y="-101.8" font-family="Times,serif" font-size="14.00" fill="#cdd9e5">Security</text>
</g>
<!-- GET /aliases -->
<g id="node1" class="node">
<title>GET /aliases</title>
<path fill="#37516b" stroke="black" d="M126.5,-285C126.5,-285 45.5,-285 45.5,-285 39.5,-285 33.5,-279 33.5,-273 33.5,-273 33.5,-261 33.5,-261 33.5,-255 39.5,-249 45.5,-249 45.5,-249 126.5,-249 126.5,-249 132.5,-249 138.5,-255 138.5,-261 138.5,-261 138.5,-273 138.5,-273 138.5,-279 132.5,-285 126.5,-285"/>
<text text-anchor="middle" x="86" y="-263.3" font-family="Times,serif" font-size="14.00" fill="#cdd9e5">GET /aliases</text>
</g>
<!-- BadRequest -->
<g id="node4" class="node">
<title>BadRequest</title>
<path fill="#634c23" stroke="black" d="M133.5,-69C133.5,-69 54.5,-69 54.5,-69 48.5,-69 42.5,-63 42.5,-57 42.5,-57 42.5,-45 42.5,-45 42.5,-39 48.5,-33 54.5,-33 54.5,-33 133.5,-33 133.5,-33 139.5,-33 145.5,-39 145.5,-45 145.5,-45 145.5,-57 145.5,-57 145.5,-63 139.5,-69 133.5,-69"/>
<text text-anchor="middle" x="94" y="-47.3" font-family="Times,serif" font-size="14.00" fill="#cdd9e5">BadRequest</text>
</g>
<!-- GET /aliases&#45;&gt;BadRequest -->
<g id="edge1" class="edge">
<title>GET /aliases&#45;&gt;BadRequest</title>
<path fill="none" stroke="#d8a436" d="M86.64,-248.85C88.02,-211.83 91.3,-124.18 92.98,-79.39"/>
<polygon fill="#d8a436" stroke="#d8a436" points="96.48,-79.36 93.36,-69.23 89.48,-79.09 96.48,-79.36"/>
</g>
<!-- POST /aliases -->
<g id="node2" class="node">
<title>POST /aliases</title>
<path fill="#37516b" stroke="black" d="M277,-285C277,-285 187,-285 187,-285 181,-285 175,-279 175,-273 175,-273 175,-261 175,-261 175,-255 181,-249 187,-249 187,-249 277,-249 277,-249 283,-249 289,-255 289,-261 289,-261 289,-273 289,-273 289,-279 283,-285 277,-285"/>
<text text-anchor="middle" x="232" y="-263.3" font-family="Times,serif" font-size="14.00" fill="#cdd9e5">POST /aliases</text>
</g>
<!-- Accepted -->
<g id="node3" class="node">
<title>Accepted</title>
<path fill="#634c23" stroke="black" d="M252,-69C252,-69 194,-69 194,-69 188,-69 182,-63 182,-57 182,-57 182,-45 182,-45 182,-39 188,-33 194,-33 194,-33 252,-33 252,-33 258,-33 264,-39 264,-45 264,-45 264,-57 264,-57 264,-63 258,-69 252,-69"/>
<text text-anchor="middle" x="223" y="-47.3" font-family="Times,serif" font-size="14.00" fill="#cdd9e5">Accepted</text>
</g>
<!-- POST /aliases&#45;&gt;Accepted -->
<g id="edge2" class="edge">
<title>POST /aliases&#45;&gt;Accepted</title>
<path fill="none" stroke="#d8a436" d="M231.28,-248.85C229.72,-211.83 226.04,-124.18 224.15,-79.39"/>
<polygon fill="#d8a436" stroke="#d8a436" points="227.64,-79.08 223.72,-69.23 220.65,-79.37 227.64,-79.08"/>
</g>
<!-- POST /aliases&#45;&gt;BadRequest -->
<g id="edge3" class="edge">
<title>POST /aliases&#45;&gt;BadRequest</title>
<path fill="none" stroke="#d8a436" d="M220.94,-248.85C196.77,-211.36 139.11,-121.95 110.57,-77.7"/>
<polygon fill="#d8a436" stroke="#d8a436" points="113.47,-75.74 105.11,-69.23 107.59,-79.53 113.47,-75.74"/>
</g>
<!-- macaroonAuth -->
<g id="node5" class="node">
<title>macaroonAuth</title>
<path fill="#6b3940" stroke="black" d="M430,-69C430,-69 334,-69 334,-69 328,-69 322,-63 322,-57 322,-57 322,-45 322,-45 322,-39 328,-33 334,-33 334,-33 430,-33 430,-33 436,-33 442,-39 442,-45 442,-45 442,-57 442,-57 442,-63 436,-69 430,-69"/>
<text text-anchor="middle" x="382" y="-47.3" font-family="Times,serif" font-size="14.00" fill="#cdd9e5">macaroonAuth</text>
</g>
<!-- POST /aliases&#45;&gt;macaroonAuth -->
<g id="edge4" class="edge">
<title>POST /aliases&#45;&gt;macaroonAuth</title>
<path fill="none" stroke="#e26a77" d="M244.02,-248.85C270.35,-211.28 333.23,-121.58 364.18,-77.43"/>
<polygon fill="#e26a77" stroke="#e26a77" points="367.05,-79.43 369.92,-69.23 361.32,-75.41 367.05,-79.43"/>
</g>
</g>
</svg>
