<?xml version="1.0" encoding="UTF-8" standalone="no"?>
<!DOCTYPE svg PUBLIC "-//W3C//DTD SVG 1.1//EN"
 "http://www.w3.org/Graphics/SVG/1.1/DTD/svg11.dtd">
<!-- Generated by graphviz version 2.43.0 (0)
 -->
<!-- Title: OpenAPI_Dependencies Pages: 1 -->
<svg width="586pt" height="349pt"
 viewBox="0.00 0.00 586.00 349.00" xmlns="http://www.w3.org/2000/svg" xmlns:xlink="http://www.w3.org/1999/xlink">
<g id="graph0" class="graph" transform="scale(1 1) rotate(0) translate(4 345)">
<title>OpenAPI_Dependencies</title>
<polygon fill="#2d333b" stroke="transparent" points="-4,4 -4,-345 582,-345 582,4 -4,4"/>
<g id="clust1" class="cluster">
<title>cluster_endpoints</title>
<polygon fill="#2d333b" stroke="#cdd9e5" points="125,-224 125,-333 401,-333 401,-224 125,-224"/>
<text text-anchor="middle" x="263" y="-317.8" font-family="Times,serif" font-size="14.00" fill="#cdd9e5">Endpoints &#45; Apps</text>
</g>
<g id="clust2" class="cluster">
<title>cluster_schemas</title>
<polygon fill="#2d333b" stroke="#cdd9e5" points="8,-8 8,-117 112,-117 112,-8 8,-8"/>
<text text-anchor="middle" x="60" y="-101.8" font-family="Times,serif" font-size="14.00" fill="#cdd9e5">Schemas</text>
</g>
<g id="clust3" class="cluster">
<title>cluster_responses</title>
<polygon fill="#2d333b" stroke="#cdd9e5" points="120,-8 120,-117 392,-117 392,-8 120,-8"/>
<text text-anchor="middle" x="256" y="-101.8" font-family="Times,serif" font-size="14.00" fill="#cdd9e5">Responses</text>
</g>
<g id="clust4" class="cluster">
<title>cluster_security</title>
<polygon fill="#2d333b" stroke="#cdd9e5" points="400,-8 400,-117 570,-117 570,-8 400,-8"/>
<text text-anchor="middle" x="485" y="-101.8" font-family="Times,serif" font-size="14.00" fill="#cdd9e5">Security</text>
</g>
<!-- GET /apps -->
<g id="node1" class="node">
<title>GET /apps</title>
<path fill="#37516b" stroke="black" d="M228,-285C228,-285 162,-285 162,-285 156,-285 150,-279 150,-273 150,-273 150,-261 150,-261 150,-255 156,-249 162,-249 162,-249 228,-249 228,-249 234,-249 240,-255 240,-261 240,-261 240,-273 240,-273 240,-279 234,-285 228,-285"/>
<text text-anchor="middle" x="195" y="-263.3" font-family="Times,serif" font-size="14.00" fill="#cdd9e5">GET /apps</text>
</g>
<!-- App -->
<g id="node3" class="node">
<title>App</title>
<path fill="#345a3f" stroke="black" d="M75,-69C75,-69 45,-69 45,-69 39,-69 33,-63 33,-57 33,-57 33,-45 33,-45 33,-39 39,-33 45,-33 45,-33 75,-33 75,-33 81,-33 87,-39 87,-45 87,-45 87,-57 87,-57 87,-63 81,-69 75,-69"/>
<text text-anchor="middle" x="60" y="-47.3" font-family="Times,serif" font-size="14.00" fill="#cdd9e5">App</text>
</g>
<!-- GET /apps&#45;&gt;App -->
<g id="edge1" class="edge">
<title>GET /apps&#45;&gt;App</title>
<path fill="none" stroke="#53b668" d="M184.18,-248.85C160.53,-211.36 104.13,-121.95 76.21,-77.7"/>
<polygon fill="#53b668" stroke="#53b668" points="79.17,-75.82 70.87,-69.23 73.25,-79.56 79.17,-75.82"/>
</g>
<!-- BadRequest -->
<g id="node5" class="node">
<title>BadRequest</title>
<path fill="#634c23" stroke="black" d="M236.5,-69C236.5,-69 157.5,-69 157.5,-69 151.5,-69 145.5,-63 145.5,-57 145.5,-57 145.5,-45 145.5,-45 145.5,-39 151.5,-33 157.5,-33 157.5,-33 236.5,-33 236.5,-33 242.5,-33 248.5,-39 248.5,-45 248.5,-45 248.5,-57 248.5,-57 248.5,-63 242.5,-69 236.5,-69"/>
<text text-anchor="middle" x="197" y="-47.3" font-family="Times,serif" font-size="14.00" fill="#cdd9e5">BadRequest</text>
</g>
<!-- GET /apps&#45;&gt;BadRequest -->
<g id="edge2" class="edge">
<title>GET /apps&#45;&gt;BadRequest</title>
<path fill="none" stroke="#d8a436" d="M195.16,-248.85C195.51,-211.83 196.33,-124.18 196.74,-79.39"/>
<polygon fill="#d8a436" stroke="#d8a436" points="200.25,-79.26 196.84,-69.23 193.25,-79.2 200.25,-79.26"/>
</g>
<!-- POST /apps -->
<g id="node2" class="node">
<title>POST /apps</title>
<path fill="#37516b" stroke="black" d="M363.5,-285C363.5,-285 288.5,-285 288.5,-285 282.5,-285 276.5,-279 276.5,-273 276.5,-273 276.5,-261 276.5,-261 276.5,-255 282.5,-249 288.5,-249 288.5,-249 363.5,-249 363.5,-249 369.5,-249 375.5,-255 375.5,-261 375.5,-261 375.5,-273 375.5,-273 375.5,-279 369.5,-285 363.5,-285"/>
<text text-anchor="middle" x="326" y="-263.3" font-family="Times,serif" font-size="14.00" fill="#cdd9e5">POST /apps</text>
</g>
<!-- Accepted -->
<g id="node4" class="node">
<title>Accepted</title>
<path fill="#634c23" stroke="black" d="M355,-69C355,-69 297,-69 297,-69 291,-69 285,-63 285,-57 285,-57 285,-45 285,-45 285,-39 291,-33 297,-33 297,-33 355,-33 355,-33 361,-33 367,-39 367,-45 367,-45 367,-57 367,-57 367,-63 361,-69 355,-69"/>
<text text-anchor="middle" x="326" y="-47.3" font-family="Times,serif" font-size="14.00" fill="#cdd9e5">Accepted</text>
</g>
<!-- POST /apps&#45;&gt;Accepted -->
<g id="edge3" class="edge">
<title>POST /apps&#45;&gt;Accepted</title>
<path fill="none" stroke="#d8a436" d="M326,-248.85C326,-211.83 326,-124.18 326,-79.39"/>
<polygon fill="#d8a436" stroke="#d8a436" points="329.5,-79.23 326,-69.23 322.5,-79.23 329.5,-79.23"/>
</g>
<!-- POST /apps&#45;&gt;BadRequest -->
<g id="edge4" class="edge">
<title>POST /apps&#45;&gt;BadRequest</title>
<path fill="none" stroke="#d8a436" d="M315.66,-248.85C293.11,-211.44 239.39,-122.32 212.66,-77.98"/>
<polygon fill="#d8a436" stroke="#d8a436" points="215.55,-75.99 207.39,-69.23 209.55,-79.6 215.55,-75.99"/>
</g>
<!-- macaroonAuth -->
<g id="node6" class="node">
<title>macaroonAuth</title>
<path fill="#6b3940" stroke="black" d="M533,-69C533,-69 437,-69 437,-69 431,-69 425,-63 425,-57 425,-57 425,-45 425,-45 425,-39 431,-33 437,-33 437,-33 533,-33 533,-33 539,-33 545,-39 545,-45 545,-45 545,-57 545,-57 545,-63 539,-69 533,-69"/>
<text text-anchor="middle" x="485" y="-47.3" font-family="Times,serif" font-size="14.00" fill="#cdd9e5">macaroonAuth</text>
</g>
<!-- POST /apps&#45;&gt;macaroonAuth -->
<g id="edge5" class="edge">
<title>POST /apps&#45;&gt;macaroonAuth</title>
<path fill="none" stroke="#e26a77" d="M338.74,-248.85C366.65,-211.28 433.31,-121.58 466.11,-77.43"/>
<polygon fill="#e26a77" stroke="#e26a77" points="469.04,-79.35 472.2,-69.23 463.42,-75.17 469.04,-79.35"/>
</g>
</g>
</svg>
