<?xml version="1.0" encoding="UTF-8" standalone="no"?>
<!DOCTYPE svg PUBLIC "-//W3C//DTD SVG 1.1//EN"
 "http://www.w3.org/Graphics/SVG/1.1/DTD/svg11.dtd">
<!-- Generated by graphviz version 2.43.0 (0)
 -->
<!-- Title: OpenAPI_Dependencies Pages: 1 -->
<svg width="670pt" height="349pt"
 viewBox="0.00 0.00 670.00 349.00" xmlns="http://www.w3.org/2000/svg" xmlns:xlink="http://www.w3.org/1999/xlink">
<g id="graph0" class="graph" transform="scale(1 1) rotate(0) translate(4 345)">
<title>OpenAPI_Dependencies</title>
<polygon fill="#2d333b" stroke="transparent" points="-4,4 -4,-345 666,-345 666,4 -4,4"/>
<g id="clust1" class="cluster">
<title>cluster_endpoints</title>
<polygon fill="#2d333b" stroke="#cdd9e5" points="8,-224 8,-333 654,-333 654,-224 8,-224"/>
<text text-anchor="middle" x="331" y="-317.8" font-family="Times,serif" font-size="14.00" fill="#cdd9e5">Endpoints &#45; Assertions</text>
</g>
<g id="clust2" class="cluster">
<title>cluster_responses</title>
<polygon fill="#2d333b" stroke="#cdd9e5" points="311,-8 311,-117 465,-117 465,-8 311,-8"/>
<text text-anchor="middle" x="388" y="-101.8" font-family="Times,serif" font-size="14.00" fill="#cdd9e5">Responses</text>
</g>
<g id="clust3" class="cluster">
<title>cluster_security</title>
<polygon fill="#2d333b" stroke="#cdd9e5" points="474,-8 474,-117 644,-117 644,-8 474,-8"/>
<text text-anchor="middle" x="559" y="-101.8" font-family="Times,serif" font-size="14.00" fill="#cdd9e5">Security</text>
</g>
<!-- GET /assertions -->
<g id="node1" class="node">
<title>GET /assertions</title>
<path fill="#37516b" stroke="black" d="M441,-285C441,-285 335,-285 335,-285 329,-285 323,-279 323,-273 323,-273 323,-261 323,-261 323,-255 329,-249 335,-249 335,-249 441,-249 441,-249 447,-249 453,-255 453,-261 453,-261 453,-273 453,-273 453,-279 447,-285 441,-285"/>
<text text-anchor="middle" x="388" y="-263.3" font-family="Times,serif" font-size="14.00" fill="#cdd9e5">GET /assertions</text>
</g>
<!-- BadRequest -->
<g id="node4" class="node">
<title>BadRequest</title>
<path fill="#634c23" stroke="black" d="M427.5,-69C427.5,-69 348.5,-69 348.5,-69 342.5,-69 336.5,-63 336.5,-57 336.5,-57 336.5,-45 336.5,-45 336.5,-39 342.5,-33 348.5,-33 348.5,-33 427.5,-33 427.5,-33 433.5,-33 439.5,-39 439.5,-45 439.5,-45 439.5,-57 439.5,-57 439.5,-63 433.5,-69 427.5,-69"/>
<text text-anchor="middle" x="388" y="-47.3" font-family="Times,serif" font-size="14.00" fill="#cdd9e5">BadRequest</text>
</g>
<!-- GET /assertions&#45;&gt;BadRequest -->
<g id="edge1" class="edge">
<title>GET /assertions&#45;&gt;BadRequest</title>
<path fill="none" stroke="#d8a436" d="M388,-248.85C388,-211.83 388,-124.18 388,-79.39"/>
<polygon fill="#d8a436" stroke="#d8a436" points="391.5,-79.23 388,-69.23 384.5,-79.23 391.5,-79.23"/>
</g>
<!-- GET /assertions/{assertionType} -->
<g id="node2" class="node">
<title>GET /assertions/{assertionType}</title>
<path fill="#37516b" stroke="black" d="M274.5,-285C274.5,-285 45.5,-285 45.5,-285 39.5,-285 33.5,-279 33.5,-273 33.5,-273 33.5,-261 33.5,-261 33.5,-255 39.5,-249 45.5,-249 45.5,-249 274.5,-249 274.5,-249 280.5,-249 286.5,-255 286.5,-261 286.5,-261 286.5,-273 286.5,-273 286.5,-279 280.5,-285 274.5,-285"/>
<text text-anchor="middle" x="160" y="-263.3" font-family="Times,serif" font-size="14.00" fill="#cdd9e5">GET /assertions/{assertionType}</text>
</g>
<!-- GET /assertions/{assertionType}&#45;&gt;BadRequest -->
<g id="edge2" class="edge">
<title>GET /assertions/{assertionType}&#45;&gt;BadRequest</title>
<path fill="none" stroke="#d8a436" d="M178.27,-248.85C218.63,-210.97 315.47,-120.08 362.08,-76.33"/>
<polygon fill="#d8a436" stroke="#d8a436" points="364.74,-78.63 369.64,-69.23 359.95,-73.52 364.74,-78.63"/>
</g>
<!-- POST /assertions -->
<g id="node3" class="node">
<title>POST /assertions</title>
<path fill="#37516b" stroke="black" d="M616.5,-285C616.5,-285 501.5,-285 501.5,-285 495.5,-285 489.5,-279 489.5,-273 489.5,-273 489.5,-261 489.5,-261 489.5,-255 495.5,-249 501.5,-249 501.5,-249 616.5,-249 616.5,-249 622.5,-249 628.5,-255 628.5,-261 628.5,-261 628.5,-273 628.5,-273 628.5,-279 622.5,-285 616.5,-285"/>
<text text-anchor="middle" x="559" y="-263.3" font-family="Times,serif" font-size="14.00" fill="#cdd9e5">POST /assertions</text>
</g>
<!-- POST /assertions&#45;&gt;BadRequest -->
<g id="edge3" class="edge">
<title>POST /assertions&#45;&gt;BadRequest</title>
<path fill="none" stroke="#d8a436" d="M545.3,-248.85C515.22,-211.21 443.3,-121.2 408.1,-77.15"/>
<polygon fill="#d8a436" stroke="#d8a436" points="410.75,-74.86 401.77,-69.23 405.28,-79.23 410.75,-74.86"/>
</g>
<!-- macaroonAuth -->
<g id="node5" class="node">
<title>macaroonAuth</title>
<path fill="#6b3940" stroke="black" d="M607,-69C607,-69 511,-69 511,-69 505,-69 499,-63 499,-57 499,-57 499,-45 499,-45 499,-39 505,-33 511,-33 511,-33 607,-33 607,-33 613,-33 619,-39 619,-45 619,-45 619,-57 619,-57 619,-63 613,-69 607,-69"/>
<text text-anchor="middle" x="559" y="-47.3" font-family="Times,serif" font-size="14.00" fill="#cdd9e5">macaroonAuth</text>
</g>
<!-- POST /assertions&#45;&gt;macaroonAuth -->
<g id="edge4" class="edge">
<title>POST /assertions&#45;&gt;macaroonAuth</title>
<path fill="none" stroke="#e26a77" d="M559,-248.85C559,-211.83 559,-124.18 559,-79.39"/>
<polygon fill="#e26a77" stroke="#e26a77" points="562.5,-79.23 559,-69.23 555.5,-79.23 562.5,-79.23"/>
</g>
</g>
</svg>
