<?xml version="1.0" encoding="UTF-8" standalone="no"?>
<!DOCTYPE svg PUBLIC "-//W3C//DTD SVG 1.1//EN"
 "http://www.w3.org/Graphics/SVG/1.1/DTD/svg11.dtd">
<!-- Generated by graphviz version 2.43.0 (0)
 -->
<!-- Title: OpenAPI_Dependencies Pages: 1 -->
<svg width="2363pt" height="349pt"
 viewBox="0.00 0.00 2363.00 349.00" xmlns="http://www.w3.org/2000/svg" xmlns:xlink="http://www.w3.org/1999/xlink">
<g id="graph0" class="graph" transform="scale(1 1) rotate(0) translate(4 345)">
<title>OpenAPI_Dependencies</title>
<polygon fill="#2d333b" stroke="transparent" points="-4,4 -4,-345 2359,-345 2359,4 -4,4"/>
<g id="clust1" class="cluster">
<title>cluster_endpoints</title>
<polygon fill="#2d333b" stroke="#cdd9e5" points="8,-224 8,-333 2347,-333 2347,-224 8,-224"/>
<text text-anchor="middle" x="1177.5" y="-317.8" font-family="Times,serif" font-size="14.00" fill="#cdd9e5">Endpoints &#45; Async</text>
</g>
<g id="clust2" class="cluster">
<title>cluster_schemas</title>
<polygon fill="#2d333b" stroke="#cdd9e5" points="2188,-8 2188,-117 2342,-117 2342,-8 2188,-8"/>
<text text-anchor="middle" x="2265" y="-101.8" font-family="Times,serif" font-size="14.00" fill="#cdd9e5">Schemas</text>
</g>
<g id="clust3" class="cluster">
<title>cluster_responses</title>
<polygon fill="#2d333b" stroke="#cdd9e5" points="674,-8 674,-117 946,-117 946,-8 674,-8"/>
<text text-anchor="middle" x="810" y="-101.8" font-family="Times,serif" font-size="14.00" fill="#cdd9e5">Responses</text>
</g>
<g id="clust4" class="cluster">
<title>cluster_security</title>
<polygon fill="#2d333b" stroke="#cdd9e5" points="954,-8 954,-117 1124,-117 1124,-8 954,-8"/>
<text text-anchor="middle" x="1039" y="-101.8" font-family="Times,serif" font-size="14.00" fill="#cdd9e5">Security</text>
</g>
<!-- GET /confdb/{account}/{confdb&#45;schema}/{view} -->
<g id="node1" class="node">
<title>GET /confdb/{account}/{confdb&#45;schema}/{view}</title>
<path fill="#37516b" stroke="black" d="M1324.5,-285C1324.5,-285 981.5,-285 981.5,-285 975.5,-285 969.5,-279 969.5,-273 969.5,-273 969.5,-261 969.5,-261 969.5,-255 975.5,-249 981.5,-249 981.5,-249 1324.5,-249 1324.5,-249 1330.5,-249 1336.5,-255 1336.5,-261 1336.5,-261 1336.5,-273 1336.5,-273 1336.5,-279 1330.5,-285 1324.5,-285"/>
<text text-anchor="middle" x="1153" y="-263.3" font-family="Times,serif" font-size="14.00" fill="#cdd9e5">GET /confdb/{account}/{confdb&#45;schema}/{view}</text>
</g>
<!-- Accepted -->
<g id="node13" class="node">
<title>Accepted</title>
<path fill="#634c23" stroke="black" d="M769,-69C769,-69 711,-69 711,-69 705,-69 699,-63 699,-57 699,-57 699,-45 699,-45 699,-39 705,-33 711,-33 711,-33 769,-33 769,-33 775,-33 781,-39 781,-45 781,-45 781,-57 781,-57 781,-63 775,-69 769,-69"/>
<text text-anchor="middle" x="740" y="-47.3" font-family="Times,serif" font-size="14.00" fill="#cdd9e5">Accepted</text>
</g>
<!-- GET /confdb/{account}/{confdb&#45;schema}/{view}&#45;&gt;Accepted -->
<g id="edge1" class="edge">
<title>GET /confdb/{account}/{confdb&#45;schema}/{view}&#45;&gt;Accepted</title>
<path fill="none" stroke="#d8a436" d="M1091.91,-248.96C1018.21,-226.51 892.67,-182.1 800,-117 784.29,-105.96 769.61,-90.2 758.7,-76.96"/>
<polygon fill="#d8a436" stroke="#d8a436" points="761.4,-74.73 752.42,-69.11 755.94,-79.1 761.4,-74.73"/>
</g>
<!-- BadRequest -->
<g id="node14" class="node">
<title>BadRequest</title>
<path fill="#634c23" stroke="black" d="M908.5,-69C908.5,-69 829.5,-69 829.5,-69 823.5,-69 817.5,-63 817.5,-57 817.5,-57 817.5,-45 817.5,-45 817.5,-39 823.5,-33 829.5,-33 829.5,-33 908.5,-33 908.5,-33 914.5,-33 920.5,-39 920.5,-45 920.5,-45 920.5,-57 920.5,-57 920.5,-63 914.5,-69 908.5,-69"/>
<text text-anchor="middle" x="869" y="-47.3" font-family="Times,serif" font-size="14.00" fill="#cdd9e5">BadRequest</text>
</g>
<!-- GET /confdb/{account}/{confdb&#45;schema}/{view}&#45;&gt;BadRequest -->
<g id="edge2" class="edge">
<title>GET /confdb/{account}/{confdb&#45;schema}/{view}&#45;&gt;BadRequest</title>
<path fill="none" stroke="#d8a436" d="M1127.52,-248.79C1087.78,-221.73 1008.99,-167.13 945,-117 928.16,-103.81 909.93,-88.26 895.55,-75.68"/>
<polygon fill="#d8a436" stroke="#d8a436" points="897.81,-73.01 887.98,-69.03 893.18,-78.26 897.81,-73.01"/>
</g>
<!-- macaroonAuth -->
<g id="node15" class="node">
<title>macaroonAuth</title>
<path fill="#6b3940" stroke="black" d="M1087,-69C1087,-69 991,-69 991,-69 985,-69 979,-63 979,-57 979,-57 979,-45 979,-45 979,-39 985,-33 991,-33 991,-33 1087,-33 1087,-33 1093,-33 1099,-39 1099,-45 1099,-45 1099,-57 1099,-57 1099,-63 1093,-69 1087,-69"/>
<text text-anchor="middle" x="1039" y="-47.3" font-family="Times,serif" font-size="14.00" fill="#cdd9e5">macaroonAuth</text>
</g>
<!-- GET /confdb/{account}/{confdb&#45;schema}/{view}&#45;&gt;macaroonAuth -->
<g id="edge3" class="edge">
<title>GET /confdb/{account}/{confdb&#45;schema}/{view}&#45;&gt;macaroonAuth</title>
<path fill="none" stroke="#e26a77" d="M1143.86,-248.85C1123.98,-211.52 1076.66,-122.69 1052.99,-78.26"/>
<polygon fill="#e26a77" stroke="#e26a77" points="1055.97,-76.41 1048.18,-69.23 1049.79,-79.7 1055.97,-76.41"/>
</g>
<!-- POST /aliases -->
<g id="node2" class="node">
<title>POST /aliases</title>
<path fill="#37516b" stroke="black" d="M921,-285C921,-285 831,-285 831,-285 825,-285 819,-279 819,-273 819,-273 819,-261 819,-261 819,-255 825,-249 831,-249 831,-249 921,-249 921,-249 927,-249 933,-255 933,-261 933,-261 933,-273 933,-273 933,-279 927,-285 921,-285"/>
<text text-anchor="middle" x="876" y="-263.3" font-family="Times,serif" font-size="14.00" fill="#cdd9e5">POST /aliases</text>
</g>
<!-- POST /aliases&#45;&gt;Accepted -->
<g id="edge4" class="edge">
<title>POST /aliases&#45;&gt;Accepted</title>
<path fill="none" stroke="#d8a436" d="M865.1,-248.85C841.28,-211.36 784.45,-121.95 756.33,-77.7"/>
<polygon fill="#d8a436" stroke="#d8a436" points="759.27,-75.8 750.95,-69.23 753.36,-79.55 759.27,-75.8"/>
</g>
<!-- POST /aliases&#45;&gt;BadRequest -->
<g id="edge5" class="edge">
<title>POST /aliases&#45;&gt;BadRequest</title>
<path fill="none" stroke="#d8a436" d="M875.44,-248.85C874.23,-211.83 871.36,-124.18 869.9,-79.39"/>
<polygon fill="#d8a436" stroke="#d8a436" points="873.39,-79.11 869.56,-69.23 866.39,-79.34 873.39,-79.11"/>
</g>
<!-- POST /aliases&#45;&gt;macaroonAuth -->
<g id="edge6" class="edge">
<title>POST /aliases&#45;&gt;macaroonAuth</title>
<path fill="none" stroke="#e26a77" d="M889.06,-248.85C917.68,-211.28 986.01,-121.58 1019.63,-77.43"/>
<polygon fill="#e26a77" stroke="#e26a77" points="1022.6,-79.31 1025.87,-69.23 1017.03,-75.07 1022.6,-79.31"/>
</g>
<!-- POST /apps -->
<g id="node3" class="node">
<title>POST /apps</title>
<path fill="#37516b" stroke="black" d="M770.5,-285C770.5,-285 695.5,-285 695.5,-285 689.5,-285 683.5,-279 683.5,-273 683.5,-273 683.5,-261 683.5,-261 683.5,-255 689.5,-249 695.5,-249 695.5,-249 770.5,-249 770.5,-249 776.5,-249 782.5,-255 782.5,-261 782.5,-261 782.5,-273 782.5,-273 782.5,-279 776.5,-285 770.5,-285"/>
<text text-anchor="middle" x="733" y="-263.3" font-family="Times,serif" font-size="14.00" fill="#cdd9e5">POST /apps</text>
</g>
<!-- POST /apps&#45;&gt;Accepted -->
<g id="edge7" class="edge">
<title>POST /apps&#45;&gt;Accepted</title>
<path fill="none" stroke="#d8a436" d="M733.56,-248.85C734.77,-211.83 737.64,-124.18 739.1,-79.39"/>
<polygon fill="#d8a436" stroke="#d8a436" points="742.61,-79.34 739.44,-69.23 735.61,-79.11 742.61,-79.34"/>
</g>
<!-- POST /apps&#45;&gt;BadRequest -->
<g id="edge8" class="edge">
<title>POST /apps&#45;&gt;BadRequest</title>
<path fill="none" stroke="#d8a436" d="M743.9,-248.85C767.72,-211.36 824.55,-121.95 852.67,-77.7"/>
<polygon fill="#d8a436" stroke="#d8a436" points="855.64,-79.55 858.05,-69.23 849.73,-75.8 855.64,-79.55"/>
</g>
<!-- POST /apps&#45;&gt;macaroonAuth -->
<g id="edge9" class="edge">
<title>POST /apps&#45;&gt;macaroonAuth</title>
<path fill="none" stroke="#e26a77" d="M759.71,-248.91C801.81,-221.78 885.92,-166.83 955,-117 973.47,-103.68 993.66,-88.09 1009.62,-75.51"/>
<polygon fill="#e26a77" stroke="#e26a77" points="1011.88,-78.19 1017.55,-69.24 1007.53,-72.7 1011.88,-78.19"/>
</g>
<!-- POST /interfaces -->
<g id="node4" class="node">
<title>POST /interfaces</title>
<path fill="#37516b" stroke="black" d="M635.5,-285C635.5,-285 522.5,-285 522.5,-285 516.5,-285 510.5,-279 510.5,-273 510.5,-273 510.5,-261 510.5,-261 510.5,-255 516.5,-249 522.5,-249 522.5,-249 635.5,-249 635.5,-249 641.5,-249 647.5,-255 647.5,-261 647.5,-261 647.5,-273 647.5,-273 647.5,-279 641.5,-285 635.5,-285"/>
<text text-anchor="middle" x="579" y="-263.3" font-family="Times,serif" font-size="14.00" fill="#cdd9e5">POST /interfaces</text>
</g>
<!-- POST /interfaces&#45;&gt;Accepted -->
<g id="edge10" class="edge">
<title>POST /interfaces&#45;&gt;Accepted</title>
<path fill="none" stroke="#d8a436" d="M591.9,-248.85C620.16,-211.28 687.66,-121.58 720.87,-77.43"/>
<polygon fill="#d8a436" stroke="#d8a436" points="723.82,-79.33 727.04,-69.23 718.23,-75.12 723.82,-79.33"/>
</g>
<!-- POST /interfaces&#45;&gt;BadRequest -->
<g id="edge11" class="edge">
<title>POST /interfaces&#45;&gt;BadRequest</title>
<path fill="none" stroke="#d8a436" d="M607.05,-248.95C649.82,-222.52 733.29,-169.26 799,-117 814.95,-104.32 831.72,-88.83 844.84,-76.16"/>
<polygon fill="#d8a436" stroke="#d8a436" points="847.4,-78.55 852.11,-69.06 842.51,-73.54 847.4,-78.55"/>
</g>
<!-- POST /interfaces&#45;&gt;macaroonAuth -->
<g id="edge12" class="edge">
<title>POST /interfaces&#45;&gt;macaroonAuth</title>
<path fill="none" stroke="#e26a77" d="M612.54,-248.89C628.56,-240.95 648.1,-231.62 666,-224 792.04,-170.39 835.24,-183.45 955,-117 975.73,-105.5 996.83,-89.15 1012.7,-75.73"/>
<polygon fill="#e26a77" stroke="#e26a77" points="1015.19,-78.2 1020.49,-69.02 1010.63,-72.89 1015.19,-78.2"/>
</g>
<!-- POST /model -->
<g id="node5" class="node">
<title>POST /model</title>
<path fill="#37516b" stroke="black" d="M462.5,-285C462.5,-285 377.5,-285 377.5,-285 371.5,-285 365.5,-279 365.5,-273 365.5,-273 365.5,-261 365.5,-261 365.5,-255 371.5,-249 377.5,-249 377.5,-249 462.5,-249 462.5,-249 468.5,-249 474.5,-255 474.5,-261 474.5,-261 474.5,-273 474.5,-273 474.5,-279 468.5,-285 462.5,-285"/>
<text text-anchor="middle" x="420" y="-263.3" font-family="Times,serif" font-size="14.00" fill="#cdd9e5">POST /model</text>
</g>
<!-- POST /model&#45;&gt;Accepted -->
<g id="edge13" class="edge">
<title>POST /model&#45;&gt;Accepted</title>
<path fill="none" stroke="#d8a436" d="M445.65,-248.85C502.87,-210.58 641.02,-118.19 705.62,-74.99"/>
<polygon fill="#d8a436" stroke="#d8a436" points="707.86,-77.7 714.23,-69.23 703.97,-71.88 707.86,-77.7"/>
</g>
<!-- POST /model&#45;&gt;BadRequest -->
<g id="edge14" class="edge">
<title>POST /model&#45;&gt;BadRequest</title>
<path fill="none" stroke="#d8a436" d="M447.09,-248.8C460.58,-240.66 477.31,-231.18 493,-224 624,-164.04 675.6,-191.37 799,-117 817.05,-106.12 834.42,-90.03 847.35,-76.58"/>
<polygon fill="#d8a436" stroke="#d8a436" points="850.14,-78.72 854.42,-69.02 845.03,-73.94 850.14,-78.72"/>
</g>
<!-- POST /model&#45;&gt;macaroonAuth -->
<g id="edge15" class="edge">
<title>POST /model&#45;&gt;macaroonAuth</title>
<path fill="none" stroke="#e26a77" d="M445.42,-248.89C459.04,-240.38 476.4,-230.53 493,-224 689.13,-146.83 764.58,-207.36 955,-117 976.7,-106.7 998.07,-90.05 1013.83,-76.18"/>
<polygon fill="#e26a77" stroke="#e26a77" points="1016.45,-78.53 1021.53,-69.23 1011.76,-73.33 1016.45,-78.53"/>
</g>
<!-- POST /model/serial -->
<g id="node6" class="node">
<title>POST /model/serial</title>
<path fill="#37516b" stroke="black" d="M317.5,-285C317.5,-285 188.5,-285 188.5,-285 182.5,-285 176.5,-279 176.5,-273 176.5,-273 176.5,-261 176.5,-261 176.5,-255 182.5,-249 188.5,-249 188.5,-249 317.5,-249 317.5,-249 323.5,-249 329.5,-255 329.5,-261 329.5,-261 329.5,-273 329.5,-273 329.5,-279 323.5,-285 317.5,-285"/>
<text text-anchor="middle" x="253" y="-263.3" font-family="Times,serif" font-size="14.00" fill="#cdd9e5">POST /model/serial</text>
</g>
<!-- POST /model/serial&#45;&gt;Accepted -->
<g id="edge16" class="edge">
<title>POST /model/serial&#45;&gt;Accepted</title>
<path fill="none" stroke="#d8a436" d="M290.93,-248.97C308.05,-241.31 328.53,-232.17 347,-224 470.69,-169.3 616.66,-105.65 691.05,-73.28"/>
<polygon fill="#d8a436" stroke="#d8a436" points="692.86,-76.31 700.63,-69.11 690.06,-69.89 692.86,-76.31"/>
</g>
<!-- POST /model/serial&#45;&gt;BadRequest -->
<g id="edge17" class="edge">
<title>POST /model/serial&#45;&gt;BadRequest</title>
<path fill="none" stroke="#d8a436" d="M287.2,-248.86C304.76,-240.53 326.68,-230.88 347,-224 542.55,-157.82 616.89,-214.23 799,-117 817.83,-106.94 835.43,-90.57 848.26,-76.77"/>
<polygon fill="#d8a436" stroke="#d8a436" points="851.16,-78.78 855.25,-69 845.96,-74.1 851.16,-78.78"/>
</g>
<!-- POST /model/serial&#45;&gt;macaroonAuth -->
<g id="edge18" class="edge">
<title>POST /model/serial&#45;&gt;macaroonAuth</title>
<path fill="none" stroke="#e26a77" d="M285.73,-248.98C303.46,-240.39 325.98,-230.44 347,-224 609.35,-143.65 704.07,-227.97 955,-117 977.12,-107.22 998.62,-90.4 1014.33,-76.32"/>
<polygon fill="#e26a77" stroke="#e26a77" points="1017.01,-78.61 1021.99,-69.26 1012.26,-73.47 1017.01,-78.61"/>
</g>
<!-- POST /quotas -->
<g id="node7" class="node">
<title>POST /quotas</title>
<path fill="#37516b" stroke="black" d="M2309.5,-285C2309.5,-285 2220.5,-285 2220.5,-285 2214.5,-285 2208.5,-279 2208.5,-273 2208.5,-273 2208.5,-261 2208.5,-261 2208.5,-255 2214.5,-249 2220.5,-249 2220.5,-249 2309.5,-249 2309.5,-249 2315.5,-249 2321.5,-255 2321.5,-261 2321.5,-261 2321.5,-273 2321.5,-273 2321.5,-279 2315.5,-285 2309.5,-285"/>
<text text-anchor="middle" x="2265" y="-263.3" font-family="Times,serif" font-size="14.00" fill="#cdd9e5">POST /quotas</text>
</g>
<!-- QuotaGroup -->
<g id="node12" class="node">
<title>QuotaGroup</title>
<path fill="#345a3f" stroke="black" d="M2305,-69C2305,-69 2225,-69 2225,-69 2219,-69 2213,-63 2213,-57 2213,-57 2213,-45 2213,-45 2213,-39 2219,-33 2225,-33 2225,-33 2305,-33 2305,-33 2311,-33 2317,-39 2317,-45 2317,-45 2317,-57 2317,-57 2317,-63 2311,-69 2305,-69"/>
<text text-anchor="middle" x="2265" y="-47.3" font-family="Times,serif" font-size="14.00" fill="#cdd9e5">QuotaGroup</text>
</g>
<!-- POST /quotas&#45;&gt;QuotaGroup -->
<g id="edge21" class="edge">
<title>POST /quotas&#45;&gt;QuotaGroup</title>
<path fill="none" stroke="#53b668" d="M2265,-248.85C2265,-211.83 2265,-124.18 2265,-79.39"/>
<polygon fill="#53b668" stroke="#53b668" points="2268.5,-79.23 2265,-69.23 2261.5,-79.23 2268.5,-79.23"/>
</g>
<!-- POST /quotas&#45;&gt;Accepted -->
<g id="edge19" class="edge">
<title>POST /quotas&#45;&gt;Accepted</title>
<path fill="none" stroke="#d8a436" d="M2241.23,-248.93C2227.29,-239.86 2208.94,-229.48 2191,-224 1894.5,-133.42 1079.02,-252.15 800,-117 782.14,-108.35 767.03,-91.88 756.44,-77.68"/>
<polygon fill="#d8a436" stroke="#d8a436" points="759.08,-75.36 750.44,-69.23 753.37,-79.41 759.08,-75.36"/>
</g>
<!-- POST /quotas&#45;&gt;BadRequest -->
<g id="edge20" class="edge">
<title>POST /quotas&#45;&gt;BadRequest</title>
<path fill="none" stroke="#d8a436" d="M2241.22,-248.99C2227.27,-239.94 2208.92,-229.56 2191,-224 1660.16,-59.24 1457.67,-331.7 945,-117 923.92,-108.17 904.43,-91.24 890.46,-76.87"/>
<polygon fill="#d8a436" stroke="#d8a436" points="892.68,-74.12 883.29,-69.22 887.57,-78.91 892.68,-74.12"/>
</g>
<!-- POST /quotas&#45;&gt;macaroonAuth -->
<g id="edge22" class="edge">
<title>POST /quotas&#45;&gt;macaroonAuth</title>
<path fill="none" stroke="#e26a77" d="M2240.41,-248.99C2226.51,-240.18 2208.46,-230.02 2191,-224 1797.72,-88.31 1292.53,-59.63 1109.31,-53.6"/>
<polygon fill="#e26a77" stroke="#e26a77" points="1109.37,-50.1 1099.27,-53.28 1109.15,-57.09 1109.37,-50.1"/>
</g>
<!-- POST /snaps -->
<g id="node8" class="node">
<title>POST /snaps</title>
<path fill="#37516b" stroke="black" d="M128.5,-285C128.5,-285 45.5,-285 45.5,-285 39.5,-285 33.5,-279 33.5,-273 33.5,-273 33.5,-261 33.5,-261 33.5,-255 39.5,-249 45.5,-249 45.5,-249 128.5,-249 128.5,-249 134.5,-249 140.5,-255 140.5,-261 140.5,-261 140.5,-273 140.5,-273 140.5,-279 134.5,-285 128.5,-285"/>
<text text-anchor="middle" x="87" y="-263.3" font-family="Times,serif" font-size="14.00" fill="#cdd9e5">POST /snaps</text>
</g>
<!-- POST /snaps&#45;&gt;Accepted -->
<g id="edge23" class="edge">
<title>POST /snaps&#45;&gt;Accepted</title>
<path fill="none" stroke="#d8a436" d="M112.48,-248.84C125.66,-240.52 142.24,-230.86 158,-224 346.6,-141.85 586.06,-84.96 689.09,-62.58"/>
<polygon fill="#d8a436" stroke="#d8a436" points="689.89,-65.99 698.92,-60.46 688.41,-59.15 689.89,-65.99"/>
</g>
<!-- POST /snaps&#45;&gt;BadRequest -->
<g id="edge24" class="edge">
<title>POST /snaps&#45;&gt;BadRequest</title>
<path fill="none" stroke="#d8a436" d="M110.86,-248.87C124.14,-240.13 141.32,-230.09 158,-224 429.34,-125.02 539.79,-244.42 799,-117 818.28,-107.52 835.98,-90.99 848.75,-76.97"/>
<polygon fill="#d8a436" stroke="#d8a436" points="851.72,-78.9 855.68,-69.07 846.45,-74.28 851.72,-78.9"/>
</g>
<!-- POST /snaps&#45;&gt;macaroonAuth -->
<g id="edge25" class="edge">
<title>POST /snaps&#45;&gt;macaroonAuth</title>
<path fill="none" stroke="#e26a77" d="M110.46,-248.87C123.76,-240.02 141.09,-229.87 158,-224 495.67,-106.9 625.26,-254.86 955,-117 977.46,-107.61 999.09,-90.62 1014.77,-76.37"/>
<polygon fill="#e26a77" stroke="#e26a77" points="1017.5,-78.61 1022.41,-69.22 1012.71,-73.5 1017.5,-78.61"/>
</g>
<!-- POST /snaps/{name} -->
<g id="node9" class="node">
<title>POST /snaps/{name}</title>
<path fill="#37516b" stroke="black" d="M1931,-285C1931,-285 1787,-285 1787,-285 1781,-285 1775,-279 1775,-273 1775,-273 1775,-261 1775,-261 1775,-255 1781,-249 1787,-249 1787,-249 1931,-249 1931,-249 1937,-249 1943,-255 1943,-261 1943,-261 1943,-273 1943,-273 1943,-279 1937,-285 1931,-285"/>
<text text-anchor="middle" x="1859" y="-263.3" font-family="Times,serif" font-size="14.00" fill="#cdd9e5">POST /snaps/{name}</text>
</g>
<!-- POST /snaps/{name}&#45;&gt;Accepted -->
<g id="edge26" class="edge">
<title>POST /snaps/{name}&#45;&gt;Accepted</title>
<path fill="none" stroke="#d8a436" d="M1824.42,-248.93C1805.05,-240.1 1780.19,-229.95 1757,-224 1342.42,-117.71 1181.89,-310.2 800,-117 782.3,-108.04 767.18,-91.57 756.55,-77.45"/>
<polygon fill="#d8a436" stroke="#d8a436" points="759.2,-75.14 750.53,-69.06 753.51,-79.22 759.2,-75.14"/>
</g>
<!-- POST /snaps/{name}&#45;&gt;BadRequest -->
<g id="edge27" class="edge">
<title>POST /snaps/{name}&#45;&gt;BadRequest</title>
<path fill="none" stroke="#d8a436" d="M1823.91,-248.9C1804.59,-240.17 1779.94,-230.12 1757,-224 1405.3,-130.13 1277.48,-265.19 945,-117 924.26,-107.76 904.88,-90.99 890.88,-76.81"/>
<polygon fill="#d8a436" stroke="#d8a436" points="893.11,-74.08 883.68,-69.25 888.04,-78.91 893.11,-74.08"/>
</g>
<!-- POST /snaps/{name}&#45;&gt;macaroonAuth -->
<g id="edge28" class="edge">
<title>POST /snaps/{name}&#45;&gt;macaroonAuth</title>
<path fill="none" stroke="#e26a77" d="M1821.26,-248.82C1802.25,-240.58 1778.68,-231.01 1757,-224 1524.27,-148.71 1239.53,-90.09 1109.65,-65.13"/>
<polygon fill="#e26a77" stroke="#e26a77" points="1109.92,-61.62 1099.44,-63.17 1108.61,-68.49 1109.92,-61.62"/>
</g>
<!-- PUT /confdb/{account}/{confdb&#45;schema}/{view} -->
<g id="node10" class="node">
<title>PUT /confdb/{account}/{confdb&#45;schema}/{view}</title>
<path fill="#37516b" stroke="black" d="M1727,-285C1727,-285 1385,-285 1385,-285 1379,-285 1373,-279 1373,-273 1373,-273 1373,-261 1373,-261 1373,-255 1379,-249 1385,-249 1385,-249 1727,-249 1727,-249 1733,-249 1739,-255 1739,-261 1739,-261 1739,-273 1739,-273 1739,-279 1733,-285 1727,-285"/>
<text text-anchor="middle" x="1556" y="-263.3" font-family="Times,serif" font-size="14.00" fill="#cdd9e5">PUT /confdb/{account}/{confdb&#45;schema}/{view}</text>
</g>
<!-- PUT /confdb/{account}/{confdb&#45;schema}/{view}&#45;&gt;Accepted -->
<g id="edge29" class="edge">
<title>PUT /confdb/{account}/{confdb&#45;schema}/{view}&#45;&gt;Accepted</title>
<path fill="none" stroke="#d8a436" d="M1475.86,-248.96C1439.06,-241.21 1394.84,-232 1355,-224 1108.71,-174.53 1019.5,-239.18 800,-117 782.89,-107.47 767.93,-91.31 757.24,-77.48"/>
<polygon fill="#d8a436" stroke="#d8a436" points="759.91,-75.21 751.14,-69.26 754.28,-79.37 759.91,-75.21"/>
</g>
<!-- PUT /confdb/{account}/{confdb&#45;schema}/{view}&#45;&gt;BadRequest -->
<g id="edge30" class="edge">
<title>PUT /confdb/{account}/{confdb&#45;schema}/{view}&#45;&gt;BadRequest</title>
<path fill="none" stroke="#d8a436" d="M1477.42,-248.98C1323.36,-215.3 992.47,-141.31 945,-117 925.05,-106.78 905.9,-90.34 891.81,-76.55"/>
<polygon fill="#d8a436" stroke="#d8a436" points="894.06,-73.85 884.53,-69.22 889.09,-78.78 894.06,-73.85"/>
</g>
<!-- PUT /confdb/{account}/{confdb&#45;schema}/{view}&#45;&gt;macaroonAuth -->
<g id="edge31" class="edge">
<title>PUT /confdb/{account}/{confdb&#45;schema}/{view}&#45;&gt;macaroonAuth</title>
<path fill="none" stroke="#e26a77" d="M1514.57,-248.85C1420.67,-209.98 1191.93,-115.3 1089.76,-73.01"/>
<polygon fill="#e26a77" stroke="#e26a77" points="1090.85,-69.67 1080.27,-69.08 1088.17,-76.14 1090.85,-69.67"/>
</g>
<!-- PUT /snaps/{name}/conf -->
<g id="node11" class="node">
<title>PUT /snaps/{name}/conf</title>
<path fill="#37516b" stroke="black" d="M2160.5,-285C2160.5,-285 1991.5,-285 1991.5,-285 1985.5,-285 1979.5,-279 1979.5,-273 1979.5,-273 1979.5,-261 1979.5,-261 1979.5,-255 1985.5,-249 1991.5,-249 1991.5,-249 2160.5,-249 2160.5,-249 2166.5,-249 2172.5,-255 2172.5,-261 2172.5,-261 2172.5,-273 2172.5,-273 2172.5,-279 2166.5,-285 2160.5,-285"/>
<text text-anchor="middle" x="2076" y="-263.3" font-family="Times,serif" font-size="14.00" fill="#cdd9e5">PUT /snaps/{name}/conf</text>
</g>
<!-- PUT /snaps/{name}/conf&#45;&gt;BadRequest -->
<g id="edge32" class="edge">
<title>PUT /snaps/{name}/conf&#45;&gt;BadRequest</title>
<path fill="none" stroke="#d8a436" d="M2036.81,-248.97C2014.91,-240.15 1986.88,-229.99 1961,-224 1518.65,-121.57 1362.1,-296.42 945,-117 924.01,-107.97 904.51,-91.04 890.52,-76.73"/>
<polygon fill="#d8a436" stroke="#d8a436" points="892.75,-73.98 883.34,-69.11 887.65,-78.78 892.75,-73.98"/>
</g>
<!-- PUT /snaps/{name}/conf&#45;&gt;macaroonAuth -->
<g id="edge33" class="edge">
<title>PUT /snaps/{name}/conf&#45;&gt;macaroonAuth</title>
<path fill="none" stroke="#e26a77" d="M2034.48,-248.95C2012.85,-240.55 1985.81,-230.79 1961,-224 1648.58,-138.44 1264.97,-81.99 1109.46,-61.08"/>
<polygon fill="#e26a77" stroke="#e26a77" points="1109.48,-57.55 1099.1,-59.69 1108.55,-64.49 1109.48,-57.55"/>
</g>
</g>
</svg>
