<?xml version="1.0" encoding="UTF-8" standalone="no"?>
<!DOCTYPE svg PUBLIC "-//W3C//DTD SVG 1.1//EN"
 "http://www.w3.org/Graphics/SVG/1.1/DTD/svg11.dtd">
<!-- Generated by graphviz version 2.43.0 (0)
 -->
<!-- Title: OpenAPI_Dependencies Pages: 1 -->
<svg width="609pt" height="349pt"
 viewBox="0.00 0.00 609.00 349.00" xmlns="http://www.w3.org/2000/svg" xmlns:xlink="http://www.w3.org/1999/xlink">
<g id="graph0" class="graph" transform="scale(1 1) rotate(0) translate(4 345)">
<title>OpenAPI_Dependencies</title>
<polygon fill="#2d333b" stroke="transparent" points="-4,4 -4,-345 605,-345 605,4 -4,4"/>
<g id="clust1" class="cluster">
<title>cluster_endpoints</title>
<polygon fill="#2d333b" stroke="#cdd9e5" points="14,-224 14,-333 564,-333 564,-224 14,-224"/>
<text text-anchor="middle" x="289" y="-317.8" font-family="Times,serif" font-size="14.00" fill="#cdd9e5">Endpoints &#45; Changes</text>
</g>
<g id="clust2" class="cluster">
<title>cluster_schemas</title>
<polygon fill="#2d333b" stroke="#cdd9e5" points="8,-8 8,-117 130,-117 130,-8 8,-8"/>
<text text-anchor="middle" x="69" y="-101.8" font-family="Times,serif" font-size="14.00" fill="#cdd9e5">Schemas</text>
</g>
<g id="clust3" class="cluster">
<title>cluster_responses</title>
<polygon fill="#2d333b" stroke="#cdd9e5" points="138,-8 138,-117 415,-117 415,-8 138,-8"/>
<text text-anchor="middle" x="276.5" y="-101.8" font-family="Times,serif" font-size="14.00" fill="#cdd9e5">Responses</text>
</g>
<g id="clust4" class="cluster">
<title>cluster_security</title>
<polygon fill="#2d333b" stroke="#cdd9e5" points="423,-8 423,-117 593,-117 593,-8 423,-8"/>
<text text-anchor="middle" x="508" y="-101.8" font-family="Times,serif" font-size="14.00" fill="#cdd9e5">Security</text>
</g>
<!-- GET /changes -->
<g id="node1" class="node">
<title>GET /changes</title>
<path fill="#37516b" stroke="black" d="M526.5,-285C526.5,-285 435.5,-285 435.5,-285 429.5,-285 423.5,-279 423.5,-273 423.5,-273 423.5,-261 423.5,-261 423.5,-255 429.5,-249 435.5,-249 435.5,-249 526.5,-249 526.5,-249 532.5,-249 538.5,-255 538.5,-261 538.5,-261 538.5,-273 538.5,-273 538.5,-279 532.5,-285 526.5,-285"/>
<text text-anchor="middle" x="481" y="-263.3" font-family="Times,serif" font-size="14.00" fill="#cdd9e5">GET /changes</text>
</g>
<!-- Change -->
<g id="node4" class="node">
<title>Change</title>
<path fill="#345a3f" stroke="black" d="M92.5,-69C92.5,-69 45.5,-69 45.5,-69 39.5,-69 33.5,-63 33.5,-57 33.5,-57 33.5,-45 33.5,-45 33.5,-39 39.5,-33 45.5,-33 45.5,-33 92.5,-33 92.5,-33 98.5,-33 104.5,-39 104.5,-45 104.5,-45 104.5,-57 104.5,-57 104.5,-63 98.5,-69 92.5,-69"/>
<text text-anchor="middle" x="69" y="-47.3" font-family="Times,serif" font-size="14.00" fill="#cdd9e5">Change</text>
</g>
<!-- GET /changes&#45;&gt;Change -->
<g id="edge2" class="edge">
<title>GET /changes&#45;&gt;Change</title>
<path fill="none" stroke="#53b668" d="M452.25,-248.91C438.23,-240.89 420.98,-231.47 405,-224 285.82,-168.28 237.76,-191.03 129,-117 113.12,-106.19 98.44,-90.44 87.58,-77.14"/>
<polygon fill="#53b668" stroke="#53b668" points="90.28,-74.92 81.33,-69.25 84.79,-79.26 90.28,-74.92"/>
</g>
<!-- BadRequest -->
<g id="node5" class="node">
<title>BadRequest</title>
<path fill="#634c23" stroke="black" d="M377.5,-69C377.5,-69 298.5,-69 298.5,-69 292.5,-69 286.5,-63 286.5,-57 286.5,-57 286.5,-45 286.5,-45 286.5,-39 292.5,-33 298.5,-33 298.5,-33 377.5,-33 377.5,-33 383.5,-33 389.5,-39 389.5,-45 389.5,-45 389.5,-57 389.5,-57 389.5,-63 383.5,-69 377.5,-69"/>
<text text-anchor="middle" x="338" y="-47.3" font-family="Times,serif" font-size="14.00" fill="#cdd9e5">BadRequest</text>
</g>
<!-- GET /changes&#45;&gt;BadRequest -->
<g id="edge1" class="edge">
<title>GET /changes&#45;&gt;BadRequest</title>
<path fill="none" stroke="#d8a436" d="M469.54,-248.85C444.49,-211.36 384.74,-121.95 355.18,-77.7"/>
<polygon fill="#d8a436" stroke="#d8a436" points="357.98,-75.6 349.52,-69.23 352.16,-79.49 357.98,-75.6"/>
</g>
<!-- macaroonAuth -->
<g id="node7" class="node">
<title>macaroonAuth</title>
<path fill="#6b3940" stroke="black" d="M556,-69C556,-69 460,-69 460,-69 454,-69 448,-63 448,-57 448,-57 448,-45 448,-45 448,-39 454,-33 460,-33 460,-33 556,-33 556,-33 562,-33 568,-39 568,-45 568,-45 568,-57 568,-57 568,-63 562,-69 556,-69"/>
<text text-anchor="middle" x="508" y="-47.3" font-family="Times,serif" font-size="14.00" fill="#cdd9e5">macaroonAuth</text>
</g>
<!-- GET /changes&#45;&gt;macaroonAuth -->
<g id="edge3" class="edge">
<title>GET /changes&#45;&gt;macaroonAuth</title>
<path fill="none" stroke="#e26a77" d="M483.16,-248.85C487.83,-211.83 498.89,-124.18 504.54,-79.39"/>
<polygon fill="#e26a77" stroke="#e26a77" points="508.05,-79.59 505.83,-69.23 501.1,-78.72 508.05,-79.59"/>
</g>
<!-- GET /changes/{id} -->
<g id="node2" class="node">
<title>GET /changes/{id}</title>
<path fill="#37516b" stroke="black" d="M178.5,-285C178.5,-285 51.5,-285 51.5,-285 45.5,-285 39.5,-279 39.5,-273 39.5,-273 39.5,-261 39.5,-261 39.5,-255 45.5,-249 51.5,-249 51.5,-249 178.5,-249 178.5,-249 184.5,-249 190.5,-255 190.5,-261 190.5,-261 190.5,-273 190.5,-273 190.5,-279 184.5,-285 178.5,-285"/>
<text text-anchor="middle" x="115" y="-263.3" font-family="Times,serif" font-size="14.00" fill="#cdd9e5">GET /changes/{id}</text>
</g>
<!-- GET /changes/{id}&#45;&gt;Change -->
<g id="edge4" class="edge">
<title>GET /changes/{id}&#45;&gt;Change</title>
<path fill="none" stroke="#53b668" d="M111.31,-248.85C103.34,-211.75 84.44,-123.81 74.83,-79.1"/>
<polygon fill="#53b668" stroke="#53b668" points="78.23,-78.27 72.7,-69.23 71.38,-79.74 78.23,-78.27"/>
</g>
<!-- NotFound -->
<g id="node6" class="node">
<title>NotFound</title>
<path fill="#634c23" stroke="black" d="M238.5,-69C238.5,-69 175.5,-69 175.5,-69 169.5,-69 163.5,-63 163.5,-57 163.5,-57 163.5,-45 163.5,-45 163.5,-39 169.5,-33 175.5,-33 175.5,-33 238.5,-33 238.5,-33 244.5,-33 250.5,-39 250.5,-45 250.5,-45 250.5,-57 250.5,-57 250.5,-63 244.5,-69 238.5,-69"/>
<text text-anchor="middle" x="207" y="-47.3" font-family="Times,serif" font-size="14.00" fill="#cdd9e5">NotFound</text>
</g>
<!-- GET /changes/{id}&#45;&gt;NotFound -->
<g id="edge5" class="edge">
<title>GET /changes/{id}&#45;&gt;NotFound</title>
<path fill="none" stroke="#d8a436" d="M122.37,-248.85C138.39,-211.6 176.45,-123.07 195.59,-78.54"/>
<polygon fill="#d8a436" stroke="#d8a436" points="198.86,-79.8 199.59,-69.23 192.43,-77.04 198.86,-79.8"/>
</g>
<!-- GET /changes/{id}&#45;&gt;macaroonAuth -->
<g id="edge6" class="edge">
<title>GET /changes/{id}&#45;&gt;macaroonAuth</title>
<path fill="none" stroke="#e26a77" d="M152.77,-248.99C223.92,-216.75 375.06,-147.27 424,-117 443.76,-104.78 464.43,-88.83 480.31,-75.8"/>
<polygon fill="#e26a77" stroke="#e26a77" points="482.7,-78.36 488.16,-69.28 478.23,-72.98 482.7,-78.36"/>
</g>
<!-- POST /changes/{id} -->
<g id="node3" class="node">
<title>POST /changes/{id}</title>
<path fill="#37516b" stroke="black" d="M375,-285C375,-285 239,-285 239,-285 233,-285 227,-279 227,-273 227,-273 227,-261 227,-261 227,-255 233,-249 239,-249 239,-249 375,-249 375,-249 381,-249 387,-255 387,-261 387,-261 387,-273 387,-273 387,-279 381,-285 375,-285"/>
<text text-anchor="middle" x="307" y="-263.3" font-family="Times,serif" font-size="14.00" fill="#cdd9e5">POST /changes/{id}</text>
</g>
<!-- POST /changes/{id}&#45;&gt;Change -->
<g id="edge8" class="edge">
<title>POST /changes/{id}&#45;&gt;Change</title>
<path fill="none" stroke="#53b668" d="M284.86,-248.97C250.41,-222.15 182.4,-167.87 129,-117 115.68,-104.31 101.69,-89.27 90.58,-76.85"/>
<polygon fill="#53b668" stroke="#53b668" points="92.98,-74.28 83.72,-69.12 87.74,-78.93 92.98,-74.28"/>
</g>
<!-- POST /changes/{id}&#45;&gt;BadRequest -->
<g id="edge7" class="edge">
<title>POST /changes/{id}&#45;&gt;BadRequest</title>
<path fill="none" stroke="#d8a436" d="M309.48,-248.85C314.85,-211.83 327.54,-124.18 334.03,-79.39"/>
<polygon fill="#d8a436" stroke="#d8a436" points="337.53,-79.63 335.5,-69.23 330.61,-78.63 337.53,-79.63"/>
</g>
<!-- POST /changes/{id}&#45;&gt;NotFound -->
<g id="edge9" class="edge">
<title>POST /changes/{id}&#45;&gt;NotFound</title>
<path fill="none" stroke="#d8a436" d="M298.99,-248.85C281.58,-211.6 240.21,-123.07 219.4,-78.54"/>
<polygon fill="#d8a436" stroke="#d8a436" points="222.46,-76.81 215.05,-69.23 216.12,-79.77 222.46,-76.81"/>
</g>
<!-- POST /changes/{id}&#45;&gt;macaroonAuth -->
<g id="edge10" class="edge">
<title>POST /changes/{id}&#45;&gt;macaroonAuth</title>
<path fill="none" stroke="#e26a77" d="M323.11,-248.85C358.61,-211.05 443.71,-120.45 484.89,-76.6"/>
<polygon fill="#e26a77" stroke="#e26a77" points="487.52,-78.92 491.81,-69.23 482.42,-74.13 487.52,-78.92"/>
</g>
</g>
</svg>
