<?xml version="1.0" encoding="UTF-8" standalone="no"?>
<!DOCTYPE svg PUBLIC "-//W3C//DTD SVG 1.1//EN"
 "http://www.w3.org/Graphics/SVG/1.1/DTD/svg11.dtd">
<!-- Generated by graphviz version 2.43.0 (0)
 -->
<!-- Title: OpenAPI_Dependencies Pages: 1 -->
<svg width="2696pt" height="349pt"
 viewBox="0.00 0.00 2696.00 349.00" xmlns="http://www.w3.org/2000/svg" xmlns:xlink="http://www.w3.org/1999/xlink">
<g id="graph0" class="graph" transform="scale(1 1) rotate(0) translate(4 345)">
<title>OpenAPI_Dependencies</title>
<polygon fill="#2d333b" stroke="transparent" points="-4,4 -4,-345 2692,-345 2692,4 -4,4"/>
<g id="clust1" class="cluster">
<title>cluster_endpoints</title>
<polygon fill="#2d333b" stroke="#cdd9e5" points="8,-224 8,-333 2680,-333 2680,-224 8,-224"/>
<text text-anchor="middle" x="1344" y="-317.8" font-family="Times,serif" font-size="14.00" fill="#cdd9e5">Endpoints &#45; Interfaces</text>
</g>
<g id="clust2" class="cluster">
<title>cluster_schemas</title>
<polygon fill="#2d333b" stroke="#cdd9e5" points="623,-8 623,-117 2093,-117 2093,-8 623,-8"/>
<text text-anchor="middle" x="1358" y="-101.8" font-family="Times,serif" font-size="14.00" fill="#cdd9e5">Schemas</text>
</g>
<g id="clust3" class="cluster">
<title>cluster_responses</title>
<polygon fill="#2d333b" stroke="#cdd9e5" points="2101,-8 2101,-117 2496,-117 2496,-8 2101,-8"/>
<text text-anchor="middle" x="2298.5" y="-101.8" font-family="Times,serif" font-size="14.00" fill="#cdd9e5">Responses</text>
</g>
<g id="clust4" class="cluster">
<title>cluster_security</title>
<polygon fill="#2d333b" stroke="#cdd9e5" points="2504,-8 2504,-117 2674,-117 2674,-8 2504,-8"/>
<text text-anchor="middle" x="2589" y="-101.8" font-family="Times,serif" font-size="14.00" fill="#cdd9e5">Security</text>
</g>
<!-- GET /connections -->
<g id="node1" class="node">
<title>GET /connections</title>
<path fill="#37516b" stroke="black" d="M2304.5,-285C2304.5,-285 2187.5,-285 2187.5,-285 2181.5,-285 2175.5,-279 2175.5,-273 2175.5,-273 2175.5,-261 2175.5,-261 2175.5,-255 2181.5,-249 2187.5,-249 2187.5,-249 2304.5,-249 2304.5,-249 2310.5,-249 2316.5,-255 2316.5,-261 2316.5,-261 2316.5,-273 2316.5,-273 2316.5,-279 2310.5,-285 2304.5,-285"/>
<text text-anchor="middle" x="2246" y="-263.3" font-family="Times,serif" font-size="14.00" fill="#cdd9e5">GET /connections</text>
</g>
<!-- ConnectionStatus -->
<g id="node12" class="node">
<title>ConnectionStatus</title>
<path fill="#345a3f" stroke="black" d="M1857.5,-69C1857.5,-69 1738.5,-69 1738.5,-69 1732.5,-69 1726.5,-63 1726.5,-57 1726.5,-57 1726.5,-45 1726.5,-45 1726.5,-39 1732.5,-33 1738.5,-33 1738.5,-33 1857.5,-33 1857.5,-33 1863.5,-33 1869.5,-39 1869.5,-45 1869.5,-45 1869.5,-57 1869.5,-57 1869.5,-63 1863.5,-69 1857.5,-69"/>
<text text-anchor="middle" x="1798" y="-47.3" font-family="Times,serif" font-size="14.00" fill="#cdd9e5">ConnectionStatus</text>
</g>
<!-- GET /connections&#45;&gt;ConnectionStatus -->
<g id="edge2" class="edge">
<title>GET /connections&#45;&gt;ConnectionStatus</title>
<path fill="none" stroke="#53b668" d="M2211.15,-248.94C2194.81,-241.1 2175.02,-231.83 2157,-224 2038.98,-172.74 2000.79,-178.92 1888,-117 1866.22,-105.04 1843.55,-88.65 1826.42,-75.31"/>
<polygon fill="#53b668" stroke="#53b668" points="1828.5,-72.5 1818.48,-69.05 1824.16,-77.99 1828.5,-72.5"/>
</g>
<!-- BadRequest -->
<g id="node21" class="node">
<title>BadRequest</title>
<path fill="#634c23" stroke="black" d="M2340.5,-69C2340.5,-69 2261.5,-69 2261.5,-69 2255.5,-69 2249.5,-63 2249.5,-57 2249.5,-57 2249.5,-45 2249.5,-45 2249.5,-39 2255.5,-33 2261.5,-33 2261.5,-33 2340.5,-33 2340.5,-33 2346.5,-33 2352.5,-39 2352.5,-45 2352.5,-45 2352.5,-57 2352.5,-57 2352.5,-63 2346.5,-69 2340.5,-69"/>
<text text-anchor="middle" x="2301" y="-47.3" font-family="Times,serif" font-size="14.00" fill="#cdd9e5">BadRequest</text>
</g>
<!-- GET /connections&#45;&gt;BadRequest -->
<g id="edge1" class="edge">
<title>GET /connections&#45;&gt;BadRequest</title>
<path fill="none" stroke="#d8a436" d="M2250.41,-248.85C2259.94,-211.75 2282.54,-123.81 2294.03,-79.1"/>
<polygon fill="#d8a436" stroke="#d8a436" points="2297.47,-79.79 2296.57,-69.23 2290.69,-78.05 2297.47,-79.79"/>
</g>
<!-- GET /interfaces -->
<g id="node2" class="node">
<title>GET /interfaces</title>
<path fill="#37516b" stroke="black" d="M2469,-285C2469,-285 2365,-285 2365,-285 2359,-285 2353,-279 2353,-273 2353,-273 2353,-261 2353,-261 2353,-255 2359,-249 2365,-249 2365,-249 2469,-249 2469,-249 2475,-249 2481,-255 2481,-261 2481,-261 2481,-273 2481,-273 2481,-279 2475,-285 2469,-285"/>
<text text-anchor="middle" x="2417" y="-263.3" font-family="Times,serif" font-size="14.00" fill="#cdd9e5">GET /interfaces</text>
</g>
<!-- ConnectionEndpoint -->
<g id="node11" class="node">
<title>ConnectionEndpoint</title>
<path fill="#345a3f" stroke="black" d="M2056,-69C2056,-69 1918,-69 1918,-69 1912,-69 1906,-63 1906,-57 1906,-57 1906,-45 1906,-45 1906,-39 1912,-33 1918,-33 1918,-33 2056,-33 2056,-33 2062,-33 2068,-39 2068,-45 2068,-45 2068,-57 2068,-57 2068,-63 2062,-69 2056,-69"/>
<text text-anchor="middle" x="1987" y="-47.3" font-family="Times,serif" font-size="14.00" fill="#cdd9e5">ConnectionEndpoint</text>
</g>
<!-- GET /interfaces&#45;&gt;ConnectionEndpoint -->
<g id="edge4" class="edge">
<title>GET /interfaces&#45;&gt;ConnectionEndpoint</title>
<path fill="none" stroke="#53b668" d="M2384.5,-248.8C2369.53,-241.02 2351.47,-231.83 2335,-224 2228.44,-173.3 2196.42,-171.97 2092,-117 2067.54,-104.13 2041.09,-87.73 2020.85,-74.63"/>
<polygon fill="#53b668" stroke="#53b668" points="2022.59,-71.59 2012.3,-69.05 2018.77,-77.45 2022.59,-71.59"/>
</g>
<!-- GET /interfaces&#45;&gt;BadRequest -->
<g id="edge3" class="edge">
<title>GET /interfaces&#45;&gt;BadRequest</title>
<path fill="none" stroke="#d8a436" d="M2407.7,-248.85C2387.47,-211.52 2339.32,-122.69 2315.23,-78.26"/>
<polygon fill="#d8a436" stroke="#d8a436" points="2318.18,-76.36 2310.34,-69.23 2312.03,-79.69 2318.18,-76.36"/>
</g>
<!-- macaroonAuth -->
<g id="node23" class="node">
<title>macaroonAuth</title>
<path fill="#6b3940" stroke="black" d="M2637,-69C2637,-69 2541,-69 2541,-69 2535,-69 2529,-63 2529,-57 2529,-57 2529,-45 2529,-45 2529,-39 2535,-33 2541,-33 2541,-33 2637,-33 2637,-33 2643,-33 2649,-39 2649,-45 2649,-45 2649,-57 2649,-57 2649,-63 2643,-69 2637,-69"/>
<text text-anchor="middle" x="2589" y="-47.3" font-family="Times,serif" font-size="14.00" fill="#cdd9e5">macaroonAuth</text>
</g>
<!-- GET /interfaces&#45;&gt;macaroonAuth -->
<g id="edge5" class="edge">
<title>GET /interfaces&#45;&gt;macaroonAuth</title>
<path fill="none" stroke="#e26a77" d="M2430.78,-248.85C2461.04,-211.21 2533.38,-121.2 2568.79,-77.15"/>
<polygon fill="#e26a77" stroke="#e26a77" points="2571.61,-79.22 2575.15,-69.23 2566.16,-74.83 2571.61,-79.22"/>
</g>
<!-- GET /interfaces/requests/prompts -->
<g id="node3" class="node">
<title>GET /interfaces/requests/prompts</title>
<path fill="#37516b" stroke="black" d="M611.5,-285C611.5,-285 376.5,-285 376.5,-285 370.5,-285 364.5,-279 364.5,-273 364.5,-273 364.5,-261 364.5,-261 364.5,-255 370.5,-249 376.5,-249 376.5,-249 611.5,-249 611.5,-249 617.5,-249 623.5,-255 623.5,-261 623.5,-261 623.5,-273 623.5,-273 623.5,-279 617.5,-285 611.5,-285"/>
<text text-anchor="middle" x="494" y="-263.3" font-family="Times,serif" font-size="14.00" fill="#cdd9e5">GET /interfaces/requests/prompts</text>
</g>
<!-- Prompt -->
<g id="node13" class="node">
<title>Prompt</title>
<path fill="#345a3f" stroke="black" d="M706,-69C706,-69 660,-69 660,-69 654,-69 648,-63 648,-57 648,-57 648,-45 648,-45 648,-39 654,-33 660,-33 660,-33 706,-33 706,-33 712,-33 718,-39 718,-45 718,-45 718,-57 718,-57 718,-63 712,-69 706,-69"/>
<text text-anchor="middle" x="683" y="-47.3" font-family="Times,serif" font-size="14.00" fill="#cdd9e5">Prompt</text>
</g>
<!-- GET /interfaces/requests/prompts&#45;&gt;Prompt -->
<g id="edge7" class="edge">
<title>GET /interfaces/requests/prompts&#45;&gt;Prompt</title>
<path fill="none" stroke="#53b668" d="M509.15,-248.85C542.46,-211.13 622.21,-120.83 661.03,-76.88"/>
<polygon fill="#53b668" stroke="#53b668" points="663.78,-79.04 667.78,-69.23 658.54,-74.41 663.78,-79.04"/>
</g>
<!-- NotFound -->
<g id="node22" class="node">
<title>NotFound</title>
<path fill="#634c23" stroke="black" d="M2201.5,-69C2201.5,-69 2138.5,-69 2138.5,-69 2132.5,-69 2126.5,-63 2126.5,-57 2126.5,-57 2126.5,-45 2126.5,-45 2126.5,-39 2132.5,-33 2138.5,-33 2138.5,-33 2201.5,-33 2201.5,-33 2207.5,-33 2213.5,-39 2213.5,-45 2213.5,-45 2213.5,-57 2213.5,-57 2213.5,-63 2207.5,-69 2201.5,-69"/>
<text text-anchor="middle" x="2170" y="-47.3" font-family="Times,serif" font-size="14.00" fill="#cdd9e5">NotFound</text>
</g>
<!-- GET /interfaces/requests/prompts&#45;&gt;NotFound -->
<g id="edge6" class="edge">
<title>GET /interfaces/requests/prompts&#45;&gt;NotFound</title>
<path fill="none" stroke="#d8a436" d="M544.43,-248.93C572.78,-240.04 608.99,-229.83 642,-224 962.36,-167.41 1804.69,-249.06 2102,-117 2121.46,-108.35 2138.74,-91.65 2151.01,-77.34"/>
<polygon fill="#d8a436" stroke="#d8a436" points="2154,-79.22 2157.64,-69.27 2148.59,-74.78 2154,-79.22"/>
</g>
<!-- GET /interfaces/requests/prompts/{id} -->
<g id="node4" class="node">
<title>GET /interfaces/requests/prompts/{id}</title>
<path fill="#37516b" stroke="black" d="M316.5,-285C316.5,-285 45.5,-285 45.5,-285 39.5,-285 33.5,-279 33.5,-273 33.5,-273 33.5,-261 33.5,-261 33.5,-255 39.5,-249 45.5,-249 45.5,-249 316.5,-249 316.5,-249 322.5,-249 328.5,-255 328.5,-261 328.5,-261 328.5,-273 328.5,-273 328.5,-279 322.5,-285 316.5,-285"/>
<text text-anchor="middle" x="181" y="-263.3" font-family="Times,serif" font-size="14.00" fill="#cdd9e5">GET /interfaces/requests/prompts/{id}</text>
</g>
<!-- GET /interfaces/requests/prompts/{id}&#45;&gt;Prompt -->
<g id="edge9" class="edge">
<title>GET /interfaces/requests/prompts/{id}&#45;&gt;Prompt</title>
<path fill="none" stroke="#53b668" d="M221.23,-248.85C313.89,-209.35 541.77,-112.21 638.46,-70.99"/>
<polygon fill="#53b668" stroke="#53b668" points="639.85,-74.2 647.68,-67.06 637.1,-67.76 639.85,-74.2"/>
</g>
<!-- GET /interfaces/requests/prompts/{id}&#45;&gt;NotFound -->
<g id="edge8" class="edge">
<title>GET /interfaces/requests/prompts/{id}&#45;&gt;NotFound</title>
<path fill="none" stroke="#d8a436" d="M236.97,-248.96C268.66,-240.02 309.2,-229.75 346,-224 732.26,-163.62 1743.74,-273.5 2102,-117 2121.64,-108.42 2139.02,-91.55 2151.29,-77.15"/>
<polygon fill="#d8a436" stroke="#d8a436" points="2154.29,-79 2157.9,-69.04 2148.87,-74.58 2154.29,-79"/>
</g>
<!-- GET /interfaces/requests/rules -->
<g id="node5" class="node">
<title>GET /interfaces/requests/rules</title>
<path fill="#37516b" stroke="black" d="M1530.5,-285C1530.5,-285 1319.5,-285 1319.5,-285 1313.5,-285 1307.5,-279 1307.5,-273 1307.5,-273 1307.5,-261 1307.5,-261 1307.5,-255 1313.5,-249 1319.5,-249 1319.5,-249 1530.5,-249 1530.5,-249 1536.5,-249 1542.5,-255 1542.5,-261 1542.5,-261 1542.5,-273 1542.5,-273 1542.5,-279 1536.5,-285 1530.5,-285"/>
<text text-anchor="middle" x="1425" y="-263.3" font-family="Times,serif" font-size="14.00" fill="#cdd9e5">GET /interfaces/requests/rules</text>
</g>
<!-- Rule -->
<g id="node15" class="node">
<title>Rule</title>
<path fill="#345a3f" stroke="black" d="M942,-69C942,-69 912,-69 912,-69 906,-69 900,-63 900,-57 900,-57 900,-45 900,-45 900,-39 906,-33 912,-33 912,-33 942,-33 942,-33 948,-33 954,-39 954,-45 954,-45 954,-57 954,-57 954,-63 948,-69 942,-69"/>
<text text-anchor="middle" x="927" y="-47.3" font-family="Times,serif" font-size="14.00" fill="#cdd9e5">Rule</text>
</g>
<!-- GET /interfaces/requests/rules&#45;&gt;Rule -->
<g id="edge11" class="edge">
<title>GET /interfaces/requests/rules&#45;&gt;Rule</title>
<path fill="none" stroke="#53b668" d="M1370.08,-248.96C1253.08,-212.52 988.5,-129.32 972,-117 958.42,-106.86 947.47,-91.37 939.77,-78.06"/>
<polygon fill="#53b668" stroke="#53b668" points="942.84,-76.38 934.97,-69.29 936.7,-79.74 942.84,-76.38"/>
</g>
<!-- GET /interfaces/requests/rules&#45;&gt;NotFound -->
<g id="edge10" class="edge">
<title>GET /interfaces/requests/rules&#45;&gt;NotFound</title>
<path fill="none" stroke="#d8a436" d="M1475.66,-248.98C1501.1,-240.78 1532.49,-231.2 1561,-224 1798.64,-163.98 1884.49,-229.98 2102,-117 2120.66,-107.31 2137.75,-90.93 2150.13,-77.04"/>
<polygon fill="#d8a436" stroke="#d8a436" points="2152.98,-79.08 2156.85,-69.21 2147.68,-74.52 2152.98,-79.08"/>
</g>
<!-- GET /interfaces/requests/rules/{id} -->
<g id="node6" class="node">
<title>GET /interfaces/requests/rules/{id}</title>
<path fill="#37516b" stroke="black" d="M1259.5,-285C1259.5,-285 1012.5,-285 1012.5,-285 1006.5,-285 1000.5,-279 1000.5,-273 1000.5,-273 1000.5,-261 1000.5,-261 1000.5,-255 1006.5,-249 1012.5,-249 1012.5,-249 1259.5,-249 1259.5,-249 1265.5,-249 1271.5,-255 1271.5,-261 1271.5,-261 1271.5,-273 1271.5,-273 1271.5,-279 1265.5,-285 1259.5,-285"/>
<text text-anchor="middle" x="1136" y="-263.3" font-family="Times,serif" font-size="14.00" fill="#cdd9e5">GET /interfaces/requests/rules/{id}</text>
</g>
<!-- GET /interfaces/requests/rules/{id}&#45;&gt;Rule -->
<g id="edge13" class="edge">
<title>GET /interfaces/requests/rules/{id}&#45;&gt;Rule</title>
<path fill="none" stroke="#53b668" d="M1114.11,-248.83C1081.21,-222.46 1018.01,-169.52 972,-117 961.3,-104.79 950.88,-89.98 942.77,-77.59"/>
<polygon fill="#53b668" stroke="#53b668" points="945.64,-75.59 937.3,-69.06 939.75,-79.37 945.64,-75.59"/>
</g>
<!-- GET /interfaces/requests/rules/{id}&#45;&gt;NotFound -->
<g id="edge12" class="edge">
<title>GET /interfaces/requests/rules/{id}&#45;&gt;NotFound</title>
<path fill="none" stroke="#d8a436" d="M1191.53,-248.9C1220.63,-240.44 1256.99,-230.64 1290,-224 1646.85,-152.17 1773.75,-274.32 2102,-117 2121.08,-107.85 2138.27,-91.32 2150.59,-77.21"/>
<polygon fill="#d8a436" stroke="#d8a436" points="2153.51,-79.17 2157.26,-69.26 2148.15,-74.67 2153.51,-79.17"/>
</g>
<!-- POST /interfaces -->
<g id="node7" class="node">
<title>POST /interfaces</title>
<path fill="#37516b" stroke="black" d="M2642.5,-285C2642.5,-285 2529.5,-285 2529.5,-285 2523.5,-285 2517.5,-279 2517.5,-273 2517.5,-273 2517.5,-261 2517.5,-261 2517.5,-255 2523.5,-249 2529.5,-249 2529.5,-249 2642.5,-249 2642.5,-249 2648.5,-249 2654.5,-255 2654.5,-261 2654.5,-261 2654.5,-273 2654.5,-273 2654.5,-279 2648.5,-285 2642.5,-285"/>
<text text-anchor="middle" x="2586" y="-263.3" font-family="Times,serif" font-size="14.00" fill="#cdd9e5">POST /interfaces</text>
</g>
<!-- Accepted -->
<g id="node20" class="node">
<title>Accepted</title>
<path fill="#634c23" stroke="black" d="M2459,-69C2459,-69 2401,-69 2401,-69 2395,-69 2389,-63 2389,-57 2389,-57 2389,-45 2389,-45 2389,-39 2395,-33 2401,-33 2401,-33 2459,-33 2459,-33 2465,-33 2471,-39 2471,-45 2471,-45 2471,-57 2471,-57 2471,-63 2465,-69 2459,-69"/>
<text text-anchor="middle" x="2430" y="-47.3" font-family="Times,serif" font-size="14.00" fill="#cdd9e5">Accepted</text>
</g>
<!-- POST /interfaces&#45;&gt;Accepted -->
<g id="edge14" class="edge">
<title>POST /interfaces&#45;&gt;Accepted</title>
<path fill="none" stroke="#d8a436" d="M2573.5,-248.85C2546.11,-211.28 2480.72,-121.58 2448.53,-77.43"/>
<polygon fill="#d8a436" stroke="#d8a436" points="2451.28,-75.25 2442.56,-69.23 2445.62,-79.38 2451.28,-75.25"/>
</g>
<!-- POST /interfaces&#45;&gt;BadRequest -->
<g id="edge15" class="edge">
<title>POST /interfaces&#45;&gt;BadRequest</title>
<path fill="none" stroke="#d8a436" d="M2558.64,-248.83C2516.91,-222.25 2435.41,-168.79 2371,-117 2355.12,-104.23 2338.35,-88.74 2325.21,-76.09"/>
<polygon fill="#d8a436" stroke="#d8a436" points="2327.54,-73.47 2317.93,-69.01 2322.66,-78.49 2327.54,-73.47"/>
</g>
<!-- POST /interfaces&#45;&gt;macaroonAuth -->
<g id="edge16" class="edge">
<title>POST /interfaces&#45;&gt;macaroonAuth</title>
<path fill="none" stroke="#e26a77" d="M2586.24,-248.85C2586.76,-211.83 2587.99,-124.18 2588.62,-79.39"/>
<polygon fill="#e26a77" stroke="#e26a77" points="2592.12,-79.28 2588.76,-69.23 2585.12,-79.18 2592.12,-79.28"/>
</g>
<!-- POST /interfaces/requests/prompts/{id} -->
<g id="node8" class="node">
<title>POST /interfaces/requests/prompts/{id}</title>
<path fill="#37516b" stroke="black" d="M952,-285C952,-285 672,-285 672,-285 666,-285 660,-279 660,-273 660,-273 660,-261 660,-261 660,-255 666,-249 672,-249 672,-249 952,-249 952,-249 958,-249 964,-255 964,-261 964,-261 964,-273 964,-273 964,-279 958,-285 952,-285"/>
<text text-anchor="middle" x="812" y="-263.3" font-family="Times,serif" font-size="14.00" fill="#cdd9e5">POST /interfaces/requests/prompts/{id}</text>
</g>
<!-- PromptReply -->
<g id="node14" class="node">
<title>PromptReply</title>
<path fill="#345a3f" stroke="black" d="M852,-69C852,-69 766,-69 766,-69 760,-69 754,-63 754,-57 754,-57 754,-45 754,-45 754,-39 760,-33 766,-33 766,-33 852,-33 852,-33 858,-33 864,-39 864,-45 864,-45 864,-57 864,-57 864,-63 858,-69 852,-69"/>
<text text-anchor="middle" x="809" y="-47.3" font-family="Times,serif" font-size="14.00" fill="#cdd9e5">PromptReply</text>
</g>
<!-- POST /interfaces/requests/prompts/{id}&#45;&gt;PromptReply -->
<g id="edge18" class="edge">
<title>POST /interfaces/requests/prompts/{id}&#45;&gt;PromptReply</title>
<path fill="none" stroke="#53b668" d="M811.76,-248.85C811.24,-211.83 810.01,-124.18 809.38,-79.39"/>
<polygon fill="#53b668" stroke="#53b668" points="812.88,-79.18 809.24,-69.23 805.88,-79.28 812.88,-79.18"/>
</g>
<!-- POST /interfaces/requests/prompts/{id}&#45;&gt;NotFound -->
<g id="edge17" class="edge">
<title>POST /interfaces/requests/prompts/{id}&#45;&gt;NotFound</title>
<path fill="none" stroke="#d8a436" d="M871.74,-248.96C904.12,-240.3 944.99,-230.3 982,-224 1474.94,-140.03 1647.28,-325.02 2102,-117 2121.37,-108.14 2138.65,-91.44 2150.94,-77.19"/>
<polygon fill="#d8a436" stroke="#d8a436" points="2153.91,-79.09 2157.58,-69.15 2148.51,-74.63 2153.91,-79.09"/>
</g>
<!-- POST /interfaces/requests/rules -->
<g id="node9" class="node">
<title>POST /interfaces/requests/rules</title>
<path fill="#37516b" stroke="black" d="M1811,-285C1811,-285 1591,-285 1591,-285 1585,-285 1579,-279 1579,-273 1579,-273 1579,-261 1579,-261 1579,-255 1585,-249 1591,-249 1591,-249 1811,-249 1811,-249 1817,-249 1823,-255 1823,-261 1823,-261 1823,-273 1823,-273 1823,-279 1817,-285 1811,-285"/>
<text text-anchor="middle" x="1701" y="-263.3" font-family="Times,serif" font-size="14.00" fill="#cdd9e5">POST /interfaces/requests/rules</text>
</g>
<!-- POST /interfaces/requests/rules&#45;&gt;Rule -->
<g id="edge20" class="edge">
<title>POST /interfaces/requests/rules&#45;&gt;Rule</title>
<path fill="none" stroke="#53b668" d="M1649.19,-248.95C1622.95,-240.7 1590.49,-231.08 1561,-224 1302.29,-161.9 1195.64,-261.13 972,-117 957.56,-107.7 946.49,-91.96 938.94,-78.3"/>
<polygon fill="#53b668" stroke="#53b668" points="941.98,-76.56 934.28,-69.28 935.76,-79.77 941.98,-76.56"/>
</g>
<!-- RuleActionAdd -->
<g id="node16" class="node">
<title>RuleActionAdd</title>
<path fill="#345a3f" stroke="black" d="M1288,-69C1288,-69 1190,-69 1190,-69 1184,-69 1178,-63 1178,-57 1178,-57 1178,-45 1178,-45 1178,-39 1184,-33 1190,-33 1190,-33 1288,-33 1288,-33 1294,-33 1300,-39 1300,-45 1300,-45 1300,-57 1300,-57 1300,-63 1294,-69 1288,-69"/>
<text text-anchor="middle" x="1239" y="-47.3" font-family="Times,serif" font-size="14.00" fill="#cdd9e5">RuleActionAdd</text>
</g>
<!-- POST /interfaces/requests/rules&#45;&gt;RuleActionAdd -->
<g id="edge21" class="edge">
<title>POST /interfaces/requests/rules&#45;&gt;RuleActionAdd</title>
<path fill="none" stroke="#53b668" d="M1640.25,-248.94C1562.37,-225.62 1424.67,-179.46 1318,-117 1298.6,-105.64 1279.08,-89.63 1264.29,-76.34"/>
<polygon fill="#53b668" stroke="#53b668" points="1266.33,-73.46 1256.59,-69.28 1261.6,-78.62 1266.33,-73.46"/>
</g>
<!-- RuleActionRemove -->
<g id="node18" class="node">
<title>RuleActionRemove</title>
<path fill="#345a3f" stroke="black" d="M1129.5,-69C1129.5,-69 1002.5,-69 1002.5,-69 996.5,-69 990.5,-63 990.5,-57 990.5,-57 990.5,-45 990.5,-45 990.5,-39 996.5,-33 1002.5,-33 1002.5,-33 1129.5,-33 1129.5,-33 1135.5,-33 1141.5,-39 1141.5,-45 1141.5,-45 1141.5,-57 1141.5,-57 1141.5,-63 1135.5,-69 1129.5,-69"/>
<text text-anchor="middle" x="1066" y="-47.3" font-family="Times,serif" font-size="14.00" fill="#cdd9e5">RuleActionRemove</text>
</g>
<!-- POST /interfaces/requests/rules&#45;&gt;RuleActionRemove -->
<g id="edge22" class="edge">
<title>POST /interfaces/requests/rules&#45;&gt;RuleActionRemove</title>
<path fill="none" stroke="#53b668" d="M1645.59,-248.95C1619.91,-241.16 1588.95,-231.92 1561,-224 1383.53,-173.71 1327.44,-194.38 1160,-117 1136.47,-106.13 1112.48,-89.43 1094.63,-75.68"/>
<polygon fill="#53b668" stroke="#53b668" points="1096.41,-72.63 1086.38,-69.2 1092.08,-78.13 1096.41,-72.63"/>
</g>
<!-- POST /interfaces/requests/rules&#45;&gt;NotFound -->
<g id="edge19" class="edge">
<title>POST /interfaces/requests/rules&#45;&gt;NotFound</title>
<path fill="none" stroke="#d8a436" d="M1754.92,-248.98C1849.77,-218.55 2042.12,-154.49 2102,-117 2119.47,-106.06 2136.25,-90.11 2148.76,-76.74"/>
<polygon fill="#d8a436" stroke="#d8a436" points="2151.46,-78.98 2155.61,-69.23 2146.29,-74.26 2151.46,-78.98"/>
</g>
<!-- POST /interfaces/requests/rules&#45;&gt;macaroonAuth -->
<g id="edge23" class="edge">
<title>POST /interfaces/requests/rules&#45;&gt;macaroonAuth</title>
<path fill="none" stroke="#e26a77" d="M1752.1,-248.91C1778.43,-240.55 1811.2,-230.84 1841,-224 2132.34,-157.13 2230.76,-235.92 2505,-117 2527.33,-107.32 2548.96,-90.34 2564.68,-76.16"/>
<polygon fill="#e26a77" stroke="#e26a77" points="2567.39,-78.43 2572.34,-69.06 2562.63,-73.3 2567.39,-78.43"/>
</g>
<!-- POST /interfaces/requests/rules/{id} -->
<g id="node10" class="node">
<title>POST /interfaces/requests/rules/{id}</title>
<path fill="#37516b" stroke="black" d="M2127,-285C2127,-285 1871,-285 1871,-285 1865,-285 1859,-279 1859,-273 1859,-273 1859,-261 1859,-261 1859,-255 1865,-249 1871,-249 1871,-249 2127,-249 2127,-249 2133,-249 2139,-255 2139,-261 2139,-261 2139,-273 2139,-273 2139,-279 2133,-285 2127,-285"/>
<text text-anchor="middle" x="1999" y="-263.3" font-family="Times,serif" font-size="14.00" fill="#cdd9e5">POST /interfaces/requests/rules/{id}</text>
</g>
<!-- POST /interfaces/requests/rules/{id}&#45;&gt;Rule -->
<g id="edge25" class="edge">
<title>POST /interfaces/requests/rules/{id}&#45;&gt;Rule</title>
<path fill="none" stroke="#53b668" d="M1942.39,-248.93C1912.47,-240.43 1875,-230.58 1841,-224 1458.95,-150.06 1304.99,-318.36 972,-117 957.21,-108.06 946.08,-92.18 938.59,-78.36"/>
<polygon fill="#53b668" stroke="#53b668" points="941.61,-76.58 933.99,-69.23 935.36,-79.73 941.61,-76.58"/>
</g>
<!-- RuleActionPatch -->
<g id="node17" class="node">
<title>RuleActionPatch</title>
<path fill="#345a3f" stroke="black" d="M1678,-69C1678,-69 1568,-69 1568,-69 1562,-69 1556,-63 1556,-57 1556,-57 1556,-45 1556,-45 1556,-39 1562,-33 1568,-33 1568,-33 1678,-33 1678,-33 1684,-33 1690,-39 1690,-45 1690,-45 1690,-57 1690,-57 1690,-63 1684,-69 1678,-69"/>
<text text-anchor="middle" x="1623" y="-47.3" font-family="Times,serif" font-size="14.00" fill="#cdd9e5">RuleActionPatch</text>
</g>
<!-- POST /interfaces/requests/rules/{id}&#45;&gt;RuleActionPatch -->
<g id="edge26" class="edge">
<title>POST /interfaces/requests/rules/{id}&#45;&gt;RuleActionPatch</title>
<path fill="none" stroke="#53b668" d="M1960.78,-248.95C1904.2,-223.13 1795.51,-171.35 1709,-117 1689.03,-104.45 1667.88,-88.51 1651.55,-75.55"/>
<polygon fill="#53b668" stroke="#53b668" points="1653.47,-72.6 1643.48,-69.08 1649.09,-78.06 1653.47,-72.6"/>
</g>
<!-- RuleActionRemoveById -->
<g id="node19" class="node">
<title>RuleActionRemoveById</title>
<path fill="#345a3f" stroke="black" d="M1508,-69C1508,-69 1348,-69 1348,-69 1342,-69 1336,-63 1336,-57 1336,-57 1336,-45 1336,-45 1336,-39 1342,-33 1348,-33 1348,-33 1508,-33 1508,-33 1514,-33 1520,-39 1520,-45 1520,-45 1520,-57 1520,-57 1520,-63 1514,-69 1508,-69"/>
<text text-anchor="middle" x="1428" y="-47.3" font-family="Times,serif" font-size="14.00" fill="#cdd9e5">RuleActionRemoveById</text>
</g>
<!-- POST /interfaces/requests/rules/{id}&#45;&gt;RuleActionRemoveById -->
<g id="edge27" class="edge">
<title>POST /interfaces/requests/rules/{id}&#45;&gt;RuleActionRemoveById</title>
<path fill="none" stroke="#53b668" d="M1940.77,-248.94C1834.12,-217.39 1611.62,-150.16 1538,-117 1511.45,-105.04 1483.21,-88.26 1461.99,-74.75"/>
<polygon fill="#53b668" stroke="#53b668" points="1463.66,-71.65 1453.36,-69.18 1459.86,-77.54 1463.66,-71.65"/>
</g>
<!-- POST /interfaces/requests/rules/{id}&#45;&gt;NotFound -->
<g id="edge24" class="edge">
<title>POST /interfaces/requests/rules/{id}&#45;&gt;NotFound</title>
<path fill="none" stroke="#d8a436" d="M2012.7,-248.85C2042.78,-211.21 2114.7,-121.2 2149.9,-77.15"/>
<polygon fill="#d8a436" stroke="#d8a436" points="2152.72,-79.23 2156.23,-69.23 2147.25,-74.86 2152.72,-79.23"/>
</g>
<!-- POST /interfaces/requests/rules/{id}&#45;&gt;macaroonAuth -->
<g id="edge28" class="edge">
<title>POST /interfaces/requests/rules/{id}&#45;&gt;macaroonAuth</title>
<path fill="none" stroke="#e26a77" d="M2061.8,-248.91C2188.26,-214.3 2464.94,-137.47 2505,-117 2526.25,-106.14 2547.49,-89.64 2563.29,-75.99"/>
<polygon fill="#e26a77" stroke="#e26a77" points="2565.85,-78.39 2571.03,-69.15 2561.22,-73.15 2565.85,-78.39"/>
</g>
</g>
</svg>
