<?xml version="1.0" encoding="UTF-8" standalone="no"?>
<!DOCTYPE svg PUBLIC "-//W3C//DTD SVG 1.1//EN"
 "http://www.w3.org/Graphics/SVG/1.1/DTD/svg11.dtd">
<!-- Generated by graphviz version 2.43.0 (0)
 -->
<!-- Title: OpenAPI_Dependencies Pages: 1 -->
<svg width="5477pt" height="349pt"
 viewBox="0.00 0.00 5477.00 349.00" xmlns="http://www.w3.org/2000/svg" xmlns:xlink="http://www.w3.org/1999/xlink">
<g id="graph0" class="graph" transform="scale(1 1) rotate(0) translate(4 345)">
<title>OpenAPI_Dependencies</title>
<polygon fill="#2d333b" stroke="transparent" points="-4,4 -4,-345 5473,-345 5473,4 -4,4"/>
<g id="clust1" class="cluster">
<title>cluster_endpoints</title>
<polygon fill="#2d333b" stroke="#cdd9e5" points="8,-224 8,-333 5461,-333 5461,-224 8,-224"/>
<text text-anchor="middle" x="2734.5" y="-317.8" font-family="Times,serif" font-size="14.00" fill="#cdd9e5">Endpoints &#45; Macaroon</text>
</g>
<g id="clust2" class="cluster">
<title>cluster_schemas</title>
<polygon fill="#2d333b" stroke="#cdd9e5" points="453,-8 453,-117 1161,-117 1161,-8 453,-8"/>
<text text-anchor="middle" x="807" y="-101.8" font-family="Times,serif" font-size="14.00" fill="#cdd9e5">Schemas</text>
</g>
<g id="clust3" class="cluster">
<title>cluster_responses</title>
<polygon fill="#2d333b" stroke="#cdd9e5" points="2489,-8 2489,-117 2884,-117 2884,-8 2489,-8"/>
<text text-anchor="middle" x="2686.5" y="-101.8" font-family="Times,serif" font-size="14.00" fill="#cdd9e5">Responses</text>
</g>
<g id="clust4" class="cluster">
<title>cluster_security</title>
<polygon fill="#2d333b" stroke="#cdd9e5" points="2892,-8 2892,-117 3062,-117 3062,-8 2892,-8"/>
<text text-anchor="middle" x="2977" y="-101.8" font-family="Times,serif" font-size="14.00" fill="#cdd9e5">Security</text>
</g>
<!-- GET /changes -->
<g id="node1" class="node">
<title>GET /changes</title>
<path fill="#37516b" stroke="black" d="M804.5,-285C804.5,-285 713.5,-285 713.5,-285 707.5,-285 701.5,-279 701.5,-273 701.5,-273 701.5,-261 701.5,-261 701.5,-255 707.5,-249 713.5,-249 713.5,-249 804.5,-249 804.5,-249 810.5,-249 816.5,-255 816.5,-261 816.5,-261 816.5,-273 816.5,-273 816.5,-279 810.5,-285 804.5,-285"/>
<text text-anchor="middle" x="759" y="-263.3" font-family="Times,serif" font-size="14.00" fill="#cdd9e5">GET /changes</text>
</g>
<!-- Change -->
<g id="node28" class="node">
<title>Change</title>
<path fill="#345a3f" stroke="black" d="M695.5,-69C695.5,-69 648.5,-69 648.5,-69 642.5,-69 636.5,-63 636.5,-57 636.5,-57 636.5,-45 636.5,-45 636.5,-39 642.5,-33 648.5,-33 648.5,-33 695.5,-33 695.5,-33 701.5,-33 707.5,-39 707.5,-45 707.5,-45 707.5,-57 707.5,-57 707.5,-63 701.5,-69 695.5,-69"/>
<text text-anchor="middle" x="672" y="-47.3" font-family="Times,serif" font-size="14.00" fill="#cdd9e5">Change</text>
</g>
<!-- GET /changes&#45;&gt;Change -->
<g id="edge2" class="edge">
<title>GET /changes&#45;&gt;Change</title>
<path fill="none" stroke="#53b668" d="M752.03,-248.85C736.88,-211.6 700.89,-123.07 682.79,-78.54"/>
<polygon fill="#53b668" stroke="#53b668" points="686.01,-77.18 679.01,-69.23 679.53,-79.81 686.01,-77.18"/>
</g>
<!-- BadRequest -->
<g id="node34" class="node">
<title>BadRequest</title>
<path fill="#634c23" stroke="black" d="M2728.5,-69C2728.5,-69 2649.5,-69 2649.5,-69 2643.5,-69 2637.5,-63 2637.5,-57 2637.5,-57 2637.5,-45 2637.5,-45 2637.5,-39 2643.5,-33 2649.5,-33 2649.5,-33 2728.5,-33 2728.5,-33 2734.5,-33 2740.5,-39 2740.5,-45 2740.5,-45 2740.5,-57 2740.5,-57 2740.5,-63 2734.5,-69 2728.5,-69"/>
<text text-anchor="middle" x="2689" y="-47.3" font-family="Times,serif" font-size="14.00" fill="#cdd9e5">BadRequest</text>
</g>
<!-- GET /changes&#45;&gt;BadRequest -->
<g id="edge1" class="edge">
<title>GET /changes&#45;&gt;BadRequest</title>
<path fill="none" stroke="#d8a436" d="M783.44,-248.82C797.76,-239.71 816.61,-229.33 835,-224 1216.64,-113.28 2255.19,-274.57 2620,-117 2640.01,-108.36 2657.79,-91.25 2670.29,-76.76"/>
<polygon fill="#d8a436" stroke="#d8a436" points="2672.99,-78.98 2676.67,-69.05 2667.6,-74.52 2672.99,-78.98"/>
</g>
<!-- macaroonAuth -->
<g id="node36" class="node">
<title>macaroonAuth</title>
<path fill="#6b3940" stroke="black" d="M3025,-69C3025,-69 2929,-69 2929,-69 2923,-69 2917,-63 2917,-57 2917,-57 2917,-45 2917,-45 2917,-39 2923,-33 2929,-33 2929,-33 3025,-33 3025,-33 3031,-33 3037,-39 3037,-45 3037,-45 3037,-57 3037,-57 3037,-63 3031,-69 3025,-69"/>
<text text-anchor="middle" x="2977" y="-47.3" font-family="Times,serif" font-size="14.00" fill="#cdd9e5">macaroonAuth</text>
</g>
<!-- GET /changes&#45;&gt;macaroonAuth -->
<g id="edge3" class="edge">
<title>GET /changes&#45;&gt;macaroonAuth</title>
<path fill="none" stroke="#e26a77" d="M783.09,-248.98C797.45,-239.8 816.45,-229.3 835,-224 1275.32,-98.15 2463.64,-276.29 2893,-117 2916.11,-108.42 2938,-91.08 2953.63,-76.46"/>
<polygon fill="#e26a77" stroke="#e26a77" points="2956.45,-78.6 2961.21,-69.13 2951.59,-73.57 2956.45,-78.6"/>
</g>
<!-- GET /changes/{id} -->
<g id="node2" class="node">
<title>GET /changes/{id}</title>
<path fill="#37516b" stroke="black" d="M456.5,-285C456.5,-285 329.5,-285 329.5,-285 323.5,-285 317.5,-279 317.5,-273 317.5,-273 317.5,-261 317.5,-261 317.5,-255 323.5,-249 329.5,-249 329.5,-249 456.5,-249 456.5,-249 462.5,-249 468.5,-255 468.5,-261 468.5,-261 468.5,-273 468.5,-273 468.5,-279 462.5,-285 456.5,-285"/>
<text text-anchor="middle" x="393" y="-263.3" font-family="Times,serif" font-size="14.00" fill="#cdd9e5">GET /changes/{id}</text>
</g>
<!-- GET /changes/{id}&#45;&gt;Change -->
<g id="edge4" class="edge">
<title>GET /changes/{id}&#45;&gt;Change</title>
<path fill="none" stroke="#53b668" d="M424.88,-248.87C470.44,-223.54 555.58,-173 618,-117 631.13,-105.22 643.84,-90.16 653.63,-77.51"/>
<polygon fill="#53b668" stroke="#53b668" points="656.67,-79.29 659.91,-69.2 651.08,-75.07 656.67,-79.29"/>
</g>
<!-- NotFound -->
<g id="node35" class="node">
<title>NotFound</title>
<path fill="#634c23" stroke="black" d="M2589.5,-69C2589.5,-69 2526.5,-69 2526.5,-69 2520.5,-69 2514.5,-63 2514.5,-57 2514.5,-57 2514.5,-45 2514.5,-45 2514.5,-39 2520.5,-33 2526.5,-33 2526.5,-33 2589.5,-33 2589.5,-33 2595.5,-33 2601.5,-39 2601.5,-45 2601.5,-45 2601.5,-57 2601.5,-57 2601.5,-63 2595.5,-69 2589.5,-69"/>
<text text-anchor="middle" x="2558" y="-47.3" font-family="Times,serif" font-size="14.00" fill="#cdd9e5">NotFound</text>
</g>
<!-- GET /changes/{id}&#45;&gt;NotFound -->
<g id="edge5" class="edge">
<title>GET /changes/{id}&#45;&gt;NotFound</title>
<path fill="none" stroke="#d8a436" d="M424.23,-248.84C442.07,-239.87 465.19,-229.61 487,-224 885.67,-121.55 2218.99,-65.09 2504.07,-54.02"/>
<polygon fill="#d8a436" stroke="#d8a436" points="2504.3,-57.52 2514.15,-53.63 2504.03,-50.52 2504.3,-57.52"/>
</g>
<!-- GET /changes/{id}&#45;&gt;macaroonAuth -->
<g id="edge6" class="edge">
<title>GET /changes/{id}&#45;&gt;macaroonAuth</title>
<path fill="none" stroke="#e26a77" d="M423.3,-248.95C441.24,-239.77 464.74,-229.27 487,-224 1007.82,-100.78 2390.53,-301.27 2893,-117 2916.15,-108.51 2938.03,-91.16 2953.65,-76.52"/>
<polygon fill="#e26a77" stroke="#e26a77" points="2956.48,-78.65 2961.22,-69.17 2951.61,-73.62 2956.48,-78.65"/>
</g>
<!-- GET /confdb/{account}/{confdb&#45;schema}/{view} -->
<g id="node3" class="node">
<title>GET /confdb/{account}/{confdb&#45;schema}/{view}</title>
<path fill="#37516b" stroke="black" d="M4853.5,-285C4853.5,-285 4510.5,-285 4510.5,-285 4504.5,-285 4498.5,-279 4498.5,-273 4498.5,-273 4498.5,-261 4498.5,-261 4498.5,-255 4504.5,-249 4510.5,-249 4510.5,-249 4853.5,-249 4853.5,-249 4859.5,-249 4865.5,-255 4865.5,-261 4865.5,-261 4865.5,-273 4865.5,-273 4865.5,-279 4859.5,-285 4853.5,-285"/>
<text text-anchor="middle" x="4682" y="-263.3" font-family="Times,serif" font-size="14.00" fill="#cdd9e5">GET /confdb/{account}/{confdb&#45;schema}/{view}</text>
</g>
<!-- Accepted -->
<g id="node33" class="node">
<title>Accepted</title>
<path fill="#634c23" stroke="black" d="M2847,-69C2847,-69 2789,-69 2789,-69 2783,-69 2777,-63 2777,-57 2777,-57 2777,-45 2777,-45 2777,-39 2783,-33 2789,-33 2789,-33 2847,-33 2847,-33 2853,-33 2859,-39 2859,-45 2859,-45 2859,-57 2859,-57 2859,-63 2853,-69 2847,-69"/>
<text text-anchor="middle" x="2818" y="-47.3" font-family="Times,serif" font-size="14.00" fill="#cdd9e5">Accepted</text>
</g>
<!-- GET /confdb/{account}/{confdb&#45;schema}/{view}&#45;&gt;Accepted -->
<g id="edge7" class="edge">
<title>GET /confdb/{account}/{confdb&#45;schema}/{view}&#45;&gt;Accepted</title>
<path fill="none" stroke="#d8a436" d="M4612.19,-248.92C4573.71,-240.13 4524.97,-230.04 4481,-224 4128.4,-175.6 3207.08,-264.11 2883,-117 2864.05,-108.4 2847.54,-91.69 2835.9,-77.37"/>
<polygon fill="#d8a436" stroke="#d8a436" points="2838.53,-75.05 2829.63,-69.3 2833,-79.34 2838.53,-75.05"/>
</g>
<!-- GET /confdb/{account}/{confdb&#45;schema}/{view}&#45;&gt;BadRequest -->
<g id="edge8" class="edge">
<title>GET /confdb/{account}/{confdb&#45;schema}/{view}&#45;&gt;BadRequest</title>
<path fill="none" stroke="#d8a436" d="M4612.66,-248.94C4574.12,-240.11 4525.16,-229.95 4481,-224 4101.03,-172.77 3111.36,-268.15 2759,-117 2738.81,-108.34 2720.77,-91.24 2708.06,-76.75"/>
<polygon fill="#d8a436" stroke="#d8a436" points="2710.69,-74.43 2701.57,-69.04 2705.34,-78.94 2710.69,-74.43"/>
</g>
<!-- GET /confdb/{account}/{confdb&#45;schema}/{view}&#45;&gt;macaroonAuth -->
<g id="edge9" class="edge">
<title>GET /confdb/{account}/{confdb&#45;schema}/{view}&#45;&gt;macaroonAuth</title>
<path fill="none" stroke="#e26a77" d="M4608.32,-248.91C4570.43,-240.55 4523.41,-230.84 4481,-224 3931.83,-135.42 3262.65,-75.74 3047.31,-57.72"/>
<polygon fill="#e26a77" stroke="#e26a77" points="3047.35,-54.21 3037.09,-56.87 3046.77,-61.19 3047.35,-54.21"/>
</g>
<!-- GET /find -->
<g id="node4" class="node">
<title>GET /find</title>
<path fill="#37516b" stroke="black" d="M1088.5,-285C1088.5,-285 1029.5,-285 1029.5,-285 1023.5,-285 1017.5,-279 1017.5,-273 1017.5,-273 1017.5,-261 1017.5,-261 1017.5,-255 1023.5,-249 1029.5,-249 1029.5,-249 1088.5,-249 1088.5,-249 1094.5,-249 1100.5,-255 1100.5,-261 1100.5,-261 1100.5,-273 1100.5,-273 1100.5,-279 1094.5,-285 1088.5,-285"/>
<text text-anchor="middle" x="1059" y="-263.3" font-family="Times,serif" font-size="14.00" fill="#cdd9e5">GET /find</text>
</g>
<!-- Snap -->
<g id="node31" class="node">
<title>Snap</title>
<path fill="#345a3f" stroke="black" d="M984,-69C984,-69 954,-69 954,-69 948,-69 942,-63 942,-57 942,-57 942,-45 942,-45 942,-39 948,-33 954,-33 954,-33 984,-33 984,-33 990,-33 996,-39 996,-45 996,-45 996,-57 996,-57 996,-63 990,-69 984,-69"/>
<text text-anchor="middle" x="969" y="-47.3" font-family="Times,serif" font-size="14.00" fill="#cdd9e5">Snap</text>
</g>
<!-- GET /find&#45;&gt;Snap -->
<g id="edge11" class="edge">
<title>GET /find&#45;&gt;Snap</title>
<path fill="none" stroke="#53b668" d="M1051.79,-248.85C1036.12,-211.6 998.89,-123.07 980.16,-78.54"/>
<polygon fill="#53b668" stroke="#53b668" points="983.35,-77.09 976.25,-69.23 976.9,-79.81 983.35,-77.09"/>
</g>
<!-- GET /find&#45;&gt;BadRequest -->
<g id="edge10" class="edge">
<title>GET /find&#45;&gt;BadRequest</title>
<path fill="none" stroke="#d8a436" d="M1077.76,-248.87C1088.9,-239.78 1103.78,-229.4 1119,-224 1749.31,-0.37 2007.53,-385.65 2620,-117 2639.65,-108.38 2657.19,-91.67 2669.66,-77.36"/>
<polygon fill="#d8a436" stroke="#d8a436" points="2672.68,-79.21 2676.4,-69.29 2667.31,-74.72 2672.68,-79.21"/>
</g>
<!-- GET /find&#45;&gt;macaroonAuth -->
<g id="edge12" class="edge">
<title>GET /find&#45;&gt;macaroonAuth</title>
<path fill="none" stroke="#e26a77" d="M1077.74,-248.8C1088.87,-239.69 1103.75,-229.32 1119,-224 1864.84,36.05 2153.59,-394.81 2893,-117 2916.08,-108.33 2937.96,-90.99 2953.6,-76.4"/>
<polygon fill="#e26a77" stroke="#e26a77" points="2956.42,-78.54 2961.19,-69.08 2951.56,-73.5 2956.42,-78.54"/>
</g>
<!-- GET /interfaces -->
<g id="node5" class="node">
<title>GET /interfaces</title>
<path fill="#37516b" stroke="black" d="M969,-285C969,-285 865,-285 865,-285 859,-285 853,-279 853,-273 853,-273 853,-261 853,-261 853,-255 859,-249 865,-249 865,-249 969,-249 969,-249 975,-249 981,-255 981,-261 981,-261 981,-273 981,-273 981,-279 975,-285 969,-285"/>
<text text-anchor="middle" x="917" y="-263.3" font-family="Times,serif" font-size="14.00" fill="#cdd9e5">GET /interfaces</text>
</g>
<!-- ConnectionEndpoint -->
<g id="node29" class="node">
<title>ConnectionEndpoint</title>
<path fill="#345a3f" stroke="black" d="M894,-69C894,-69 756,-69 756,-69 750,-69 744,-63 744,-57 744,-57 744,-45 744,-45 744,-39 750,-33 756,-33 756,-33 894,-33 894,-33 900,-33 906,-39 906,-45 906,-45 906,-57 906,-57 906,-63 900,-69 894,-69"/>
<text text-anchor="middle" x="825" y="-47.3" font-family="Times,serif" font-size="14.00" fill="#cdd9e5">ConnectionEndpoint</text>
</g>
<!-- GET /interfaces&#45;&gt;ConnectionEndpoint -->
<g id="edge14" class="edge">
<title>GET /interfaces&#45;&gt;ConnectionEndpoint</title>
<path fill="none" stroke="#53b668" d="M909.63,-248.85C893.61,-211.6 855.55,-123.07 836.41,-78.54"/>
<polygon fill="#53b668" stroke="#53b668" points="839.57,-77.04 832.41,-69.23 833.14,-79.8 839.57,-77.04"/>
</g>
<!-- GET /interfaces&#45;&gt;BadRequest -->
<g id="edge13" class="edge">
<title>GET /interfaces&#45;&gt;BadRequest</title>
<path fill="none" stroke="#d8a436" d="M943.57,-248.88C959.09,-239.79 979.42,-229.41 999,-224 1346.96,-127.84 2289.02,-261.14 2620,-117 2639.99,-108.3 2657.77,-91.19 2670.27,-76.72"/>
<polygon fill="#d8a436" stroke="#d8a436" points="2672.97,-78.95 2676.65,-69.02 2667.58,-74.48 2672.97,-78.95"/>
</g>
<!-- GET /interfaces&#45;&gt;macaroonAuth -->
<g id="edge15" class="edge">
<title>GET /interfaces&#45;&gt;macaroonAuth</title>
<path fill="none" stroke="#e26a77" d="M943.55,-248.81C959.06,-239.7 979.4,-229.32 999,-224 1405.86,-113.63 2498.09,-264.52 2893,-117 2916.09,-108.37 2937.98,-91.03 2953.61,-76.43"/>
<polygon fill="#e26a77" stroke="#e26a77" points="2956.44,-78.56 2961.2,-69.1 2951.57,-73.53 2956.44,-78.56"/>
</g>
<!-- GET /system&#45;recovery&#45;keys -->
<g id="node6" class="node">
<title>GET /system&#45;recovery&#45;keys</title>
<path fill="#37516b" stroke="black" d="M4450.5,-285C4450.5,-285 4263.5,-285 4263.5,-285 4257.5,-285 4251.5,-279 4251.5,-273 4251.5,-273 4251.5,-261 4251.5,-261 4251.5,-255 4257.5,-249 4263.5,-249 4263.5,-249 4450.5,-249 4450.5,-249 4456.5,-249 4462.5,-255 4462.5,-261 4462.5,-261 4462.5,-273 4462.5,-273 4462.5,-279 4456.5,-285 4450.5,-285"/>
<text text-anchor="middle" x="4357" y="-263.3" font-family="Times,serif" font-size="14.00" fill="#cdd9e5">GET /system&#45;recovery&#45;keys</text>
</g>
<!-- GET /system&#45;recovery&#45;keys&#45;&gt;BadRequest -->
<g id="edge16" class="edge">
<title>GET /system&#45;recovery&#45;keys&#45;&gt;BadRequest</title>
<path fill="none" stroke="#d8a436" d="M4315.61,-248.89C4292.09,-239.93 4261.86,-229.67 4234,-224 3911.96,-158.47 3060.35,-248.12 2759,-117 2738.98,-108.29 2721.05,-91.35 2708.34,-76.95"/>
<polygon fill="#d8a436" stroke="#d8a436" points="2710.97,-74.65 2701.84,-69.28 2705.63,-79.17 2710.97,-74.65"/>
</g>
<!-- GET /system&#45;recovery&#45;keys&#45;&gt;macaroonAuth -->
<g id="edge17" class="edge">
<title>GET /system&#45;recovery&#45;keys&#45;&gt;macaroonAuth</title>
<path fill="none" stroke="#e26a77" d="M4313.77,-248.95C4290.46,-240.34 4261.01,-230.4 4234,-224 3789.4,-118.72 3240,-71.12 3047.55,-56.85"/>
<polygon fill="#e26a77" stroke="#e26a77" points="3047.52,-53.34 3037.29,-56.1 3047.01,-60.32 3047.52,-53.34"/>
</g>
<!-- GET /validation&#45;sets -->
<g id="node7" class="node">
<title>GET /validation&#45;sets</title>
<path fill="#37516b" stroke="black" d="M4203.5,-285C4203.5,-285 4066.5,-285 4066.5,-285 4060.5,-285 4054.5,-279 4054.5,-273 4054.5,-273 4054.5,-261 4054.5,-261 4054.5,-255 4060.5,-249 4066.5,-249 4066.5,-249 4203.5,-249 4203.5,-249 4209.5,-249 4215.5,-255 4215.5,-261 4215.5,-261 4215.5,-273 4215.5,-273 4215.5,-279 4209.5,-285 4203.5,-285"/>
<text text-anchor="middle" x="4135" y="-263.3" font-family="Times,serif" font-size="14.00" fill="#cdd9e5">GET /validation&#45;sets</text>
</g>
<!-- GET /validation&#45;sets&#45;&gt;BadRequest -->
<g id="edge18" class="edge">
<title>GET /validation&#45;sets&#45;&gt;BadRequest</title>
<path fill="none" stroke="#d8a436" d="M4102.01,-248.88C4083.18,-239.91 4058.84,-229.65 4036,-224 3483.11,-87.28 3279.97,-347.15 2759,-117 2739.03,-108.18 2721.09,-91.25 2708.37,-76.87"/>
<polygon fill="#d8a436" stroke="#d8a436" points="2711.01,-74.57 2701.87,-69.22 2705.68,-79.11 2711.01,-74.57"/>
</g>
<!-- GET /validation&#45;sets&#45;&gt;macaroonAuth -->
<g id="edge19" class="edge">
<title>GET /validation&#45;sets&#45;&gt;macaroonAuth</title>
<path fill="none" stroke="#e26a77" d="M4100.47,-248.93C4081.78,-240.32 4058.06,-230.37 4036,-224 3672.55,-119.05 3219.23,-72.36 3047.41,-57.55"/>
<polygon fill="#e26a77" stroke="#e26a77" points="3047.5,-54.05 3037.23,-56.69 3046.9,-61.02 3047.5,-54.05"/>
</g>
<!-- GET /validation&#45;sets/{account&#45;id}/{name} -->
<g id="node8" class="node">
<title>GET /validation&#45;sets/{account&#45;id}/{name}</title>
<path fill="#37516b" stroke="black" d="M1954,-285C1954,-285 1660,-285 1660,-285 1654,-285 1648,-279 1648,-273 1648,-273 1648,-261 1648,-261 1648,-255 1654,-249 1660,-249 1660,-249 1954,-249 1954,-249 1960,-249 1966,-255 1966,-261 1966,-261 1966,-273 1966,-273 1966,-279 1960,-285 1954,-285"/>
<text text-anchor="middle" x="1807" y="-263.3" font-family="Times,serif" font-size="14.00" fill="#cdd9e5">GET /validation&#45;sets/{account&#45;id}/{name}</text>
</g>
<!-- GET /validation&#45;sets/{account&#45;id}/{name}&#45;&gt;NotFound -->
<g id="edge20" class="edge">
<title>GET /validation&#45;sets/{account&#45;id}/{name}&#45;&gt;NotFound</title>
<path fill="none" stroke="#d8a436" d="M1866.87,-248.94C2009.6,-208.27 2368.08,-106.12 2504.32,-67.3"/>
<polygon fill="#d8a436" stroke="#d8a436" points="2505.47,-70.61 2514.13,-64.5 2503.55,-63.88 2505.47,-70.61"/>
</g>
<!-- GET /validation&#45;sets/{account&#45;id}/{name}&#45;&gt;macaroonAuth -->
<g id="edge21" class="edge">
<title>GET /validation&#45;sets/{account&#45;id}/{name}&#45;&gt;macaroonAuth</title>
<path fill="none" stroke="#e26a77" d="M1870.94,-248.94C1904.43,-240.48 1946.21,-230.68 1984,-224 2384.57,-153.14 2516.43,-270.85 2893,-117 2915.68,-107.74 2937.44,-90.58 2953.13,-76.22"/>
<polygon fill="#e26a77" stroke="#e26a77" points="2955.88,-78.44 2960.75,-69.03 2951.08,-73.35 2955.88,-78.44"/>
</g>
<!-- POST /aliases -->
<g id="node9" class="node">
<title>POST /aliases</title>
<path fill="#37516b" stroke="black" d="M4006,-285C4006,-285 3916,-285 3916,-285 3910,-285 3904,-279 3904,-273 3904,-273 3904,-261 3904,-261 3904,-255 3910,-249 3916,-249 3916,-249 4006,-249 4006,-249 4012,-249 4018,-255 4018,-261 4018,-261 4018,-273 4018,-273 4018,-279 4012,-285 4006,-285"/>
<text text-anchor="middle" x="3961" y="-263.3" font-family="Times,serif" font-size="14.00" fill="#cdd9e5">POST /aliases</text>
</g>
<!-- POST /aliases&#45;&gt;Accepted -->
<g id="edge22" class="edge">
<title>POST /aliases&#45;&gt;Accepted</title>
<path fill="none" stroke="#d8a436" d="M3936.48,-248.92C3922.37,-239.97 3903.92,-229.71 3886,-224 3458.84,-87.93 3287.48,-310.32 2883,-117 2864.22,-108.03 2847.71,-91.33 2836.03,-77.1"/>
<polygon fill="#d8a436" stroke="#d8a436" points="2838.66,-74.79 2829.72,-69.09 2833.15,-79.12 2838.66,-74.79"/>
</g>
<!-- POST /aliases&#45;&gt;BadRequest -->
<g id="edge23" class="edge">
<title>POST /aliases&#45;&gt;BadRequest</title>
<path fill="none" stroke="#d8a436" d="M3936.51,-248.84C3922.4,-239.87 3903.95,-229.6 3886,-224 3405.71,-74.08 3218.1,-322.86 2759,-117 2739.08,-108.07 2721.14,-91.14 2708.41,-76.8"/>
<polygon fill="#d8a436" stroke="#d8a436" points="2711.05,-74.49 2701.89,-69.16 2705.72,-79.04 2711.05,-74.49"/>
</g>
<!-- POST /aliases&#45;&gt;macaroonAuth -->
<g id="edge24" class="edge">
<title>POST /aliases&#45;&gt;macaroonAuth</title>
<path fill="none" stroke="#e26a77" d="M3935.27,-248.85C3921.24,-240.21 3903.25,-230.27 3886,-224 3585.73,-114.82 3203.23,-71.46 3047.62,-57.55"/>
<polygon fill="#e26a77" stroke="#e26a77" points="3047.52,-54.03 3037.25,-56.64 3046.91,-61.01 3047.52,-54.03"/>
</g>
<!-- POST /apps -->
<g id="node10" class="node">
<title>POST /apps</title>
<path fill="#37516b" stroke="black" d="M3855.5,-285C3855.5,-285 3780.5,-285 3780.5,-285 3774.5,-285 3768.5,-279 3768.5,-273 3768.5,-273 3768.5,-261 3768.5,-261 3768.5,-255 3774.5,-249 3780.5,-249 3780.5,-249 3855.5,-249 3855.5,-249 3861.5,-249 3867.5,-255 3867.5,-261 3867.5,-261 3867.5,-273 3867.5,-273 3867.5,-279 3861.5,-285 3855.5,-285"/>
<text text-anchor="middle" x="3818" y="-263.3" font-family="Times,serif" font-size="14.00" fill="#cdd9e5">POST /apps</text>
</g>
<!-- POST /apps&#45;&gt;Accepted -->
<g id="edge25" class="edge">
<title>POST /apps&#45;&gt;Accepted</title>
<path fill="none" stroke="#d8a436" d="M3796.33,-248.99C3783.79,-240.05 3767.3,-229.79 3751,-224 3384.72,-93.9 3232.32,-287.48 2883,-117 2864.3,-107.87 2847.78,-91.18 2836.08,-76.99"/>
<polygon fill="#d8a436" stroke="#d8a436" points="2838.71,-74.68 2829.76,-69.01 2833.22,-79.02 2838.71,-74.68"/>
</g>
<!-- POST /apps&#45;&gt;BadRequest -->
<g id="edge26" class="edge">
<title>POST /apps&#45;&gt;BadRequest</title>
<path fill="none" stroke="#d8a436" d="M3796.36,-248.89C3783.83,-239.93 3767.34,-229.67 3751,-224 3332.01,-78.76 3162.46,-301.02 2759,-117 2739.14,-107.94 2721.2,-91.01 2708.45,-76.71"/>
<polygon fill="#d8a436" stroke="#d8a436" points="2711.09,-74.41 2701.92,-69.09 2705.77,-78.96 2711.09,-74.41"/>
</g>
<!-- POST /apps&#45;&gt;macaroonAuth -->
<g id="edge27" class="edge">
<title>POST /apps&#45;&gt;macaroonAuth</title>
<path fill="none" stroke="#e26a77" d="M3795.19,-248.96C3782.7,-240.36 3766.62,-230.41 3751,-224 3503.76,-122.57 3186.37,-76.06 3047.43,-59.51"/>
<polygon fill="#e26a77" stroke="#e26a77" points="3047.68,-56.01 3037.34,-58.32 3046.86,-62.97 3047.68,-56.01"/>
</g>
<!-- POST /assertions -->
<g id="node11" class="node">
<title>POST /assertions</title>
<path fill="#37516b" stroke="black" d="M3720.5,-285C3720.5,-285 3605.5,-285 3605.5,-285 3599.5,-285 3593.5,-279 3593.5,-273 3593.5,-273 3593.5,-261 3593.5,-261 3593.5,-255 3599.5,-249 3605.5,-249 3605.5,-249 3720.5,-249 3720.5,-249 3726.5,-249 3732.5,-255 3732.5,-261 3732.5,-261 3732.5,-273 3732.5,-273 3732.5,-279 3726.5,-285 3720.5,-285"/>
<text text-anchor="middle" x="3663" y="-263.3" font-family="Times,serif" font-size="14.00" fill="#cdd9e5">POST /assertions</text>
</g>
<!-- POST /assertions&#45;&gt;BadRequest -->
<g id="edge28" class="edge">
<title>POST /assertions&#45;&gt;BadRequest</title>
<path fill="none" stroke="#d8a436" d="M3633.75,-248.97C3617.3,-240.15 3596.09,-229.99 3576,-224 3225.08,-119.28 3090.44,-272.75 2759,-117 2739.55,-107.86 2721.86,-91.32 2709.13,-77.21"/>
<polygon fill="#d8a436" stroke="#d8a436" points="2711.42,-74.52 2702.23,-69.26 2706.14,-79.11 2711.42,-74.52"/>
</g>
<!-- POST /assertions&#45;&gt;macaroonAuth -->
<g id="edge29" class="edge">
<title>POST /assertions&#45;&gt;macaroonAuth</title>
<path fill="none" stroke="#e26a77" d="M3630.94,-248.9C3614.76,-240.69 3594.65,-231.12 3576,-224 3389.33,-152.74 3160.26,-94.78 3047.11,-68.02"/>
<polygon fill="#e26a77" stroke="#e26a77" points="3047.72,-64.57 3037.19,-65.68 3046.12,-71.38 3047.72,-64.57"/>
</g>
<!-- POST /changes/{id} -->
<g id="node12" class="node">
<title>POST /changes/{id}</title>
<path fill="#37516b" stroke="black" d="M653,-285C653,-285 517,-285 517,-285 511,-285 505,-279 505,-273 505,-273 505,-261 505,-261 505,-255 511,-249 517,-249 517,-249 653,-249 653,-249 659,-249 665,-255 665,-261 665,-261 665,-273 665,-273 665,-279 659,-285 653,-285"/>
<text text-anchor="middle" x="585" y="-263.3" font-family="Times,serif" font-size="14.00" fill="#cdd9e5">POST /changes/{id}</text>
</g>
<!-- POST /changes/{id}&#45;&gt;Change -->
<g id="edge31" class="edge">
<title>POST /changes/{id}&#45;&gt;Change</title>
<path fill="none" stroke="#53b668" d="M591.97,-248.85C607.12,-211.6 643.11,-123.07 661.21,-78.54"/>
<polygon fill="#53b668" stroke="#53b668" points="664.47,-79.81 664.99,-69.23 657.99,-77.18 664.47,-79.81"/>
</g>
<!-- POST /changes/{id}&#45;&gt;BadRequest -->
<g id="edge30" class="edge">
<title>POST /changes/{id}&#45;&gt;BadRequest</title>
<path fill="none" stroke="#d8a436" d="M617.14,-248.84C635.81,-239.74 660.11,-229.36 683,-224 1102.74,-125.7 2223.84,-287.01 2620,-117 2640.03,-108.4 2657.81,-91.3 2670.3,-76.79"/>
<polygon fill="#d8a436" stroke="#d8a436" points="2673.01,-79.01 2676.68,-69.07 2667.61,-74.55 2673.01,-79.01"/>
</g>
<!-- POST /changes/{id}&#45;&gt;NotFound -->
<g id="edge32" class="edge">
<title>POST /changes/{id}&#45;&gt;NotFound</title>
<path fill="none" stroke="#d8a436" d="M617.66,-248.94C636.3,-239.99 660.39,-229.73 683,-224 1042.21,-132.97 2235.8,-68.27 2504.13,-54.66"/>
<polygon fill="#d8a436" stroke="#d8a436" points="2504.57,-58.15 2514.38,-54.14 2504.22,-51.15 2504.57,-58.15"/>
</g>
<!-- POST /changes/{id}&#45;&gt;macaroonAuth -->
<g id="edge33" class="edge">
<title>POST /changes/{id}&#45;&gt;macaroonAuth</title>
<path fill="none" stroke="#e26a77" d="M616.68,-248.99C635.41,-239.82 659.91,-229.32 683,-224 1162.11,-113.52 2431.71,-287.2 2893,-117 2916.13,-108.47 2938.01,-91.12 2953.64,-76.49"/>
<polygon fill="#e26a77" stroke="#e26a77" points="2956.47,-78.62 2961.21,-69.15 2951.6,-73.59 2956.47,-78.62"/>
</g>
<!-- POST /cohorts -->
<g id="node13" class="node">
<title>POST /cohorts</title>
<path fill="#37516b" stroke="black" d="M3545.5,-285C3545.5,-285 3450.5,-285 3450.5,-285 3444.5,-285 3438.5,-279 3438.5,-273 3438.5,-273 3438.5,-261 3438.5,-261 3438.5,-255 3444.5,-249 3450.5,-249 3450.5,-249 3545.5,-249 3545.5,-249 3551.5,-249 3557.5,-255 3557.5,-261 3557.5,-261 3557.5,-273 3557.5,-273 3557.5,-279 3551.5,-285 3545.5,-285"/>
<text text-anchor="middle" x="3498" y="-263.3" font-family="Times,serif" font-size="14.00" fill="#cdd9e5">POST /cohorts</text>
</g>
<!-- POST /cohorts&#45;&gt;BadRequest -->
<g id="edge34" class="edge">
<title>POST /cohorts&#45;&gt;BadRequest</title>
<path fill="none" stroke="#d8a436" d="M3471.94,-248.89C3457.49,-240.16 3438.86,-230.11 3421,-224 3139.02,-127.48 3026.81,-247.79 2759,-117 2739.69,-107.57 2722,-91.03 2709.23,-77"/>
<polygon fill="#d8a436" stroke="#d8a436" points="2711.53,-74.32 2702.3,-69.1 2706.26,-78.93 2711.53,-74.32"/>
</g>
<!-- POST /cohorts&#45;&gt;macaroonAuth -->
<g id="edge35" class="edge">
<title>POST /cohorts&#45;&gt;macaroonAuth</title>
<path fill="none" stroke="#e26a77" d="M3468.84,-248.93C3454.63,-240.92 3437.16,-231.5 3421,-224 3286.7,-161.68 3123,-102.38 3036.77,-72.37"/>
<polygon fill="#e26a77" stroke="#e26a77" points="3037.75,-69 3027.15,-69.03 3035.45,-75.62 3037.75,-69"/>
</g>
<!-- POST /interfaces -->
<g id="node14" class="node">
<title>POST /interfaces</title>
<path fill="#37516b" stroke="black" d="M3390.5,-285C3390.5,-285 3277.5,-285 3277.5,-285 3271.5,-285 3265.5,-279 3265.5,-273 3265.5,-273 3265.5,-261 3265.5,-261 3265.5,-255 3271.5,-249 3277.5,-249 3277.5,-249 3390.5,-249 3390.5,-249 3396.5,-249 3402.5,-255 3402.5,-261 3402.5,-261 3402.5,-273 3402.5,-273 3402.5,-279 3396.5,-285 3390.5,-285"/>
<text text-anchor="middle" x="3334" y="-263.3" font-family="Times,serif" font-size="14.00" fill="#cdd9e5">POST /interfaces</text>
</g>
<!-- POST /interfaces&#45;&gt;Accepted -->
<g id="edge36" class="edge">
<title>POST /interfaces&#45;&gt;Accepted</title>
<path fill="none" stroke="#d8a436" d="M3302.31,-248.93C3286.32,-240.72 3266.44,-231.15 3248,-224 3090.37,-162.91 3028.4,-203.23 2883,-117 2865.44,-106.59 2849.21,-90.36 2837.35,-76.72"/>
<polygon fill="#d8a436" stroke="#d8a436" points="2840.02,-74.45 2830.9,-69.05 2834.66,-78.96 2840.02,-74.45"/>
</g>
<!-- POST /interfaces&#45;&gt;BadRequest -->
<g id="edge37" class="edge">
<title>POST /interfaces&#45;&gt;BadRequest</title>
<path fill="none" stroke="#d8a436" d="M3303.32,-248.79C3287.24,-240.35 3266.99,-230.61 3248,-224 3037.88,-150.89 2956.14,-220.11 2759,-117 2740.08,-107.11 2722.49,-90.73 2709.67,-76.88"/>
<polygon fill="#d8a436" stroke="#d8a436" points="2711.98,-74.22 2702.7,-69.1 2706.76,-78.88 2711.98,-74.22"/>
</g>
<!-- POST /interfaces&#45;&gt;macaroonAuth -->
<g id="edge38" class="edge">
<title>POST /interfaces&#45;&gt;macaroonAuth</title>
<path fill="none" stroke="#e26a77" d="M3305.39,-248.85C3241.29,-210.42 3086.16,-117.44 3014.47,-74.46"/>
<polygon fill="#e26a77" stroke="#e26a77" points="3016.12,-71.37 3005.75,-69.23 3012.53,-77.38 3016.12,-71.37"/>
</g>
<!-- POST /login -->
<g id="node15" class="node">
<title>POST /login</title>
<path fill="#37516b" stroke="black" d="M122.5,-285C122.5,-285 45.5,-285 45.5,-285 39.5,-285 33.5,-279 33.5,-273 33.5,-273 33.5,-261 33.5,-261 33.5,-255 39.5,-249 45.5,-249 45.5,-249 122.5,-249 122.5,-249 128.5,-249 134.5,-255 134.5,-261 134.5,-261 134.5,-273 134.5,-273 134.5,-279 128.5,-285 122.5,-285"/>
<text text-anchor="middle" x="84" y="-263.3" font-family="Times,serif" font-size="14.00" fill="#cdd9e5">POST /login</text>
</g>
<!-- StandardError -->
<g id="node32" class="node">
<title>StandardError</title>
<path fill="#345a3f" stroke="black" d="M588,-69C588,-69 490,-69 490,-69 484,-69 478,-63 478,-57 478,-57 478,-45 478,-45 478,-39 484,-33 490,-33 490,-33 588,-33 588,-33 594,-33 600,-39 600,-45 600,-45 600,-57 600,-57 600,-63 594,-69 588,-69"/>
<text text-anchor="middle" x="539" y="-47.3" font-family="Times,serif" font-size="14.00" fill="#cdd9e5">StandardError</text>
</g>
<!-- POST /login&#45;&gt;StandardError -->
<g id="edge40" class="edge">
<title>POST /login&#45;&gt;StandardError</title>
<path fill="none" stroke="#53b668" d="M110.41,-248.83C123.08,-240.89 138.59,-231.56 153,-224 268.97,-163.18 410.86,-103.56 486.16,-73.03"/>
<polygon fill="#53b668" stroke="#53b668" points="487.93,-76.09 495.89,-69.1 485.31,-69.6 487.93,-76.09"/>
</g>
<!-- POST /login&#45;&gt;BadRequest -->
<g id="edge39" class="edge">
<title>POST /login&#45;&gt;BadRequest</title>
<path fill="none" stroke="#d8a436" d="M105.62,-248.92C118.58,-239.72 135.83,-229.22 153,-224 678.02,-64.42 2114.46,-330.41 2620,-117 2640.08,-108.52 2657.86,-91.41 2670.34,-76.88"/>
<polygon fill="#d8a436" stroke="#d8a436" points="2673.05,-79.08 2676.7,-69.14 2667.65,-74.63 2673.05,-79.08"/>
</g>
<!-- POST /logout -->
<g id="node16" class="node">
<title>POST /logout</title>
<path fill="#37516b" stroke="black" d="M269,-285C269,-285 183,-285 183,-285 177,-285 171,-279 171,-273 171,-273 171,-261 171,-261 171,-255 177,-249 183,-249 183,-249 269,-249 269,-249 275,-249 281,-255 281,-261 281,-261 281,-273 281,-273 281,-279 275,-285 269,-285"/>
<text text-anchor="middle" x="226" y="-263.3" font-family="Times,serif" font-size="14.00" fill="#cdd9e5">POST /logout</text>
</g>
<!-- POST /logout&#45;&gt;StandardError -->
<g id="edge41" class="edge">
<title>POST /logout&#45;&gt;StandardError</title>
<path fill="none" stroke="#53b668" d="M251.09,-248.85C307.06,-210.58 442.18,-118.19 505.37,-74.99"/>
<polygon fill="#53b668" stroke="#53b668" points="507.52,-77.77 513.8,-69.23 503.57,-71.99 507.52,-77.77"/>
</g>
<!-- POST /logout&#45;&gt;macaroonAuth -->
<g id="edge42" class="edge">
<title>POST /logout&#45;&gt;macaroonAuth</title>
<path fill="none" stroke="#e26a77" d="M249.02,-248.9C262.77,-239.7 281.02,-229.2 299,-224 853.2,-63.64 2351.02,-314.77 2893,-117 2916.16,-108.55 2938.04,-91.2 2953.66,-76.55"/>
<polygon fill="#e26a77" stroke="#e26a77" points="2956.5,-78.67 2961.23,-69.19 2951.62,-73.65 2956.5,-78.67"/>
</g>
<!-- POST /model -->
<g id="node17" class="node">
<title>POST /model</title>
<path fill="#37516b" stroke="black" d="M3217.5,-285C3217.5,-285 3132.5,-285 3132.5,-285 3126.5,-285 3120.5,-279 3120.5,-273 3120.5,-273 3120.5,-261 3120.5,-261 3120.5,-255 3126.5,-249 3132.5,-249 3132.5,-249 3217.5,-249 3217.5,-249 3223.5,-249 3229.5,-255 3229.5,-261 3229.5,-261 3229.5,-273 3229.5,-273 3229.5,-279 3223.5,-285 3217.5,-285"/>
<text text-anchor="middle" x="3175" y="-263.3" font-family="Times,serif" font-size="14.00" fill="#cdd9e5">POST /model</text>
</g>
<!-- POST /model&#45;&gt;Accepted -->
<g id="edge43" class="edge">
<title>POST /model&#45;&gt;Accepted</title>
<path fill="none" stroke="#d8a436" d="M3146.9,-248.94C3133.7,-241.11 3117.68,-231.84 3103,-224 3007.08,-172.79 2971.55,-180.09 2883,-117 2866.85,-105.5 2851.07,-89.85 2839.1,-76.8"/>
<polygon fill="#d8a436" stroke="#d8a436" points="2841.45,-74.17 2832.18,-69.06 2836.24,-78.84 2841.45,-74.17"/>
</g>
<!-- POST /model&#45;&gt;BadRequest -->
<g id="edge44" class="edge">
<title>POST /model&#45;&gt;BadRequest</title>
<path fill="none" stroke="#d8a436" d="M3149.09,-248.96C3135.71,-240.66 3118.89,-231 3103,-224 2956.47,-159.47 2897.55,-197.25 2759,-117 2740.77,-106.44 2723.39,-90.35 2710.51,-76.82"/>
<polygon fill="#d8a436" stroke="#d8a436" points="2712.83,-74.18 2703.47,-69.21 2707.69,-78.93 2712.83,-74.18"/>
</g>
<!-- POST /model&#45;&gt;macaroonAuth -->
<g id="edge45" class="edge">
<title>POST /model&#45;&gt;macaroonAuth</title>
<path fill="none" stroke="#e26a77" d="M3159.13,-248.85C3124.16,-211.05 3040.33,-120.45 2999.76,-76.6"/>
<polygon fill="#e26a77" stroke="#e26a77" points="3002.3,-74.2 2992.94,-69.23 2997.17,-78.95 3002.3,-74.2"/>
</g>
<!-- POST /model/serial -->
<g id="node18" class="node">
<title>POST /model/serial</title>
<path fill="#37516b" stroke="black" d="M3072.5,-285C3072.5,-285 2943.5,-285 2943.5,-285 2937.5,-285 2931.5,-279 2931.5,-273 2931.5,-273 2931.5,-261 2931.5,-261 2931.5,-255 2937.5,-249 2943.5,-249 2943.5,-249 3072.5,-249 3072.5,-249 3078.5,-249 3084.5,-255 3084.5,-261 3084.5,-261 3084.5,-273 3084.5,-273 3084.5,-279 3078.5,-285 3072.5,-285"/>
<text text-anchor="middle" x="3008" y="-263.3" font-family="Times,serif" font-size="14.00" fill="#cdd9e5">POST /model/serial</text>
</g>
<!-- POST /model/serial&#45;&gt;Accepted -->
<g id="edge46" class="edge">
<title>POST /model/serial&#45;&gt;Accepted</title>
<path fill="none" stroke="#d8a436" d="M2992.77,-248.85C2959.28,-211.13 2879.11,-120.83 2840.09,-76.88"/>
<polygon fill="#d8a436" stroke="#d8a436" points="2842.56,-74.39 2833.3,-69.23 2837.32,-79.03 2842.56,-74.39"/>
</g>
<!-- POST /model/serial&#45;&gt;BadRequest -->
<g id="edge47" class="edge">
<title>POST /model/serial&#45;&gt;BadRequest</title>
<path fill="none" stroke="#d8a436" d="M2974.37,-248.79C2925.16,-222.98 2831.53,-171.43 2759,-117 2742.59,-104.68 2725.69,-89.09 2712.61,-76.26"/>
<polygon fill="#d8a436" stroke="#d8a436" points="2714.94,-73.65 2705.38,-69.08 2710.01,-78.61 2714.94,-73.65"/>
</g>
<!-- POST /model/serial&#45;&gt;macaroonAuth -->
<g id="edge48" class="edge">
<title>POST /model/serial&#45;&gt;macaroonAuth</title>
<path fill="none" stroke="#e26a77" d="M3005.52,-248.85C3000.15,-211.83 2987.46,-124.18 2980.97,-79.39"/>
<polygon fill="#e26a77" stroke="#e26a77" points="2984.39,-78.63 2979.5,-69.23 2977.47,-79.63 2984.39,-78.63"/>
</g>
<!-- POST /quotas -->
<g id="node19" class="node">
<title>POST /quotas</title>
<path fill="#37516b" stroke="black" d="M1600.5,-285C1600.5,-285 1511.5,-285 1511.5,-285 1505.5,-285 1499.5,-279 1499.5,-273 1499.5,-273 1499.5,-261 1499.5,-261 1499.5,-255 1505.5,-249 1511.5,-249 1511.5,-249 1600.5,-249 1600.5,-249 1606.5,-249 1612.5,-255 1612.5,-261 1612.5,-261 1612.5,-273 1612.5,-273 1612.5,-279 1606.5,-285 1600.5,-285"/>
<text text-anchor="middle" x="1556" y="-263.3" font-family="Times,serif" font-size="14.00" fill="#cdd9e5">POST /quotas</text>
</g>
<!-- QuotaGroup -->
<g id="node30" class="node">
<title>QuotaGroup</title>
<path fill="#345a3f" stroke="black" d="M1124,-69C1124,-69 1044,-69 1044,-69 1038,-69 1032,-63 1032,-57 1032,-57 1032,-45 1032,-45 1032,-39 1038,-33 1044,-33 1044,-33 1124,-33 1124,-33 1130,-33 1136,-39 1136,-45 1136,-45 1136,-57 1136,-57 1136,-63 1130,-69 1124,-69"/>
<text text-anchor="middle" x="1084" y="-47.3" font-family="Times,serif" font-size="14.00" fill="#cdd9e5">QuotaGroup</text>
</g>
<!-- POST /quotas&#45;&gt;QuotaGroup -->
<g id="edge51" class="edge">
<title>POST /quotas&#45;&gt;QuotaGroup</title>
<path fill="none" stroke="#53b668" d="M1527.57,-248.91C1513.97,-240.98 1497.34,-231.64 1482,-224 1361.17,-163.82 1214.32,-103.55 1137.2,-72.85"/>
<polygon fill="#53b668" stroke="#53b668" points="1138.28,-69.51 1127.69,-69.07 1135.7,-76.02 1138.28,-69.51"/>
</g>
<!-- POST /quotas&#45;&gt;Accepted -->
<g id="edge49" class="edge">
<title>POST /quotas&#45;&gt;Accepted</title>
<path fill="none" stroke="#d8a436" d="M1580.13,-248.84C1594.04,-239.86 1612.25,-229.6 1630,-224 2110.71,-72.47 2308.29,-342.62 2759,-117 2776.61,-108.19 2791.47,-91.72 2801.87,-77.56"/>
<polygon fill="#d8a436" stroke="#d8a436" points="2804.9,-79.34 2807.76,-69.13 2799.16,-75.33 2804.9,-79.34"/>
</g>
<!-- POST /quotas&#45;&gt;BadRequest -->
<g id="edge50" class="edge">
<title>POST /quotas&#45;&gt;BadRequest</title>
<path fill="none" stroke="#d8a436" d="M1580.16,-248.93C1594.08,-239.98 1612.29,-229.71 1630,-224 2051.2,-88.17 2218.02,-302.14 2620,-117 2639.49,-108.02 2657.03,-91.32 2669.55,-77.1"/>
<polygon fill="#d8a436" stroke="#d8a436" points="2672.54,-78.99 2676.31,-69.09 2667.19,-74.47 2672.54,-78.99"/>
</g>
<!-- POST /quotas&#45;&gt;macaroonAuth -->
<g id="edge52" class="edge">
<title>POST /quotas&#45;&gt;macaroonAuth</title>
<path fill="none" stroke="#e26a77" d="M1579.78,-248.98C1593.73,-239.93 1612.08,-229.55 1630,-224 2168.12,-57.32 2368.09,-321.52 2893,-117 2915.82,-108.11 2937.58,-90.94 2953.23,-76.48"/>
<polygon fill="#e26a77" stroke="#e26a77" points="2956.01,-78.66 2960.83,-69.23 2951.18,-73.6 2956.01,-78.66"/>
</g>
<!-- POST /snapctl -->
<g id="node20" class="node">
<title>POST /snapctl</title>
<path fill="#37516b" stroke="black" d="M2883.5,-285C2883.5,-285 2790.5,-285 2790.5,-285 2784.5,-285 2778.5,-279 2778.5,-273 2778.5,-273 2778.5,-261 2778.5,-261 2778.5,-255 2784.5,-249 2790.5,-249 2790.5,-249 2883.5,-249 2883.5,-249 2889.5,-249 2895.5,-255 2895.5,-261 2895.5,-261 2895.5,-273 2895.5,-273 2895.5,-279 2889.5,-285 2883.5,-285"/>
<text text-anchor="middle" x="2837" y="-263.3" font-family="Times,serif" font-size="14.00" fill="#cdd9e5">POST /snapctl</text>
</g>
<!-- POST /snapctl&#45;&gt;BadRequest -->
<g id="edge53" class="edge">
<title>POST /snapctl&#45;&gt;BadRequest</title>
<path fill="none" stroke="#d8a436" d="M2825.14,-248.85C2799.21,-211.36 2737.38,-121.95 2706.78,-77.7"/>
<polygon fill="#d8a436" stroke="#d8a436" points="2709.48,-75.47 2700.92,-69.23 2703.73,-79.45 2709.48,-75.47"/>
</g>
<!-- POST /snapctl&#45;&gt;macaroonAuth -->
<g id="edge54" class="edge">
<title>POST /snapctl&#45;&gt;macaroonAuth</title>
<path fill="none" stroke="#e26a77" d="M2848.22,-248.85C2872.74,-211.36 2931.24,-121.95 2960.19,-77.7"/>
<polygon fill="#e26a77" stroke="#e26a77" points="2963.18,-79.52 2965.73,-69.23 2957.32,-75.68 2963.18,-79.52"/>
</g>
<!-- POST /snaps -->
<g id="node21" class="node">
<title>POST /snaps</title>
<path fill="#37516b" stroke="black" d="M2730.5,-285C2730.5,-285 2647.5,-285 2647.5,-285 2641.5,-285 2635.5,-279 2635.5,-273 2635.5,-273 2635.5,-261 2635.5,-261 2635.5,-255 2641.5,-249 2647.5,-249 2647.5,-249 2730.5,-249 2730.5,-249 2736.5,-249 2742.5,-255 2742.5,-261 2742.5,-261 2742.5,-273 2742.5,-273 2742.5,-279 2736.5,-285 2730.5,-285"/>
<text text-anchor="middle" x="2689" y="-263.3" font-family="Times,serif" font-size="14.00" fill="#cdd9e5">POST /snaps</text>
</g>
<!-- POST /snaps&#45;&gt;Accepted -->
<g id="edge55" class="edge">
<title>POST /snaps&#45;&gt;Accepted</title>
<path fill="none" stroke="#d8a436" d="M2699.34,-248.85C2721.89,-211.44 2775.61,-122.32 2802.34,-77.98"/>
<polygon fill="#d8a436" stroke="#d8a436" points="2805.45,-79.6 2807.61,-69.23 2799.45,-75.99 2805.45,-79.6"/>
</g>
<!-- POST /snaps&#45;&gt;BadRequest -->
<g id="edge56" class="edge">
<title>POST /snaps&#45;&gt;BadRequest</title>
<path fill="none" stroke="#d8a436" d="M2689,-248.85C2689,-211.83 2689,-124.18 2689,-79.39"/>
<polygon fill="#d8a436" stroke="#d8a436" points="2692.5,-79.23 2689,-69.23 2685.5,-79.23 2692.5,-79.23"/>
</g>
<!-- POST /snaps&#45;&gt;macaroonAuth -->
<g id="edge57" class="edge">
<title>POST /snaps&#45;&gt;macaroonAuth</title>
<path fill="none" stroke="#e26a77" d="M2713.03,-248.78C2751.33,-221.25 2828.5,-165.5 2893,-117 2911.2,-103.32 2931.38,-87.71 2947.41,-75.22"/>
<polygon fill="#e26a77" stroke="#e26a77" points="2949.64,-77.91 2955.37,-69 2945.34,-72.4 2949.64,-77.91"/>
</g>
<!-- POST /snaps/{name} -->
<g id="node22" class="node">
<title>POST /snaps/{name}</title>
<path fill="#37516b" stroke="black" d="M2588,-285C2588,-285 2444,-285 2444,-285 2438,-285 2432,-279 2432,-273 2432,-273 2432,-261 2432,-261 2432,-255 2438,-249 2444,-249 2444,-249 2588,-249 2588,-249 2594,-249 2600,-255 2600,-261 2600,-261 2600,-273 2600,-273 2600,-279 2594,-285 2588,-285"/>
<text text-anchor="middle" x="2516" y="-263.3" font-family="Times,serif" font-size="14.00" fill="#cdd9e5">POST /snaps/{name}</text>
</g>
<!-- POST /snaps/{name}&#45;&gt;Accepted -->
<g id="edge58" class="edge">
<title>POST /snaps/{name}&#45;&gt;Accepted</title>
<path fill="none" stroke="#d8a436" d="M2550.63,-248.8C2599.67,-223.56 2690.98,-173.36 2759,-117 2773.25,-105.2 2787.25,-89.97 2798.04,-77.22"/>
<polygon fill="#d8a436" stroke="#d8a436" points="2800.95,-79.19 2804.63,-69.26 2795.56,-74.73 2800.95,-79.19"/>
</g>
<!-- POST /snaps/{name}&#45;&gt;BadRequest -->
<g id="edge59" class="edge">
<title>POST /snaps/{name}&#45;&gt;BadRequest</title>
<path fill="none" stroke="#d8a436" d="M2529.86,-248.85C2560.3,-211.21 2633.06,-121.2 2668.67,-77.15"/>
<polygon fill="#d8a436" stroke="#d8a436" points="2671.5,-79.21 2675.07,-69.23 2666.06,-74.81 2671.5,-79.21"/>
</g>
<!-- POST /snaps/{name}&#45;&gt;macaroonAuth -->
<g id="edge60" class="edge">
<title>POST /snaps/{name}&#45;&gt;macaroonAuth</title>
<path fill="none" stroke="#e26a77" d="M2557.12,-248.86C2575.68,-241.17 2597.91,-232.04 2618,-224 2739.75,-175.25 2778.85,-181.57 2893,-117 2913.5,-105.4 2934.46,-89.2 2950.31,-75.87"/>
<polygon fill="#e26a77" stroke="#e26a77" points="2952.78,-78.36 2958.1,-69.2 2948.23,-73.04 2952.78,-78.36"/>
</g>
<!-- POST /snapshots -->
<g id="node23" class="node">
<title>POST /snapshots</title>
<path fill="#37516b" stroke="black" d="M2383.5,-285C2383.5,-285 2270.5,-285 2270.5,-285 2264.5,-285 2258.5,-279 2258.5,-273 2258.5,-273 2258.5,-261 2258.5,-261 2258.5,-255 2264.5,-249 2270.5,-249 2270.5,-249 2383.5,-249 2383.5,-249 2389.5,-249 2395.5,-255 2395.5,-261 2395.5,-261 2395.5,-273 2395.5,-273 2395.5,-279 2389.5,-285 2383.5,-285"/>
<text text-anchor="middle" x="2327" y="-263.3" font-family="Times,serif" font-size="14.00" fill="#cdd9e5">POST /snapshots</text>
</g>
<!-- POST /snapshots&#45;&gt;Accepted -->
<g id="edge61" class="edge">
<title>POST /snapshots&#45;&gt;Accepted</title>
<path fill="none" stroke="#d8a436" d="M2359.53,-248.87C2375.66,-240.74 2395.59,-231.25 2414,-224 2563.37,-165.16 2623.6,-203.26 2759,-117 2775.29,-106.62 2789.9,-90.6 2800.51,-77.05"/>
<polygon fill="#d8a436" stroke="#d8a436" points="2803.35,-79.11 2806.58,-69.02 2797.76,-74.89 2803.35,-79.11"/>
</g>
<!-- POST /snapshots&#45;&gt;BadRequest -->
<g id="edge62" class="edge">
<title>POST /snapshots&#45;&gt;BadRequest</title>
<path fill="none" stroke="#d8a436" d="M2362.02,-248.89C2434.67,-213.29 2596.92,-133.23 2620,-117 2636.77,-105.21 2653.55,-89.5 2666.37,-76.48"/>
<polygon fill="#d8a436" stroke="#d8a436" points="2668.99,-78.8 2673.43,-69.18 2663.96,-73.94 2668.99,-78.8"/>
</g>
<!-- POST /snapshots&#45;&gt;macaroonAuth -->
<g id="edge63" class="edge">
<title>POST /snapshots&#45;&gt;macaroonAuth</title>
<path fill="none" stroke="#e26a77" d="M2358.07,-248.84C2374.35,-240.42 2394.83,-230.67 2414,-224 2620.03,-152.33 2695.56,-209.75 2893,-117 2914.74,-106.78 2936.11,-90.13 2951.86,-76.24"/>
<polygon fill="#e26a77" stroke="#e26a77" points="2954.49,-78.58 2959.55,-69.27 2949.79,-73.39 2954.49,-78.58"/>
</g>
<!-- POST /system&#45;recovery&#45;keys -->
<g id="node24" class="node">
<title>POST /system&#45;recovery&#45;keys</title>
<path fill="#37516b" stroke="black" d="M2210,-285C2210,-285 2014,-285 2014,-285 2008,-285 2002,-279 2002,-273 2002,-273 2002,-261 2002,-261 2002,-255 2008,-249 2014,-249 2014,-249 2210,-249 2210,-249 2216,-249 2222,-255 2222,-261 2222,-261 2222,-273 2222,-273 2222,-279 2216,-285 2210,-285"/>
<text text-anchor="middle" x="2112" y="-263.3" font-family="Times,serif" font-size="14.00" fill="#cdd9e5">POST /system&#45;recovery&#45;keys</text>
</g>
<!-- POST /system&#45;recovery&#45;keys&#45;&gt;BadRequest -->
<g id="edge64" class="edge">
<title>POST /system&#45;recovery&#45;keys&#45;&gt;BadRequest</title>
<path fill="none" stroke="#d8a436" d="M2162.71,-248.98C2186.42,-241.15 2215.08,-231.87 2241,-224 2408.47,-173.12 2467.7,-203.26 2620,-117 2638.31,-106.63 2655.55,-90.39 2668.22,-76.75"/>
<polygon fill="#d8a436" stroke="#d8a436" points="2671.03,-78.85 2675.12,-69.07 2665.83,-74.17 2671.03,-78.85"/>
</g>
<!-- POST /system&#45;recovery&#45;keys&#45;&gt;macaroonAuth -->
<g id="edge65" class="edge">
<title>POST /system&#45;recovery&#45;keys&#45;&gt;macaroonAuth</title>
<path fill="none" stroke="#e26a77" d="M2158.68,-248.9C2182.98,-240.49 2213.31,-230.74 2241,-224 2526.33,-154.57 2623.76,-234.22 2893,-117 2915.32,-107.28 2936.95,-90.31 2952.67,-76.14"/>
<polygon fill="#e26a77" stroke="#e26a77" points="2955.38,-78.41 2960.33,-69.04 2950.62,-73.27 2955.38,-78.41"/>
</g>
<!-- POST /validation&#45;sets/{account&#45;id}/{name} -->
<g id="node25" class="node">
<title>POST /validation&#45;sets/{account&#45;id}/{name}</title>
<path fill="#37516b" stroke="black" d="M1451.5,-285C1451.5,-285 1148.5,-285 1148.5,-285 1142.5,-285 1136.5,-279 1136.5,-273 1136.5,-273 1136.5,-261 1136.5,-261 1136.5,-255 1142.5,-249 1148.5,-249 1148.5,-249 1451.5,-249 1451.5,-249 1457.5,-249 1463.5,-255 1463.5,-261 1463.5,-261 1463.5,-273 1463.5,-273 1463.5,-279 1457.5,-285 1451.5,-285"/>
<text text-anchor="middle" x="1300" y="-263.3" font-family="Times,serif" font-size="14.00" fill="#cdd9e5">POST /validation&#45;sets/{account&#45;id}/{name}</text>
</g>
<!-- POST /validation&#45;sets/{account&#45;id}/{name}&#45;&gt;BadRequest -->
<g id="edge66" class="edge">
<title>POST /validation&#45;sets/{account&#45;id}/{name}&#45;&gt;BadRequest</title>
<path fill="none" stroke="#d8a436" d="M1364.45,-248.92C1399.07,-240.31 1442.63,-230.37 1482,-224 1983.5,-142.93 2157.11,-326.3 2620,-117 2639.56,-108.16 2657.09,-91.46 2669.59,-77.2"/>
<polygon fill="#d8a436" stroke="#d8a436" points="2672.59,-79.07 2676.35,-69.16 2667.23,-74.57 2672.59,-79.07"/>
</g>
<!-- POST /validation&#45;sets/{account&#45;id}/{name}&#45;&gt;NotFound -->
<g id="edge67" class="edge">
<title>POST /validation&#45;sets/{account&#45;id}/{name}&#45;&gt;NotFound</title>
<path fill="none" stroke="#d8a436" d="M1368.9,-248.93C1402.84,-240.82 1444.44,-231.33 1482,-224 1872.18,-147.89 2346.8,-80.84 2504.34,-59.25"/>
<polygon fill="#d8a436" stroke="#d8a436" points="2504.82,-62.72 2514.25,-57.9 2503.87,-55.79 2504.82,-62.72"/>
</g>
<!-- POST /validation&#45;sets/{account&#45;id}/{name}&#45;&gt;macaroonAuth -->
<g id="edge68" class="edge">
<title>POST /validation&#45;sets/{account&#45;id}/{name}&#45;&gt;macaroonAuth</title>
<path fill="none" stroke="#e26a77" d="M1363.14,-248.95C1397.95,-240.18 1442.09,-230.08 1482,-224 1792.87,-176.62 2599.5,-229.87 2893,-117 2915.86,-108.21 2937.62,-91.04 2953.26,-76.55"/>
<polygon fill="#e26a77" stroke="#e26a77" points="2956.05,-78.72 2960.85,-69.28 2951.21,-73.67 2956.05,-78.72"/>
</g>
<!-- POST /warnings -->
<g id="node26" class="node">
<title>POST /warnings</title>
<path fill="#37516b" stroke="black" d="M5423.5,-285C5423.5,-285 5316.5,-285 5316.5,-285 5310.5,-285 5304.5,-279 5304.5,-273 5304.5,-273 5304.5,-261 5304.5,-261 5304.5,-255 5310.5,-249 5316.5,-249 5316.5,-249 5423.5,-249 5423.5,-249 5429.5,-249 5435.5,-255 5435.5,-261 5435.5,-261 5435.5,-273 5435.5,-273 5435.5,-279 5429.5,-285 5423.5,-285"/>
<text text-anchor="middle" x="5370" y="-263.3" font-family="Times,serif" font-size="14.00" fill="#cdd9e5">POST /warnings</text>
</g>
<!-- POST /warnings&#45;&gt;BadRequest -->
<g id="edge69" class="edge">
<title>POST /warnings&#45;&gt;BadRequest</title>
<path fill="none" stroke="#d8a436" d="M5343.15,-248.92C5327.21,-239.72 5306.21,-229.22 5286,-224 4741.83,-83.32 3277.7,-333.47 2759,-117 2738.73,-108.54 2720.69,-91.43 2708.01,-76.89"/>
<polygon fill="#d8a436" stroke="#d8a436" points="2710.63,-74.57 2701.53,-69.15 2705.26,-79.06 2710.63,-74.57"/>
</g>
<!-- POST /warnings&#45;&gt;macaroonAuth -->
<g id="edge70" class="edge">
<title>POST /warnings&#45;&gt;macaroonAuth</title>
<path fill="none" stroke="#e26a77" d="M5342.71,-248.95C5326.79,-239.88 5305.96,-229.5 5286,-224 4848.39,-103.36 3385.8,-61.71 3047.34,-53.58"/>
<polygon fill="#e26a77" stroke="#e26a77" points="3047.26,-50.07 3037.18,-53.33 3047.1,-57.07 3047.26,-50.07"/>
</g>
<!-- PUT /confdb/{account}/{confdb&#45;schema}/{view} -->
<g id="node27" class="node">
<title>PUT /confdb/{account}/{confdb&#45;schema}/{view}</title>
<path fill="#37516b" stroke="black" d="M5256,-285C5256,-285 4914,-285 4914,-285 4908,-285 4902,-279 4902,-273 4902,-273 4902,-261 4902,-261 4902,-255 4908,-249 4914,-249 4914,-249 5256,-249 5256,-249 5262,-249 5268,-255 5268,-261 5268,-261 5268,-273 5268,-273 5268,-279 5262,-285 5256,-285"/>
<text text-anchor="middle" x="5085" y="-263.3" font-family="Times,serif" font-size="14.00" fill="#cdd9e5">PUT /confdb/{account}/{confdb&#45;schema}/{view}</text>
</g>
<!-- PUT /confdb/{account}/{confdb&#45;schema}/{view}&#45;&gt;Accepted -->
<g id="edge71" class="edge">
<title>PUT /confdb/{account}/{confdb&#45;schema}/{view}&#45;&gt;Accepted</title>
<path fill="none" stroke="#d8a436" d="M5016.14,-248.9C4977.54,-239.99 4928.36,-229.79 4884,-224 4442.44,-166.4 3289.71,-298.34 2883,-117 2863.87,-108.47 2847.27,-91.6 2835.64,-77.19"/>
<polygon fill="#d8a436" stroke="#d8a436" points="2838.25,-74.85 2829.38,-69.07 2832.71,-79.12 2838.25,-74.85"/>
</g>
<!-- PUT /confdb/{account}/{confdb&#45;schema}/{view}&#45;&gt;BadRequest -->
<g id="edge72" class="edge">
<title>PUT /confdb/{account}/{confdb&#45;schema}/{view}&#45;&gt;BadRequest</title>
<path fill="none" stroke="#d8a436" d="M5016.61,-248.95C4977.94,-240 4928.55,-229.74 4884,-224 4415.06,-163.57 3194.62,-300.84 2759,-117 2738.76,-108.46 2720.72,-91.35 2708.03,-76.83"/>
<polygon fill="#d8a436" stroke="#d8a436" points="2710.65,-74.52 2701.55,-69.1 2705.29,-79.01 2710.65,-74.52"/>
</g>
<!-- PUT /confdb/{account}/{confdb&#45;schema}/{view}&#45;&gt;macaroonAuth -->
<g id="edge73" class="edge">
<title>PUT /confdb/{account}/{confdb&#45;schema}/{view}&#45;&gt;macaroonAuth</title>
<path fill="none" stroke="#e26a77" d="M5013.27,-248.9C4975.07,-240.33 4927.19,-230.44 4884,-224 4170.96,-117.71 3297.45,-68.07 3047.07,-55.38"/>
<polygon fill="#e26a77" stroke="#e26a77" points="3047.18,-51.88 3037.02,-54.87 3046.83,-58.87 3047.18,-51.88"/>
</g>
</g>
</svg>
