<?xml version="1.0" encoding="UTF-8" standalone="no"?>
<!DOCTYPE svg PUBLIC "-//W3C//DTD SVG 1.1//EN"
 "http://www.w3.org/Graphics/SVG/1.1/DTD/svg11.dtd">
<!-- Generated by graphviz version 2.43.0 (0)
 -->
<!-- Title: OpenAPI_Dependencies Pages: 1 -->
<svg width="3263pt" height="349pt"
 viewBox="0.00 0.00 3263.00 349.00" xmlns="http://www.w3.org/2000/svg" xmlns:xlink="http://www.w3.org/1999/xlink">
<g id="graph0" class="graph" transform="scale(1 1) rotate(0) translate(4 345)">
<title>OpenAPI_Dependencies</title>
<polygon fill="#2d333b" stroke="transparent" points="-4,4 -4,-345 3259,-345 3259,4 -4,4"/>
<g id="clust1" class="cluster">
<title>cluster_endpoints</title>
<polygon fill="#2d333b" stroke="#cdd9e5" points="8,-224 8,-333 3215,-333 3215,-224 8,-224"/>
<text text-anchor="middle" x="1611.5" y="-317.8" font-family="Times,serif" font-size="14.00" fill="#cdd9e5">Endpoints &#45; Open</text>
</g>
<g id="clust2" class="cluster">
<title>cluster_schemas</title>
<polygon fill="#2d333b" stroke="#cdd9e5" points="2026,-8 2026,-117 3069,-117 3069,-8 2026,-8"/>
<text text-anchor="middle" x="2547.5" y="-101.8" font-family="Times,serif" font-size="14.00" fill="#cdd9e5">Schemas</text>
</g>
<g id="clust3" class="cluster">
<title>cluster_responses</title>
<polygon fill="#2d333b" stroke="#cdd9e5" points="1640,-8 1640,-117 1917,-117 1917,-8 1640,-8"/>
<text text-anchor="middle" x="1778.5" y="-101.8" font-family="Times,serif" font-size="14.00" fill="#cdd9e5">Responses</text>
</g>
<g id="clust4" class="cluster">
<title>cluster_security</title>
<polygon fill="#2d333b" stroke="#cdd9e5" points="3077,-8 3077,-117 3247,-117 3247,-8 3077,-8"/>
<text text-anchor="middle" x="3162" y="-101.8" font-family="Times,serif" font-size="14.00" fill="#cdd9e5">Security</text>
</g>
<!-- GET /aliases -->
<g id="node1" class="node">
<title>GET /aliases</title>
<path fill="#37516b" stroke="black" d="M832.5,-285C832.5,-285 751.5,-285 751.5,-285 745.5,-285 739.5,-279 739.5,-273 739.5,-273 739.5,-261 739.5,-261 739.5,-255 745.5,-249 751.5,-249 751.5,-249 832.5,-249 832.5,-249 838.5,-249 844.5,-255 844.5,-261 844.5,-261 844.5,-273 844.5,-273 844.5,-279 838.5,-285 832.5,-285"/>
<text text-anchor="middle" x="792" y="-263.3" font-family="Times,serif" font-size="14.00" fill="#cdd9e5">GET /aliases</text>
</g>
<!-- BadRequest -->
<g id="node28" class="node">
<title>BadRequest</title>
<path fill="#634c23" stroke="black" d="M1879.5,-69C1879.5,-69 1800.5,-69 1800.5,-69 1794.5,-69 1788.5,-63 1788.5,-57 1788.5,-57 1788.5,-45 1788.5,-45 1788.5,-39 1794.5,-33 1800.5,-33 1800.5,-33 1879.5,-33 1879.5,-33 1885.5,-33 1891.5,-39 1891.5,-45 1891.5,-45 1891.5,-57 1891.5,-57 1891.5,-63 1885.5,-69 1879.5,-69"/>
<text text-anchor="middle" x="1840" y="-47.3" font-family="Times,serif" font-size="14.00" fill="#cdd9e5">BadRequest</text>
</g>
<!-- GET /aliases&#45;&gt;BadRequest -->
<g id="edge1" class="edge">
<title>GET /aliases&#45;&gt;BadRequest</title>
<path fill="none" stroke="#d8a436" d="M815.11,-248.98C828.44,-240.04 845.9,-229.77 863,-224 1247.98,-93.96 1402.74,-288.77 1771,-117 1790.45,-107.93 1807.99,-91.23 1820.52,-77.03"/>
<polygon fill="#d8a436" stroke="#d8a436" points="1823.5,-78.93 1827.29,-69.04 1818.16,-74.41 1823.5,-78.93"/>
</g>
<!-- GET /apps -->
<g id="node2" class="node">
<title>GET /apps</title>
<path fill="#37516b" stroke="black" d="M2894,-285C2894,-285 2828,-285 2828,-285 2822,-285 2816,-279 2816,-273 2816,-273 2816,-261 2816,-261 2816,-255 2822,-249 2828,-249 2828,-249 2894,-249 2894,-249 2900,-249 2906,-255 2906,-261 2906,-261 2906,-273 2906,-273 2906,-279 2900,-285 2894,-285"/>
<text text-anchor="middle" x="2861" y="-263.3" font-family="Times,serif" font-size="14.00" fill="#cdd9e5">GET /apps</text>
</g>
<!-- App -->
<g id="node20" class="node">
<title>App</title>
<path fill="#345a3f" stroke="black" d="M2798,-69C2798,-69 2768,-69 2768,-69 2762,-69 2756,-63 2756,-57 2756,-57 2756,-45 2756,-45 2756,-39 2762,-33 2768,-33 2768,-33 2798,-33 2798,-33 2804,-33 2810,-39 2810,-45 2810,-45 2810,-57 2810,-57 2810,-63 2804,-69 2798,-69"/>
<text text-anchor="middle" x="2783" y="-47.3" font-family="Times,serif" font-size="14.00" fill="#cdd9e5">App</text>
</g>
<!-- GET /apps&#45;&gt;App -->
<g id="edge2" class="edge">
<title>GET /apps&#45;&gt;App</title>
<path fill="none" stroke="#53b668" d="M2854.75,-248.85C2841.2,-211.68 2809.04,-123.44 2792.78,-78.82"/>
<polygon fill="#53b668" stroke="#53b668" points="2795.99,-77.43 2789.28,-69.23 2789.42,-79.83 2795.99,-77.43"/>
</g>
<!-- GET /apps&#45;&gt;BadRequest -->
<g id="edge3" class="edge">
<title>GET /apps&#45;&gt;BadRequest</title>
<path fill="none" stroke="#d8a436" d="M2840.46,-248.83C2828.75,-239.97 2813.37,-229.82 2798,-224 2470.36,-99.9 2356.97,-201.66 2017,-117 1972.43,-105.9 1923.55,-87.44 1888.47,-73.03"/>
<polygon fill="#d8a436" stroke="#d8a436" points="1889.53,-69.68 1878.95,-69.08 1886.85,-76.14 1889.53,-69.68"/>
</g>
<!-- GET /assertions -->
<g id="node3" class="node">
<title>GET /assertions</title>
<path fill="#37516b" stroke="black" d="M691,-285C691,-285 585,-285 585,-285 579,-285 573,-279 573,-273 573,-273 573,-261 573,-261 573,-255 579,-249 585,-249 585,-249 691,-249 691,-249 697,-249 703,-255 703,-261 703,-261 703,-273 703,-273 703,-279 697,-285 691,-285"/>
<text text-anchor="middle" x="638" y="-263.3" font-family="Times,serif" font-size="14.00" fill="#cdd9e5">GET /assertions</text>
</g>
<!-- GET /assertions&#45;&gt;BadRequest -->
<g id="edge4" class="edge">
<title>GET /assertions&#45;&gt;BadRequest</title>
<path fill="none" stroke="#d8a436" d="M665.72,-248.94C681.61,-239.99 702.27,-229.73 722,-224 1172.05,-93.3 1344.75,-311.77 1771,-117 1790.52,-108.08 1808.06,-91.38 1820.57,-77.14"/>
<polygon fill="#d8a436" stroke="#d8a436" points="1823.56,-79.02 1827.33,-69.12 1818.21,-74.51 1823.56,-79.02"/>
</g>
<!-- GET /assertions/{assertionType} -->
<g id="node4" class="node">
<title>GET /assertions/{assertionType}</title>
<path fill="#37516b" stroke="black" d="M1554.5,-285C1554.5,-285 1325.5,-285 1325.5,-285 1319.5,-285 1313.5,-279 1313.5,-273 1313.5,-273 1313.5,-261 1313.5,-261 1313.5,-255 1319.5,-249 1325.5,-249 1325.5,-249 1554.5,-249 1554.5,-249 1560.5,-249 1566.5,-255 1566.5,-261 1566.5,-261 1566.5,-273 1566.5,-273 1566.5,-279 1560.5,-285 1554.5,-285"/>
<text text-anchor="middle" x="1440" y="-263.3" font-family="Times,serif" font-size="14.00" fill="#cdd9e5">GET /assertions/{assertionType}</text>
</g>
<!-- GET /assertions/{assertionType}&#45;&gt;BadRequest -->
<g id="edge5" class="edge">
<title>GET /assertions/{assertionType}&#45;&gt;BadRequest</title>
<path fill="none" stroke="#d8a436" d="M1491.2,-249C1558.65,-225.28 1679.45,-178.2 1771,-117 1788.16,-105.53 1805.06,-89.7 1817.84,-76.54"/>
<polygon fill="#d8a436" stroke="#d8a436" points="1820.51,-78.81 1824.86,-69.15 1815.44,-73.99 1820.51,-78.81"/>
</g>
<!-- GET /connections -->
<g id="node5" class="node">
<title>GET /connections</title>
<path fill="#37516b" stroke="black" d="M2767.5,-285C2767.5,-285 2650.5,-285 2650.5,-285 2644.5,-285 2638.5,-279 2638.5,-273 2638.5,-273 2638.5,-261 2638.5,-261 2638.5,-255 2644.5,-249 2650.5,-249 2650.5,-249 2767.5,-249 2767.5,-249 2773.5,-249 2779.5,-255 2779.5,-261 2779.5,-261 2779.5,-273 2779.5,-273 2779.5,-279 2773.5,-285 2767.5,-285"/>
<text text-anchor="middle" x="2709" y="-263.3" font-family="Times,serif" font-size="14.00" fill="#cdd9e5">GET /connections</text>
</g>
<!-- ConnectionStatus -->
<g id="node21" class="node">
<title>ConnectionStatus</title>
<path fill="#345a3f" stroke="black" d="M2707.5,-69C2707.5,-69 2588.5,-69 2588.5,-69 2582.5,-69 2576.5,-63 2576.5,-57 2576.5,-57 2576.5,-45 2576.5,-45 2576.5,-39 2582.5,-33 2588.5,-33 2588.5,-33 2707.5,-33 2707.5,-33 2713.5,-33 2719.5,-39 2719.5,-45 2719.5,-45 2719.5,-57 2719.5,-57 2719.5,-63 2713.5,-69 2707.5,-69"/>
<text text-anchor="middle" x="2648" y="-47.3" font-family="Times,serif" font-size="14.00" fill="#cdd9e5">ConnectionStatus</text>
</g>
<!-- GET /connections&#45;&gt;ConnectionStatus -->
<g id="edge7" class="edge">
<title>GET /connections&#45;&gt;ConnectionStatus</title>
<path fill="none" stroke="#53b668" d="M2704.11,-248.85C2693.54,-211.75 2668.47,-123.81 2655.73,-79.1"/>
<polygon fill="#53b668" stroke="#53b668" points="2659.02,-77.89 2652.91,-69.23 2652.29,-79.81 2659.02,-77.89"/>
</g>
<!-- GET /connections&#45;&gt;BadRequest -->
<g id="edge6" class="edge">
<title>GET /connections&#45;&gt;BadRequest</title>
<path fill="none" stroke="#d8a436" d="M2678.48,-248.92C2661.92,-240.3 2640.83,-230.36 2621,-224 2361.4,-140.75 2280.2,-188.04 2017,-117 1973.09,-105.15 1924.71,-87.01 1889.64,-72.91"/>
<polygon fill="#d8a436" stroke="#d8a436" points="1890.7,-69.56 1880.12,-69.05 1888.07,-76.05 1890.7,-69.56"/>
</g>
<!-- GET /find -->
<g id="node6" class="node">
<title>GET /find</title>
<path fill="#37516b" stroke="black" d="M3177.5,-285C3177.5,-285 3118.5,-285 3118.5,-285 3112.5,-285 3106.5,-279 3106.5,-273 3106.5,-273 3106.5,-261 3106.5,-261 3106.5,-255 3112.5,-249 3118.5,-249 3118.5,-249 3177.5,-249 3177.5,-249 3183.5,-249 3189.5,-255 3189.5,-261 3189.5,-261 3189.5,-273 3189.5,-273 3189.5,-279 3183.5,-285 3177.5,-285"/>
<text text-anchor="middle" x="3148" y="-263.3" font-family="Times,serif" font-size="14.00" fill="#cdd9e5">GET /find</text>
</g>
<!-- Snap -->
<g id="node25" class="node">
<title>Snap</title>
<path fill="#345a3f" stroke="black" d="M3032,-69C3032,-69 3002,-69 3002,-69 2996,-69 2990,-63 2990,-57 2990,-57 2990,-45 2990,-45 2990,-39 2996,-33 3002,-33 3002,-33 3032,-33 3032,-33 3038,-33 3044,-39 3044,-45 3044,-45 3044,-57 3044,-57 3044,-63 3038,-69 3032,-69"/>
<text text-anchor="middle" x="3017" y="-47.3" font-family="Times,serif" font-size="14.00" fill="#cdd9e5">Snap</text>
</g>
<!-- GET /find&#45;&gt;Snap -->
<g id="edge9" class="edge">
<title>GET /find&#45;&gt;Snap</title>
<path fill="none" stroke="#53b668" d="M3137.5,-248.85C3114.6,-211.44 3060.05,-122.32 3032.9,-77.98"/>
<polygon fill="#53b668" stroke="#53b668" points="3035.75,-75.93 3027.55,-69.23 3029.78,-79.59 3035.75,-75.93"/>
</g>
<!-- GET /find&#45;&gt;BadRequest -->
<g id="edge8" class="edge">
<title>GET /find&#45;&gt;BadRequest</title>
<path fill="none" stroke="#d8a436" d="M3128.92,-248.82C3117.79,-239.83 3103.02,-229.57 3088,-224 2639.48,-57.66 2483.23,-224.08 2017,-117 1971.8,-106.62 1922.41,-87.82 1887.32,-73.1"/>
<polygon fill="#d8a436" stroke="#d8a436" points="1888.39,-69.75 1877.82,-69.07 1885.66,-76.19 1888.39,-69.75"/>
</g>
<!-- macaroonAuth -->
<g id="node30" class="node">
<title>macaroonAuth</title>
<path fill="#6b3940" stroke="black" d="M3210,-69C3210,-69 3114,-69 3114,-69 3108,-69 3102,-63 3102,-57 3102,-57 3102,-45 3102,-45 3102,-39 3108,-33 3114,-33 3114,-33 3210,-33 3210,-33 3216,-33 3222,-39 3222,-45 3222,-45 3222,-57 3222,-57 3222,-63 3216,-69 3210,-69"/>
<text text-anchor="middle" x="3162" y="-47.3" font-family="Times,serif" font-size="14.00" fill="#cdd9e5">macaroonAuth</text>
</g>
<!-- GET /find&#45;&gt;macaroonAuth -->
<g id="edge10" class="edge">
<title>GET /find&#45;&gt;macaroonAuth</title>
<path fill="none" stroke="#e26a77" d="M3149.12,-248.85C3151.54,-211.83 3157.28,-124.18 3160.21,-79.39"/>
<polygon fill="#e26a77" stroke="#e26a77" points="3163.71,-79.44 3160.87,-69.23 3156.73,-78.98 3163.71,-79.44"/>
</g>
<!-- GET /icons/{name}/icon -->
<g id="node7" class="node">
<title>GET /icons/{name}/icon</title>
<path fill="#37516b" stroke="black" d="M209,-285C209,-285 45,-285 45,-285 39,-285 33,-279 33,-273 33,-273 33,-261 33,-261 33,-255 39,-249 45,-249 45,-249 209,-249 209,-249 215,-249 221,-255 221,-261 221,-261 221,-273 221,-273 221,-279 215,-285 209,-285"/>
<text text-anchor="middle" x="127" y="-263.3" font-family="Times,serif" font-size="14.00" fill="#cdd9e5">GET /icons/{name}/icon</text>
</g>
<!-- NotFound -->
<g id="node29" class="node">
<title>NotFound</title>
<path fill="#634c23" stroke="black" d="M1740.5,-69C1740.5,-69 1677.5,-69 1677.5,-69 1671.5,-69 1665.5,-63 1665.5,-57 1665.5,-57 1665.5,-45 1665.5,-45 1665.5,-39 1671.5,-33 1677.5,-33 1677.5,-33 1740.5,-33 1740.5,-33 1746.5,-33 1752.5,-39 1752.5,-45 1752.5,-45 1752.5,-57 1752.5,-57 1752.5,-63 1746.5,-69 1740.5,-69"/>
<text text-anchor="middle" x="1709" y="-47.3" font-family="Times,serif" font-size="14.00" fill="#cdd9e5">NotFound</text>
</g>
<!-- GET /icons/{name}/icon&#45;&gt;NotFound -->
<g id="edge11" class="edge">
<title>GET /icons/{name}/icon&#45;&gt;NotFound</title>
<path fill="none" stroke="#d8a436" d="M165.41,-248.96C186.7,-240.19 213.87,-230.09 239,-224 781.24,-92.67 1461.15,-60.39 1655.13,-53.61"/>
<polygon fill="#d8a436" stroke="#d8a436" points="1655.46,-57.1 1665.33,-53.26 1655.22,-50.1 1655.46,-57.1"/>
</g>
<!-- GET /logs -->
<g id="node8" class="node">
<title>GET /logs</title>
<path fill="#37516b" stroke="black" d="M955,-285C955,-285 893,-285 893,-285 887,-285 881,-279 881,-273 881,-273 881,-261 881,-261 881,-255 887,-249 893,-249 893,-249 955,-249 955,-249 961,-249 967,-255 967,-261 967,-261 967,-273 967,-273 967,-279 961,-285 955,-285"/>
<text text-anchor="middle" x="924" y="-263.3" font-family="Times,serif" font-size="14.00" fill="#cdd9e5">GET /logs</text>
</g>
<!-- GET /logs&#45;&gt;BadRequest -->
<g id="edge12" class="edge">
<title>GET /logs&#45;&gt;BadRequest</title>
<path fill="none" stroke="#d8a436" d="M944.17,-248.82C955.68,-239.96 970.82,-229.81 986,-224 1314.86,-98.17 1453.26,-268.73 1771,-117 1790.24,-107.81 1807.68,-91.27 1820.21,-77.18"/>
<polygon fill="#d8a436" stroke="#d8a436" points="1823.17,-79.11 1827,-69.24 1817.85,-74.56 1823.17,-79.11"/>
</g>
<!-- GET /model -->
<g id="node9" class="node">
<title>GET /model</title>
<path fill="#37516b" stroke="black" d="M525,-285C525,-285 449,-285 449,-285 443,-285 437,-279 437,-273 437,-273 437,-261 437,-261 437,-255 443,-249 449,-249 449,-249 525,-249 525,-249 531,-249 537,-255 537,-261 537,-261 537,-273 537,-273 537,-279 531,-285 525,-285"/>
<text text-anchor="middle" x="487" y="-263.3" font-family="Times,serif" font-size="14.00" fill="#cdd9e5">GET /model</text>
</g>
<!-- GET /model&#45;&gt;NotFound -->
<g id="edge13" class="edge">
<title>GET /model&#45;&gt;NotFound</title>
<path fill="none" stroke="#d8a436" d="M509.4,-248.94C522.12,-240.11 538.71,-229.96 555,-224 959.11,-76.2 1487.16,-55.26 1655.21,-52.41"/>
<polygon fill="#d8a436" stroke="#d8a436" points="1655.34,-55.91 1665.29,-52.25 1655.23,-48.91 1655.34,-55.91"/>
</g>
<!-- GET /model/serial -->
<g id="node10" class="node">
<title>GET /model/serial</title>
<path fill="#37516b" stroke="black" d="M389,-285C389,-285 269,-285 269,-285 263,-285 257,-279 257,-273 257,-273 257,-261 257,-261 257,-255 263,-249 269,-249 269,-249 389,-249 389,-249 395,-249 401,-255 401,-261 401,-261 401,-273 401,-273 401,-279 395,-285 389,-285"/>
<text text-anchor="middle" x="329" y="-263.3" font-family="Times,serif" font-size="14.00" fill="#cdd9e5">GET /model/serial</text>
</g>
<!-- GET /model/serial&#45;&gt;NotFound -->
<g id="edge14" class="edge">
<title>GET /model/serial&#45;&gt;NotFound</title>
<path fill="none" stroke="#d8a436" d="M359.74,-248.8C376.72,-240.04 398.48,-230 419,-224 884.37,-87.87 1476.02,-59.1 1655.21,-53.36"/>
<polygon fill="#d8a436" stroke="#d8a436" points="1655.54,-56.85 1665.43,-53.04 1655.32,-49.85 1655.54,-56.85"/>
</g>
<!-- GET /notices -->
<g id="node11" class="node">
<title>GET /notices</title>
<path fill="#37516b" stroke="black" d="M2415.5,-285C2415.5,-285 2332.5,-285 2332.5,-285 2326.5,-285 2320.5,-279 2320.5,-273 2320.5,-273 2320.5,-261 2320.5,-261 2320.5,-255 2326.5,-249 2332.5,-249 2332.5,-249 2415.5,-249 2415.5,-249 2421.5,-249 2427.5,-255 2427.5,-261 2427.5,-261 2427.5,-273 2427.5,-273 2427.5,-279 2421.5,-285 2415.5,-285"/>
<text text-anchor="middle" x="2374" y="-263.3" font-family="Times,serif" font-size="14.00" fill="#cdd9e5">GET /notices</text>
</g>
<!-- Notice -->
<g id="node23" class="node">
<title>Notice</title>
<path fill="#345a3f" stroke="black" d="M2393.5,-69C2393.5,-69 2354.5,-69 2354.5,-69 2348.5,-69 2342.5,-63 2342.5,-57 2342.5,-57 2342.5,-45 2342.5,-45 2342.5,-39 2348.5,-33 2354.5,-33 2354.5,-33 2393.5,-33 2393.5,-33 2399.5,-33 2405.5,-39 2405.5,-45 2405.5,-45 2405.5,-57 2405.5,-57 2405.5,-63 2399.5,-69 2393.5,-69"/>
<text text-anchor="middle" x="2374" y="-47.3" font-family="Times,serif" font-size="14.00" fill="#cdd9e5">Notice</text>
</g>
<!-- GET /notices&#45;&gt;Notice -->
<g id="edge16" class="edge">
<title>GET /notices&#45;&gt;Notice</title>
<path fill="none" stroke="#53b668" d="M2374,-248.85C2374,-211.83 2374,-124.18 2374,-79.39"/>
<polygon fill="#53b668" stroke="#53b668" points="2377.5,-79.23 2374,-69.23 2370.5,-79.23 2377.5,-79.23"/>
</g>
<!-- GET /notices&#45;&gt;BadRequest -->
<g id="edge15" class="edge">
<title>GET /notices&#45;&gt;BadRequest</title>
<path fill="none" stroke="#d8a436" d="M2347.24,-248.91C2333.94,-240.8 2317.43,-231.31 2302,-224 2282.79,-214.9 2015.17,-116.34 1896.25,-72.65"/>
<polygon fill="#d8a436" stroke="#d8a436" points="1897.18,-69.26 1886.58,-69.1 1894.76,-75.83 1897.18,-69.26"/>
</g>
<!-- GET /quotas -->
<g id="node12" class="node">
<title>GET /quotas</title>
<path fill="#37516b" stroke="black" d="M1943,-285C1943,-285 1863,-285 1863,-285 1857,-285 1851,-279 1851,-273 1851,-273 1851,-261 1851,-261 1851,-255 1857,-249 1863,-249 1863,-249 1943,-249 1943,-249 1949,-249 1955,-255 1955,-261 1955,-261 1955,-273 1955,-273 1955,-279 1949,-285 1943,-285"/>
<text text-anchor="middle" x="1903" y="-263.3" font-family="Times,serif" font-size="14.00" fill="#cdd9e5">GET /quotas</text>
</g>
<!-- QuotaGroup -->
<g id="node24" class="node">
<title>QuotaGroup</title>
<path fill="#345a3f" stroke="black" d="M2143,-69C2143,-69 2063,-69 2063,-69 2057,-69 2051,-63 2051,-57 2051,-57 2051,-45 2051,-45 2051,-39 2057,-33 2063,-33 2063,-33 2143,-33 2143,-33 2149,-33 2155,-39 2155,-45 2155,-45 2155,-57 2155,-57 2155,-63 2149,-69 2143,-69"/>
<text text-anchor="middle" x="2103" y="-47.3" font-family="Times,serif" font-size="14.00" fill="#cdd9e5">QuotaGroup</text>
</g>
<!-- GET /quotas&#45;&gt;QuotaGroup -->
<g id="edge18" class="edge">
<title>GET /quotas&#45;&gt;QuotaGroup</title>
<path fill="none" stroke="#53b668" d="M1919.03,-248.85C1954.36,-211.05 2039.03,-120.45 2080.01,-76.6"/>
<polygon fill="#53b668" stroke="#53b668" points="2082.62,-78.93 2086.89,-69.23 2077.51,-74.15 2082.62,-78.93"/>
</g>
<!-- GET /quotas&#45;&gt;BadRequest -->
<g id="edge17" class="edge">
<title>GET /quotas&#45;&gt;BadRequest</title>
<path fill="none" stroke="#d8a436" d="M1897.95,-248.85C1887.03,-211.75 1861.14,-123.81 1847.98,-79.1"/>
<polygon fill="#d8a436" stroke="#d8a436" points="1851.25,-77.84 1845.07,-69.23 1844.54,-79.81 1851.25,-77.84"/>
</g>
<!-- GET /quotas/{group&#45;name} -->
<g id="node13" class="node">
<title>GET /quotas/{group&#45;name}</title>
<path fill="#37516b" stroke="black" d="M1803,-285C1803,-285 1615,-285 1615,-285 1609,-285 1603,-279 1603,-273 1603,-273 1603,-261 1603,-261 1603,-255 1609,-249 1615,-249 1615,-249 1803,-249 1803,-249 1809,-249 1815,-255 1815,-261 1815,-261 1815,-273 1815,-273 1815,-279 1809,-285 1803,-285"/>
<text text-anchor="middle" x="1709" y="-263.3" font-family="Times,serif" font-size="14.00" fill="#cdd9e5">GET /quotas/{group&#45;name}</text>
</g>
<!-- GET /quotas/{group&#45;name}&#45;&gt;QuotaGroup -->
<g id="edge20" class="edge">
<title>GET /quotas/{group&#45;name}&#45;&gt;QuotaGroup</title>
<path fill="none" stroke="#53b668" d="M1740.58,-248.85C1811.56,-210.3 1983.65,-116.83 2062.42,-74.04"/>
<polygon fill="#53b668" stroke="#53b668" points="2064.43,-76.93 2071.55,-69.08 2061.09,-70.78 2064.43,-76.93"/>
</g>
<!-- GET /quotas/{group&#45;name}&#45;&gt;NotFound -->
<g id="edge19" class="edge">
<title>GET /quotas/{group&#45;name}&#45;&gt;NotFound</title>
<path fill="none" stroke="#d8a436" d="M1709,-248.85C1709,-211.83 1709,-124.18 1709,-79.39"/>
<polygon fill="#d8a436" stroke="#d8a436" points="1712.5,-79.23 1709,-69.23 1705.5,-79.23 1712.5,-79.23"/>
</g>
<!-- GET /sections -->
<g id="node14" class="node">
<title>GET /sections</title>
<path fill="#37516b" stroke="black" d="M1106.5,-285C1106.5,-285 1015.5,-285 1015.5,-285 1009.5,-285 1003.5,-279 1003.5,-273 1003.5,-273 1003.5,-261 1003.5,-261 1003.5,-255 1009.5,-249 1015.5,-249 1015.5,-249 1106.5,-249 1106.5,-249 1112.5,-249 1118.5,-255 1118.5,-261 1118.5,-261 1118.5,-273 1118.5,-273 1118.5,-279 1112.5,-285 1106.5,-285"/>
<text text-anchor="middle" x="1061" y="-263.3" font-family="Times,serif" font-size="14.00" fill="#cdd9e5">GET /sections</text>
</g>
<!-- GET /sections&#45;&gt;BadRequest -->
<g id="edge21" class="edge">
<title>GET /sections&#45;&gt;BadRequest</title>
<path fill="none" stroke="#d8a436" d="M1086.7,-248.93C1100.97,-240.21 1119.35,-230.16 1137,-224 1406.78,-129.77 1515.12,-244.22 1771,-117 1790.09,-107.51 1807.54,-90.97 1820.11,-76.96"/>
<polygon fill="#d8a436" stroke="#d8a436" points="1823.03,-78.92 1826.92,-69.07 1817.74,-74.35 1823.03,-78.92"/>
</g>
<!-- GET /snaps -->
<g id="node15" class="node">
<title>GET /snaps</title>
<path fill="#37516b" stroke="black" d="M2272,-285C2272,-285 2198,-285 2198,-285 2192,-285 2186,-279 2186,-273 2186,-273 2186,-261 2186,-261 2186,-255 2192,-249 2198,-249 2198,-249 2272,-249 2272,-249 2278,-249 2284,-255 2284,-261 2284,-261 2284,-273 2284,-273 2284,-279 2278,-285 2272,-285"/>
<text text-anchor="middle" x="2235" y="-263.3" font-family="Times,serif" font-size="14.00" fill="#cdd9e5">GET /snaps</text>
</g>
<!-- InstalledSnap -->
<g id="node22" class="node">
<title>InstalledSnap</title>
<path fill="#345a3f" stroke="black" d="M2294.5,-69C2294.5,-69 2203.5,-69 2203.5,-69 2197.5,-69 2191.5,-63 2191.5,-57 2191.5,-57 2191.5,-45 2191.5,-45 2191.5,-39 2197.5,-33 2203.5,-33 2203.5,-33 2294.5,-33 2294.5,-33 2300.5,-33 2306.5,-39 2306.5,-45 2306.5,-45 2306.5,-57 2306.5,-57 2306.5,-63 2300.5,-69 2294.5,-69"/>
<text text-anchor="middle" x="2249" y="-47.3" font-family="Times,serif" font-size="14.00" fill="#cdd9e5">InstalledSnap</text>
</g>
<!-- GET /snaps&#45;&gt;InstalledSnap -->
<g id="edge23" class="edge">
<title>GET /snaps&#45;&gt;InstalledSnap</title>
<path fill="none" stroke="#53b668" d="M2236.12,-248.85C2238.54,-211.83 2244.28,-124.18 2247.21,-79.39"/>
<polygon fill="#53b668" stroke="#53b668" points="2250.71,-79.44 2247.87,-69.23 2243.73,-78.98 2250.71,-79.44"/>
</g>
<!-- GET /snaps&#45;&gt;BadRequest -->
<g id="edge22" class="edge">
<title>GET /snaps&#45;&gt;BadRequest</title>
<path fill="none" stroke="#d8a436" d="M2209.3,-248.93C2197.21,-241.09 2182.52,-231.82 2169,-224 2069.02,-166.19 1947.81,-105.04 1884.08,-73.55"/>
<polygon fill="#d8a436" stroke="#d8a436" points="1885.62,-70.41 1875.1,-69.12 1882.52,-76.68 1885.62,-70.41"/>
</g>
<!-- GET /snaps/{name} -->
<g id="node16" class="node">
<title>GET /snaps/{name}</title>
<path fill="#37516b" stroke="black" d="M2138.5,-285C2138.5,-285 2003.5,-285 2003.5,-285 1997.5,-285 1991.5,-279 1991.5,-273 1991.5,-273 1991.5,-261 1991.5,-261 1991.5,-255 1997.5,-249 2003.5,-249 2003.5,-249 2138.5,-249 2138.5,-249 2144.5,-249 2150.5,-255 2150.5,-261 2150.5,-261 2150.5,-273 2150.5,-273 2150.5,-279 2144.5,-285 2138.5,-285"/>
<text text-anchor="middle" x="2071" y="-263.3" font-family="Times,serif" font-size="14.00" fill="#cdd9e5">GET /snaps/{name}</text>
</g>
<!-- GET /snaps/{name}&#45;&gt;InstalledSnap -->
<g id="edge24" class="edge">
<title>GET /snaps/{name}&#45;&gt;InstalledSnap</title>
<path fill="none" stroke="#53b668" d="M2085.27,-248.85C2116.58,-211.21 2191.44,-121.2 2228.08,-77.15"/>
<polygon fill="#53b668" stroke="#53b668" points="2230.96,-79.16 2234.67,-69.23 2225.58,-74.68 2230.96,-79.16"/>
</g>
<!-- GET /snaps/{name}&#45;&gt;NotFound -->
<g id="edge25" class="edge">
<title>GET /snaps/{name}&#45;&gt;NotFound</title>
<path fill="none" stroke="#d8a436" d="M2032.55,-248.93C1962.22,-217.37 1815.95,-150.12 1771,-117 1755.4,-105.51 1740.35,-89.87 1728.98,-76.8"/>
<polygon fill="#d8a436" stroke="#d8a436" points="1731.54,-74.42 1722.4,-69.07 1726.21,-78.95 1731.54,-74.42"/>
</g>
<!-- GET /snapshots -->
<g id="node17" class="node">
<title>GET /snapshots</title>
<path fill="#37516b" stroke="black" d="M3058,-285C3058,-285 2954,-285 2954,-285 2948,-285 2942,-279 2942,-273 2942,-273 2942,-261 2942,-261 2942,-255 2948,-249 2954,-249 2954,-249 3058,-249 3058,-249 3064,-249 3070,-255 3070,-261 3070,-261 3070,-273 3070,-273 3070,-279 3064,-285 3058,-285"/>
<text text-anchor="middle" x="3006" y="-263.3" font-family="Times,serif" font-size="14.00" fill="#cdd9e5">GET /snapshots</text>
</g>
<!-- SnapshotSet -->
<g id="node26" class="node">
<title>SnapshotSet</title>
<path fill="#345a3f" stroke="black" d="M2941.5,-69C2941.5,-69 2858.5,-69 2858.5,-69 2852.5,-69 2846.5,-63 2846.5,-57 2846.5,-57 2846.5,-45 2846.5,-45 2846.5,-39 2852.5,-33 2858.5,-33 2858.5,-33 2941.5,-33 2941.5,-33 2947.5,-33 2953.5,-39 2953.5,-45 2953.5,-45 2953.5,-57 2953.5,-57 2953.5,-63 2947.5,-69 2941.5,-69"/>
<text text-anchor="middle" x="2900" y="-47.3" font-family="Times,serif" font-size="14.00" fill="#cdd9e5">SnapshotSet</text>
</g>
<!-- GET /snapshots&#45;&gt;SnapshotSet -->
<g id="edge27" class="edge">
<title>GET /snapshots&#45;&gt;SnapshotSet</title>
<path fill="none" stroke="#53b668" d="M2997.5,-248.85C2979.01,-211.52 2935.02,-122.69 2913.01,-78.26"/>
<polygon fill="#53b668" stroke="#53b668" points="2916.11,-76.64 2908.54,-69.23 2909.84,-79.75 2916.11,-76.64"/>
</g>
<!-- GET /snapshots&#45;&gt;BadRequest -->
<g id="edge26" class="edge">
<title>GET /snapshots&#45;&gt;BadRequest</title>
<path fill="none" stroke="#d8a436" d="M2978.58,-248.83C2963.13,-239.97 2943.13,-229.82 2924,-224 2535.67,-105.83 2411.78,-211.39 2017,-117 1972.04,-106.25 1922.82,-87.58 1887.72,-73"/>
<polygon fill="#d8a436" stroke="#d8a436" points="1888.79,-69.65 1878.21,-69 1886.08,-76.1 1888.79,-69.65"/>
</g>
<!-- GET /system&#45;info -->
<g id="node18" class="node">
<title>GET /system&#45;info</title>
<path fill="#37516b" stroke="black" d="M2590.5,-285C2590.5,-285 2475.5,-285 2475.5,-285 2469.5,-285 2463.5,-279 2463.5,-273 2463.5,-273 2463.5,-261 2463.5,-261 2463.5,-255 2469.5,-249 2475.5,-249 2475.5,-249 2590.5,-249 2590.5,-249 2596.5,-249 2602.5,-255 2602.5,-261 2602.5,-261 2602.5,-273 2602.5,-273 2602.5,-279 2596.5,-285 2590.5,-285"/>
<text text-anchor="middle" x="2533" y="-263.3" font-family="Times,serif" font-size="14.00" fill="#cdd9e5">GET /system&#45;info</text>
</g>
<!-- SystemInfo -->
<g id="node27" class="node">
<title>SystemInfo</title>
<path fill="#345a3f" stroke="black" d="M2528,-69C2528,-69 2454,-69 2454,-69 2448,-69 2442,-63 2442,-57 2442,-57 2442,-45 2442,-45 2442,-39 2448,-33 2454,-33 2454,-33 2528,-33 2528,-33 2534,-33 2540,-39 2540,-45 2540,-45 2540,-57 2540,-57 2540,-63 2534,-69 2528,-69"/>
<text text-anchor="middle" x="2491" y="-47.3" font-family="Times,serif" font-size="14.00" fill="#cdd9e5">SystemInfo</text>
</g>
<!-- GET /system&#45;info&#45;&gt;SystemInfo -->
<g id="edge29" class="edge">
<title>GET /system&#45;info&#45;&gt;SystemInfo</title>
<path fill="none" stroke="#53b668" d="M2529.63,-248.85C2522.35,-211.75 2505.09,-123.81 2496.32,-79.1"/>
<polygon fill="#53b668" stroke="#53b668" points="2499.74,-78.37 2494.38,-69.23 2492.87,-79.72 2499.74,-78.37"/>
</g>
<!-- GET /system&#45;info&#45;&gt;BadRequest -->
<g id="edge28" class="edge">
<title>GET /system&#45;info&#45;&gt;BadRequest</title>
<path fill="none" stroke="#d8a436" d="M2501.45,-248.83C2485.23,-240.5 2464.93,-230.85 2446,-224 2261.21,-157.15 2204.84,-174.73 2017,-117 1974.38,-103.9 1927.01,-86.34 1892.01,-72.78"/>
<polygon fill="#d8a436" stroke="#d8a436" points="1893.07,-69.43 1882.48,-69.06 1890.53,-75.96 1893.07,-69.43"/>
</g>
<!-- GET /warnings -->
<g id="node19" class="node">
<title>GET /warnings</title>
<path fill="#37516b" stroke="black" d="M1265,-285C1265,-285 1167,-285 1167,-285 1161,-285 1155,-279 1155,-273 1155,-273 1155,-261 1155,-261 1155,-255 1161,-249 1167,-249 1167,-249 1265,-249 1265,-249 1271,-249 1277,-255 1277,-261 1277,-261 1277,-273 1277,-273 1277,-279 1271,-285 1265,-285"/>
<text text-anchor="middle" x="1216" y="-263.3" font-family="Times,serif" font-size="14.00" fill="#cdd9e5">GET /warnings</text>
</g>
<!-- GET /warnings&#45;&gt;BadRequest -->
<g id="edge30" class="edge">
<title>GET /warnings&#45;&gt;BadRequest</title>
<path fill="none" stroke="#d8a436" d="M1244.05,-248.96C1259.03,-240.46 1278.04,-230.61 1296,-224 1499.09,-149.29 1579.92,-218.57 1771,-117 1789.71,-107.06 1807.05,-90.68 1819.67,-76.85"/>
<polygon fill="#d8a436" stroke="#d8a436" points="1822.54,-78.88 1826.53,-69.07 1817.29,-74.26 1822.54,-78.88"/>
</g>
</g>
</svg>
