<?xml version="1.0" encoding="UTF-8" standalone="no"?>
<!DOCTYPE svg PUBLIC "-//W3C//DTD SVG 1.1//EN"
 "http://www.w3.org/Graphics/SVG/1.1/DTD/svg11.dtd">
<!-- Generated by graphviz version 2.43.0 (0)
 -->
<!-- Title: OpenAPI_Dependencies Pages: 1 -->
<svg width="1005pt" height="349pt"
 viewBox="0.00 0.00 1005.00 349.00" xmlns="http://www.w3.org/2000/svg" xmlns:xlink="http://www.w3.org/1999/xlink">
<g id="graph0" class="graph" transform="scale(1 1) rotate(0) translate(4 345)">
<title>OpenAPI_Dependencies</title>
<polygon fill="#2d333b" stroke="transparent" points="-4,4 -4,-345 1001,-345 1001,4 -4,4"/>
<g id="clust1" class="cluster">
<title>cluster_endpoints</title>
<polygon fill="#2d333b" stroke="#cdd9e5" points="8,-224 8,-333 989,-333 989,-224 8,-224"/>
<text text-anchor="middle" x="498.5" y="-317.8" font-family="Times,serif" font-size="14.00" fill="#cdd9e5">Endpoints &#45; Prompts</text>
</g>
<g id="clust2" class="cluster">
<title>cluster_schemas</title>
<polygon fill="#2d333b" stroke="#cdd9e5" points="246,-8 246,-117 512,-117 512,-8 246,-8"/>
<text text-anchor="middle" x="379" y="-101.8" font-family="Times,serif" font-size="14.00" fill="#cdd9e5">Schemas</text>
</g>
<g id="clust3" class="cluster">
<title>cluster_responses</title>
<polygon fill="#2d333b" stroke="#cdd9e5" points="520,-8 520,-117 658,-117 658,-8 520,-8"/>
<text text-anchor="middle" x="589" y="-101.8" font-family="Times,serif" font-size="14.00" fill="#cdd9e5">Responses</text>
</g>
<!-- GET /interfaces/requests/prompts -->
<g id="node1" class="node">
<title>GET /interfaces/requests/prompts</title>
<path fill="#37516b" stroke="black" d="M951.5,-285C951.5,-285 716.5,-285 716.5,-285 710.5,-285 704.5,-279 704.5,-273 704.5,-273 704.5,-261 704.5,-261 704.5,-255 710.5,-249 716.5,-249 716.5,-249 951.5,-249 951.5,-249 957.5,-249 963.5,-255 963.5,-261 963.5,-261 963.5,-273 963.5,-273 963.5,-279 957.5,-285 951.5,-285"/>
<text text-anchor="middle" x="834" y="-263.3" font-family="Times,serif" font-size="14.00" fill="#cdd9e5">GET /interfaces/requests/prompts</text>
</g>
<!-- Prompt -->
<g id="node4" class="node">
<title>Prompt</title>
<path fill="#345a3f" stroke="black" d="M475,-69C475,-69 429,-69 429,-69 423,-69 417,-63 417,-57 417,-57 417,-45 417,-45 417,-39 423,-33 429,-33 429,-33 475,-33 475,-33 481,-33 487,-39 487,-45 487,-45 487,-57 487,-57 487,-63 481,-69 475,-69"/>
<text text-anchor="middle" x="452" y="-47.3" font-family="Times,serif" font-size="14.00" fill="#cdd9e5">Prompt</text>
</g>
<!-- GET /interfaces/requests/prompts&#45;&gt;Prompt -->
<g id="edge2" class="edge">
<title>GET /interfaces/requests/prompts&#45;&gt;Prompt</title>
<path fill="none" stroke="#53b668" d="M781.03,-249C714.02,-225.89 597.01,-180.11 511,-117 495.88,-105.91 481.66,-90.46 470.98,-77.41"/>
<polygon fill="#53b668" stroke="#53b668" points="473.45,-74.9 464.49,-69.25 467.97,-79.25 473.45,-74.9"/>
</g>
<!-- NotFound -->
<g id="node6" class="node">
<title>NotFound</title>
<path fill="#634c23" stroke="black" d="M620.5,-69C620.5,-69 557.5,-69 557.5,-69 551.5,-69 545.5,-63 545.5,-57 545.5,-57 545.5,-45 545.5,-45 545.5,-39 551.5,-33 557.5,-33 557.5,-33 620.5,-33 620.5,-33 626.5,-33 632.5,-39 632.5,-45 632.5,-45 632.5,-57 632.5,-57 632.5,-63 626.5,-69 620.5,-69"/>
<text text-anchor="middle" x="589" y="-47.3" font-family="Times,serif" font-size="14.00" fill="#cdd9e5">NotFound</text>
</g>
<!-- GET /interfaces/requests/prompts&#45;&gt;NotFound -->
<g id="edge1" class="edge">
<title>GET /interfaces/requests/prompts&#45;&gt;NotFound</title>
<path fill="none" stroke="#d8a436" d="M814.36,-248.85C770.91,-210.89 666.51,-119.7 616.55,-76.06"/>
<polygon fill="#d8a436" stroke="#d8a436" points="618.56,-73.17 608.73,-69.23 613.96,-78.45 618.56,-73.17"/>
</g>
<!-- GET /interfaces/requests/prompts/{id} -->
<g id="node2" class="node">
<title>GET /interfaces/requests/prompts/{id}</title>
<path fill="#37516b" stroke="black" d="M656.5,-285C656.5,-285 385.5,-285 385.5,-285 379.5,-285 373.5,-279 373.5,-273 373.5,-273 373.5,-261 373.5,-261 373.5,-255 379.5,-249 385.5,-249 385.5,-249 656.5,-249 656.5,-249 662.5,-249 668.5,-255 668.5,-261 668.5,-261 668.5,-273 668.5,-273 668.5,-279 662.5,-285 656.5,-285"/>
<text text-anchor="middle" x="521" y="-263.3" font-family="Times,serif" font-size="14.00" fill="#cdd9e5">GET /interfaces/requests/prompts/{id}</text>
</g>
<!-- GET /interfaces/requests/prompts/{id}&#45;&gt;Prompt -->
<g id="edge4" class="edge">
<title>GET /interfaces/requests/prompts/{id}&#45;&gt;Prompt</title>
<path fill="none" stroke="#53b668" d="M515.47,-248.85C503.48,-211.68 475.03,-123.44 460.65,-78.82"/>
<polygon fill="#53b668" stroke="#53b668" points="463.96,-77.68 457.56,-69.23 457.29,-79.82 463.96,-77.68"/>
</g>
<!-- GET /interfaces/requests/prompts/{id}&#45;&gt;NotFound -->
<g id="edge3" class="edge">
<title>GET /interfaces/requests/prompts/{id}&#45;&gt;NotFound</title>
<path fill="none" stroke="#d8a436" d="M526.45,-248.85C538.26,-211.68 566.3,-123.44 580.48,-78.82"/>
<polygon fill="#d8a436" stroke="#d8a436" points="583.83,-79.82 583.52,-69.23 577.16,-77.7 583.83,-79.82"/>
</g>
<!-- POST /interfaces/requests/prompts/{id} -->
<g id="node3" class="node">
<title>POST /interfaces/requests/prompts/{id}</title>
<path fill="#37516b" stroke="black" d="M325,-285C325,-285 45,-285 45,-285 39,-285 33,-279 33,-273 33,-273 33,-261 33,-261 33,-255 39,-249 45,-249 45,-249 325,-249 325,-249 331,-249 337,-255 337,-261 337,-261 337,-273 337,-273 337,-279 331,-285 325,-285"/>
<text text-anchor="middle" x="185" y="-263.3" font-family="Times,serif" font-size="14.00" fill="#cdd9e5">POST /interfaces/requests/prompts/{id}</text>
</g>
<!-- PromptReply -->
<g id="node5" class="node">
<title>PromptReply</title>
<path fill="#345a3f" stroke="black" d="M369,-69C369,-69 283,-69 283,-69 277,-69 271,-63 271,-57 271,-57 271,-45 271,-45 271,-39 277,-33 283,-33 283,-33 369,-33 369,-33 375,-33 381,-39 381,-45 381,-45 381,-57 381,-57 381,-63 375,-69 369,-69"/>
<text text-anchor="middle" x="326" y="-47.3" font-family="Times,serif" font-size="14.00" fill="#cdd9e5">PromptReply</text>
</g>
<!-- POST /interfaces/requests/prompts/{id}&#45;&gt;PromptReply -->
<g id="edge6" class="edge">
<title>POST /interfaces/requests/prompts/{id}&#45;&gt;PromptReply</title>
<path fill="none" stroke="#53b668" d="M196.3,-248.85C221,-211.36 279.91,-121.95 309.07,-77.7"/>
<polygon fill="#53b668" stroke="#53b668" points="312.07,-79.51 314.65,-69.23 306.22,-75.66 312.07,-79.51"/>
</g>
<!-- POST /interfaces/requests/prompts/{id}&#45;&gt;NotFound -->
<g id="edge5" class="edge">
<title>POST /interfaces/requests/prompts/{id}&#45;&gt;NotFound</title>
<path fill="none" stroke="#d8a436" d="M237.94,-248.95C306.68,-225.42 428.75,-178.79 521,-117 538.01,-105.6 554.68,-89.78 567.25,-76.6"/>
<polygon fill="#d8a436" stroke="#d8a436" points="569.89,-78.89 574.15,-69.19 564.77,-74.12 569.89,-78.89"/>
</g>
</g>
</svg>
