<?xml version="1.0" encoding="UTF-8" standalone="no"?>
<!DOCTYPE svg PUBLIC "-//W3C//DTD SVG 1.1//EN"
 "http://www.w3.org/Graphics/SVG/1.1/DTD/svg11.dtd">
<!-- Generated by graphviz version 2.43.0 (0)
 -->
<!-- Title: OpenAPI_Dependencies Pages: 1 -->
<svg width="762pt" height="349pt"
 viewBox="0.00 0.00 762.00 349.00" xmlns="http://www.w3.org/2000/svg" xmlns:xlink="http://www.w3.org/1999/xlink">
<g id="graph0" class="graph" transform="scale(1 1) rotate(0) translate(4 345)">
<title>OpenAPI_Dependencies</title>
<polygon fill="#2d333b" stroke="transparent" points="-4,4 -4,-345 758,-345 758,4 -4,4"/>
<g id="clust1" class="cluster">
<title>cluster_endpoints</title>
<polygon fill="#2d333b" stroke="#cdd9e5" points="8,-224 8,-333 560,-333 560,-224 8,-224"/>
<text text-anchor="middle" x="284" y="-317.8" font-family="Times,serif" font-size="14.00" fill="#cdd9e5">Endpoints &#45; Quotas</text>
</g>
<g id="clust2" class="cluster">
<title>cluster_schemas</title>
<polygon fill="#2d333b" stroke="#cdd9e5" points="11,-8 11,-117 165,-117 165,-8 11,-8"/>
<text text-anchor="middle" x="88" y="-101.8" font-family="Times,serif" font-size="14.00" fill="#cdd9e5">Schemas</text>
</g>
<g id="clust3" class="cluster">
<title>cluster_responses</title>
<polygon fill="#2d333b" stroke="#cdd9e5" points="173,-8 173,-117 568,-117 568,-8 173,-8"/>
<text text-anchor="middle" x="370.5" y="-101.8" font-family="Times,serif" font-size="14.00" fill="#cdd9e5">Responses</text>
</g>
<g id="clust4" class="cluster">
<title>cluster_security</title>
<polygon fill="#2d333b" stroke="#cdd9e5" points="576,-8 576,-117 746,-117 746,-8 576,-8"/>
<text text-anchor="middle" x="661" y="-101.8" font-family="Times,serif" font-size="14.00" fill="#cdd9e5">Security</text>
</g>
<!-- GET /quotas -->
<g id="node1" class="node">
<title>GET /quotas</title>
<path fill="#37516b" stroke="black" d="M373,-285C373,-285 293,-285 293,-285 287,-285 281,-279 281,-273 281,-273 281,-261 281,-261 281,-255 287,-249 293,-249 293,-249 373,-249 373,-249 379,-249 385,-255 385,-261 385,-261 385,-273 385,-273 385,-279 379,-285 373,-285"/>
<text text-anchor="middle" x="333" y="-263.3" font-family="Times,serif" font-size="14.00" fill="#cdd9e5">GET /quotas</text>
</g>
<!-- QuotaGroup -->
<g id="node4" class="node">
<title>QuotaGroup</title>
<path fill="#345a3f" stroke="black" d="M128,-69C128,-69 48,-69 48,-69 42,-69 36,-63 36,-57 36,-57 36,-45 36,-45 36,-39 42,-33 48,-33 48,-33 128,-33 128,-33 134,-33 140,-39 140,-45 140,-45 140,-57 140,-57 140,-63 134,-69 128,-69"/>
<text text-anchor="middle" x="88" y="-47.3" font-family="Times,serif" font-size="14.00" fill="#cdd9e5">QuotaGroup</text>
</g>
<!-- GET /quotas&#45;&gt;QuotaGroup -->
<g id="edge2" class="edge">
<title>GET /quotas&#45;&gt;QuotaGroup</title>
<path fill="none" stroke="#53b668" d="M313.36,-248.85C269.91,-210.89 165.51,-119.7 115.55,-76.06"/>
<polygon fill="#53b668" stroke="#53b668" points="117.56,-73.17 107.73,-69.23 112.96,-78.45 117.56,-73.17"/>
</g>
<!-- BadRequest -->
<g id="node6" class="node">
<title>BadRequest</title>
<path fill="#634c23" stroke="black" d="M412.5,-69C412.5,-69 333.5,-69 333.5,-69 327.5,-69 321.5,-63 321.5,-57 321.5,-57 321.5,-45 321.5,-45 321.5,-39 327.5,-33 333.5,-33 333.5,-33 412.5,-33 412.5,-33 418.5,-33 424.5,-39 424.5,-45 424.5,-45 424.5,-57 424.5,-57 424.5,-63 418.5,-69 412.5,-69"/>
<text text-anchor="middle" x="373" y="-47.3" font-family="Times,serif" font-size="14.00" fill="#cdd9e5">BadRequest</text>
</g>
<!-- GET /quotas&#45;&gt;BadRequest -->
<g id="edge1" class="edge">
<title>GET /quotas&#45;&gt;BadRequest</title>
<path fill="none" stroke="#d8a436" d="M336.21,-248.85C343.14,-211.75 359.58,-123.81 367.93,-79.1"/>
<polygon fill="#d8a436" stroke="#d8a436" points="371.38,-79.71 369.78,-69.23 364.5,-78.42 371.38,-79.71"/>
</g>
<!-- GET /quotas/{group&#45;name} -->
<g id="node2" class="node">
<title>GET /quotas/{group&#45;name}</title>
<path fill="#37516b" stroke="black" d="M233,-285C233,-285 45,-285 45,-285 39,-285 33,-279 33,-273 33,-273 33,-261 33,-261 33,-255 39,-249 45,-249 45,-249 233,-249 233,-249 239,-249 245,-255 245,-261 245,-261 245,-273 245,-273 245,-279 239,-285 233,-285"/>
<text text-anchor="middle" x="139" y="-263.3" font-family="Times,serif" font-size="14.00" fill="#cdd9e5">GET /quotas/{group&#45;name}</text>
</g>
<!-- GET /quotas/{group&#45;name}&#45;&gt;QuotaGroup -->
<g id="edge4" class="edge">
<title>GET /quotas/{group&#45;name}&#45;&gt;QuotaGroup</title>
<path fill="none" stroke="#53b668" d="M134.91,-248.85C126.07,-211.75 105.11,-123.81 94.46,-79.1"/>
<polygon fill="#53b668" stroke="#53b668" points="97.83,-78.15 92.11,-69.23 91.02,-79.77 97.83,-78.15"/>
</g>
<!-- NotFound -->
<g id="node7" class="node">
<title>NotFound</title>
<path fill="#634c23" stroke="black" d="M273.5,-69C273.5,-69 210.5,-69 210.5,-69 204.5,-69 198.5,-63 198.5,-57 198.5,-57 198.5,-45 198.5,-45 198.5,-39 204.5,-33 210.5,-33 210.5,-33 273.5,-33 273.5,-33 279.5,-33 285.5,-39 285.5,-45 285.5,-45 285.5,-57 285.5,-57 285.5,-63 279.5,-69 273.5,-69"/>
<text text-anchor="middle" x="242" y="-47.3" font-family="Times,serif" font-size="14.00" fill="#cdd9e5">NotFound</text>
</g>
<!-- GET /quotas/{group&#45;name}&#45;&gt;NotFound -->
<g id="edge3" class="edge">
<title>GET /quotas/{group&#45;name}&#45;&gt;NotFound</title>
<path fill="none" stroke="#d8a436" d="M147.25,-248.85C165.22,-211.52 207.97,-122.69 229.36,-78.26"/>
<polygon fill="#d8a436" stroke="#d8a436" points="232.52,-79.76 233.71,-69.23 226.22,-76.73 232.52,-79.76"/>
</g>
<!-- POST /quotas -->
<g id="node3" class="node">
<title>POST /quotas</title>
<path fill="#37516b" stroke="black" d="M522.5,-285C522.5,-285 433.5,-285 433.5,-285 427.5,-285 421.5,-279 421.5,-273 421.5,-273 421.5,-261 421.5,-261 421.5,-255 427.5,-249 433.5,-249 433.5,-249 522.5,-249 522.5,-249 528.5,-249 534.5,-255 534.5,-261 534.5,-261 534.5,-273 534.5,-273 534.5,-279 528.5,-285 522.5,-285"/>
<text text-anchor="middle" x="478" y="-263.3" font-family="Times,serif" font-size="14.00" fill="#cdd9e5">POST /quotas</text>
</g>
<!-- POST /quotas&#45;&gt;QuotaGroup -->
<g id="edge7" class="edge">
<title>POST /quotas&#45;&gt;QuotaGroup</title>
<path fill="none" stroke="#53b668" d="M448.76,-248.83C435.03,-240.96 418.33,-231.71 403,-224 299.01,-171.74 262.34,-179.24 164,-117 145.43,-105.25 126.65,-89.23 112.4,-76.04"/>
<polygon fill="#53b668" stroke="#53b668" points="114.66,-73.35 104.98,-69.04 109.86,-78.45 114.66,-73.35"/>
</g>
<!-- Accepted -->
<g id="node5" class="node">
<title>Accepted</title>
<path fill="#634c23" stroke="black" d="M531,-69C531,-69 473,-69 473,-69 467,-69 461,-63 461,-57 461,-57 461,-45 461,-45 461,-39 467,-33 473,-33 473,-33 531,-33 531,-33 537,-33 543,-39 543,-45 543,-45 543,-57 543,-57 543,-63 537,-69 531,-69"/>
<text text-anchor="middle" x="502" y="-47.3" font-family="Times,serif" font-size="14.00" fill="#cdd9e5">Accepted</text>
</g>
<!-- POST /quotas&#45;&gt;Accepted -->
<g id="edge5" class="edge">
<title>POST /quotas&#45;&gt;Accepted</title>
<path fill="none" stroke="#d8a436" d="M479.92,-248.85C484.07,-211.83 493.9,-124.18 498.93,-79.39"/>
<polygon fill="#d8a436" stroke="#d8a436" points="502.43,-79.56 500.07,-69.23 495.47,-78.78 502.43,-79.56"/>
</g>
<!-- POST /quotas&#45;&gt;BadRequest -->
<g id="edge6" class="edge">
<title>POST /quotas&#45;&gt;BadRequest</title>
<path fill="none" stroke="#d8a436" d="M469.58,-248.85C451.27,-211.52 407.69,-122.69 385.88,-78.26"/>
<polygon fill="#d8a436" stroke="#d8a436" points="389,-76.67 381.46,-69.23 382.72,-79.75 389,-76.67"/>
</g>
<!-- macaroonAuth -->
<g id="node8" class="node">
<title>macaroonAuth</title>
<path fill="#6b3940" stroke="black" d="M709,-69C709,-69 613,-69 613,-69 607,-69 601,-63 601,-57 601,-57 601,-45 601,-45 601,-39 607,-33 613,-33 613,-33 709,-33 709,-33 715,-33 721,-39 721,-45 721,-45 721,-57 721,-57 721,-63 715,-69 709,-69"/>
<text text-anchor="middle" x="661" y="-47.3" font-family="Times,serif" font-size="14.00" fill="#cdd9e5">macaroonAuth</text>
</g>
<!-- POST /quotas&#45;&gt;macaroonAuth -->
<g id="edge8" class="edge">
<title>POST /quotas&#45;&gt;macaroonAuth</title>
<path fill="none" stroke="#e26a77" d="M492.67,-248.85C524.92,-211.13 602.14,-120.83 639.73,-76.88"/>
<polygon fill="#e26a77" stroke="#e26a77" points="642.42,-79.11 646.26,-69.23 637.1,-74.56 642.42,-79.11"/>
</g>
</g>
</svg>
