<?xml version="1.0" encoding="UTF-8" standalone="no"?>
<!DOCTYPE svg PUBLIC "-//W3C//DTD SVG 1.1//EN"
 "http://www.w3.org/Graphics/SVG/1.1/DTD/svg11.dtd">
<!-- Generated by graphviz version 2.43.0 (0)
 -->
<!-- Title: OpenAPI_Dependencies Pages: 1 -->
<svg width="457pt" height="349pt"
 viewBox="0.00 0.00 457.00 349.00" xmlns="http://www.w3.org/2000/svg" xmlns:xlink="http://www.w3.org/1999/xlink">
<g id="graph0" class="graph" transform="scale(1 1) rotate(0) translate(4 345)">
<title>OpenAPI_Dependencies</title>
<polygon fill="#2d333b" stroke="transparent" points="-4,4 -4,-345 453,-345 453,4 -4,4"/>
<g id="clust1" class="cluster">
<title>cluster_endpoints</title>
<polygon fill="#2d333b" stroke="#cdd9e5" points="18,-224 18,-333 441,-333 441,-224 18,-224"/>
<text text-anchor="middle" x="229.5" y="-317.8" font-family="Times,serif" font-size="14.00" fill="#cdd9e5">Endpoints &#45; Root</text>
</g>
<g id="clust2" class="cluster">
<title>cluster_schemas</title>
<polygon fill="#2d333b" stroke="#cdd9e5" points="8,-8 8,-117 270,-117 270,-8 8,-8"/>
<text text-anchor="middle" x="139" y="-101.8" font-family="Times,serif" font-size="14.00" fill="#cdd9e5">Schemas</text>
</g>
<g id="clust3" class="cluster">
<title>cluster_responses</title>
<polygon fill="#2d333b" stroke="#cdd9e5" points="278,-8 278,-117 432,-117 432,-8 278,-8"/>
<text text-anchor="middle" x="355" y="-101.8" font-family="Times,serif" font-size="14.00" fill="#cdd9e5">Responses</text>
</g>
<!-- GET /users -->
<g id="node1" class="node">
<title>GET /users</title>
<path fill="#37516b" stroke="black" d="M263.5,-285C263.5,-285 192.5,-285 192.5,-285 186.5,-285 180.5,-279 180.5,-273 180.5,-273 180.5,-261 180.5,-261 180.5,-255 186.5,-249 192.5,-249 192.5,-249 263.5,-249 263.5,-249 269.5,-249 275.5,-255 275.5,-261 275.5,-261 275.5,-273 275.5,-273 275.5,-279 269.5,-285 263.5,-285"/>
<text text-anchor="middle" x="228" y="-263.3" font-family="Times,serif" font-size="14.00" fill="#cdd9e5">GET /users</text>
</g>
<!-- User -->
<g id="node5" class="node">
<title>User</title>
<path fill="#345a3f" stroke="black" d="M233,-69C233,-69 203,-69 203,-69 197,-69 191,-63 191,-57 191,-57 191,-45 191,-45 191,-39 197,-33 203,-33 203,-33 233,-33 233,-33 239,-33 245,-39 245,-45 245,-45 245,-57 245,-57 245,-63 239,-69 233,-69"/>
<text text-anchor="middle" x="218" y="-47.3" font-family="Times,serif" font-size="14.00" fill="#cdd9e5">User</text>
</g>
<!-- GET /users&#45;&gt;User -->
<g id="edge2" class="edge">
<title>GET /users&#45;&gt;User</title>
<path fill="none" stroke="#53b668" d="M227.2,-248.85C225.47,-211.83 221.37,-124.18 219.28,-79.39"/>
<polygon fill="#53b668" stroke="#53b668" points="222.77,-79.06 218.81,-69.23 215.78,-79.38 222.77,-79.06"/>
</g>
<!-- BadRequest -->
<g id="node6" class="node">
<title>BadRequest</title>
<path fill="#634c23" stroke="black" d="M394.5,-69C394.5,-69 315.5,-69 315.5,-69 309.5,-69 303.5,-63 303.5,-57 303.5,-57 303.5,-45 303.5,-45 303.5,-39 309.5,-33 315.5,-33 315.5,-33 394.5,-33 394.5,-33 400.5,-33 406.5,-39 406.5,-45 406.5,-45 406.5,-57 406.5,-57 406.5,-63 400.5,-69 394.5,-69"/>
<text text-anchor="middle" x="355" y="-47.3" font-family="Times,serif" font-size="14.00" fill="#cdd9e5">BadRequest</text>
</g>
<!-- GET /users&#45;&gt;BadRequest -->
<g id="edge1" class="edge">
<title>GET /users&#45;&gt;BadRequest</title>
<path fill="none" stroke="#d8a436" d="M238.18,-248.85C260.38,-211.44 313.27,-122.32 339.58,-77.98"/>
<polygon fill="#d8a436" stroke="#d8a436" points="342.68,-79.62 344.77,-69.23 336.66,-76.05 342.68,-79.62"/>
</g>
<!-- POST /login -->
<g id="node2" class="node">
<title>POST /login</title>
<path fill="#37516b" stroke="black" d="M132.5,-285C132.5,-285 55.5,-285 55.5,-285 49.5,-285 43.5,-279 43.5,-273 43.5,-273 43.5,-261 43.5,-261 43.5,-255 49.5,-249 55.5,-249 55.5,-249 132.5,-249 132.5,-249 138.5,-249 144.5,-255 144.5,-261 144.5,-261 144.5,-273 144.5,-273 144.5,-279 138.5,-285 132.5,-285"/>
<text text-anchor="middle" x="94" y="-263.3" font-family="Times,serif" font-size="14.00" fill="#cdd9e5">POST /login</text>
</g>
<!-- StandardError -->
<g id="node4" class="node">
<title>StandardError</title>
<path fill="#345a3f" stroke="black" d="M143,-69C143,-69 45,-69 45,-69 39,-69 33,-63 33,-57 33,-57 33,-45 33,-45 33,-39 39,-33 45,-33 45,-33 143,-33 143,-33 149,-33 155,-39 155,-45 155,-45 155,-57 155,-57 155,-63 149,-69 143,-69"/>
<text text-anchor="middle" x="94" y="-47.3" font-family="Times,serif" font-size="14.00" fill="#cdd9e5">StandardError</text>
</g>
<!-- POST /login&#45;&gt;StandardError -->
<g id="edge4" class="edge">
<title>POST /login&#45;&gt;StandardError</title>
<path fill="none" stroke="#53b668" d="M94,-248.85C94,-211.83 94,-124.18 94,-79.39"/>
<polygon fill="#53b668" stroke="#53b668" points="97.5,-79.23 94,-69.23 90.5,-79.23 97.5,-79.23"/>
</g>
<!-- POST /login&#45;&gt;BadRequest -->
<g id="edge3" class="edge">
<title>POST /login&#45;&gt;BadRequest</title>
<path fill="none" stroke="#d8a436" d="M115.53,-249C150.2,-221.54 220.45,-165.6 279,-117 295.23,-103.53 313.18,-88.2 327.55,-75.82"/>
<polygon fill="#d8a436" stroke="#d8a436" points="329.85,-78.45 335.13,-69.27 325.28,-73.15 329.85,-78.45"/>
</g>
<!-- POST /users -->
<g id="node3" class="node">
<title>POST /users</title>
<path fill="#37516b" stroke="black" d="M404,-285C404,-285 324,-285 324,-285 318,-285 312,-279 312,-273 312,-273 312,-261 312,-261 312,-255 318,-249 324,-249 324,-249 404,-249 404,-249 410,-249 416,-255 416,-261 416,-261 416,-273 416,-273 416,-279 410,-285 404,-285"/>
<text text-anchor="middle" x="364" y="-263.3" font-family="Times,serif" font-size="14.00" fill="#cdd9e5">POST /users</text>
</g>
<!-- POST /users&#45;&gt;BadRequest -->
<g id="edge5" class="edge">
<title>POST /users&#45;&gt;BadRequest</title>
<path fill="none" stroke="#d8a436" d="M363.28,-248.85C361.72,-211.83 358.04,-124.18 356.15,-79.39"/>
<polygon fill="#d8a436" stroke="#d8a436" points="359.64,-79.08 355.72,-69.23 352.65,-79.37 359.64,-79.08"/>
</g>
</g>
</svg>
