<?xml version="1.0" encoding="UTF-8" standalone="no"?>
<!DOCTYPE svg PUBLIC "-//W3C//DTD SVG 1.1//EN"
 "http://www.w3.org/Graphics/SVG/1.1/DTD/svg11.dtd">
<!-- Generated by graphviz version 2.43.0 (0)
 -->
<!-- Title: OpenAPI_Dependencies Pages: 1 -->
<svg width="1402pt" height="349pt"
 viewBox="0.00 0.00 1402.00 349.00" xmlns="http://www.w3.org/2000/svg" xmlns:xlink="http://www.w3.org/1999/xlink">
<g id="graph0" class="graph" transform="scale(1 1) rotate(0) translate(4 345)">
<title>OpenAPI_Dependencies</title>
<polygon fill="#2d333b" stroke="transparent" points="-4,4 -4,-345 1398,-345 1398,4 -4,4"/>
<g id="clust1" class="cluster">
<title>cluster_endpoints</title>
<polygon fill="#2d333b" stroke="#cdd9e5" points="8,-224 8,-333 1197,-333 1197,-224 8,-224"/>
<text text-anchor="middle" x="602.5" y="-317.8" font-family="Times,serif" font-size="14.00" fill="#cdd9e5">Endpoints &#45; Rules</text>
</g>
<g id="clust2" class="cluster">
<title>cluster_schemas</title>
<polygon fill="#2d333b" stroke="#cdd9e5" points="222,-8 222,-117 1062,-117 1062,-8 222,-8"/>
<text text-anchor="middle" x="642" y="-101.8" font-family="Times,serif" font-size="14.00" fill="#cdd9e5">Schemas</text>
</g>
<g id="clust3" class="cluster">
<title>cluster_responses</title>
<polygon fill="#2d333b" stroke="#cdd9e5" points="1070,-8 1070,-117 1208,-117 1208,-8 1070,-8"/>
<text text-anchor="middle" x="1139" y="-101.8" font-family="Times,serif" font-size="14.00" fill="#cdd9e5">Responses</text>
</g>
<g id="clust4" class="cluster">
<title>cluster_security</title>
<polygon fill="#2d333b" stroke="#cdd9e5" points="1216,-8 1216,-117 1386,-117 1386,-8 1216,-8"/>
<text text-anchor="middle" x="1301" y="-101.8" font-family="Times,serif" font-size="14.00" fill="#cdd9e5">Security</text>
</g>
<!-- GET /interfaces/requests/rules -->
<g id="node1" class="node">
<title>GET /interfaces/requests/rules</title>
<path fill="#37516b" stroke="black" d="M563.5,-285C563.5,-285 352.5,-285 352.5,-285 346.5,-285 340.5,-279 340.5,-273 340.5,-273 340.5,-261 340.5,-261 340.5,-255 346.5,-249 352.5,-249 352.5,-249 563.5,-249 563.5,-249 569.5,-249 575.5,-255 575.5,-261 575.5,-261 575.5,-273 575.5,-273 575.5,-279 569.5,-285 563.5,-285"/>
<text text-anchor="middle" x="458" y="-263.3" font-family="Times,serif" font-size="14.00" fill="#cdd9e5">GET /interfaces/requests/rules</text>
</g>
<!-- Rule -->
<g id="node5" class="node">
<title>Rule</title>
<path fill="#345a3f" stroke="black" d="M289,-69C289,-69 259,-69 259,-69 253,-69 247,-63 247,-57 247,-57 247,-45 247,-45 247,-39 253,-33 259,-33 259,-33 289,-33 289,-33 295,-33 301,-39 301,-45 301,-45 301,-57 301,-57 301,-63 295,-69 289,-69"/>
<text text-anchor="middle" x="274" y="-47.3" font-family="Times,serif" font-size="14.00" fill="#cdd9e5">Rule</text>
</g>
<!-- GET /interfaces/requests/rules&#45;&gt;Rule -->
<g id="edge2" class="edge">
<title>GET /interfaces/requests/rules&#45;&gt;Rule</title>
<path fill="none" stroke="#53b668" d="M440.45,-248.86C413.19,-221.89 359.61,-167.42 319,-117 308.88,-104.44 298.58,-89.72 290.38,-77.47"/>
<polygon fill="#53b668" stroke="#53b668" points="293.25,-75.46 284.82,-69.05 287.41,-79.32 293.25,-75.46"/>
</g>
<!-- NotFound -->
<g id="node10" class="node">
<title>NotFound</title>
<path fill="#634c23" stroke="black" d="M1170.5,-69C1170.5,-69 1107.5,-69 1107.5,-69 1101.5,-69 1095.5,-63 1095.5,-57 1095.5,-57 1095.5,-45 1095.5,-45 1095.5,-39 1101.5,-33 1107.5,-33 1107.5,-33 1170.5,-33 1170.5,-33 1176.5,-33 1182.5,-39 1182.5,-45 1182.5,-45 1182.5,-57 1182.5,-57 1182.5,-63 1176.5,-69 1170.5,-69"/>
<text text-anchor="middle" x="1139" y="-47.3" font-family="Times,serif" font-size="14.00" fill="#cdd9e5">NotFound</text>
</g>
<!-- GET /interfaces/requests/rules&#45;&gt;NotFound -->
<g id="edge1" class="edge">
<title>GET /interfaces/requests/rules&#45;&gt;NotFound</title>
<path fill="none" stroke="#d8a436" d="M509.71,-248.98C534.99,-240.93 565.94,-231.47 594,-224 803.96,-168.12 879.48,-219.59 1071,-117 1089.53,-107.07 1106.62,-90.69 1119.03,-76.86"/>
<polygon fill="#d8a436" stroke="#d8a436" points="1121.87,-78.93 1125.78,-69.08 1116.58,-74.34 1121.87,-78.93"/>
</g>
<!-- GET /interfaces/requests/rules/{id} -->
<g id="node2" class="node">
<title>GET /interfaces/requests/rules/{id}</title>
<path fill="#37516b" stroke="black" d="M292.5,-285C292.5,-285 45.5,-285 45.5,-285 39.5,-285 33.5,-279 33.5,-273 33.5,-273 33.5,-261 33.5,-261 33.5,-255 39.5,-249 45.5,-249 45.5,-249 292.5,-249 292.5,-249 298.5,-249 304.5,-255 304.5,-261 304.5,-261 304.5,-273 304.5,-273 304.5,-279 298.5,-285 292.5,-285"/>
<text text-anchor="middle" x="169" y="-263.3" font-family="Times,serif" font-size="14.00" fill="#cdd9e5">GET /interfaces/requests/rules/{id}</text>
</g>
<!-- GET /interfaces/requests/rules/{id}&#45;&gt;Rule -->
<g id="edge4" class="edge">
<title>GET /interfaces/requests/rules/{id}&#45;&gt;Rule</title>
<path fill="none" stroke="#53b668" d="M177.42,-248.85C195.73,-211.52 239.31,-122.69 261.12,-78.26"/>
<polygon fill="#53b668" stroke="#53b668" points="264.28,-79.75 265.54,-69.23 258,-76.67 264.28,-79.75"/>
</g>
<!-- GET /interfaces/requests/rules/{id}&#45;&gt;NotFound -->
<g id="edge3" class="edge">
<title>GET /interfaces/requests/rules/{id}&#45;&gt;NotFound</title>
<path fill="none" stroke="#d8a436" d="M224.54,-248.94C253.4,-240.54 289.37,-230.78 322,-224 651.23,-155.58 768.56,-263.98 1071,-117 1090.03,-107.75 1107.22,-91.21 1119.55,-77.13"/>
<polygon fill="#d8a436" stroke="#d8a436" points="1122.47,-79.11 1126.23,-69.2 1117.11,-74.6 1122.47,-79.11"/>
</g>
<!-- POST /interfaces/requests/rules -->
<g id="node3" class="node">
<title>POST /interfaces/requests/rules</title>
<path fill="#37516b" stroke="black" d="M1160,-285C1160,-285 940,-285 940,-285 934,-285 928,-279 928,-273 928,-273 928,-261 928,-261 928,-255 934,-249 940,-249 940,-249 1160,-249 1160,-249 1166,-249 1172,-255 1172,-261 1172,-261 1172,-273 1172,-273 1172,-279 1166,-285 1160,-285"/>
<text text-anchor="middle" x="1050" y="-263.3" font-family="Times,serif" font-size="14.00" fill="#cdd9e5">POST /interfaces/requests/rules</text>
</g>
<!-- POST /interfaces/requests/rules&#45;&gt;Rule -->
<g id="edge6" class="edge">
<title>POST /interfaces/requests/rules&#45;&gt;Rule</title>
<path fill="none" stroke="#53b668" d="M998.19,-248.94C971.95,-240.69 939.49,-231.07 910,-224 650.42,-161.77 543.42,-261.54 319,-117 304.56,-107.7 293.49,-91.96 285.94,-78.3"/>
<polygon fill="#53b668" stroke="#53b668" points="288.98,-76.56 281.28,-69.28 282.76,-79.77 288.98,-76.56"/>
</g>
<!-- RuleActionAdd -->
<g id="node6" class="node">
<title>RuleActionAdd</title>
<path fill="#345a3f" stroke="black" d="M837,-69C837,-69 739,-69 739,-69 733,-69 727,-63 727,-57 727,-57 727,-45 727,-45 727,-39 733,-33 739,-33 739,-33 837,-33 837,-33 843,-33 849,-39 849,-45 849,-45 849,-57 849,-57 849,-63 843,-69 837,-69"/>
<text text-anchor="middle" x="788" y="-47.3" font-family="Times,serif" font-size="14.00" fill="#cdd9e5">RuleActionAdd</text>
</g>
<!-- POST /interfaces/requests/rules&#45;&gt;RuleActionAdd -->
<g id="edge7" class="edge">
<title>POST /interfaces/requests/rules&#45;&gt;RuleActionAdd</title>
<path fill="none" stroke="#53b668" d="M1029,-248.85C982.44,-210.81 870.43,-119.32 817.13,-75.79"/>
<polygon fill="#53b668" stroke="#53b668" points="819.06,-72.85 809.1,-69.23 814.63,-78.27 819.06,-72.85"/>
</g>
<!-- RuleActionRemove -->
<g id="node8" class="node">
<title>RuleActionRemove</title>
<path fill="#345a3f" stroke="black" d="M1024.5,-69C1024.5,-69 897.5,-69 897.5,-69 891.5,-69 885.5,-63 885.5,-57 885.5,-57 885.5,-45 885.5,-45 885.5,-39 891.5,-33 897.5,-33 897.5,-33 1024.5,-33 1024.5,-33 1030.5,-33 1036.5,-39 1036.5,-45 1036.5,-45 1036.5,-57 1036.5,-57 1036.5,-63 1030.5,-69 1024.5,-69"/>
<text text-anchor="middle" x="961" y="-47.3" font-family="Times,serif" font-size="14.00" fill="#cdd9e5">RuleActionRemove</text>
</g>
<!-- POST /interfaces/requests/rules&#45;&gt;RuleActionRemove -->
<g id="edge8" class="edge">
<title>POST /interfaces/requests/rules&#45;&gt;RuleActionRemove</title>
<path fill="none" stroke="#53b668" d="M1042.87,-248.85C1027.37,-211.6 990.56,-123.07 972.04,-78.54"/>
<polygon fill="#53b668" stroke="#53b668" points="975.24,-77.12 968.17,-69.23 968.78,-79.81 975.24,-77.12"/>
</g>
<!-- POST /interfaces/requests/rules&#45;&gt;NotFound -->
<g id="edge5" class="edge">
<title>POST /interfaces/requests/rules&#45;&gt;NotFound</title>
<path fill="none" stroke="#d8a436" d="M1057.13,-248.85C1072.63,-211.6 1109.44,-123.07 1127.96,-78.54"/>
<polygon fill="#d8a436" stroke="#d8a436" points="1131.22,-79.81 1131.83,-69.23 1124.76,-77.12 1131.22,-79.81"/>
</g>
<!-- macaroonAuth -->
<g id="node11" class="node">
<title>macaroonAuth</title>
<path fill="#6b3940" stroke="black" d="M1349,-69C1349,-69 1253,-69 1253,-69 1247,-69 1241,-63 1241,-57 1241,-57 1241,-45 1241,-45 1241,-39 1247,-33 1253,-33 1253,-33 1349,-33 1349,-33 1355,-33 1361,-39 1361,-45 1361,-45 1361,-57 1361,-57 1361,-63 1355,-69 1349,-69"/>
<text text-anchor="middle" x="1301" y="-47.3" font-family="Times,serif" font-size="14.00" fill="#cdd9e5">macaroonAuth</text>
</g>
<!-- POST /interfaces/requests/rules&#45;&gt;macaroonAuth -->
<g id="edge9" class="edge">
<title>POST /interfaces/requests/rules&#45;&gt;macaroonAuth</title>
<path fill="none" stroke="#e26a77" d="M1070.12,-248.85C1114.73,-210.81 1222.04,-119.32 1273.09,-75.79"/>
<polygon fill="#e26a77" stroke="#e26a77" points="1275.45,-78.38 1280.79,-69.23 1270.91,-73.06 1275.45,-78.38"/>
</g>
<!-- POST /interfaces/requests/rules/{id} -->
<g id="node4" class="node">
<title>POST /interfaces/requests/rules/{id}</title>
<path fill="#37516b" stroke="black" d="M880,-285C880,-285 624,-285 624,-285 618,-285 612,-279 612,-273 612,-273 612,-261 612,-261 612,-255 618,-249 624,-249 624,-249 880,-249 880,-249 886,-249 892,-255 892,-261 892,-261 892,-273 892,-273 892,-279 886,-285 880,-285"/>
<text text-anchor="middle" x="752" y="-263.3" font-family="Times,serif" font-size="14.00" fill="#cdd9e5">POST /interfaces/requests/rules/{id}</text>
</g>
<!-- POST /interfaces/requests/rules/{id}&#45;&gt;Rule -->
<g id="edge11" class="edge">
<title>POST /interfaces/requests/rules/{id}&#45;&gt;Rule</title>
<path fill="none" stroke="#53b668" d="M686.65,-248.92C580.89,-220.39 378.09,-161.77 319,-117 305.62,-106.86 294.75,-91.57 287.05,-78.37"/>
<polygon fill="#53b668" stroke="#53b668" points="289.9,-76.3 282.01,-69.23 283.77,-79.68 289.9,-76.3"/>
</g>
<!-- RuleActionPatch -->
<g id="node7" class="node">
<title>RuleActionPatch</title>
<path fill="#345a3f" stroke="black" d="M679,-69C679,-69 569,-69 569,-69 563,-69 557,-63 557,-57 557,-57 557,-45 557,-45 557,-39 563,-33 569,-33 569,-33 679,-33 679,-33 685,-33 691,-39 691,-45 691,-45 691,-57 691,-57 691,-63 685,-69 679,-69"/>
<text text-anchor="middle" x="624" y="-47.3" font-family="Times,serif" font-size="14.00" fill="#cdd9e5">RuleActionPatch</text>
</g>
<!-- POST /interfaces/requests/rules/{id}&#45;&gt;RuleActionPatch -->
<g id="edge12" class="edge">
<title>POST /interfaces/requests/rules/{id}&#45;&gt;RuleActionPatch</title>
<path fill="none" stroke="#53b668" d="M741.74,-248.85C719.37,-211.44 666.06,-122.32 639.54,-77.98"/>
<polygon fill="#53b668" stroke="#53b668" points="642.44,-76.02 634.31,-69.23 636.44,-79.61 642.44,-76.02"/>
</g>
<!-- RuleActionRemoveById -->
<g id="node9" class="node">
<title>RuleActionRemoveById</title>
<path fill="#345a3f" stroke="black" d="M509,-69C509,-69 349,-69 349,-69 343,-69 337,-63 337,-57 337,-57 337,-45 337,-45 337,-39 343,-33 349,-33 349,-33 509,-33 509,-33 515,-33 521,-39 521,-45 521,-45 521,-57 521,-57 521,-63 515,-69 509,-69"/>
<text text-anchor="middle" x="429" y="-47.3" font-family="Times,serif" font-size="14.00" fill="#cdd9e5">RuleActionRemoveById</text>
</g>
<!-- POST /interfaces/requests/rules/{id}&#45;&gt;RuleActionRemoveById -->
<g id="edge13" class="edge">
<title>POST /interfaces/requests/rules/{id}&#45;&gt;RuleActionRemoveById</title>
<path fill="none" stroke="#53b668" d="M726.11,-248.85C668.35,-210.58 528.91,-118.19 463.7,-74.99"/>
<polygon fill="#53b668" stroke="#53b668" points="465.28,-71.84 455.01,-69.23 461.41,-77.67 465.28,-71.84"/>
</g>
<!-- POST /interfaces/requests/rules/{id}&#45;&gt;NotFound -->
<g id="edge10" class="edge">
<title>POST /interfaces/requests/rules/{id}&#45;&gt;NotFound</title>
<path fill="none" stroke="#d8a436" d="M800.8,-248.93C865.73,-224.98 982.58,-177.48 1071,-117 1087.9,-105.44 1104.56,-89.61 1117.16,-76.47"/>
<polygon fill="#d8a436" stroke="#d8a436" points="1119.79,-78.78 1124.08,-69.09 1114.68,-73.99 1119.79,-78.78"/>
</g>
<!-- POST /interfaces/requests/rules/{id}&#45;&gt;macaroonAuth -->
<g id="edge14" class="edge">
<title>POST /interfaces/requests/rules/{id}&#45;&gt;macaroonAuth</title>
<path fill="none" stroke="#e26a77" d="M814.14,-248.99C923.53,-218.58 1145.63,-154.55 1217,-117 1238.12,-105.89 1259.36,-89.39 1275.2,-75.8"/>
<polygon fill="#e26a77" stroke="#e26a77" points="1277.74,-78.23 1282.96,-69.01 1273.13,-72.96 1277.74,-78.23"/>
</g>
</g>
</svg>
