<?xml version="1.0" encoding="UTF-8" standalone="no"?>
<!DOCTYPE svg PUBLIC "-//W3C//DTD SVG 1.1//EN"
 "http://www.w3.org/Graphics/SVG/1.1/DTD/svg11.dtd">
<!-- Generated by graphviz version 2.43.0 (0)
 -->
<!-- Title: OpenAPI_Dependencies Pages: 1 -->
<svg width="768pt" height="349pt"
 viewBox="0.00 0.00 768.00 349.00" xmlns="http://www.w3.org/2000/svg" xmlns:xlink="http://www.w3.org/1999/xlink">
<g id="graph0" class="graph" transform="scale(1 1) rotate(0) translate(4 345)">
<title>OpenAPI_Dependencies</title>
<polygon fill="#2d333b" stroke="transparent" points="-4,4 -4,-345 764,-345 764,4 -4,4"/>
<g id="clust1" class="cluster">
<title>cluster_endpoints</title>
<polygon fill="#2d333b" stroke="#cdd9e5" points="122,-224 122,-333 752,-333 752,-224 122,-224"/>
<text text-anchor="middle" x="437" y="-317.8" font-family="Times,serif" font-size="14.00" fill="#cdd9e5">Endpoints &#45; Snapshots</text>
</g>
<g id="clust2" class="cluster">
<title>cluster_schemas</title>
<polygon fill="#2d333b" stroke="#cdd9e5" points="8,-8 8,-117 166,-117 166,-8 8,-8"/>
<text text-anchor="middle" x="87" y="-101.8" font-family="Times,serif" font-size="14.00" fill="#cdd9e5">Schemas</text>
</g>
<g id="clust3" class="cluster">
<title>cluster_responses</title>
<polygon fill="#2d333b" stroke="#cdd9e5" points="174,-8 174,-117 570,-117 570,-8 174,-8"/>
<text text-anchor="middle" x="372" y="-101.8" font-family="Times,serif" font-size="14.00" fill="#cdd9e5">Responses</text>
</g>
<g id="clust4" class="cluster">
<title>cluster_security</title>
<polygon fill="#2d333b" stroke="#cdd9e5" points="578,-8 578,-117 748,-117 748,-8 578,-8"/>
<text text-anchor="middle" x="663" y="-101.8" font-family="Times,serif" font-size="14.00" fill="#cdd9e5">Security</text>
</g>
<!-- GET /snapshots -->
<g id="node1" class="node">
<title>GET /snapshots</title>
<path fill="#37516b" stroke="black" d="M263,-285C263,-285 159,-285 159,-285 153,-285 147,-279 147,-273 147,-273 147,-261 147,-261 147,-255 153,-249 159,-249 159,-249 263,-249 263,-249 269,-249 275,-255 275,-261 275,-261 275,-273 275,-273 275,-279 269,-285 263,-285"/>
<text text-anchor="middle" x="211" y="-263.3" font-family="Times,serif" font-size="14.00" fill="#cdd9e5">GET /snapshots</text>
</g>
<!-- SnapshotSet -->
<g id="node4" class="node">
<title>SnapshotSet</title>
<path fill="#345a3f" stroke="black" d="M128.5,-69C128.5,-69 45.5,-69 45.5,-69 39.5,-69 33.5,-63 33.5,-57 33.5,-57 33.5,-45 33.5,-45 33.5,-39 39.5,-33 45.5,-33 45.5,-33 128.5,-33 128.5,-33 134.5,-33 140.5,-39 140.5,-45 140.5,-45 140.5,-57 140.5,-57 140.5,-63 134.5,-69 128.5,-69"/>
<text text-anchor="middle" x="87" y="-47.3" font-family="Times,serif" font-size="14.00" fill="#cdd9e5">SnapshotSet</text>
</g>
<!-- GET /snapshots&#45;&gt;SnapshotSet -->
<g id="edge2" class="edge">
<title>GET /snapshots&#45;&gt;SnapshotSet</title>
<path fill="none" stroke="#53b668" d="M201.06,-248.85C179.39,-211.44 127.75,-122.32 102.05,-77.98"/>
<polygon fill="#53b668" stroke="#53b668" points="105.03,-76.13 96.99,-69.23 98.97,-79.64 105.03,-76.13"/>
</g>
<!-- BadRequest -->
<g id="node6" class="node">
<title>BadRequest</title>
<path fill="#634c23" stroke="black" d="M290.5,-69C290.5,-69 211.5,-69 211.5,-69 205.5,-69 199.5,-63 199.5,-57 199.5,-57 199.5,-45 199.5,-45 199.5,-39 205.5,-33 211.5,-33 211.5,-33 290.5,-33 290.5,-33 296.5,-33 302.5,-39 302.5,-45 302.5,-45 302.5,-57 302.5,-57 302.5,-63 296.5,-69 290.5,-69"/>
<text text-anchor="middle" x="251" y="-47.3" font-family="Times,serif" font-size="14.00" fill="#cdd9e5">BadRequest</text>
</g>
<!-- GET /snapshots&#45;&gt;BadRequest -->
<g id="edge1" class="edge">
<title>GET /snapshots&#45;&gt;BadRequest</title>
<path fill="none" stroke="#d8a436" d="M214.21,-248.85C221.14,-211.75 237.58,-123.81 245.93,-79.1"/>
<polygon fill="#d8a436" stroke="#d8a436" points="249.38,-79.71 247.78,-69.23 242.5,-78.42 249.38,-79.71"/>
</g>
<!-- GET /snapshots/{set&#45;id}/export -->
<g id="node2" class="node">
<title>GET /snapshots/{set&#45;id}/export</title>
<path fill="#37516b" stroke="black" d="M715,-285C715,-285 497,-285 497,-285 491,-285 485,-279 485,-273 485,-273 485,-261 485,-261 485,-255 491,-249 497,-249 497,-249 715,-249 715,-249 721,-249 727,-255 727,-261 727,-261 727,-273 727,-273 727,-279 721,-285 715,-285"/>
<text text-anchor="middle" x="606" y="-263.3" font-family="Times,serif" font-size="14.00" fill="#cdd9e5">GET /snapshots/{set&#45;id}/export</text>
</g>
<!-- NotFound -->
<g id="node7" class="node">
<title>NotFound</title>
<path fill="#634c23" stroke="black" d="M532.5,-69C532.5,-69 469.5,-69 469.5,-69 463.5,-69 457.5,-63 457.5,-57 457.5,-57 457.5,-45 457.5,-45 457.5,-39 463.5,-33 469.5,-33 469.5,-33 532.5,-33 532.5,-33 538.5,-33 544.5,-39 544.5,-45 544.5,-45 544.5,-57 544.5,-57 544.5,-63 538.5,-69 532.5,-69"/>
<text text-anchor="middle" x="501" y="-47.3" font-family="Times,serif" font-size="14.00" fill="#cdd9e5">NotFound</text>
</g>
<!-- GET /snapshots/{set&#45;id}/export&#45;&gt;NotFound -->
<g id="edge3" class="edge">
<title>GET /snapshots/{set&#45;id}/export&#45;&gt;NotFound</title>
<path fill="none" stroke="#d8a436" d="M597.58,-248.85C579.27,-211.52 535.69,-122.69 513.88,-78.26"/>
<polygon fill="#d8a436" stroke="#d8a436" points="517,-76.67 509.46,-69.23 510.72,-79.75 517,-76.67"/>
</g>
<!-- macaroonAuth -->
<g id="node8" class="node">
<title>macaroonAuth</title>
<path fill="#6b3940" stroke="black" d="M711,-69C711,-69 615,-69 615,-69 609,-69 603,-63 603,-57 603,-57 603,-45 603,-45 603,-39 609,-33 615,-33 615,-33 711,-33 711,-33 717,-33 723,-39 723,-45 723,-45 723,-57 723,-57 723,-63 717,-69 711,-69"/>
<text text-anchor="middle" x="663" y="-47.3" font-family="Times,serif" font-size="14.00" fill="#cdd9e5">macaroonAuth</text>
</g>
<!-- GET /snapshots/{set&#45;id}/export&#45;&gt;macaroonAuth -->
<g id="edge4" class="edge">
<title>GET /snapshots/{set&#45;id}/export&#45;&gt;macaroonAuth</title>
<path fill="none" stroke="#e26a77" d="M610.57,-248.85C620.45,-211.75 643.87,-123.81 655.78,-79.1"/>
<polygon fill="#e26a77" stroke="#e26a77" points="659.22,-79.8 658.41,-69.23 652.45,-77.99 659.22,-79.8"/>
</g>
<!-- POST /snapshots -->
<g id="node3" class="node">
<title>POST /snapshots</title>
<path fill="#37516b" stroke="black" d="M436.5,-285C436.5,-285 323.5,-285 323.5,-285 317.5,-285 311.5,-279 311.5,-273 311.5,-273 311.5,-261 311.5,-261 311.5,-255 317.5,-249 323.5,-249 323.5,-249 436.5,-249 436.5,-249 442.5,-249 448.5,-255 448.5,-261 448.5,-261 448.5,-273 448.5,-273 448.5,-279 442.5,-285 436.5,-285"/>
<text text-anchor="middle" x="380" y="-263.3" font-family="Times,serif" font-size="14.00" fill="#cdd9e5">POST /snapshots</text>
</g>
<!-- Accepted -->
<g id="node5" class="node">
<title>Accepted</title>
<path fill="#634c23" stroke="black" d="M409,-69C409,-69 351,-69 351,-69 345,-69 339,-63 339,-57 339,-57 339,-45 339,-45 339,-39 345,-33 351,-33 351,-33 409,-33 409,-33 415,-33 421,-39 421,-45 421,-45 421,-57 421,-57 421,-63 415,-69 409,-69"/>
<text text-anchor="middle" x="380" y="-47.3" font-family="Times,serif" font-size="14.00" fill="#cdd9e5">Accepted</text>
</g>
<!-- POST /snapshots&#45;&gt;Accepted -->
<g id="edge5" class="edge">
<title>POST /snapshots&#45;&gt;Accepted</title>
<path fill="none" stroke="#d8a436" d="M380,-248.85C380,-211.83 380,-124.18 380,-79.39"/>
<polygon fill="#d8a436" stroke="#d8a436" points="383.5,-79.23 380,-69.23 376.5,-79.23 383.5,-79.23"/>
</g>
<!-- POST /snapshots&#45;&gt;BadRequest -->
<g id="edge6" class="edge">
<title>POST /snapshots&#45;&gt;BadRequest</title>
<path fill="none" stroke="#d8a436" d="M369.66,-248.85C347.11,-211.44 293.39,-122.32 266.66,-77.98"/>
<polygon fill="#d8a436" stroke="#d8a436" points="269.55,-75.99 261.39,-69.23 263.55,-79.6 269.55,-75.99"/>
</g>
<!-- POST /snapshots&#45;&gt;macaroonAuth -->
<g id="edge7" class="edge">
<title>POST /snapshots&#45;&gt;macaroonAuth</title>
<path fill="none" stroke="#e26a77" d="M403.07,-248.91C440.24,-221.33 515.64,-165.23 579,-117 596.99,-103.3 617.02,-87.82 633.01,-75.39"/>
<polygon fill="#e26a77" stroke="#e26a77" points="635.22,-78.11 640.97,-69.2 630.92,-72.58 635.22,-78.11"/>
</g>
</g>
</svg>
