<?xml version="1.0" encoding="UTF-8" standalone="no"?>
<!DOCTYPE svg PUBLIC "-//W3C//DTD SVG 1.1//EN"
 "http://www.w3.org/Graphics/SVG/1.1/DTD/svg11.dtd">
<!-- Generated by graphviz version 2.43.0 (0)
 -->
<!-- Title: OpenAPI_Dependencies Pages: 1 -->
<svg width="1707pt" height="349pt"
 viewBox="0.00 0.00 1707.00 349.00" xmlns="http://www.w3.org/2000/svg" xmlns:xlink="http://www.w3.org/1999/xlink">
<g id="graph0" class="graph" transform="scale(1 1) rotate(0) translate(4 345)">
<title>OpenAPI_Dependencies</title>
<polygon fill="#2d333b" stroke="transparent" points="-4,4 -4,-345 1703,-345 1703,4 -4,4"/>
<g id="clust1" class="cluster">
<title>cluster_endpoints</title>
<polygon fill="#2d333b" stroke="#cdd9e5" points="8,-224 8,-333 1691,-333 1691,-224 8,-224"/>
<text text-anchor="middle" x="849.5" y="-317.8" font-family="Times,serif" font-size="14.00" fill="#cdd9e5">Endpoints &#45; Snaps</text>
</g>
<g id="clust2" class="cluster">
<title>cluster_schemas</title>
<polygon fill="#2d333b" stroke="#cdd9e5" points="794,-8 794,-117 960,-117 960,-8 794,-8"/>
<text text-anchor="middle" x="877" y="-101.8" font-family="Times,serif" font-size="14.00" fill="#cdd9e5">Schemas</text>
</g>
<g id="clust3" class="cluster">
<title>cluster_responses</title>
<polygon fill="#2d333b" stroke="#cdd9e5" points="390,-8 390,-117 786,-117 786,-8 390,-8"/>
<text text-anchor="middle" x="588" y="-101.8" font-family="Times,serif" font-size="14.00" fill="#cdd9e5">Responses</text>
</g>
<g id="clust4" class="cluster">
<title>cluster_security</title>
<polygon fill="#2d333b" stroke="#cdd9e5" points="1034,-8 1034,-117 1204,-117 1204,-8 1034,-8"/>
<text text-anchor="middle" x="1119" y="-101.8" font-family="Times,serif" font-size="14.00" fill="#cdd9e5">Security</text>
</g>
<!-- GET /icons/{name}/icon -->
<g id="node1" class="node">
<title>GET /icons/{name}/icon</title>
<path fill="#37516b" stroke="black" d="M209,-285C209,-285 45,-285 45,-285 39,-285 33,-279 33,-273 33,-273 33,-261 33,-261 33,-255 39,-249 45,-249 45,-249 209,-249 209,-249 215,-249 221,-255 221,-261 221,-261 221,-273 221,-273 221,-279 215,-285 209,-285"/>
<text text-anchor="middle" x="127" y="-263.3" font-family="Times,serif" font-size="14.00" fill="#cdd9e5">GET /icons/{name}/icon</text>
</g>
<!-- NotFound -->
<g id="node13" class="node">
<title>NotFound</title>
<path fill="#634c23" stroke="black" d="M490.5,-69C490.5,-69 427.5,-69 427.5,-69 421.5,-69 415.5,-63 415.5,-57 415.5,-57 415.5,-45 415.5,-45 415.5,-39 421.5,-33 427.5,-33 427.5,-33 490.5,-33 490.5,-33 496.5,-33 502.5,-39 502.5,-45 502.5,-45 502.5,-57 502.5,-57 502.5,-63 496.5,-69 490.5,-69"/>
<text text-anchor="middle" x="459" y="-47.3" font-family="Times,serif" font-size="14.00" fill="#cdd9e5">NotFound</text>
</g>
<!-- GET /icons/{name}/icon&#45;&gt;NotFound -->
<g id="edge1" class="edge">
<title>GET /icons/{name}/icon&#45;&gt;NotFound</title>
<path fill="none" stroke="#d8a436" d="M153.61,-248.85C213.1,-210.5 356.89,-117.82 423.74,-74.73"/>
<polygon fill="#d8a436" stroke="#d8a436" points="425.76,-77.59 432.27,-69.23 421.96,-71.71 425.76,-77.59"/>
</g>
<!-- GET /snaps -->
<g id="node2" class="node">
<title>GET /snaps</title>
<path fill="#37516b" stroke="black" d="M885,-285C885,-285 811,-285 811,-285 805,-285 799,-279 799,-273 799,-273 799,-261 799,-261 799,-255 805,-249 811,-249 811,-249 885,-249 885,-249 891,-249 897,-255 897,-261 897,-261 897,-273 897,-273 897,-279 891,-285 885,-285"/>
<text text-anchor="middle" x="848" y="-263.3" font-family="Times,serif" font-size="14.00" fill="#cdd9e5">GET /snaps</text>
</g>
<!-- InstalledSnap -->
<g id="node10" class="node">
<title>InstalledSnap</title>
<path fill="#345a3f" stroke="black" d="M922.5,-69C922.5,-69 831.5,-69 831.5,-69 825.5,-69 819.5,-63 819.5,-57 819.5,-57 819.5,-45 819.5,-45 819.5,-39 825.5,-33 831.5,-33 831.5,-33 922.5,-33 922.5,-33 928.5,-33 934.5,-39 934.5,-45 934.5,-45 934.5,-57 934.5,-57 934.5,-63 928.5,-69 922.5,-69"/>
<text text-anchor="middle" x="877" y="-47.3" font-family="Times,serif" font-size="14.00" fill="#cdd9e5">InstalledSnap</text>
</g>
<!-- GET /snaps&#45;&gt;InstalledSnap -->
<g id="edge3" class="edge">
<title>GET /snaps&#45;&gt;InstalledSnap</title>
<path fill="none" stroke="#53b668" d="M850.32,-248.85C855.34,-211.83 867.22,-124.18 873.29,-79.39"/>
<polygon fill="#53b668" stroke="#53b668" points="876.79,-79.61 874.66,-69.23 869.85,-78.67 876.79,-79.61"/>
</g>
<!-- BadRequest -->
<g id="node12" class="node">
<title>BadRequest</title>
<path fill="#634c23" stroke="black" d="M748.5,-69C748.5,-69 669.5,-69 669.5,-69 663.5,-69 657.5,-63 657.5,-57 657.5,-57 657.5,-45 657.5,-45 657.5,-39 663.5,-33 669.5,-33 669.5,-33 748.5,-33 748.5,-33 754.5,-33 760.5,-39 760.5,-45 760.5,-45 760.5,-57 760.5,-57 760.5,-63 754.5,-69 748.5,-69"/>
<text text-anchor="middle" x="709" y="-47.3" font-family="Times,serif" font-size="14.00" fill="#cdd9e5">BadRequest</text>
</g>
<!-- GET /snaps&#45;&gt;BadRequest -->
<g id="edge2" class="edge">
<title>GET /snaps&#45;&gt;BadRequest</title>
<path fill="none" stroke="#d8a436" d="M836.86,-248.85C812.51,-211.36 754.43,-121.95 725.69,-77.7"/>
<polygon fill="#d8a436" stroke="#d8a436" points="728.58,-75.71 720.19,-69.23 722.71,-79.53 728.58,-75.71"/>
</g>
<!-- GET /snaps/{name} -->
<g id="node3" class="node">
<title>GET /snaps/{name}</title>
<path fill="#37516b" stroke="black" d="M404.5,-285C404.5,-285 269.5,-285 269.5,-285 263.5,-285 257.5,-279 257.5,-273 257.5,-273 257.5,-261 257.5,-261 257.5,-255 263.5,-249 269.5,-249 269.5,-249 404.5,-249 404.5,-249 410.5,-249 416.5,-255 416.5,-261 416.5,-261 416.5,-273 416.5,-273 416.5,-279 410.5,-285 404.5,-285"/>
<text text-anchor="middle" x="337" y="-263.3" font-family="Times,serif" font-size="14.00" fill="#cdd9e5">GET /snaps/{name}</text>
</g>
<!-- GET /snaps/{name}&#45;&gt;InstalledSnap -->
<g id="edge4" class="edge">
<title>GET /snaps/{name}&#45;&gt;InstalledSnap</title>
<path fill="none" stroke="#53b668" d="M373.43,-248.99C391.45,-240.89 413.65,-231.39 434,-224 591.29,-166.87 646.51,-194.16 795,-117 815.87,-106.16 836.59,-89.66 851.99,-76"/>
<polygon fill="#53b668" stroke="#53b668" points="854.47,-78.47 859.53,-69.16 849.77,-73.29 854.47,-78.47"/>
</g>
<!-- GET /snaps/{name}&#45;&gt;NotFound -->
<g id="edge5" class="edge">
<title>GET /snaps/{name}&#45;&gt;NotFound</title>
<path fill="none" stroke="#d8a436" d="M346.78,-248.85C368.1,-211.44 418.91,-122.32 444.19,-77.98"/>
<polygon fill="#d8a436" stroke="#d8a436" points="447.26,-79.65 449.18,-69.23 441.18,-76.19 447.26,-79.65"/>
</g>
<!-- GET /snaps/{name}/conf -->
<g id="node4" class="node">
<title>GET /snaps/{name}/conf</title>
<path fill="#37516b" stroke="black" d="M1271,-285C1271,-285 1101,-285 1101,-285 1095,-285 1089,-279 1089,-273 1089,-273 1089,-261 1089,-261 1089,-255 1095,-249 1101,-249 1101,-249 1271,-249 1271,-249 1277,-249 1283,-255 1283,-261 1283,-261 1283,-273 1283,-273 1283,-279 1277,-285 1271,-285"/>
<text text-anchor="middle" x="1186" y="-263.3" font-family="Times,serif" font-size="14.00" fill="#cdd9e5">GET /snaps/{name}/conf</text>
</g>
<!-- GET /snaps/{name}/conf&#45;&gt;BadRequest -->
<g id="edge6" class="edge">
<title>GET /snaps/{name}/conf&#45;&gt;BadRequest</title>
<path fill="none" stroke="#d8a436" d="M1139.54,-248.98C1035.66,-210.89 793.04,-121.73 785,-117 765.93,-105.79 747.02,-89.63 732.83,-76.24"/>
<polygon fill="#d8a436" stroke="#d8a436" points="735.09,-73.55 725.46,-69.13 730.23,-78.59 735.09,-73.55"/>
</g>
<!-- macaroonAuth -->
<g id="node14" class="node">
<title>macaroonAuth</title>
<path fill="#6b3940" stroke="black" d="M1167,-69C1167,-69 1071,-69 1071,-69 1065,-69 1059,-63 1059,-57 1059,-57 1059,-45 1059,-45 1059,-39 1065,-33 1071,-33 1071,-33 1167,-33 1167,-33 1173,-33 1179,-39 1179,-45 1179,-45 1179,-57 1179,-57 1179,-63 1173,-69 1167,-69"/>
<text text-anchor="middle" x="1119" y="-47.3" font-family="Times,serif" font-size="14.00" fill="#cdd9e5">macaroonAuth</text>
</g>
<!-- GET /snaps/{name}/conf&#45;&gt;macaroonAuth -->
<g id="edge7" class="edge">
<title>GET /snaps/{name}/conf&#45;&gt;macaroonAuth</title>
<path fill="none" stroke="#e26a77" d="M1180.63,-248.85C1168.99,-211.68 1141.37,-123.44 1127.4,-78.82"/>
<polygon fill="#e26a77" stroke="#e26a77" points="1130.72,-77.73 1124.4,-69.23 1124.04,-79.82 1130.72,-77.73"/>
</g>
<!-- POST /cohorts -->
<g id="node5" class="node">
<title>POST /cohorts</title>
<path fill="#37516b" stroke="black" d="M1040.5,-285C1040.5,-285 945.5,-285 945.5,-285 939.5,-285 933.5,-279 933.5,-273 933.5,-273 933.5,-261 933.5,-261 933.5,-255 939.5,-249 945.5,-249 945.5,-249 1040.5,-249 1040.5,-249 1046.5,-249 1052.5,-255 1052.5,-261 1052.5,-261 1052.5,-273 1052.5,-273 1052.5,-279 1046.5,-285 1040.5,-285"/>
<text text-anchor="middle" x="993" y="-263.3" font-family="Times,serif" font-size="14.00" fill="#cdd9e5">POST /cohorts</text>
</g>
<!-- POST /cohorts&#45;&gt;BadRequest -->
<g id="edge8" class="edge">
<title>POST /cohorts&#45;&gt;BadRequest</title>
<path fill="none" stroke="#d8a436" d="M967.52,-248.79C927.78,-221.73 848.99,-167.13 785,-117 768.16,-103.81 749.93,-88.26 735.55,-75.68"/>
<polygon fill="#d8a436" stroke="#d8a436" points="737.81,-73.01 727.98,-69.03 733.18,-78.26 737.81,-73.01"/>
</g>
<!-- POST /cohorts&#45;&gt;macaroonAuth -->
<g id="edge9" class="edge">
<title>POST /cohorts&#45;&gt;macaroonAuth</title>
<path fill="none" stroke="#e26a77" d="M1003.1,-248.85C1025.12,-211.44 1077.6,-122.32 1103.7,-77.98"/>
<polygon fill="#e26a77" stroke="#e26a77" points="1106.8,-79.63 1108.85,-69.23 1100.76,-76.07 1106.8,-79.63"/>
</g>
<!-- POST /snapctl -->
<g id="node6" class="node">
<title>POST /snapctl</title>
<path fill="#37516b" stroke="black" d="M1653.5,-285C1653.5,-285 1560.5,-285 1560.5,-285 1554.5,-285 1548.5,-279 1548.5,-273 1548.5,-273 1548.5,-261 1548.5,-261 1548.5,-255 1554.5,-249 1560.5,-249 1560.5,-249 1653.5,-249 1653.5,-249 1659.5,-249 1665.5,-255 1665.5,-261 1665.5,-261 1665.5,-273 1665.5,-273 1665.5,-279 1659.5,-285 1653.5,-285"/>
<text text-anchor="middle" x="1607" y="-263.3" font-family="Times,serif" font-size="14.00" fill="#cdd9e5">POST /snapctl</text>
</g>
<!-- POST /snapctl&#45;&gt;BadRequest -->
<g id="edge10" class="edge">
<title>POST /snapctl&#45;&gt;BadRequest</title>
<path fill="none" stroke="#d8a436" d="M1581.7,-248.97C1567.4,-240.15 1548.87,-229.99 1531,-224 1213.44,-117.47 1090.15,-255.11 785,-117 764.31,-107.64 744.93,-90.88 730.91,-76.72"/>
<polygon fill="#d8a436" stroke="#d8a436" points="733.15,-73.99 723.71,-69.19 728.09,-78.83 733.15,-73.99"/>
</g>
<!-- POST /snapctl&#45;&gt;macaroonAuth -->
<g id="edge11" class="edge">
<title>POST /snapctl&#45;&gt;macaroonAuth</title>
<path fill="none" stroke="#e26a77" d="M1577.8,-248.88C1563.83,-240.95 1546.75,-231.61 1531,-224 1405.59,-163.4 1253.24,-103.13 1173.56,-72.58"/>
<polygon fill="#e26a77" stroke="#e26a77" points="1174.81,-69.31 1164.22,-69 1172.31,-75.85 1174.81,-69.31"/>
</g>
<!-- POST /snaps -->
<g id="node7" class="node">
<title>POST /snaps</title>
<path fill="#37516b" stroke="black" d="M750.5,-285C750.5,-285 667.5,-285 667.5,-285 661.5,-285 655.5,-279 655.5,-273 655.5,-273 655.5,-261 655.5,-261 655.5,-255 661.5,-249 667.5,-249 667.5,-249 750.5,-249 750.5,-249 756.5,-249 762.5,-255 762.5,-261 762.5,-261 762.5,-273 762.5,-273 762.5,-279 756.5,-285 750.5,-285"/>
<text text-anchor="middle" x="709" y="-263.3" font-family="Times,serif" font-size="14.00" fill="#cdd9e5">POST /snaps</text>
</g>
<!-- Accepted -->
<g id="node11" class="node">
<title>Accepted</title>
<path fill="#634c23" stroke="black" d="M609,-69C609,-69 551,-69 551,-69 545,-69 539,-63 539,-57 539,-57 539,-45 539,-45 539,-39 545,-33 551,-33 551,-33 609,-33 609,-33 615,-33 621,-39 621,-45 621,-45 621,-57 621,-57 621,-63 615,-69 609,-69"/>
<text text-anchor="middle" x="580" y="-47.3" font-family="Times,serif" font-size="14.00" fill="#cdd9e5">Accepted</text>
</g>
<!-- POST /snaps&#45;&gt;Accepted -->
<g id="edge12" class="edge">
<title>POST /snaps&#45;&gt;Accepted</title>
<path fill="none" stroke="#d8a436" d="M698.66,-248.85C676.11,-211.44 622.39,-122.32 595.66,-77.98"/>
<polygon fill="#d8a436" stroke="#d8a436" points="598.55,-75.99 590.39,-69.23 592.55,-79.6 598.55,-75.99"/>
</g>
<!-- POST /snaps&#45;&gt;BadRequest -->
<g id="edge13" class="edge">
<title>POST /snaps&#45;&gt;BadRequest</title>
<path fill="none" stroke="#d8a436" d="M709,-248.85C709,-211.83 709,-124.18 709,-79.39"/>
<polygon fill="#d8a436" stroke="#d8a436" points="712.5,-79.23 709,-69.23 705.5,-79.23 712.5,-79.23"/>
</g>
<!-- POST /snaps&#45;&gt;macaroonAuth -->
<g id="edge14" class="edge">
<title>POST /snaps&#45;&gt;macaroonAuth</title>
<path fill="none" stroke="#e26a77" d="M737.51,-248.86C750.66,-241.09 766.52,-231.9 781,-224 884.85,-167.35 1009.41,-105.5 1074.46,-73.65"/>
<polygon fill="#e26a77" stroke="#e26a77" points="1076.17,-76.71 1083.62,-69.17 1073.1,-70.42 1076.17,-76.71"/>
</g>
<!-- POST /snaps/{name} -->
<g id="node8" class="node">
<title>POST /snaps/{name}</title>
<path fill="#37516b" stroke="black" d="M608,-285C608,-285 464,-285 464,-285 458,-285 452,-279 452,-273 452,-273 452,-261 452,-261 452,-255 458,-249 464,-249 464,-249 608,-249 608,-249 614,-249 620,-255 620,-261 620,-261 620,-273 620,-273 620,-279 614,-285 608,-285"/>
<text text-anchor="middle" x="536" y="-263.3" font-family="Times,serif" font-size="14.00" fill="#cdd9e5">POST /snaps/{name}</text>
</g>
<!-- POST /snaps/{name}&#45;&gt;Accepted -->
<g id="edge15" class="edge">
<title>POST /snaps/{name}&#45;&gt;Accepted</title>
<path fill="none" stroke="#d8a436" d="M539.53,-248.85C547.15,-211.75 565.24,-123.81 574.43,-79.1"/>
<polygon fill="#d8a436" stroke="#d8a436" points="577.87,-79.73 576.46,-69.23 571.01,-78.32 577.87,-79.73"/>
</g>
<!-- POST /snaps/{name}&#45;&gt;BadRequest -->
<g id="edge16" class="edge">
<title>POST /snaps/{name}&#45;&gt;BadRequest</title>
<path fill="none" stroke="#d8a436" d="M549.86,-248.85C580.3,-211.21 653.06,-121.2 688.67,-77.15"/>
<polygon fill="#d8a436" stroke="#d8a436" points="691.5,-79.21 695.07,-69.23 686.06,-74.81 691.5,-79.21"/>
</g>
<!-- POST /snaps/{name}&#45;&gt;macaroonAuth -->
<g id="edge17" class="edge">
<title>POST /snaps/{name}&#45;&gt;macaroonAuth</title>
<path fill="none" stroke="#e26a77" d="M575.44,-248.92C594.25,-240.99 617.14,-231.65 638,-224 783.15,-170.75 824.35,-171.58 969,-117 1004.46,-103.62 1043.75,-86.51 1073.21,-73.2"/>
<polygon fill="#e26a77" stroke="#e26a77" points="1074.76,-76.35 1082.42,-69.03 1071.87,-69.97 1074.76,-76.35"/>
</g>
<!-- PUT /snaps/{name}/conf -->
<g id="node9" class="node">
<title>PUT /snaps/{name}/conf</title>
<path fill="#37516b" stroke="black" d="M1500.5,-285C1500.5,-285 1331.5,-285 1331.5,-285 1325.5,-285 1319.5,-279 1319.5,-273 1319.5,-273 1319.5,-261 1319.5,-261 1319.5,-255 1325.5,-249 1331.5,-249 1331.5,-249 1500.5,-249 1500.5,-249 1506.5,-249 1512.5,-255 1512.5,-261 1512.5,-261 1512.5,-273 1512.5,-273 1512.5,-279 1506.5,-285 1500.5,-285"/>
<text text-anchor="middle" x="1416" y="-263.3" font-family="Times,serif" font-size="14.00" fill="#cdd9e5">PUT /snaps/{name}/conf</text>
</g>
<!-- PUT /snaps/{name}/conf&#45;&gt;BadRequest -->
<g id="edge18" class="edge">
<title>PUT /snaps/{name}/conf&#45;&gt;BadRequest</title>
<path fill="none" stroke="#d8a436" d="M1373.89,-248.95C1352.33,-240.65 1325.53,-230.98 1301,-224 1075.74,-159.88 995.28,-220.14 785,-117 764.75,-107.07 745.47,-90.47 731.4,-76.54"/>
<polygon fill="#d8a436" stroke="#d8a436" points="733.65,-73.82 724.15,-69.13 728.64,-78.72 733.65,-73.82"/>
</g>
<!-- PUT /snaps/{name}/conf&#45;&gt;macaroonAuth -->
<g id="edge19" class="edge">
<title>PUT /snaps/{name}/conf&#45;&gt;macaroonAuth</title>
<path fill="none" stroke="#e26a77" d="M1392.2,-248.85C1339.19,-210.66 1211.39,-118.57 1151.28,-75.26"/>
<polygon fill="#e26a77" stroke="#e26a77" points="1153.08,-72.24 1142.92,-69.23 1148.98,-77.92 1153.08,-72.24"/>
</g>
</g>
</svg>
