<?xml version="1.0" encoding="UTF-8" standalone="no"?>
<!DOCTYPE svg PUBLIC "-//W3C//DTD SVG 1.1//EN"
 "http://www.w3.org/Graphics/SVG/1.1/DTD/svg11.dtd">
<!-- Generated by graphviz version 2.43.0 (0)
 -->
<!-- Title: OpenAPI_Dependencies Pages: 1 -->
<svg width="844pt" height="349pt"
 viewBox="0.00 0.00 844.00 349.00" xmlns="http://www.w3.org/2000/svg" xmlns:xlink="http://www.w3.org/1999/xlink">
<g id="graph0" class="graph" transform="scale(1 1) rotate(0) translate(4 345)">
<title>OpenAPI_Dependencies</title>
<polygon fill="#2d333b" stroke="transparent" points="-4,4 -4,-345 840,-345 840,4 -4,4"/>
<g id="clust1" class="cluster">
<title>cluster_endpoints</title>
<polygon fill="#2d333b" stroke="#cdd9e5" points="8,-224 8,-333 828,-333 828,-224 8,-224"/>
<text text-anchor="middle" x="418" y="-317.8" font-family="Times,serif" font-size="14.00" fill="#cdd9e5">Endpoints &#45; Snap Configuration</text>
</g>
<g id="clust2" class="cluster">
<title>cluster_responses</title>
<polygon fill="#2d333b" stroke="#cdd9e5" points="168,-8 168,-117 440,-117 440,-8 168,-8"/>
<text text-anchor="middle" x="304" y="-101.8" font-family="Times,serif" font-size="14.00" fill="#cdd9e5">Responses</text>
</g>
<g id="clust3" class="cluster">
<title>cluster_security</title>
<polygon fill="#2d333b" stroke="#cdd9e5" points="505,-8 505,-117 675,-117 675,-8 505,-8"/>
<text text-anchor="middle" x="590" y="-101.8" font-family="Times,serif" font-size="14.00" fill="#cdd9e5">Security</text>
</g>
<!-- GET /confdb/{account}/{confdb&#45;schema}/{view} -->
<g id="node1" class="node">
<title>GET /confdb/{account}/{confdb&#45;schema}/{view}</title>
<path fill="#37516b" stroke="black" d="M790.5,-285C790.5,-285 447.5,-285 447.5,-285 441.5,-285 435.5,-279 435.5,-273 435.5,-273 435.5,-261 435.5,-261 435.5,-255 441.5,-249 447.5,-249 447.5,-249 790.5,-249 790.5,-249 796.5,-249 802.5,-255 802.5,-261 802.5,-261 802.5,-273 802.5,-273 802.5,-279 796.5,-285 790.5,-285"/>
<text text-anchor="middle" x="619" y="-263.3" font-family="Times,serif" font-size="14.00" fill="#cdd9e5">GET /confdb/{account}/{confdb&#45;schema}/{view}</text>
</g>
<!-- Accepted -->
<g id="node3" class="node">
<title>Accepted</title>
<path fill="#634c23" stroke="black" d="M403,-69C403,-69 345,-69 345,-69 339,-69 333,-63 333,-57 333,-57 333,-45 333,-45 333,-39 339,-33 345,-33 345,-33 403,-33 403,-33 409,-33 415,-39 415,-45 415,-45 415,-57 415,-57 415,-63 409,-69 403,-69"/>
<text text-anchor="middle" x="374" y="-47.3" font-family="Times,serif" font-size="14.00" fill="#cdd9e5">Accepted</text>
</g>
<!-- GET /confdb/{account}/{confdb&#45;schema}/{view}&#45;&gt;Accepted -->
<g id="edge1" class="edge">
<title>GET /confdb/{account}/{confdb&#45;schema}/{view}&#45;&gt;Accepted</title>
<path fill="none" stroke="#d8a436" d="M599.36,-248.85C555.91,-210.89 451.51,-119.7 401.55,-76.06"/>
<polygon fill="#d8a436" stroke="#d8a436" points="403.56,-73.17 393.73,-69.23 398.96,-78.45 403.56,-73.17"/>
</g>
<!-- BadRequest -->
<g id="node4" class="node">
<title>BadRequest</title>
<path fill="#634c23" stroke="black" d="M284.5,-69C284.5,-69 205.5,-69 205.5,-69 199.5,-69 193.5,-63 193.5,-57 193.5,-57 193.5,-45 193.5,-45 193.5,-39 199.5,-33 205.5,-33 205.5,-33 284.5,-33 284.5,-33 290.5,-33 296.5,-39 296.5,-45 296.5,-45 296.5,-57 296.5,-57 296.5,-63 290.5,-69 284.5,-69"/>
<text text-anchor="middle" x="245" y="-47.3" font-family="Times,serif" font-size="14.00" fill="#cdd9e5">BadRequest</text>
</g>
<!-- GET /confdb/{account}/{confdb&#45;schema}/{view}&#45;&gt;BadRequest -->
<g id="edge2" class="edge">
<title>GET /confdb/{account}/{confdb&#45;schema}/{view}&#45;&gt;BadRequest</title>
<path fill="none" stroke="#d8a436" d="M574.25,-248.92C512.93,-224.45 400.62,-175.83 315,-117 297.98,-105.3 280.95,-89.6 267.95,-76.56"/>
<polygon fill="#d8a436" stroke="#d8a436" points="270.28,-73.94 260.79,-69.24 265.28,-78.84 270.28,-73.94"/>
</g>
<!-- macaroonAuth -->
<g id="node5" class="node">
<title>macaroonAuth</title>
<path fill="#6b3940" stroke="black" d="M638,-69C638,-69 542,-69 542,-69 536,-69 530,-63 530,-57 530,-57 530,-45 530,-45 530,-39 536,-33 542,-33 542,-33 638,-33 638,-33 644,-33 650,-39 650,-45 650,-45 650,-57 650,-57 650,-63 644,-69 638,-69"/>
<text text-anchor="middle" x="590" y="-47.3" font-family="Times,serif" font-size="14.00" fill="#cdd9e5">macaroonAuth</text>
</g>
<!-- GET /confdb/{account}/{confdb&#45;schema}/{view}&#45;&gt;macaroonAuth -->
<g id="edge3" class="edge">
<title>GET /confdb/{account}/{confdb&#45;schema}/{view}&#45;&gt;macaroonAuth</title>
<path fill="none" stroke="#e26a77" d="M616.68,-248.85C611.66,-211.83 599.78,-124.18 593.71,-79.39"/>
<polygon fill="#e26a77" stroke="#e26a77" points="597.15,-78.67 592.34,-69.23 590.21,-79.61 597.15,-78.67"/>
</g>
<!-- PUT /confdb/{account}/{confdb&#45;schema}/{view} -->
<g id="node2" class="node">
<title>PUT /confdb/{account}/{confdb&#45;schema}/{view}</title>
<path fill="#37516b" stroke="black" d="M387,-285C387,-285 45,-285 45,-285 39,-285 33,-279 33,-273 33,-273 33,-261 33,-261 33,-255 39,-249 45,-249 45,-249 387,-249 387,-249 393,-249 399,-255 399,-261 399,-261 399,-273 399,-273 399,-279 393,-285 387,-285"/>
<text text-anchor="middle" x="216" y="-263.3" font-family="Times,serif" font-size="14.00" fill="#cdd9e5">PUT /confdb/{account}/{confdb&#45;schema}/{view}</text>
</g>
<!-- PUT /confdb/{account}/{confdb&#45;schema}/{view}&#45;&gt;Accepted -->
<g id="edge4" class="edge">
<title>PUT /confdb/{account}/{confdb&#45;schema}/{view}&#45;&gt;Accepted</title>
<path fill="none" stroke="#d8a436" d="M228.66,-248.85C256.4,-211.28 322.63,-121.58 355.23,-77.43"/>
<polygon fill="#d8a436" stroke="#d8a436" points="358.15,-79.36 361.28,-69.23 352.52,-75.2 358.15,-79.36"/>
</g>
<!-- PUT /confdb/{account}/{confdb&#45;schema}/{view}&#45;&gt;BadRequest -->
<g id="edge5" class="edge">
<title>PUT /confdb/{account}/{confdb&#45;schema}/{view}&#45;&gt;BadRequest</title>
<path fill="none" stroke="#d8a436" d="M218.32,-248.85C223.34,-211.83 235.22,-124.18 241.29,-79.39"/>
<polygon fill="#d8a436" stroke="#d8a436" points="244.79,-79.61 242.66,-69.23 237.85,-78.67 244.79,-79.61"/>
</g>
<!-- PUT /confdb/{account}/{confdb&#45;schema}/{view}&#45;&gt;macaroonAuth -->
<g id="edge6" class="edge">
<title>PUT /confdb/{account}/{confdb&#45;schema}/{view}&#45;&gt;macaroonAuth</title>
<path fill="none" stroke="#e26a77" d="M245.97,-248.85C313.21,-210.38 476.04,-117.21 551.02,-74.3"/>
<polygon fill="#e26a77" stroke="#e26a77" points="553.2,-77.09 560.14,-69.08 549.73,-71.01 553.2,-77.09"/>
</g>
</g>
</svg>
