<?xml version="1.0" encoding="UTF-8" standalone="no"?>
<!DOCTYPE svg PUBLIC "-//W3C//DTD SVG 1.1//EN"
 "http://www.w3.org/Graphics/SVG/1.1/DTD/svg11.dtd">
<!-- Generated by graphviz version 2.43.0 (0)
 -->
<!-- Title: OpenAPI_Dependencies Pages: 1 -->
<svg width="468pt" height="349pt"
 viewBox="0.00 0.00 468.00 349.00" xmlns="http://www.w3.org/2000/svg" xmlns:xlink="http://www.w3.org/1999/xlink">
<g id="graph0" class="graph" transform="scale(1 1) rotate(0) translate(4 345)">
<title>OpenAPI_Dependencies</title>
<polygon fill="#2d333b" stroke="transparent" points="-4,4 -4,-345 464,-345 464,4 -4,4"/>
<g id="clust1" class="cluster">
<title>cluster_endpoints</title>
<polygon fill="#2d333b" stroke="#cdd9e5" points="54,-224 54,-333 339,-333 339,-224 54,-224"/>
<text text-anchor="middle" x="196.5" y="-317.8" font-family="Times,serif" font-size="14.00" fill="#cdd9e5">Endpoints &#45; Store</text>
</g>
<g id="clust2" class="cluster">
<title>cluster_schemas</title>
<polygon fill="#2d333b" stroke="#cdd9e5" points="8,-8 8,-117 112,-117 112,-8 8,-8"/>
<text text-anchor="middle" x="60" y="-101.8" font-family="Times,serif" font-size="14.00" fill="#cdd9e5">Schemas</text>
</g>
<g id="clust3" class="cluster">
<title>cluster_responses</title>
<polygon fill="#2d333b" stroke="#cdd9e5" points="120,-8 120,-117 274,-117 274,-8 120,-8"/>
<text text-anchor="middle" x="197" y="-101.8" font-family="Times,serif" font-size="14.00" fill="#cdd9e5">Responses</text>
</g>
<g id="clust4" class="cluster">
<title>cluster_security</title>
<polygon fill="#2d333b" stroke="#cdd9e5" points="282,-8 282,-117 452,-117 452,-8 282,-8"/>
<text text-anchor="middle" x="367" y="-101.8" font-family="Times,serif" font-size="14.00" fill="#cdd9e5">Security</text>
</g>
<!-- GET /find -->
<g id="node1" class="node">
<title>GET /find</title>
<path fill="#37516b" stroke="black" d="M301.5,-285C301.5,-285 242.5,-285 242.5,-285 236.5,-285 230.5,-279 230.5,-273 230.5,-273 230.5,-261 230.5,-261 230.5,-255 236.5,-249 242.5,-249 242.5,-249 301.5,-249 301.5,-249 307.5,-249 313.5,-255 313.5,-261 313.5,-261 313.5,-273 313.5,-273 313.5,-279 307.5,-285 301.5,-285"/>
<text text-anchor="middle" x="272" y="-263.3" font-family="Times,serif" font-size="14.00" fill="#cdd9e5">GET /find</text>
</g>
<!-- Snap -->
<g id="node3" class="node">
<title>Snap</title>
<path fill="#345a3f" stroke="black" d="M75,-69C75,-69 45,-69 45,-69 39,-69 33,-63 33,-57 33,-57 33,-45 33,-45 33,-39 39,-33 45,-33 45,-33 75,-33 75,-33 81,-33 87,-39 87,-45 87,-45 87,-57 87,-57 87,-63 81,-69 75,-69"/>
<text text-anchor="middle" x="60" y="-47.3" font-family="Times,serif" font-size="14.00" fill="#cdd9e5">Snap</text>
</g>
<!-- GET /find&#45;&gt;Snap -->
<g id="edge2" class="edge">
<title>GET /find&#45;&gt;Snap</title>
<path fill="none" stroke="#53b668" d="M251.46,-248.84C219.87,-222.07 158.11,-168.11 111,-117 99.47,-104.49 87.67,-89.62 78.33,-77.26"/>
<polygon fill="#53b668" stroke="#53b668" points="81.08,-75.08 72.3,-69.16 75.47,-79.27 81.08,-75.08"/>
</g>
<!-- BadRequest -->
<g id="node4" class="node">
<title>BadRequest</title>
<path fill="#634c23" stroke="black" d="M236.5,-69C236.5,-69 157.5,-69 157.5,-69 151.5,-69 145.5,-63 145.5,-57 145.5,-57 145.5,-45 145.5,-45 145.5,-39 151.5,-33 157.5,-33 157.5,-33 236.5,-33 236.5,-33 242.5,-33 248.5,-39 248.5,-45 248.5,-45 248.5,-57 248.5,-57 248.5,-63 242.5,-69 236.5,-69"/>
<text text-anchor="middle" x="197" y="-47.3" font-family="Times,serif" font-size="14.00" fill="#cdd9e5">BadRequest</text>
</g>
<!-- GET /find&#45;&gt;BadRequest -->
<g id="edge1" class="edge">
<title>GET /find&#45;&gt;BadRequest</title>
<path fill="none" stroke="#d8a436" d="M265.99,-248.85C252.96,-211.68 222.04,-123.44 206.4,-78.82"/>
<polygon fill="#d8a436" stroke="#d8a436" points="209.65,-77.51 203.04,-69.23 203.04,-79.83 209.65,-77.51"/>
</g>
<!-- macaroonAuth -->
<g id="node5" class="node">
<title>macaroonAuth</title>
<path fill="#6b3940" stroke="black" d="M415,-69C415,-69 319,-69 319,-69 313,-69 307,-63 307,-57 307,-57 307,-45 307,-45 307,-39 313,-33 319,-33 319,-33 415,-33 415,-33 421,-33 427,-39 427,-45 427,-45 427,-57 427,-57 427,-63 421,-69 415,-69"/>
<text text-anchor="middle" x="367" y="-47.3" font-family="Times,serif" font-size="14.00" fill="#cdd9e5">macaroonAuth</text>
</g>
<!-- GET /find&#45;&gt;macaroonAuth -->
<g id="edge3" class="edge">
<title>GET /find&#45;&gt;macaroonAuth</title>
<path fill="none" stroke="#e26a77" d="M279.61,-248.85C296.15,-211.6 335.45,-123.07 355.22,-78.54"/>
<polygon fill="#e26a77" stroke="#e26a77" points="358.49,-79.79 359.35,-69.23 352.09,-76.95 358.49,-79.79"/>
</g>
<!-- GET /sections -->
<g id="node2" class="node">
<title>GET /sections</title>
<path fill="#37516b" stroke="black" d="M182.5,-285C182.5,-285 91.5,-285 91.5,-285 85.5,-285 79.5,-279 79.5,-273 79.5,-273 79.5,-261 79.5,-261 79.5,-255 85.5,-249 91.5,-249 91.5,-249 182.5,-249 182.5,-249 188.5,-249 194.5,-255 194.5,-261 194.5,-261 194.5,-273 194.5,-273 194.5,-279 188.5,-285 182.5,-285"/>
<text text-anchor="middle" x="137" y="-263.3" font-family="Times,serif" font-size="14.00" fill="#cdd9e5">GET /sections</text>
</g>
<!-- GET /sections&#45;&gt;BadRequest -->
<g id="edge4" class="edge">
<title>GET /sections&#45;&gt;BadRequest</title>
<path fill="none" stroke="#d8a436" d="M141.81,-248.85C152.21,-211.75 176.87,-123.81 189.4,-79.1"/>
<polygon fill="#d8a436" stroke="#d8a436" points="192.84,-79.81 192.17,-69.23 186.1,-77.92 192.84,-79.81"/>
</g>
</g>
</svg>
