<?xml version="1.0" encoding="UTF-8" standalone="no"?>
<!DOCTYPE svg PUBLIC "-//W3C//DTD SVG 1.1//EN"
 "http://www.w3.org/Graphics/SVG/1.1/DTD/svg11.dtd">
<!-- Generated by graphviz version 2.43.0 (0)
 -->
<!-- Title: OpenAPI_Dependencies Pages: 1 -->
<svg width="9731pt" height="349pt"
 viewBox="0.00 0.00 9731.00 349.00" xmlns="http://www.w3.org/2000/svg" xmlns:xlink="http://www.w3.org/1999/xlink">
<g id="graph0" class="graph" transform="scale(1 1) rotate(0) translate(4 345)">
<title>OpenAPI_Dependencies</title>
<polygon fill="#2d333b" stroke="transparent" points="-4,4 -4,-345 9727,-345 9727,4 -4,4"/>
<g id="clust1" class="cluster">
<title>cluster_endpoints</title>
<polygon fill="#2d333b" stroke="#cdd9e5" points="8,-224 8,-333 9715,-333 9715,-224 8,-224"/>
<text text-anchor="middle" x="4861.5" y="-317.8" font-family="Times,serif" font-size="14.00" fill="#cdd9e5">Endpoints &#45; Sync</text>
</g>
<g id="clust2" class="cluster">
<title>cluster_schemas</title>
<polygon fill="#2d333b" stroke="#cdd9e5" points="4710,-8 4710,-117 7491,-117 7491,-8 4710,-8"/>
<text text-anchor="middle" x="6100.5" y="-101.8" font-family="Times,serif" font-size="14.00" fill="#cdd9e5">Schemas</text>
</g>
<g id="clust3" class="cluster">
<title>cluster_responses</title>
<polygon fill="#2d333b" stroke="#cdd9e5" points="4115,-8 4115,-117 4392,-117 4392,-8 4115,-8"/>
<text text-anchor="middle" x="4253.5" y="-101.8" font-family="Times,serif" font-size="14.00" fill="#cdd9e5">Responses</text>
</g>
<g id="clust4" class="cluster">
<title>cluster_security</title>
<polygon fill="#2d333b" stroke="#cdd9e5" points="7499,-8 7499,-117 7785,-117 7785,-8 7499,-8"/>
<text text-anchor="middle" x="7642" y="-101.8" font-family="Times,serif" font-size="14.00" fill="#cdd9e5">Security</text>
</g>
<!-- GET /aliases -->
<g id="node1" class="node">
<title>GET /aliases</title>
<path fill="#37516b" stroke="black" d="M126.5,-285C126.5,-285 45.5,-285 45.5,-285 39.5,-285 33.5,-279 33.5,-273 33.5,-273 33.5,-261 33.5,-261 33.5,-255 39.5,-249 45.5,-249 45.5,-249 126.5,-249 126.5,-249 132.5,-249 138.5,-255 138.5,-261 138.5,-261 138.5,-273 138.5,-273 138.5,-279 132.5,-285 126.5,-285"/>
<text text-anchor="middle" x="86" y="-263.3" font-family="Times,serif" font-size="14.00" fill="#cdd9e5">GET /aliases</text>
</g>
<!-- BadRequest -->
<g id="node69" class="node">
<title>BadRequest</title>
<path fill="#634c23" stroke="black" d="M4231.5,-69C4231.5,-69 4152.5,-69 4152.5,-69 4146.5,-69 4140.5,-63 4140.5,-57 4140.5,-57 4140.5,-45 4140.5,-45 4140.5,-39 4146.5,-33 4152.5,-33 4152.5,-33 4231.5,-33 4231.5,-33 4237.5,-33 4243.5,-39 4243.5,-45 4243.5,-45 4243.5,-57 4243.5,-57 4243.5,-63 4237.5,-69 4231.5,-69"/>
<text text-anchor="middle" x="4192" y="-47.3" font-family="Times,serif" font-size="14.00" fill="#cdd9e5">BadRequest</text>
</g>
<!-- GET /aliases&#45;&gt;BadRequest -->
<g id="edge1" class="edge">
<title>GET /aliases&#45;&gt;BadRequest</title>
<path fill="none" stroke="#d8a436" d="M108.32,-248.91C121.68,-239.71 139.43,-229.21 157,-224 553.82,-106.28 3651.61,-59.39 4130.04,-52.82"/>
<polygon fill="#d8a436" stroke="#d8a436" points="4130.25,-56.32 4140.2,-52.68 4130.15,-49.32 4130.25,-56.32"/>
</g>
<!-- GET /apps -->
<g id="node2" class="node">
<title>GET /apps</title>
<path fill="#37516b" stroke="black" d="M1633,-285C1633,-285 1567,-285 1567,-285 1561,-285 1555,-279 1555,-273 1555,-273 1555,-261 1555,-261 1555,-255 1561,-249 1567,-249 1567,-249 1633,-249 1633,-249 1639,-249 1645,-255 1645,-261 1645,-261 1645,-273 1645,-273 1645,-279 1639,-285 1633,-285"/>
<text text-anchor="middle" x="1600" y="-263.3" font-family="Times,serif" font-size="14.00" fill="#cdd9e5">GET /apps</text>
</g>
<!-- App -->
<g id="node49" class="node">
<title>App</title>
<path fill="#345a3f" stroke="black" d="M5091,-69C5091,-69 5061,-69 5061,-69 5055,-69 5049,-63 5049,-57 5049,-57 5049,-45 5049,-45 5049,-39 5055,-33 5061,-33 5061,-33 5091,-33 5091,-33 5097,-33 5103,-39 5103,-45 5103,-45 5103,-57 5103,-57 5103,-63 5097,-69 5091,-69"/>
<text text-anchor="middle" x="5076" y="-47.3" font-family="Times,serif" font-size="14.00" fill="#cdd9e5">App</text>
</g>
<!-- GET /apps&#45;&gt;App -->
<g id="edge2" class="edge">
<title>GET /apps&#45;&gt;App</title>
<path fill="none" stroke="#53b668" d="M1619.48,-248.85C1631.23,-239.63 1646.98,-229.13 1663,-224 2019.58,-109.83 4702.16,-296.01 5031,-117 5046.38,-108.63 5057.6,-92.46 5065,-78.35"/>
<polygon fill="#53b668" stroke="#53b668" points="5068.3,-79.55 5069.51,-69.02 5062,-76.5 5068.3,-79.55"/>
</g>
<!-- GET /apps&#45;&gt;BadRequest -->
<g id="edge3" class="edge">
<title>GET /apps&#45;&gt;BadRequest</title>
<path fill="none" stroke="#d8a436" d="M1619.83,-248.85C1631.57,-239.76 1647.2,-229.38 1663,-224 2140.42,-61.56 3790,-52.12 4130.3,-51.92"/>
<polygon fill="#d8a436" stroke="#d8a436" points="4130.45,-55.42 4140.45,-51.92 4130.45,-48.42 4130.45,-55.42"/>
</g>
<!-- GET /assertions -->
<g id="node3" class="node">
<title>GET /assertions</title>
<path fill="#37516b" stroke="black" d="M1154,-285C1154,-285 1048,-285 1048,-285 1042,-285 1036,-279 1036,-273 1036,-273 1036,-261 1036,-261 1036,-255 1042,-249 1048,-249 1048,-249 1154,-249 1154,-249 1160,-249 1166,-255 1166,-261 1166,-261 1166,-273 1166,-273 1166,-279 1160,-285 1154,-285"/>
<text text-anchor="middle" x="1101" y="-263.3" font-family="Times,serif" font-size="14.00" fill="#cdd9e5">GET /assertions</text>
</g>
<!-- GET /assertions&#45;&gt;BadRequest -->
<g id="edge4" class="edge">
<title>GET /assertions&#45;&gt;BadRequest</title>
<path fill="none" stroke="#d8a436" d="M1127.9,-248.81C1143.61,-239.71 1164.19,-229.33 1184,-224 1768.41,-66.79 3753.92,-53.25 4130.18,-52.1"/>
<polygon fill="#d8a436" stroke="#d8a436" points="4130.33,-55.6 4140.32,-52.08 4130.31,-48.6 4130.33,-55.6"/>
</g>
<!-- GET /assertions/{assertionType} -->
<g id="node4" class="node">
<title>GET /assertions/{assertionType}</title>
<path fill="#37516b" stroke="black" d="M987.5,-285C987.5,-285 758.5,-285 758.5,-285 752.5,-285 746.5,-279 746.5,-273 746.5,-273 746.5,-261 746.5,-261 746.5,-255 752.5,-249 758.5,-249 758.5,-249 987.5,-249 987.5,-249 993.5,-249 999.5,-255 999.5,-261 999.5,-261 999.5,-273 999.5,-273 999.5,-279 993.5,-285 987.5,-285"/>
<text text-anchor="middle" x="873" y="-263.3" font-family="Times,serif" font-size="14.00" fill="#cdd9e5">GET /assertions/{assertionType}</text>
</g>
<!-- GET /assertions/{assertionType}&#45;&gt;BadRequest -->
<g id="edge5" class="edge">
<title>GET /assertions/{assertionType}&#45;&gt;BadRequest</title>
<path fill="none" stroke="#d8a436" d="M921.35,-248.99C949.24,-239.95 985.18,-229.57 1018,-224 1649.16,-116.93 3743.29,-62.66 4130.23,-53.43"/>
<polygon fill="#d8a436" stroke="#d8a436" points="4130.47,-56.92 4140.39,-53.19 4130.31,-49.92 4130.47,-56.92"/>
</g>
<!-- GET /changes -->
<g id="node5" class="node">
<title>GET /changes</title>
<path fill="#37516b" stroke="black" d="M8017.5,-285C8017.5,-285 7926.5,-285 7926.5,-285 7920.5,-285 7914.5,-279 7914.5,-273 7914.5,-273 7914.5,-261 7914.5,-261 7914.5,-255 7920.5,-249 7926.5,-249 7926.5,-249 8017.5,-249 8017.5,-249 8023.5,-249 8029.5,-255 8029.5,-261 8029.5,-261 8029.5,-273 8029.5,-273 8029.5,-279 8023.5,-285 8017.5,-285"/>
<text text-anchor="middle" x="7972" y="-263.3" font-family="Times,serif" font-size="14.00" fill="#cdd9e5">GET /changes</text>
</g>
<!-- Change -->
<g id="node50" class="node">
<title>Change</title>
<path fill="#345a3f" stroke="black" d="M7063.5,-69C7063.5,-69 7016.5,-69 7016.5,-69 7010.5,-69 7004.5,-63 7004.5,-57 7004.5,-57 7004.5,-45 7004.5,-45 7004.5,-39 7010.5,-33 7016.5,-33 7016.5,-33 7063.5,-33 7063.5,-33 7069.5,-33 7075.5,-39 7075.5,-45 7075.5,-45 7075.5,-57 7075.5,-57 7075.5,-63 7069.5,-69 7063.5,-69"/>
<text text-anchor="middle" x="7040" y="-47.3" font-family="Times,serif" font-size="14.00" fill="#cdd9e5">Change</text>
</g>
<!-- GET /changes&#45;&gt;Change -->
<g id="edge7" class="edge">
<title>GET /changes&#45;&gt;Change</title>
<path fill="none" stroke="#53b668" d="M7947.09,-248.89C7932.99,-240.05 7914.7,-229.89 7897,-224 7555.4,-110.24 7409.1,-291.2 7094,-117 7077.67,-107.97 7064.25,-91.88 7054.86,-77.97"/>
<polygon fill="#53b668" stroke="#53b668" points="7057.62,-75.78 7049.29,-69.23 7051.72,-79.54 7057.62,-75.78"/>
</g>
<!-- GET /changes&#45;&gt;BadRequest -->
<g id="edge6" class="edge">
<title>GET /changes&#45;&gt;BadRequest</title>
<path fill="none" stroke="#d8a436" d="M7948.31,-248.82C7934.16,-239.59 7915.41,-229.09 7897,-224 7507.57,-116.24 4635.89,-270.21 4262,-117 4241.67,-108.67 4223.64,-91.56 4210.97,-76.98"/>
<polygon fill="#d8a436" stroke="#d8a436" points="4213.59,-74.66 4204.5,-69.21 4208.21,-79.14 4213.59,-74.66"/>
</g>
<!-- macaroonAuth -->
<g id="node71" class="node">
<title>macaroonAuth</title>
<path fill="#6b3940" stroke="black" d="M7632,-69C7632,-69 7536,-69 7536,-69 7530,-69 7524,-63 7524,-57 7524,-57 7524,-45 7524,-45 7524,-39 7530,-33 7536,-33 7536,-33 7632,-33 7632,-33 7638,-33 7644,-39 7644,-45 7644,-45 7644,-57 7644,-57 7644,-63 7638,-69 7632,-69"/>
<text text-anchor="middle" x="7584" y="-47.3" font-family="Times,serif" font-size="14.00" fill="#cdd9e5">macaroonAuth</text>
</g>
<!-- GET /changes&#45;&gt;macaroonAuth -->
<g id="edge8" class="edge">
<title>GET /changes&#45;&gt;macaroonAuth</title>
<path fill="none" stroke="#e26a77" d="M7942.74,-248.87C7929,-241.02 7912.31,-231.76 7897,-224 7794.62,-172.14 7759.17,-178.06 7662,-117 7643.24,-105.21 7624.09,-89.32 7609.46,-76.21"/>
<polygon fill="#e26a77" stroke="#e26a77" points="7611.58,-73.4 7601.83,-69.25 7606.86,-78.57 7611.58,-73.4"/>
</g>
<!-- GET /changes/{id} -->
<g id="node6" class="node">
<title>GET /changes/{id}</title>
<path fill="#37516b" stroke="black" d="M8483.5,-285C8483.5,-285 8356.5,-285 8356.5,-285 8350.5,-285 8344.5,-279 8344.5,-273 8344.5,-273 8344.5,-261 8344.5,-261 8344.5,-255 8350.5,-249 8356.5,-249 8356.5,-249 8483.5,-249 8483.5,-249 8489.5,-249 8495.5,-255 8495.5,-261 8495.5,-261 8495.5,-273 8495.5,-273 8495.5,-279 8489.5,-285 8483.5,-285"/>
<text text-anchor="middle" x="8420" y="-263.3" font-family="Times,serif" font-size="14.00" fill="#cdd9e5">GET /changes/{id}</text>
</g>
<!-- GET /changes/{id}&#45;&gt;Change -->
<g id="edge9" class="edge">
<title>GET /changes/{id}&#45;&gt;Change</title>
<path fill="none" stroke="#53b668" d="M8388.77,-248.88C8370.91,-239.91 8347.8,-229.65 8326,-224 8059.97,-155.1 7337.49,-244.41 7094,-117 7077.37,-108.3 7063.87,-92.05 7054.53,-77.98"/>
<polygon fill="#53b668" stroke="#53b668" points="7057.27,-75.77 7049,-69.15 7051.34,-79.48 7057.27,-75.77"/>
</g>
<!-- NotFound -->
<g id="node70" class="node">
<title>NotFound</title>
<path fill="#634c23" stroke="black" d="M4354.5,-69C4354.5,-69 4291.5,-69 4291.5,-69 4285.5,-69 4279.5,-63 4279.5,-57 4279.5,-57 4279.5,-45 4279.5,-45 4279.5,-39 4285.5,-33 4291.5,-33 4291.5,-33 4354.5,-33 4354.5,-33 4360.5,-33 4366.5,-39 4366.5,-45 4366.5,-45 4366.5,-57 4366.5,-57 4366.5,-63 4360.5,-69 4354.5,-69"/>
<text text-anchor="middle" x="4323" y="-47.3" font-family="Times,serif" font-size="14.00" fill="#cdd9e5">NotFound</text>
</g>
<!-- GET /changes/{id}&#45;&gt;NotFound -->
<g id="edge10" class="edge">
<title>GET /changes/{id}&#45;&gt;NotFound</title>
<path fill="none" stroke="#d8a436" d="M8389.73,-248.83C8371.8,-239.6 8348.3,-229.1 8326,-224 7540.38,-44.31 5502.89,-197.38 4701,-117 4584.41,-105.31 4449.5,-78.98 4376.54,-63.66"/>
<polygon fill="#d8a436" stroke="#d8a436" points="4377.17,-60.21 4366.67,-61.57 4375.73,-67.06 4377.17,-60.21"/>
</g>
<!-- GET /changes/{id}&#45;&gt;macaroonAuth -->
<g id="edge11" class="edge">
<title>GET /changes/{id}&#45;&gt;macaroonAuth</title>
<path fill="none" stroke="#e26a77" d="M8387.31,-248.86C8369.59,-240.23 8347.07,-230.29 8326,-224 8039.56,-138.53 7934.05,-240.86 7662,-117 7640.82,-107.36 7620.75,-90.38 7606.27,-76.19"/>
<polygon fill="#e26a77" stroke="#e26a77" points="7608.75,-73.73 7599.23,-69.08 7603.78,-78.65 7608.75,-73.73"/>
</g>
<!-- GET /connections -->
<g id="node7" class="node">
<title>GET /connections</title>
<path fill="#37516b" stroke="black" d="M1331.5,-285C1331.5,-285 1214.5,-285 1214.5,-285 1208.5,-285 1202.5,-279 1202.5,-273 1202.5,-273 1202.5,-261 1202.5,-261 1202.5,-255 1208.5,-249 1214.5,-249 1214.5,-249 1331.5,-249 1331.5,-249 1337.5,-249 1343.5,-255 1343.5,-261 1343.5,-261 1343.5,-273 1343.5,-273 1343.5,-279 1337.5,-285 1331.5,-285"/>
<text text-anchor="middle" x="1273" y="-263.3" font-family="Times,serif" font-size="14.00" fill="#cdd9e5">GET /connections</text>
</g>
<!-- ConnectionStatus -->
<g id="node52" class="node">
<title>ConnectionStatus</title>
<path fill="#345a3f" stroke="black" d="M4866.5,-69C4866.5,-69 4747.5,-69 4747.5,-69 4741.5,-69 4735.5,-63 4735.5,-57 4735.5,-57 4735.5,-45 4735.5,-45 4735.5,-39 4741.5,-33 4747.5,-33 4747.5,-33 4866.5,-33 4866.5,-33 4872.5,-33 4878.5,-39 4878.5,-45 4878.5,-45 4878.5,-57 4878.5,-57 4878.5,-63 4872.5,-69 4866.5,-69"/>
<text text-anchor="middle" x="4807" y="-47.3" font-family="Times,serif" font-size="14.00" fill="#cdd9e5">ConnectionStatus</text>
</g>
<!-- GET /connections&#45;&gt;ConnectionStatus -->
<g id="edge13" class="edge">
<title>GET /connections&#45;&gt;ConnectionStatus</title>
<path fill="none" stroke="#53b668" d="M1301.22,-248.87C1317.95,-239.66 1339.95,-229.16 1361,-224 2017.56,-63.16 3728.2,-182.44 4401,-117 4514.1,-106 4643.54,-83.54 4725.26,-68.14"/>
<polygon fill="#53b668" stroke="#53b668" points="4726.3,-71.5 4735.47,-66.2 4725,-64.62 4726.3,-71.5"/>
</g>
<!-- GET /connections&#45;&gt;BadRequest -->
<g id="edge12" class="edge">
<title>GET /connections&#45;&gt;BadRequest</title>
<path fill="none" stroke="#d8a436" d="M1301.66,-248.85C1318.36,-239.76 1340.18,-229.38 1361,-224 1910.8,-81.86 3768.1,-56.23 4130.43,-52.54"/>
<polygon fill="#d8a436" stroke="#d8a436" points="4130.5,-56.04 4140.46,-52.44 4130.43,-49.04 4130.5,-56.04"/>
</g>
<!-- GET /find -->
<g id="node8" class="node">
<title>GET /find</title>
<path fill="#37516b" stroke="black" d="M7866.5,-285C7866.5,-285 7807.5,-285 7807.5,-285 7801.5,-285 7795.5,-279 7795.5,-273 7795.5,-273 7795.5,-261 7795.5,-261 7795.5,-255 7801.5,-249 7807.5,-249 7807.5,-249 7866.5,-249 7866.5,-249 7872.5,-249 7878.5,-255 7878.5,-261 7878.5,-261 7878.5,-273 7878.5,-273 7878.5,-279 7872.5,-285 7866.5,-285"/>
<text text-anchor="middle" x="7837" y="-263.3" font-family="Times,serif" font-size="14.00" fill="#cdd9e5">GET /find</text>
</g>
<!-- Snap -->
<g id="node63" class="node">
<title>Snap</title>
<path fill="#345a3f" stroke="black" d="M6956,-69C6956,-69 6926,-69 6926,-69 6920,-69 6914,-63 6914,-57 6914,-57 6914,-45 6914,-45 6914,-39 6920,-33 6926,-33 6926,-33 6956,-33 6956,-33 6962,-33 6968,-39 6968,-45 6968,-45 6968,-57 6968,-57 6968,-63 6962,-69 6956,-69"/>
<text text-anchor="middle" x="6941" y="-47.3" font-family="Times,serif" font-size="14.00" fill="#cdd9e5">Snap</text>
</g>
<!-- GET /find&#45;&gt;Snap -->
<g id="edge15" class="edge">
<title>GET /find&#45;&gt;Snap</title>
<path fill="none" stroke="#53b668" d="M7817.57,-248.81C7806.45,-239.94 7791.8,-229.79 7777,-224 7447,-94.99 7290.03,-300.62 6987,-117 6972.11,-107.98 6960.74,-92.1 6953.03,-78.3"/>
<polygon fill="#53b668" stroke="#53b668" points="6956,-76.43 6948.27,-69.18 6949.79,-79.67 6956,-76.43"/>
</g>
<!-- GET /find&#45;&gt;BadRequest -->
<g id="edge14" class="edge">
<title>GET /find&#45;&gt;BadRequest</title>
<path fill="none" stroke="#d8a436" d="M7818.58,-248.85C7807.45,-239.63 7792.45,-229.13 7777,-224 7406.17,-100.87 4623.48,-265.34 4262,-117 4241.68,-108.66 4223.64,-91.55 4210.97,-76.97"/>
<polygon fill="#d8a436" stroke="#d8a436" points="4213.59,-74.65 4204.5,-69.21 4208.21,-79.13 4213.59,-74.65"/>
</g>
<!-- GET /find&#45;&gt;macaroonAuth -->
<g id="edge16" class="edge">
<title>GET /find&#45;&gt;macaroonAuth</title>
<path fill="none" stroke="#e26a77" d="M7816.72,-248.85C7771.76,-210.81 7663.59,-119.32 7612.13,-75.79"/>
<polygon fill="#e26a77" stroke="#e26a77" points="7614.27,-73.02 7604.37,-69.23 7609.75,-78.36 7614.27,-73.02"/>
</g>
<!-- GET /icons/{name}/icon -->
<g id="node9" class="node">
<title>GET /icons/{name}/icon</title>
<path fill="#37516b" stroke="black" d="M2566,-285C2566,-285 2402,-285 2402,-285 2396,-285 2390,-279 2390,-273 2390,-273 2390,-261 2390,-261 2390,-255 2396,-249 2402,-249 2402,-249 2566,-249 2566,-249 2572,-249 2578,-255 2578,-261 2578,-261 2578,-273 2578,-273 2578,-279 2572,-285 2566,-285"/>
<text text-anchor="middle" x="2484" y="-263.3" font-family="Times,serif" font-size="14.00" fill="#cdd9e5">GET /icons/{name}/icon</text>
</g>
<!-- GET /icons/{name}/icon&#45;&gt;NotFound -->
<g id="edge17" class="edge">
<title>GET /icons/{name}/icon&#45;&gt;NotFound</title>
<path fill="none" stroke="#d8a436" d="M2521.01,-248.97C2542.45,-239.92 2570.21,-229.54 2596,-224 2958.72,-146.14 3926.45,-275.23 4262,-117 4280.08,-108.47 4295.45,-92 4306.24,-77.77"/>
<polygon fill="#d8a436" stroke="#d8a436" points="4309.34,-79.45 4312.34,-69.29 4303.66,-75.36 4309.34,-79.45"/>
</g>
<!-- GET /interfaces -->
<g id="node10" class="node">
<title>GET /interfaces</title>
<path fill="#37516b" stroke="black" d="M7747,-285C7747,-285 7643,-285 7643,-285 7637,-285 7631,-279 7631,-273 7631,-273 7631,-261 7631,-261 7631,-255 7637,-249 7643,-249 7643,-249 7747,-249 7747,-249 7753,-249 7759,-255 7759,-261 7759,-261 7759,-273 7759,-273 7759,-279 7753,-285 7747,-285"/>
<text text-anchor="middle" x="7695" y="-263.3" font-family="Times,serif" font-size="14.00" fill="#cdd9e5">GET /interfaces</text>
</g>
<!-- ConnectionEndpoint -->
<g id="node51" class="node">
<title>ConnectionEndpoint</title>
<path fill="#345a3f" stroke="black" d="M6866,-69C6866,-69 6728,-69 6728,-69 6722,-69 6716,-63 6716,-57 6716,-57 6716,-45 6716,-45 6716,-39 6722,-33 6728,-33 6728,-33 6866,-33 6866,-33 6872,-33 6878,-39 6878,-45 6878,-45 6878,-57 6878,-57 6878,-63 6872,-69 6866,-69"/>
<text text-anchor="middle" x="6797" y="-47.3" font-family="Times,serif" font-size="14.00" fill="#cdd9e5">ConnectionEndpoint</text>
</g>
<!-- GET /interfaces&#45;&gt;ConnectionEndpoint -->
<g id="edge19" class="edge">
<title>GET /interfaces&#45;&gt;ConnectionEndpoint</title>
<path fill="none" stroke="#53b668" d="M7667.14,-248.85C7651.71,-240.11 7631.88,-230.06 7613,-224 7306.24,-125.48 7197.02,-231.87 6896,-117 6870.18,-107.15 6844.18,-89.72 6825.31,-75.39"/>
<polygon fill="#53b668" stroke="#53b668" points="6827.21,-72.44 6817.17,-69.06 6822.91,-77.96 6827.21,-72.44"/>
</g>
<!-- GET /interfaces&#45;&gt;BadRequest -->
<g id="edge18" class="edge">
<title>GET /interfaces&#45;&gt;BadRequest</title>
<path fill="none" stroke="#d8a436" d="M7668.87,-248.84C7653.32,-239.62 7632.82,-229.12 7613,-224 7252.3,-130.88 4606.53,-258.68 4262,-117 4241.68,-108.64 4223.65,-91.53 4210.97,-76.96"/>
<polygon fill="#d8a436" stroke="#d8a436" points="4213.6,-74.64 4204.51,-69.2 4208.22,-79.12 4213.6,-74.64"/>
</g>
<!-- GET /interfaces&#45;&gt;macaroonAuth -->
<g id="edge20" class="edge">
<title>GET /interfaces&#45;&gt;macaroonAuth</title>
<path fill="none" stroke="#e26a77" d="M7686.1,-248.85C7666.74,-211.52 7620.67,-122.69 7597.62,-78.26"/>
<polygon fill="#e26a77" stroke="#e26a77" points="7600.65,-76.5 7592.94,-69.23 7594.44,-79.72 7600.65,-76.5"/>
</g>
<!-- GET /interfaces/requests/prompts -->
<g id="node11" class="node">
<title>GET /interfaces/requests/prompts</title>
<path fill="#37516b" stroke="black" d="M6197.5,-285C6197.5,-285 5962.5,-285 5962.5,-285 5956.5,-285 5950.5,-279 5950.5,-273 5950.5,-273 5950.5,-261 5950.5,-261 5950.5,-255 5956.5,-249 5962.5,-249 5962.5,-249 6197.5,-249 6197.5,-249 6203.5,-249 6209.5,-255 6209.5,-261 6209.5,-261 6209.5,-273 6209.5,-273 6209.5,-279 6203.5,-285 6197.5,-285"/>
<text text-anchor="middle" x="6080" y="-263.3" font-family="Times,serif" font-size="14.00" fill="#cdd9e5">GET /interfaces/requests/prompts</text>
</g>
<!-- Prompt -->
<g id="node55" class="node">
<title>Prompt</title>
<path fill="#345a3f" stroke="black" d="M6232,-69C6232,-69 6186,-69 6186,-69 6180,-69 6174,-63 6174,-57 6174,-57 6174,-45 6174,-45 6174,-39 6180,-33 6186,-33 6186,-33 6232,-33 6232,-33 6238,-33 6244,-39 6244,-45 6244,-45 6244,-57 6244,-57 6244,-63 6238,-69 6232,-69"/>
<text text-anchor="middle" x="6209" y="-47.3" font-family="Times,serif" font-size="14.00" fill="#cdd9e5">Prompt</text>
</g>
<!-- GET /interfaces/requests/prompts&#45;&gt;Prompt -->
<g id="edge22" class="edge">
<title>GET /interfaces/requests/prompts&#45;&gt;Prompt</title>
<path fill="none" stroke="#53b668" d="M6090.34,-248.85C6112.89,-211.44 6166.61,-122.32 6193.34,-77.98"/>
<polygon fill="#53b668" stroke="#53b668" points="6196.45,-79.6 6198.61,-69.23 6190.45,-75.99 6196.45,-79.6"/>
</g>
<!-- GET /interfaces/requests/prompts&#45;&gt;NotFound -->
<g id="edge21" class="edge">
<title>GET /interfaces/requests/prompts&#45;&gt;NotFound</title>
<path fill="none" stroke="#d8a436" d="M6029.19,-249C6000.89,-240.18 5964.84,-230.03 5932,-224 5391.86,-124.81 5245.65,-187.37 4701,-117 4584.79,-101.98 4449.73,-76.9 4376.65,-62.68"/>
<polygon fill="#d8a436" stroke="#d8a436" points="4377.25,-59.23 4366.76,-60.75 4375.9,-66.1 4377.25,-59.23"/>
</g>
<!-- GET /interfaces/requests/prompts/{id} -->
<g id="node12" class="node">
<title>GET /interfaces/requests/prompts/{id}</title>
<path fill="#37516b" stroke="black" d="M6528.5,-285C6528.5,-285 6257.5,-285 6257.5,-285 6251.5,-285 6245.5,-279 6245.5,-273 6245.5,-273 6245.5,-261 6245.5,-261 6245.5,-255 6251.5,-249 6257.5,-249 6257.5,-249 6528.5,-249 6528.5,-249 6534.5,-249 6540.5,-255 6540.5,-261 6540.5,-261 6540.5,-273 6540.5,-273 6540.5,-279 6534.5,-285 6528.5,-285"/>
<text text-anchor="middle" x="6393" y="-263.3" font-family="Times,serif" font-size="14.00" fill="#cdd9e5">GET /interfaces/requests/prompts/{id}</text>
</g>
<!-- GET /interfaces/requests/prompts/{id}&#45;&gt;Prompt -->
<g id="edge24" class="edge">
<title>GET /interfaces/requests/prompts/{id}&#45;&gt;Prompt</title>
<path fill="none" stroke="#53b668" d="M6377.46,-248.75C6352.71,-221.18 6302.96,-165.37 6262,-117 6250.99,-104 6238.97,-89.3 6229.17,-77.18"/>
<polygon fill="#53b668" stroke="#53b668" points="6231.78,-74.84 6222.78,-69.25 6226.33,-79.23 6231.78,-74.84"/>
</g>
<!-- GET /interfaces/requests/prompts/{id}&#45;&gt;NotFound -->
<g id="edge23" class="edge">
<title>GET /interfaces/requests/prompts/{id}&#45;&gt;NotFound</title>
<path fill="none" stroke="#d8a436" d="M6336.64,-248.98C6305,-240.1 6264.63,-229.9 6228,-224 5556.32,-115.88 5376.43,-198.53 4701,-117 4584.67,-102.96 4449.66,-77.51 4376.62,-62.97"/>
<polygon fill="#d8a436" stroke="#d8a436" points="4377.22,-59.52 4366.73,-60.99 4375.85,-66.38 4377.22,-59.52"/>
</g>
<!-- GET /interfaces/requests/rules -->
<g id="node13" class="node">
<title>GET /interfaces/requests/rules</title>
<path fill="#37516b" stroke="black" d="M6799.5,-285C6799.5,-285 6588.5,-285 6588.5,-285 6582.5,-285 6576.5,-279 6576.5,-273 6576.5,-273 6576.5,-261 6576.5,-261 6576.5,-255 6582.5,-249 6588.5,-249 6588.5,-249 6799.5,-249 6799.5,-249 6805.5,-249 6811.5,-255 6811.5,-261 6811.5,-261 6811.5,-273 6811.5,-273 6811.5,-279 6805.5,-285 6799.5,-285"/>
<text text-anchor="middle" x="6694" y="-263.3" font-family="Times,serif" font-size="14.00" fill="#cdd9e5">GET /interfaces/requests/rules</text>
</g>
<!-- Rule -->
<g id="node58" class="node">
<title>Rule</title>
<path fill="#345a3f" stroke="black" d="M6322,-69C6322,-69 6292,-69 6292,-69 6286,-69 6280,-63 6280,-57 6280,-57 6280,-45 6280,-45 6280,-39 6286,-33 6292,-33 6292,-33 6322,-33 6322,-33 6328,-33 6334,-39 6334,-45 6334,-45 6334,-57 6334,-57 6334,-63 6328,-69 6322,-69"/>
<text text-anchor="middle" x="6307" y="-47.3" font-family="Times,serif" font-size="14.00" fill="#cdd9e5">Rule</text>
</g>
<!-- GET /interfaces/requests/rules&#45;&gt;Rule -->
<g id="edge26" class="edge">
<title>GET /interfaces/requests/rules&#45;&gt;Rule</title>
<path fill="none" stroke="#53b668" d="M6646.53,-248.89C6564.51,-218.73 6400.47,-155.65 6353,-117 6339.97,-106.39 6328.95,-91.21 6320.96,-78.19"/>
<polygon fill="#53b668" stroke="#53b668" points="6323.77,-76.05 6315.7,-69.18 6317.72,-79.58 6323.77,-76.05"/>
</g>
<!-- GET /interfaces/requests/rules&#45;&gt;NotFound -->
<g id="edge25" class="edge">
<title>GET /interfaces/requests/rules&#45;&gt;NotFound</title>
<path fill="none" stroke="#d8a436" d="M6649.07,-249C6623.14,-239.95 6589.67,-229.57 6559,-224 5745.15,-76.26 5522.79,-211.02 4701,-117 4584.58,-103.68 4449.6,-77.96 4376.59,-63.18"/>
<polygon fill="#d8a436" stroke="#d8a436" points="4377.21,-59.73 4366.71,-61.17 4375.81,-66.59 4377.21,-59.73"/>
</g>
<!-- GET /interfaces/requests/rules/{id} -->
<g id="node14" class="node">
<title>GET /interfaces/requests/rules/{id}</title>
<path fill="#37516b" stroke="black" d="M7106.5,-285C7106.5,-285 6859.5,-285 6859.5,-285 6853.5,-285 6847.5,-279 6847.5,-273 6847.5,-273 6847.5,-261 6847.5,-261 6847.5,-255 6853.5,-249 6859.5,-249 6859.5,-249 7106.5,-249 7106.5,-249 7112.5,-249 7118.5,-255 7118.5,-261 7118.5,-261 7118.5,-273 7118.5,-273 7118.5,-279 7112.5,-285 7106.5,-285"/>
<text text-anchor="middle" x="6983" y="-263.3" font-family="Times,serif" font-size="14.00" fill="#cdd9e5">GET /interfaces/requests/rules/{id}</text>
</g>
<!-- GET /interfaces/requests/rules/{id}&#45;&gt;Rule -->
<g id="edge28" class="edge">
<title>GET /interfaces/requests/rules/{id}&#45;&gt;Rule</title>
<path fill="none" stroke="#53b668" d="M6923.59,-248.99C6895.32,-241.08 6861,-231.73 6830,-224 6619.18,-171.45 6533.8,-237.48 6353,-117 6338.61,-107.41 6327.29,-91.66 6319.49,-78.07"/>
<polygon fill="#53b668" stroke="#53b668" points="6322.48,-76.25 6314.65,-69.11 6316.32,-79.57 6322.48,-76.25"/>
</g>
<!-- GET /interfaces/requests/rules/{id}&#45;&gt;NotFound -->
<g id="edge27" class="edge">
<title>GET /interfaces/requests/rules/{id}&#45;&gt;NotFound</title>
<path fill="none" stroke="#d8a436" d="M6931.92,-248.97C6902.47,-239.92 6864.54,-229.54 6830,-224 5894.54,-73.94 5642.66,-221.25 4701,-117 4584.53,-104.11 4449.57,-78.23 4376.58,-63.3"/>
<polygon fill="#d8a436" stroke="#d8a436" points="4377.2,-59.86 4366.7,-61.27 4375.79,-66.72 4377.2,-59.86"/>
</g>
<!-- GET /logs -->
<g id="node15" class="node">
<title>GET /logs</title>
<path fill="#37516b" stroke="black" d="M249,-285C249,-285 187,-285 187,-285 181,-285 175,-279 175,-273 175,-273 175,-261 175,-261 175,-255 181,-249 187,-249 187,-249 249,-249 249,-249 255,-249 261,-255 261,-261 261,-261 261,-273 261,-273 261,-279 255,-285 249,-285"/>
<text text-anchor="middle" x="218" y="-263.3" font-family="Times,serif" font-size="14.00" fill="#cdd9e5">GET /logs</text>
</g>
<!-- GET /logs&#45;&gt;BadRequest -->
<g id="edge29" class="edge">
<title>GET /logs&#45;&gt;BadRequest</title>
<path fill="none" stroke="#d8a436" d="M236.8,-248.92C248.15,-239.73 263.4,-229.23 279,-224 659.11,-96.58 3659.5,-57.96 4130.01,-52.66"/>
<polygon fill="#d8a436" stroke="#d8a436" points="4130.37,-56.16 4140.33,-52.55 4130.3,-49.16 4130.37,-56.16"/>
</g>
<!-- GET /model -->
<g id="node16" class="node">
<title>GET /model</title>
<path fill="#37516b" stroke="black" d="M2208,-285C2208,-285 2132,-285 2132,-285 2126,-285 2120,-279 2120,-273 2120,-273 2120,-261 2120,-261 2120,-255 2126,-249 2132,-249 2132,-249 2208,-249 2208,-249 2214,-249 2220,-255 2220,-261 2220,-261 2220,-273 2220,-273 2220,-279 2214,-285 2208,-285"/>
<text text-anchor="middle" x="2170" y="-263.3" font-family="Times,serif" font-size="14.00" fill="#cdd9e5">GET /model</text>
</g>
<!-- GET /model&#45;&gt;NotFound -->
<g id="edge30" class="edge">
<title>GET /model&#45;&gt;NotFound</title>
<path fill="none" stroke="#d8a436" d="M2191.29,-248.98C2204.05,-239.8 2221.05,-229.3 2238,-224 2667.88,-89.58 3853.54,-306.8 4262,-117 4280.25,-108.52 4295.69,-91.89 4306.48,-77.57"/>
<polygon fill="#d8a436" stroke="#d8a436" points="4309.6,-79.22 4312.57,-69.05 4303.91,-75.15 4309.6,-79.22"/>
</g>
<!-- GET /model/serial -->
<g id="node17" class="node">
<title>GET /model/serial</title>
<path fill="#37516b" stroke="black" d="M2746,-285C2746,-285 2626,-285 2626,-285 2620,-285 2614,-279 2614,-273 2614,-273 2614,-261 2614,-261 2614,-255 2620,-249 2626,-249 2626,-249 2746,-249 2746,-249 2752,-249 2758,-255 2758,-261 2758,-261 2758,-273 2758,-273 2758,-279 2752,-285 2746,-285"/>
<text text-anchor="middle" x="2686" y="-263.3" font-family="Times,serif" font-size="14.00" fill="#cdd9e5">GET /model/serial</text>
</g>
<!-- GET /model/serial&#45;&gt;NotFound -->
<g id="edge31" class="edge">
<title>GET /model/serial&#45;&gt;NotFound</title>
<path fill="none" stroke="#d8a436" d="M2715.38,-248.95C2732.49,-239.89 2754.81,-229.51 2776,-224 3096.43,-140.73 3963.1,-259.37 4262,-117 4280.05,-108.4 4295.42,-91.93 4306.21,-77.72"/>
<polygon fill="#d8a436" stroke="#d8a436" points="4309.31,-79.41 4312.33,-69.25 4303.63,-75.31 4309.31,-79.41"/>
</g>
<!-- GET /notices -->
<g id="node18" class="node">
<title>GET /notices</title>
<path fill="#37516b" stroke="black" d="M2071.5,-285C2071.5,-285 1988.5,-285 1988.5,-285 1982.5,-285 1976.5,-279 1976.5,-273 1976.5,-273 1976.5,-261 1976.5,-261 1976.5,-255 1982.5,-249 1988.5,-249 1988.5,-249 2071.5,-249 2071.5,-249 2077.5,-249 2083.5,-255 2083.5,-261 2083.5,-261 2083.5,-273 2083.5,-273 2083.5,-279 2077.5,-285 2071.5,-285"/>
<text text-anchor="middle" x="2030" y="-263.3" font-family="Times,serif" font-size="14.00" fill="#cdd9e5">GET /notices</text>
</g>
<!-- Notice -->
<g id="node54" class="node">
<title>Notice</title>
<path fill="#345a3f" stroke="black" d="M5424.5,-69C5424.5,-69 5385.5,-69 5385.5,-69 5379.5,-69 5373.5,-63 5373.5,-57 5373.5,-57 5373.5,-45 5373.5,-45 5373.5,-39 5379.5,-33 5385.5,-33 5385.5,-33 5424.5,-33 5424.5,-33 5430.5,-33 5436.5,-39 5436.5,-45 5436.5,-45 5436.5,-57 5436.5,-57 5436.5,-63 5430.5,-69 5424.5,-69"/>
<text text-anchor="middle" x="5405" y="-47.3" font-family="Times,serif" font-size="14.00" fill="#cdd9e5">Notice</text>
</g>
<!-- GET /notices&#45;&gt;Notice -->
<g id="edge33" class="edge">
<title>GET /notices&#45;&gt;Notice</title>
<path fill="none" stroke="#53b668" d="M2052.65,-248.85C2066.2,-239.63 2084.2,-229.13 2102,-224 2449.51,-123.89 5033.23,-282.07 5355,-117 5371.31,-108.63 5383.87,-92.23 5392.32,-78"/>
<polygon fill="#53b668" stroke="#53b668" points="5395.48,-79.51 5397.27,-69.07 5389.36,-76.11 5395.48,-79.51"/>
</g>
<!-- GET /notices&#45;&gt;BadRequest -->
<g id="edge32" class="edge">
<title>GET /notices&#45;&gt;BadRequest</title>
<path fill="none" stroke="#d8a436" d="M2053.07,-248.96C2066.61,-239.9 2084.47,-229.52 2102,-224 2494.95,-100.25 3826.55,-60.88 4130.07,-53.41"/>
<polygon fill="#d8a436" stroke="#d8a436" points="4130.52,-56.9 4140.43,-53.16 4130.35,-49.9 4130.52,-56.9"/>
</g>
<!-- GET /quotas -->
<g id="node19" class="node">
<title>GET /quotas</title>
<path fill="#37516b" stroke="black" d="M2886,-285C2886,-285 2806,-285 2806,-285 2800,-285 2794,-279 2794,-273 2794,-273 2794,-261 2794,-261 2794,-255 2800,-249 2806,-249 2806,-249 2886,-249 2886,-249 2892,-249 2898,-255 2898,-261 2898,-261 2898,-273 2898,-273 2898,-279 2892,-285 2886,-285"/>
<text text-anchor="middle" x="2846" y="-263.3" font-family="Times,serif" font-size="14.00" fill="#cdd9e5">GET /quotas</text>
</g>
<!-- QuotaGroup -->
<g id="node57" class="node">
<title>QuotaGroup</title>
<path fill="#345a3f" stroke="black" d="M5716,-69C5716,-69 5636,-69 5636,-69 5630,-69 5624,-63 5624,-57 5624,-57 5624,-45 5624,-45 5624,-39 5630,-33 5636,-33 5636,-33 5716,-33 5716,-33 5722,-33 5728,-39 5728,-45 5728,-45 5728,-57 5728,-57 5728,-63 5722,-69 5716,-69"/>
<text text-anchor="middle" x="5676" y="-47.3" font-family="Times,serif" font-size="14.00" fill="#cdd9e5">QuotaGroup</text>
</g>
<!-- GET /quotas&#45;&gt;QuotaGroup -->
<g id="edge35" class="edge">
<title>GET /quotas&#45;&gt;QuotaGroup</title>
<path fill="none" stroke="#53b668" d="M2867.96,-248.89C2881.12,-239.69 2898.62,-229.19 2916,-224 3489.25,-52.88 5053.6,-346.7 5606,-117 5626.29,-108.57 5644.32,-91.46 5657,-76.91"/>
<polygon fill="#53b668" stroke="#53b668" points="5659.75,-79.08 5663.48,-69.16 5654.38,-74.59 5659.75,-79.08"/>
</g>
<!-- GET /quotas&#45;&gt;BadRequest -->
<g id="edge34" class="edge">
<title>GET /quotas&#45;&gt;BadRequest</title>
<path fill="none" stroke="#d8a436" d="M2869.1,-248.87C2882.2,-240.01 2899.28,-229.86 2916,-224 3362.15,-67.58 3942.06,-52.22 4130.18,-51.61"/>
<polygon fill="#d8a436" stroke="#d8a436" points="4130.44,-55.11 4140.43,-51.59 4130.42,-48.11 4130.44,-55.11"/>
</g>
<!-- GET /quotas/{group&#45;name} -->
<g id="node20" class="node">
<title>GET /quotas/{group&#45;name}</title>
<path fill="#37516b" stroke="black" d="M3829,-285C3829,-285 3641,-285 3641,-285 3635,-285 3629,-279 3629,-273 3629,-273 3629,-261 3629,-261 3629,-255 3635,-249 3641,-249 3641,-249 3829,-249 3829,-249 3835,-249 3841,-255 3841,-261 3841,-261 3841,-273 3841,-273 3841,-279 3835,-285 3829,-285"/>
<text text-anchor="middle" x="3735" y="-263.3" font-family="Times,serif" font-size="14.00" fill="#cdd9e5">GET /quotas/{group&#45;name}</text>
</g>
<!-- GET /quotas/{group&#45;name}&#45;&gt;QuotaGroup -->
<g id="edge37" class="edge">
<title>GET /quotas/{group&#45;name}&#45;&gt;QuotaGroup</title>
<path fill="none" stroke="#53b668" d="M3776.15,-248.99C3799.94,-239.94 3830.67,-229.56 3859,-224 4240.66,-149.06 5248.48,-270.17 5606,-117 5626.19,-108.35 5644.23,-91.25 5656.94,-76.76"/>
<polygon fill="#53b668" stroke="#53b668" points="5659.67,-78.95 5663.43,-69.04 5654.31,-74.44 5659.67,-78.95"/>
</g>
<!-- GET /quotas/{group&#45;name}&#45;&gt;NotFound -->
<g id="edge36" class="edge">
<title>GET /quotas/{group&#45;name}&#45;&gt;NotFound</title>
<path fill="none" stroke="#d8a436" d="M3782.75,-248.99C3805.69,-241.03 3833.65,-231.65 3859,-224 4036.42,-170.47 4102.89,-212.01 4262,-117 4278.84,-106.95 4293.95,-90.92 4304.92,-77.3"/>
<polygon fill="#d8a436" stroke="#d8a436" points="4307.84,-79.25 4311.19,-69.2 4302.3,-74.96 4307.84,-79.25"/>
</g>
<!-- GET /sections -->
<g id="node21" class="node">
<title>GET /sections</title>
<path fill="#37516b" stroke="black" d="M698.5,-285C698.5,-285 607.5,-285 607.5,-285 601.5,-285 595.5,-279 595.5,-273 595.5,-273 595.5,-261 595.5,-261 595.5,-255 601.5,-249 607.5,-249 607.5,-249 698.5,-249 698.5,-249 704.5,-249 710.5,-255 710.5,-261 710.5,-261 710.5,-273 710.5,-273 710.5,-279 704.5,-285 698.5,-285"/>
<text text-anchor="middle" x="653" y="-263.3" font-family="Times,serif" font-size="14.00" fill="#cdd9e5">GET /sections</text>
</g>
<!-- GET /sections&#45;&gt;BadRequest -->
<g id="edge38" class="edge">
<title>GET /sections&#45;&gt;BadRequest</title>
<path fill="none" stroke="#d8a436" d="M676.73,-248.96C690.89,-239.78 709.64,-229.28 728,-224 1067.29,-126.42 3692.3,-63.27 4130.17,-53.37"/>
<polygon fill="#d8a436" stroke="#d8a436" points="4130.48,-56.86 4140.4,-53.14 4130.32,-49.86 4130.48,-56.86"/>
</g>
<!-- GET /snaps -->
<g id="node22" class="node">
<title>GET /snaps</title>
<path fill="#37516b" stroke="black" d="M2342,-285C2342,-285 2268,-285 2268,-285 2262,-285 2256,-279 2256,-273 2256,-273 2256,-261 2256,-261 2256,-255 2262,-249 2268,-249 2268,-249 2342,-249 2342,-249 2348,-249 2354,-255 2354,-261 2354,-261 2354,-273 2354,-273 2354,-279 2348,-285 2342,-285"/>
<text text-anchor="middle" x="2305" y="-263.3" font-family="Times,serif" font-size="14.00" fill="#cdd9e5">GET /snaps</text>
</g>
<!-- InstalledSnap -->
<g id="node53" class="node">
<title>InstalledSnap</title>
<path fill="#345a3f" stroke="black" d="M5575.5,-69C5575.5,-69 5484.5,-69 5484.5,-69 5478.5,-69 5472.5,-63 5472.5,-57 5472.5,-57 5472.5,-45 5472.5,-45 5472.5,-39 5478.5,-33 5484.5,-33 5484.5,-33 5575.5,-33 5575.5,-33 5581.5,-33 5587.5,-39 5587.5,-45 5587.5,-45 5587.5,-57 5587.5,-57 5587.5,-63 5581.5,-69 5575.5,-69"/>
<text text-anchor="middle" x="5530" y="-47.3" font-family="Times,serif" font-size="14.00" fill="#cdd9e5">InstalledSnap</text>
</g>
<!-- GET /snaps&#45;&gt;InstalledSnap -->
<g id="edge40" class="edge">
<title>GET /snaps&#45;&gt;InstalledSnap</title>
<path fill="none" stroke="#53b668" d="M2325.9,-248.86C2338.45,-239.65 2355.2,-229.15 2372,-224 3027.45,-23.17 4816.96,-367.7 5455,-117 5476.24,-108.65 5495.58,-91.54 5509.3,-76.97"/>
<polygon fill="#53b668" stroke="#53b668" points="5512.21,-78.97 5516.32,-69.21 5507.02,-74.28 5512.21,-78.97"/>
</g>
<!-- GET /snaps&#45;&gt;BadRequest -->
<g id="edge39" class="edge">
<title>GET /snaps&#45;&gt;BadRequest</title>
<path fill="none" stroke="#d8a436" d="M2326.61,-248.81C2339.13,-239.82 2355.62,-229.56 2372,-224 2708.8,-109.74 3850.8,-63.71 4130.02,-54.02"/>
<polygon fill="#d8a436" stroke="#d8a436" points="4130.48,-57.51 4140.36,-53.67 4130.24,-50.51 4130.48,-57.51"/>
</g>
<!-- GET /snaps/{name} -->
<g id="node23" class="node">
<title>GET /snaps/{name}</title>
<path fill="#37516b" stroke="black" d="M3581.5,-285C3581.5,-285 3446.5,-285 3446.5,-285 3440.5,-285 3434.5,-279 3434.5,-273 3434.5,-273 3434.5,-261 3434.5,-261 3434.5,-255 3440.5,-249 3446.5,-249 3446.5,-249 3581.5,-249 3581.5,-249 3587.5,-249 3593.5,-255 3593.5,-261 3593.5,-261 3593.5,-273 3593.5,-273 3593.5,-279 3587.5,-285 3581.5,-285"/>
<text text-anchor="middle" x="3514" y="-263.3" font-family="Times,serif" font-size="14.00" fill="#cdd9e5">GET /snaps/{name}</text>
</g>
<!-- GET /snaps/{name}&#45;&gt;InstalledSnap -->
<g id="edge41" class="edge">
<title>GET /snaps/{name}&#45;&gt;InstalledSnap</title>
<path fill="none" stroke="#53b668" d="M3545.8,-248.86C3564.28,-239.77 3588.33,-229.39 3611,-224 4010.35,-129.11 5074.74,-271.54 5455,-117 5476.15,-108.41 5495.49,-91.3 5509.23,-76.8"/>
<polygon fill="#53b668" stroke="#53b668" points="5512.12,-78.82 5516.27,-69.07 5506.95,-74.11 5512.12,-78.82"/>
</g>
<!-- GET /snaps/{name}&#45;&gt;NotFound -->
<g id="edge42" class="edge">
<title>GET /snaps/{name}&#45;&gt;NotFound</title>
<path fill="none" stroke="#d8a436" d="M3547.8,-248.92C3566.11,-240.31 3589.34,-230.36 3611,-224 3892.32,-141.35 4003.29,-255 4262,-117 4279.53,-107.65 4294.81,-91.34 4305.7,-77.39"/>
<polygon fill="#d8a436" stroke="#d8a436" points="4308.71,-79.2 4311.89,-69.1 4303.1,-75.02 4308.71,-79.2"/>
</g>
<!-- GET /snaps/{name}/conf -->
<g id="node24" class="node">
<title>GET /snaps/{name}/conf</title>
<path fill="#37516b" stroke="black" d="M4636,-285C4636,-285 4466,-285 4466,-285 4460,-285 4454,-279 4454,-273 4454,-273 4454,-261 4454,-261 4454,-255 4460,-249 4466,-249 4466,-249 4636,-249 4636,-249 4642,-249 4648,-255 4648,-261 4648,-261 4648,-273 4648,-273 4648,-279 4642,-285 4636,-285"/>
<text text-anchor="middle" x="4551" y="-263.3" font-family="Times,serif" font-size="14.00" fill="#cdd9e5">GET /snaps/{name}/conf</text>
</g>
<!-- GET /snaps/{name}/conf&#45;&gt;BadRequest -->
<g id="edge43" class="edge">
<title>GET /snaps/{name}/conf&#45;&gt;BadRequest</title>
<path fill="none" stroke="#d8a436" d="M4509.27,-248.8C4451.23,-223.94 4344,-174.58 4262,-117 4245.1,-105.13 4228.07,-89.42 4215.04,-76.42"/>
<polygon fill="#d8a436" stroke="#d8a436" points="4217.37,-73.8 4207.87,-69.13 4212.39,-78.71 4217.37,-73.8"/>
</g>
<!-- GET /snaps/{name}/conf&#45;&gt;macaroonAuth -->
<g id="edge44" class="edge">
<title>GET /snaps/{name}/conf&#45;&gt;macaroonAuth</title>
<path fill="none" stroke="#e26a77" d="M4588.82,-248.94C4611.09,-239.75 4640.09,-229.25 4667,-224 5285.36,-103.43 6907.79,-331.94 7500,-117 7523.17,-108.59 7545.05,-91.24 7560.67,-76.57"/>
<polygon fill="#e26a77" stroke="#e26a77" points="7563.51,-78.69 7568.24,-69.21 7558.63,-73.68 7563.51,-78.69"/>
</g>
<!-- GET /snapshots -->
<g id="node25" class="node">
<title>GET /snapshots</title>
<path fill="#37516b" stroke="black" d="M1797,-285C1797,-285 1693,-285 1693,-285 1687,-285 1681,-279 1681,-273 1681,-273 1681,-261 1681,-261 1681,-255 1687,-249 1693,-249 1693,-249 1797,-249 1797,-249 1803,-249 1809,-255 1809,-261 1809,-261 1809,-273 1809,-273 1809,-279 1803,-285 1797,-285"/>
<text text-anchor="middle" x="1745" y="-263.3" font-family="Times,serif" font-size="14.00" fill="#cdd9e5">GET /snapshots</text>
</g>
<!-- SnapshotSet -->
<g id="node64" class="node">
<title>SnapshotSet</title>
<path fill="#345a3f" stroke="black" d="M5234.5,-69C5234.5,-69 5151.5,-69 5151.5,-69 5145.5,-69 5139.5,-63 5139.5,-57 5139.5,-57 5139.5,-45 5139.5,-45 5139.5,-39 5145.5,-33 5151.5,-33 5151.5,-33 5234.5,-33 5234.5,-33 5240.5,-33 5246.5,-39 5246.5,-45 5246.5,-45 5246.5,-57 5246.5,-57 5246.5,-63 5240.5,-69 5234.5,-69"/>
<text text-anchor="middle" x="5193" y="-47.3" font-family="Times,serif" font-size="14.00" fill="#cdd9e5">SnapshotSet</text>
</g>
<!-- GET /snapshots&#45;&gt;SnapshotSet -->
<g id="edge46" class="edge">
<title>GET /snapshots&#45;&gt;SnapshotSet</title>
<path fill="none" stroke="#53b668" d="M1771.13,-248.84C1786.68,-239.62 1807.18,-229.12 1827,-224 2181.54,-132.37 4781.39,-253.99 5121,-117 5141.69,-108.65 5160.24,-91.54 5173.34,-76.97"/>
<polygon fill="#53b668" stroke="#53b668" points="5176.15,-79.07 5180.03,-69.21 5170.85,-74.5 5176.15,-79.07"/>
</g>
<!-- GET /snapshots&#45;&gt;BadRequest -->
<g id="edge45" class="edge">
<title>GET /snapshots&#45;&gt;BadRequest</title>
<path fill="none" stroke="#d8a436" d="M1771.58,-248.93C1787.1,-239.86 1807.44,-229.48 1827,-224 2279.22,-97.39 3803.78,-59.84 4130.17,-53.17"/>
<polygon fill="#d8a436" stroke="#d8a436" points="4130.44,-56.66 4140.37,-52.96 4130.3,-49.67 4130.44,-56.66"/>
</g>
<!-- GET /snapshots/{set&#45;id}/export -->
<g id="node26" class="node">
<title>GET /snapshots/{set&#45;id}/export</title>
<path fill="#37516b" stroke="black" d="M8296,-285C8296,-285 8078,-285 8078,-285 8072,-285 8066,-279 8066,-273 8066,-273 8066,-261 8066,-261 8066,-255 8072,-249 8078,-249 8078,-249 8296,-249 8296,-249 8302,-249 8308,-255 8308,-261 8308,-261 8308,-273 8308,-273 8308,-279 8302,-285 8296,-285"/>
<text text-anchor="middle" x="8187" y="-263.3" font-family="Times,serif" font-size="14.00" fill="#cdd9e5">GET /snapshots/{set&#45;id}/export</text>
</g>
<!-- GET /snapshots/{set&#45;id}/export&#45;&gt;NotFound -->
<g id="edge47" class="edge">
<title>GET /snapshots/{set&#45;id}/export&#45;&gt;NotFound</title>
<path fill="none" stroke="#d8a436" d="M8141.38,-248.92C8114.59,-239.73 8079.84,-229.23 8048,-224 6579.34,17.08 6181.71,-267.25 4701,-117 4584.42,-105.17 4449.5,-78.89 4376.55,-63.62"/>
<polygon fill="#d8a436" stroke="#d8a436" points="4377.18,-60.17 4366.67,-61.54 4375.73,-67.02 4377.18,-60.17"/>
</g>
<!-- GET /snapshots/{set&#45;id}/export&#45;&gt;macaroonAuth -->
<g id="edge48" class="edge">
<title>GET /snapshots/{set&#45;id}/export&#45;&gt;macaroonAuth</title>
<path fill="none" stroke="#e26a77" d="M8131.62,-248.95C8106.19,-241.2 8075.6,-232 8048,-224 7877,-174.47 7819.69,-199.61 7662,-117 7641.84,-106.44 7622.18,-90 7607.64,-76.3"/>
<polygon fill="#e26a77" stroke="#e26a77" points="7609.74,-73.46 7600.12,-69.02 7604.87,-78.49 7609.74,-73.46"/>
</g>
<!-- GET /system&#45;info -->
<g id="node27" class="node">
<title>GET /system&#45;info</title>
<path fill="#37516b" stroke="black" d="M1506.5,-285C1506.5,-285 1391.5,-285 1391.5,-285 1385.5,-285 1379.5,-279 1379.5,-273 1379.5,-273 1379.5,-261 1379.5,-261 1379.5,-255 1385.5,-249 1391.5,-249 1391.5,-249 1506.5,-249 1506.5,-249 1512.5,-249 1518.5,-255 1518.5,-261 1518.5,-261 1518.5,-273 1518.5,-273 1518.5,-279 1512.5,-285 1506.5,-285"/>
<text text-anchor="middle" x="1449" y="-263.3" font-family="Times,serif" font-size="14.00" fill="#cdd9e5">GET /system&#45;info</text>
</g>
<!-- SystemInfo -->
<g id="node67" class="node">
<title>SystemInfo</title>
<path fill="#345a3f" stroke="black" d="M5001,-69C5001,-69 4927,-69 4927,-69 4921,-69 4915,-63 4915,-57 4915,-57 4915,-45 4915,-45 4915,-39 4921,-33 4927,-33 4927,-33 5001,-33 5001,-33 5007,-33 5013,-39 5013,-45 5013,-45 5013,-57 5013,-57 5013,-63 5007,-69 5001,-69"/>
<text text-anchor="middle" x="4964" y="-47.3" font-family="Times,serif" font-size="14.00" fill="#cdd9e5">SystemInfo</text>
</g>
<!-- GET /system&#45;info&#45;&gt;SystemInfo -->
<g id="edge50" class="edge">
<title>GET /system&#45;info&#45;&gt;SystemInfo</title>
<path fill="none" stroke="#53b668" d="M1477.21,-248.84C1493.95,-239.62 1515.95,-229.12 1537,-224 1899.94,-135.73 4553.11,-262.81 4897,-117 4916.58,-108.7 4933.7,-91.82 4945.72,-77.35"/>
<polygon fill="#53b668" stroke="#53b668" points="4948.73,-79.2 4952.2,-69.19 4943.24,-74.85 4948.73,-79.2"/>
</g>
<!-- GET /system&#45;info&#45;&gt;BadRequest -->
<g id="edge49" class="edge">
<title>GET /system&#45;info&#45;&gt;BadRequest</title>
<path fill="none" stroke="#d8a436" d="M1477.67,-248.89C1494.38,-239.8 1516.2,-229.42 1537,-224 2050.43,-90.16 3780.57,-58.02 4130.13,-52.83"/>
<polygon fill="#d8a436" stroke="#d8a436" points="4130.36,-56.33 4140.3,-52.68 4130.25,-49.33 4130.36,-56.33"/>
</g>
<!-- GET /system&#45;recovery&#45;keys -->
<g id="node28" class="node">
<title>GET /system&#45;recovery&#45;keys</title>
<path fill="#37516b" stroke="black" d="M5410.5,-285C5410.5,-285 5223.5,-285 5223.5,-285 5217.5,-285 5211.5,-279 5211.5,-273 5211.5,-273 5211.5,-261 5211.5,-261 5211.5,-255 5217.5,-249 5223.5,-249 5223.5,-249 5410.5,-249 5410.5,-249 5416.5,-249 5422.5,-255 5422.5,-261 5422.5,-261 5422.5,-273 5422.5,-273 5422.5,-279 5416.5,-285 5410.5,-285"/>
<text text-anchor="middle" x="5317" y="-263.3" font-family="Times,serif" font-size="14.00" fill="#cdd9e5">GET /system&#45;recovery&#45;keys</text>
</g>
<!-- GET /system&#45;recovery&#45;keys&#45;&gt;BadRequest -->
<g id="edge51" class="edge">
<title>GET /system&#45;recovery&#45;keys&#45;&gt;BadRequest</title>
<path fill="none" stroke="#d8a436" d="M5274.39,-248.92C5251.01,-240.2 5221.3,-230.15 5194,-224 4787.26,-132.33 4640.75,-291.32 4262,-117 4242.17,-107.87 4224.23,-90.95 4211.47,-76.66"/>
<polygon fill="#d8a436" stroke="#d8a436" points="4214.11,-74.36 4204.94,-69.05 4208.8,-78.92 4214.11,-74.36"/>
</g>
<!-- GET /system&#45;recovery&#45;keys&#45;&gt;macaroonAuth -->
<g id="edge52" class="edge">
<title>GET /system&#45;recovery&#45;keys&#45;&gt;macaroonAuth</title>
<path fill="none" stroke="#e26a77" d="M5357.85,-249C5381.67,-239.89 5412.54,-229.45 5441,-224 5890.99,-137.81 7070.43,-276.36 7500,-117 7523.11,-108.43 7545,-91.08 7560.63,-76.46"/>
<polygon fill="#e26a77" stroke="#e26a77" points="7563.45,-78.6 7568.21,-69.13 7558.59,-73.57 7563.45,-78.6"/>
</g>
<!-- GET /systems -->
<g id="node29" class="node">
<title>GET /systems</title>
<path fill="#37516b" stroke="black" d="M5561.5,-285C5561.5,-285 5470.5,-285 5470.5,-285 5464.5,-285 5458.5,-279 5458.5,-273 5458.5,-273 5458.5,-261 5458.5,-261 5458.5,-255 5464.5,-249 5470.5,-249 5470.5,-249 5561.5,-249 5561.5,-249 5567.5,-249 5573.5,-255 5573.5,-261 5573.5,-261 5573.5,-273 5573.5,-273 5573.5,-279 5567.5,-285 5561.5,-285"/>
<text text-anchor="middle" x="5516" y="-263.3" font-family="Times,serif" font-size="14.00" fill="#cdd9e5">GET /systems</text>
</g>
<!-- System -->
<g id="node66" class="node">
<title>System</title>
<path fill="#345a3f" stroke="black" d="M5822,-69C5822,-69 5776,-69 5776,-69 5770,-69 5764,-63 5764,-57 5764,-57 5764,-45 5764,-45 5764,-39 5770,-33 5776,-33 5776,-33 5822,-33 5822,-33 5828,-33 5834,-39 5834,-45 5834,-45 5834,-57 5834,-57 5834,-63 5828,-69 5822,-69"/>
<text text-anchor="middle" x="5799" y="-47.3" font-family="Times,serif" font-size="14.00" fill="#cdd9e5">System</text>
</g>
<!-- GET /systems&#45;&gt;System -->
<g id="edge54" class="edge">
<title>GET /systems&#45;&gt;System</title>
<path fill="none" stroke="#53b668" d="M5544.72,-248.94C5598.45,-216.77 5711.81,-147.64 5746,-117 5759.04,-105.31 5771.52,-90.26 5781.09,-77.59"/>
<polygon fill="#53b668" stroke="#53b668" points="5784.11,-79.39 5787.23,-69.26 5778.48,-75.24 5784.11,-79.39"/>
</g>
<!-- GET /systems&#45;&gt;NotFound -->
<g id="edge53" class="edge">
<title>GET /systems&#45;&gt;NotFound</title>
<path fill="none" stroke="#d8a436" d="M5491.06,-248.97C5476.96,-240.15 5458.67,-229.99 5441,-224 5126.3,-117.25 5029.22,-168.94 4701,-117 4585.11,-98.66 4449.66,-74.77 4376.49,-61.66"/>
<polygon fill="#d8a436" stroke="#d8a436" points="4377.05,-58.21 4366.59,-59.89 4375.82,-65.1 4377.05,-58.21"/>
</g>
<!-- GET /users -->
<g id="node30" class="node">
<title>GET /users</title>
<path fill="#37516b" stroke="black" d="M1928.5,-285C1928.5,-285 1857.5,-285 1857.5,-285 1851.5,-285 1845.5,-279 1845.5,-273 1845.5,-273 1845.5,-261 1845.5,-261 1845.5,-255 1851.5,-249 1857.5,-249 1857.5,-249 1928.5,-249 1928.5,-249 1934.5,-249 1940.5,-255 1940.5,-261 1940.5,-261 1940.5,-273 1940.5,-273 1940.5,-279 1934.5,-285 1928.5,-285"/>
<text text-anchor="middle" x="1893" y="-263.3" font-family="Times,serif" font-size="14.00" fill="#cdd9e5">GET /users</text>
</g>
<!-- User -->
<g id="node68" class="node">
<title>User</title>
<path fill="#345a3f" stroke="black" d="M5325,-69C5325,-69 5295,-69 5295,-69 5289,-69 5283,-63 5283,-57 5283,-57 5283,-45 5283,-45 5283,-39 5289,-33 5295,-33 5295,-33 5325,-33 5325,-33 5331,-33 5337,-39 5337,-45 5337,-45 5337,-57 5337,-57 5337,-63 5331,-69 5325,-69"/>
<text text-anchor="middle" x="5310" y="-47.3" font-family="Times,serif" font-size="14.00" fill="#cdd9e5">User</text>
</g>
<!-- GET /users&#45;&gt;User -->
<g id="edge56" class="edge">
<title>GET /users&#45;&gt;User</title>
<path fill="none" stroke="#53b668" d="M1913.19,-248.85C1925.34,-239.63 1941.59,-229.13 1958,-224 2308.89,-114.3 4942.16,-292.87 5265,-117 5280.37,-108.62 5291.6,-92.46 5298.99,-78.34"/>
<polygon fill="#53b668" stroke="#53b668" points="5302.3,-79.55 5303.51,-69.02 5296,-76.5 5302.3,-79.55"/>
</g>
<!-- GET /users&#45;&gt;BadRequest -->
<g id="edge55" class="edge">
<title>GET /users&#45;&gt;BadRequest</title>
<path fill="none" stroke="#d8a436" d="M1913.56,-248.91C1925.71,-239.83 1941.83,-229.45 1958,-224 2376.9,-82.73 3813.02,-56.73 4129.83,-52.67"/>
<polygon fill="#d8a436" stroke="#d8a436" points="4130.23,-56.17 4140.19,-52.54 4130.14,-49.17 4130.23,-56.17"/>
</g>
<!-- GET /validation&#45;sets -->
<g id="node31" class="node">
<title>GET /validation&#45;sets</title>
<path fill="#37516b" stroke="black" d="M5163.5,-285C5163.5,-285 5026.5,-285 5026.5,-285 5020.5,-285 5014.5,-279 5014.5,-273 5014.5,-273 5014.5,-261 5014.5,-261 5014.5,-255 5020.5,-249 5026.5,-249 5026.5,-249 5163.5,-249 5163.5,-249 5169.5,-249 5175.5,-255 5175.5,-261 5175.5,-261 5175.5,-273 5175.5,-273 5175.5,-279 5169.5,-285 5163.5,-285"/>
<text text-anchor="middle" x="5095" y="-263.3" font-family="Times,serif" font-size="14.00" fill="#cdd9e5">GET /validation&#45;sets</text>
</g>
<!-- GET /validation&#45;sets&#45;&gt;BadRequest -->
<g id="edge57" class="edge">
<title>GET /validation&#45;sets&#45;&gt;BadRequest</title>
<path fill="none" stroke="#d8a436" d="M5061.32,-248.98C5042.78,-240.28 5019.09,-230.23 4997,-224 4679.27,-134.45 4559.75,-259.54 4262,-117 4242.62,-107.72 4224.92,-91.18 4212.17,-77.11"/>
<polygon fill="#d8a436" stroke="#d8a436" points="4214.47,-74.42 4205.26,-69.19 4209.2,-79.02 4214.47,-74.42"/>
</g>
<!-- GET /validation&#45;sets&#45;&gt;macaroonAuth -->
<g id="edge58" class="edge">
<title>GET /validation&#45;sets&#45;&gt;macaroonAuth</title>
<path fill="none" stroke="#e26a77" d="M5127.02,-248.98C5145.95,-239.8 5170.7,-229.3 5194,-224 5694.2,-110.15 7018.54,-294.09 7500,-117 7523.14,-108.49 7545.02,-91.14 7560.64,-76.5"/>
<polygon fill="#e26a77" stroke="#e26a77" points="7563.48,-78.63 7568.22,-69.16 7558.6,-73.61 7563.48,-78.63"/>
</g>
<!-- GET /validation&#45;sets/{account&#45;id}/{name} -->
<g id="node32" class="node">
<title>GET /validation&#45;sets/{account&#45;id}/{name}</title>
<path fill="#37516b" stroke="black" d="M8838,-285C8838,-285 8544,-285 8544,-285 8538,-285 8532,-279 8532,-273 8532,-273 8532,-261 8532,-261 8532,-255 8538,-249 8544,-249 8544,-249 8838,-249 8838,-249 8844,-249 8850,-255 8850,-261 8850,-261 8850,-273 8850,-273 8850,-279 8844,-285 8838,-285"/>
<text text-anchor="middle" x="8691" y="-263.3" font-family="Times,serif" font-size="14.00" fill="#cdd9e5">GET /validation&#45;sets/{account&#45;id}/{name}</text>
</g>
<!-- GET /validation&#45;sets/{account&#45;id}/{name}&#45;&gt;NotFound -->
<g id="edge59" class="edge">
<title>GET /validation&#45;sets/{account&#45;id}/{name}&#45;&gt;NotFound</title>
<path fill="none" stroke="#d8a436" d="M8632.56,-248.95C8598.33,-239.76 8554.08,-229.26 8514,-224 6833.09,-3.36 6388,-284.86 4701,-117 4584.4,-105.4 4449.49,-79.03 4376.54,-63.68"/>
<polygon fill="#d8a436" stroke="#d8a436" points="4377.17,-60.24 4366.66,-61.59 4375.72,-67.09 4377.17,-60.24"/>
</g>
<!-- GET /validation&#45;sets/{account&#45;id}/{name}&#45;&gt;macaroonAuth -->
<g id="edge60" class="edge">
<title>GET /validation&#45;sets/{account&#45;id}/{name}&#45;&gt;macaroonAuth</title>
<path fill="none" stroke="#e26a77" d="M8626.62,-248.95C8593.2,-240.56 8551.6,-230.8 8514,-224 8138.45,-156.07 8012.04,-269.07 7662,-117 7640.66,-107.73 7620.59,-90.74 7606.15,-76.45"/>
<polygon fill="#e26a77" stroke="#e26a77" points="7608.64,-73.99 7599.14,-69.29 7603.63,-78.88 7608.64,-73.99"/>
</g>
<!-- GET /warnings -->
<g id="node33" class="node">
<title>GET /warnings</title>
<path fill="#37516b" stroke="black" d="M407,-285C407,-285 309,-285 309,-285 303,-285 297,-279 297,-273 297,-273 297,-261 297,-261 297,-255 303,-249 309,-249 309,-249 407,-249 407,-249 413,-249 419,-255 419,-261 419,-261 419,-273 419,-273 419,-279 413,-285 407,-285"/>
<text text-anchor="middle" x="358" y="-263.3" font-family="Times,serif" font-size="14.00" fill="#cdd9e5">GET /warnings</text>
</g>
<!-- GET /warnings&#45;&gt;BadRequest -->
<g id="edge61" class="edge">
<title>GET /warnings&#45;&gt;BadRequest</title>
<path fill="none" stroke="#d8a436" d="M383.12,-248.94C398.07,-239.75 417.82,-229.25 437,-224 807.41,-122.6 3671.42,-62.25 4130.12,-53.19"/>
<polygon fill="#d8a436" stroke="#d8a436" points="4130.26,-56.69 4140.19,-52.99 4130.13,-49.69 4130.26,-56.69"/>
</g>
<!-- POST /assertions -->
<g id="node34" class="node">
<title>POST /assertions</title>
<path fill="#37516b" stroke="black" d="M4966.5,-285C4966.5,-285 4851.5,-285 4851.5,-285 4845.5,-285 4839.5,-279 4839.5,-273 4839.5,-273 4839.5,-261 4839.5,-261 4839.5,-255 4845.5,-249 4851.5,-249 4851.5,-249 4966.5,-249 4966.5,-249 4972.5,-249 4978.5,-255 4978.5,-261 4978.5,-261 4978.5,-273 4978.5,-273 4978.5,-279 4972.5,-285 4966.5,-285"/>
<text text-anchor="middle" x="4909" y="-263.3" font-family="Times,serif" font-size="14.00" fill="#cdd9e5">POST /assertions</text>
</g>
<!-- POST /assertions&#45;&gt;BadRequest -->
<g id="edge62" class="edge">
<title>POST /assertions&#45;&gt;BadRequest</title>
<path fill="none" stroke="#d8a436" d="M4878.41,-248.8C4862.1,-240.26 4841.43,-230.42 4822,-224 4581.41,-144.47 4488.08,-231.44 4262,-117 4242.95,-107.36 4225.36,-90.98 4212.58,-77.07"/>
<polygon fill="#d8a436" stroke="#d8a436" points="4214.88,-74.4 4205.63,-69.24 4209.65,-79.04 4214.88,-74.4"/>
</g>
<!-- POST /assertions&#45;&gt;macaroonAuth -->
<g id="edge63" class="edge">
<title>POST /assertions&#45;&gt;macaroonAuth</title>
<path fill="none" stroke="#e26a77" d="M4937.23,-248.93C4953.97,-239.74 4975.97,-229.24 4997,-224 5537.24,-89.5 6977.15,-308.24 7500,-117 7523.15,-108.53 7545.03,-91.18 7560.66,-76.53"/>
<polygon fill="#e26a77" stroke="#e26a77" points="7563.49,-78.66 7568.23,-69.18 7558.61,-73.64 7563.49,-78.66"/>
</g>
<!-- POST /changes/{id} -->
<g id="node35" class="node">
<title>POST /changes/{id}</title>
<path fill="#37516b" stroke="black" d="M7303,-285C7303,-285 7167,-285 7167,-285 7161,-285 7155,-279 7155,-273 7155,-273 7155,-261 7155,-261 7155,-255 7161,-249 7167,-249 7167,-249 7303,-249 7303,-249 7309,-249 7315,-255 7315,-261 7315,-261 7315,-273 7315,-273 7315,-279 7309,-285 7303,-285"/>
<text text-anchor="middle" x="7235" y="-263.3" font-family="Times,serif" font-size="14.00" fill="#cdd9e5">POST /changes/{id}</text>
</g>
<!-- POST /changes/{id}&#45;&gt;Change -->
<g id="edge65" class="edge">
<title>POST /changes/{id}&#45;&gt;Change</title>
<path fill="none" stroke="#53b668" d="M7218.13,-248.91C7191.3,-221.55 7137.48,-166.03 7094,-117 7082.53,-104.07 7070.18,-89.27 7060.19,-77.07"/>
<polygon fill="#53b668" stroke="#53b668" points="7062.72,-74.63 7053.69,-69.09 7057.29,-79.05 7062.72,-74.63"/>
</g>
<!-- POST /changes/{id}&#45;&gt;BadRequest -->
<g id="edge64" class="edge">
<title>POST /changes/{id}&#45;&gt;BadRequest</title>
<path fill="none" stroke="#d8a436" d="M7203.34,-248.9C7184.62,-239.69 7160.12,-229.19 7137,-224 6513.22,-83.83 4852.64,-361.71 4262,-117 4241.7,-108.59 4223.67,-91.48 4210.99,-76.92"/>
<polygon fill="#d8a436" stroke="#d8a436" points="4213.61,-74.61 4204.52,-69.17 4208.24,-79.09 4213.61,-74.61"/>
</g>
<!-- POST /changes/{id}&#45;&gt;NotFound -->
<g id="edge66" class="edge">
<title>POST /changes/{id}&#45;&gt;NotFound</title>
<path fill="none" stroke="#d8a436" d="M7203.32,-248.95C7184.6,-239.77 7160.1,-229.27 7137,-224 6608.73,-103.43 5239.75,-174.92 4701,-117 4584.49,-104.47 4449.55,-78.46 4376.57,-63.41"/>
<polygon fill="#d8a436" stroke="#d8a436" points="4377.19,-59.97 4366.69,-61.37 4375.77,-66.82 4377.19,-59.97"/>
</g>
<!-- POST /changes/{id}&#45;&gt;macaroonAuth -->
<g id="edge67" class="edge">
<title>POST /changes/{id}&#45;&gt;macaroonAuth</title>
<path fill="none" stroke="#e26a77" d="M7268.98,-248.94C7320.32,-222.7 7420.15,-169.93 7500,-117 7519.24,-104.25 7539.75,-88.42 7555.68,-75.58"/>
<polygon fill="#e26a77" stroke="#e26a77" points="7558.02,-78.2 7563.57,-69.17 7553.6,-72.76 7558.02,-78.2"/>
</g>
<!-- POST /cohorts -->
<g id="node36" class="node">
<title>POST /cohorts</title>
<path fill="#37516b" stroke="black" d="M4791.5,-285C4791.5,-285 4696.5,-285 4696.5,-285 4690.5,-285 4684.5,-279 4684.5,-273 4684.5,-273 4684.5,-261 4684.5,-261 4684.5,-255 4690.5,-249 4696.5,-249 4696.5,-249 4791.5,-249 4791.5,-249 4797.5,-249 4803.5,-255 4803.5,-261 4803.5,-261 4803.5,-273 4803.5,-273 4803.5,-279 4797.5,-285 4791.5,-285"/>
<text text-anchor="middle" x="4744" y="-263.3" font-family="Times,serif" font-size="14.00" fill="#cdd9e5">POST /cohorts</text>
</g>
<!-- POST /cohorts&#45;&gt;BadRequest -->
<g id="edge68" class="edge">
<title>POST /cohorts&#45;&gt;BadRequest</title>
<path fill="none" stroke="#d8a436" d="M4716.24,-248.99C4701.68,-240.6 4683.31,-230.84 4666,-224 4493.26,-155.72 4424.68,-206.64 4262,-117 4243.42,-106.76 4225.94,-90.53 4213.09,-76.85"/>
<polygon fill="#d8a436" stroke="#d8a436" points="4215.4,-74.19 4206.08,-69.15 4210.23,-78.9 4215.4,-74.19"/>
</g>
<!-- POST /cohorts&#45;&gt;macaroonAuth -->
<g id="edge69" class="edge">
<title>POST /cohorts&#45;&gt;macaroonAuth</title>
<path fill="none" stroke="#e26a77" d="M4768.76,-248.89C4783.51,-239.69 4803.01,-229.19 4822,-224 5396.49,-66.9 6940.37,-320.81 7500,-117 7523.16,-108.56 7545.04,-91.21 7560.66,-76.56"/>
<polygon fill="#e26a77" stroke="#e26a77" points="7563.5,-78.68 7568.23,-69.2 7558.62,-73.66 7563.5,-78.68"/>
</g>
<!-- POST /interfaces/requests/prompts/{id} -->
<g id="node37" class="node">
<title>POST /interfaces/requests/prompts/{id}</title>
<path fill="#37516b" stroke="black" d="M5902,-285C5902,-285 5622,-285 5622,-285 5616,-285 5610,-279 5610,-273 5610,-273 5610,-261 5610,-261 5610,-255 5616,-249 5622,-249 5622,-249 5902,-249 5902,-249 5908,-249 5914,-255 5914,-261 5914,-261 5914,-273 5914,-273 5914,-279 5908,-285 5902,-285"/>
<text text-anchor="middle" x="5762" y="-263.3" font-family="Times,serif" font-size="14.00" fill="#cdd9e5">POST /interfaces/requests/prompts/{id}</text>
</g>
<!-- PromptReply -->
<g id="node56" class="node">
<title>PromptReply</title>
<path fill="#345a3f" stroke="black" d="M5968,-69C5968,-69 5882,-69 5882,-69 5876,-69 5870,-63 5870,-57 5870,-57 5870,-45 5870,-45 5870,-39 5876,-33 5882,-33 5882,-33 5968,-33 5968,-33 5974,-33 5980,-39 5980,-45 5980,-45 5980,-57 5980,-57 5980,-63 5974,-69 5968,-69"/>
<text text-anchor="middle" x="5925" y="-47.3" font-family="Times,serif" font-size="14.00" fill="#cdd9e5">PromptReply</text>
</g>
<!-- POST /interfaces/requests/prompts/{id}&#45;&gt;PromptReply -->
<g id="edge71" class="edge">
<title>POST /interfaces/requests/prompts/{id}&#45;&gt;PromptReply</title>
<path fill="none" stroke="#53b668" d="M5775.06,-248.85C5803.68,-211.28 5872.01,-121.58 5905.63,-77.43"/>
<polygon fill="#53b668" stroke="#53b668" points="5908.6,-79.31 5911.87,-69.23 5903.03,-75.07 5908.6,-79.31"/>
</g>
<!-- POST /interfaces/requests/prompts/{id}&#45;&gt;NotFound -->
<g id="edge70" class="edge">
<title>POST /interfaces/requests/prompts/{id}&#45;&gt;NotFound</title>
<path fill="none" stroke="#d8a436" d="M5700.62,-248.9C5668.47,-240.44 5628.34,-230.64 5592,-224 5199.66,-152.26 5095.67,-174.59 4701,-117 4584.89,-100.06 4449.53,-75.64 4376.43,-62.07"/>
<polygon fill="#d8a436" stroke="#d8a436" points="4377.01,-58.62 4366.54,-60.23 4375.73,-65.5 4377.01,-58.62"/>
</g>
<!-- POST /interfaces/requests/rules -->
<g id="node38" class="node">
<title>POST /interfaces/requests/rules</title>
<path fill="#37516b" stroke="black" d="M7583,-285C7583,-285 7363,-285 7363,-285 7357,-285 7351,-279 7351,-273 7351,-273 7351,-261 7351,-261 7351,-255 7357,-249 7363,-249 7363,-249 7583,-249 7583,-249 7589,-249 7595,-255 7595,-261 7595,-261 7595,-273 7595,-273 7595,-279 7589,-285 7583,-285"/>
<text text-anchor="middle" x="7473" y="-263.3" font-family="Times,serif" font-size="14.00" fill="#cdd9e5">POST /interfaces/requests/rules</text>
</g>
<!-- POST /interfaces/requests/rules&#45;&gt;Rule -->
<g id="edge73" class="edge">
<title>POST /interfaces/requests/rules&#45;&gt;Rule</title>
<path fill="none" stroke="#53b668" d="M7423.99,-248.9C7397.38,-240.22 7363.71,-230.23 7333,-224 7118.3,-180.45 6541.81,-228.1 6353,-117 6337.99,-108.17 6326.62,-92.3 6318.94,-78.45"/>
<polygon fill="#53b668" stroke="#53b668" points="6321.91,-76.57 6314.21,-69.29 6315.69,-79.79 6321.91,-76.57"/>
</g>
<!-- RuleActionAdd -->
<g id="node59" class="node">
<title>RuleActionAdd</title>
<path fill="#345a3f" stroke="black" d="M6668,-69C6668,-69 6570,-69 6570,-69 6564,-69 6558,-63 6558,-57 6558,-57 6558,-45 6558,-45 6558,-39 6564,-33 6570,-33 6570,-33 6668,-33 6668,-33 6674,-33 6680,-39 6680,-45 6680,-45 6680,-57 6680,-57 6680,-63 6674,-69 6668,-69"/>
<text text-anchor="middle" x="6619" y="-47.3" font-family="Times,serif" font-size="14.00" fill="#cdd9e5">RuleActionAdd</text>
</g>
<!-- POST /interfaces/requests/rules&#45;&gt;RuleActionAdd -->
<g id="edge74" class="edge">
<title>POST /interfaces/requests/rules&#45;&gt;RuleActionAdd</title>
<path fill="none" stroke="#53b668" d="M7421.88,-249C7395.54,-240.66 7362.78,-230.95 7333,-224 7054.28,-158.98 6958.42,-235.71 6698,-117 6676.67,-107.28 6656.33,-90.3 6641.64,-76.13"/>
<polygon fill="#53b668" stroke="#53b668" points="6644.05,-73.6 6634.49,-69.04 6639.12,-78.57 6644.05,-73.6"/>
</g>
<!-- RuleActionRemove -->
<g id="node61" class="node">
<title>RuleActionRemove</title>
<path fill="#345a3f" stroke="black" d="M6509.5,-69C6509.5,-69 6382.5,-69 6382.5,-69 6376.5,-69 6370.5,-63 6370.5,-57 6370.5,-57 6370.5,-45 6370.5,-45 6370.5,-39 6376.5,-33 6382.5,-33 6382.5,-33 6509.5,-33 6509.5,-33 6515.5,-33 6521.5,-39 6521.5,-45 6521.5,-45 6521.5,-57 6521.5,-57 6521.5,-63 6515.5,-69 6509.5,-69"/>
<text text-anchor="middle" x="6446" y="-47.3" font-family="Times,serif" font-size="14.00" fill="#cdd9e5">RuleActionRemove</text>
</g>
<!-- POST /interfaces/requests/rules&#45;&gt;RuleActionRemove -->
<g id="edge75" class="edge">
<title>POST /interfaces/requests/rules&#45;&gt;RuleActionRemove</title>
<path fill="none" stroke="#53b668" d="M7422.95,-248.9C7396.47,-240.38 7363.26,-230.54 7333,-224 6985.38,-148.89 6871.63,-245.46 6540,-117 6515.36,-107.45 6490.91,-90.24 6473.12,-75.93"/>
<polygon fill="#53b668" stroke="#53b668" points="6474.9,-72.85 6464.96,-69.18 6470.44,-78.25 6474.9,-72.85"/>
</g>
<!-- POST /interfaces/requests/rules&#45;&gt;NotFound -->
<g id="edge72" class="edge">
<title>POST /interfaces/requests/rules&#45;&gt;NotFound</title>
<path fill="none" stroke="#d8a436" d="M7426.71,-248.92C7399.76,-239.79 7364.91,-229.35 7333,-224 6178.36,-30.5 5865.24,-240.24 4701,-117 4584.47,-104.67 4449.54,-78.57 4376.56,-63.47"/>
<polygon fill="#d8a436" stroke="#d8a436" points="4377.19,-60.02 4366.68,-61.41 4375.76,-66.88 4377.19,-60.02"/>
</g>
<!-- POST /interfaces/requests/rules&#45;&gt;macaroonAuth -->
<g id="edge76" class="edge">
<title>POST /interfaces/requests/rules&#45;&gt;macaroonAuth</title>
<path fill="none" stroke="#e26a77" d="M7481.9,-248.85C7501.26,-211.52 7547.33,-122.69 7570.38,-78.26"/>
<polygon fill="#e26a77" stroke="#e26a77" points="7573.56,-79.72 7575.06,-69.23 7567.35,-76.5 7573.56,-79.72"/>
</g>
<!-- POST /interfaces/requests/rules/{id} -->
<g id="node39" class="node">
<title>POST /interfaces/requests/rules/{id}</title>
<path fill="#37516b" stroke="black" d="M9154,-285C9154,-285 8898,-285 8898,-285 8892,-285 8886,-279 8886,-273 8886,-273 8886,-261 8886,-261 8886,-255 8892,-249 8898,-249 8898,-249 9154,-249 9154,-249 9160,-249 9166,-255 9166,-261 9166,-261 9166,-273 9166,-273 9166,-279 9160,-285 9154,-285"/>
<text text-anchor="middle" x="9026" y="-263.3" font-family="Times,serif" font-size="14.00" fill="#cdd9e5">POST /interfaces/requests/rules/{id}</text>
</g>
<!-- POST /interfaces/requests/rules/{id}&#45;&gt;Rule -->
<g id="edge78" class="edge">
<title>POST /interfaces/requests/rules/{id}&#45;&gt;Rule</title>
<path fill="none" stroke="#53b668" d="M8973.58,-249C8943.11,-239.89 8903.78,-229.45 8868,-224 8591.49,-181.88 6598.63,-250.78 6353,-117 6337.61,-108.62 6326.18,-92.6 6318.57,-78.57"/>
<polygon fill="#53b668" stroke="#53b668" points="6321.52,-76.65 6313.9,-69.28 6315.27,-79.79 6321.52,-76.65"/>
</g>
<!-- RuleActionPatch -->
<g id="node60" class="node">
<title>RuleActionPatch</title>
<path fill="#345a3f" stroke="black" d="M7454,-69C7454,-69 7344,-69 7344,-69 7338,-69 7332,-63 7332,-57 7332,-57 7332,-45 7332,-45 7332,-39 7338,-33 7344,-33 7344,-33 7454,-33 7454,-33 7460,-33 7466,-39 7466,-45 7466,-45 7466,-57 7466,-57 7466,-63 7460,-69 7454,-69"/>
<text text-anchor="middle" x="7399" y="-47.3" font-family="Times,serif" font-size="14.00" fill="#cdd9e5">RuleActionPatch</text>
</g>
<!-- POST /interfaces/requests/rules/{id}&#45;&gt;RuleActionPatch -->
<g id="edge79" class="edge">
<title>POST /interfaces/requests/rules/{id}&#45;&gt;RuleActionPatch</title>
<path fill="none" stroke="#53b668" d="M8971.7,-248.94C8941.47,-240.11 8902.98,-229.96 8868,-224 8262.43,-120.89 8067.28,-326.99 7490,-117 7465.54,-108.1 7441.74,-90.7 7424.62,-76.14"/>
<polygon fill="#53b668" stroke="#53b668" points="7426.61,-73.22 7416.78,-69.27 7421.99,-78.49 7426.61,-73.22"/>
</g>
<!-- RuleActionRemoveById -->
<g id="node62" class="node">
<title>RuleActionRemoveById</title>
<path fill="#345a3f" stroke="black" d="M7284,-69C7284,-69 7124,-69 7124,-69 7118,-69 7112,-63 7112,-57 7112,-57 7112,-45 7112,-45 7112,-39 7118,-33 7124,-33 7124,-33 7284,-33 7284,-33 7290,-33 7296,-39 7296,-45 7296,-45 7296,-57 7296,-57 7296,-63 7290,-69 7284,-69"/>
<text text-anchor="middle" x="7204" y="-47.3" font-family="Times,serif" font-size="14.00" fill="#cdd9e5">RuleActionRemoveById</text>
</g>
<!-- POST /interfaces/requests/rules/{id}&#45;&gt;RuleActionRemoveById -->
<g id="edge80" class="edge">
<title>POST /interfaces/requests/rules/{id}&#45;&gt;RuleActionRemoveById</title>
<path fill="none" stroke="#53b668" d="M8972.08,-248.93C8941.8,-240.03 8903.14,-229.83 8868,-224 8185.02,-110.78 7975.13,-322.4 7314,-117 7284.77,-107.92 7255.09,-89.74 7233.94,-74.91"/>
<polygon fill="#53b668" stroke="#53b668" points="7235.87,-71.99 7225.71,-69.01 7231.79,-77.68 7235.87,-71.99"/>
</g>
<!-- POST /interfaces/requests/rules/{id}&#45;&gt;NotFound -->
<g id="edge77" class="edge">
<title>POST /interfaces/requests/rules/{id}&#45;&gt;NotFound</title>
<path fill="none" stroke="#d8a436" d="M8974.33,-248.98C8943.77,-239.75 8904.1,-229.19 8868,-224 7034.23,39.55 6544.72,-298.23 4701,-117 4584.38,-105.54 4449.48,-79.12 4376.53,-63.72"/>
<polygon fill="#d8a436" stroke="#d8a436" points="4377.17,-60.28 4366.66,-61.63 4375.72,-67.13 4377.17,-60.28"/>
</g>
<!-- POST /interfaces/requests/rules/{id}&#45;&gt;macaroonAuth -->
<g id="edge81" class="edge">
<title>POST /interfaces/requests/rules/{id}&#45;&gt;macaroonAuth</title>
<path fill="none" stroke="#e26a77" d="M8971.31,-248.99C8941.12,-240.22 8902.8,-230.12 8868,-224 8338.03,-130.76 8159.37,-322.38 7662,-117 7640.36,-108.06 7620.17,-90.9 7605.76,-76.45"/>
<polygon fill="#e26a77" stroke="#e26a77" points="7608.23,-73.97 7598.77,-69.2 7603.19,-78.83 7608.23,-73.97"/>
</g>
<!-- POST /login -->
<g id="node40" class="node">
<title>POST /login</title>
<path fill="#37516b" stroke="black" d="M3023.5,-285C3023.5,-285 2946.5,-285 2946.5,-285 2940.5,-285 2934.5,-279 2934.5,-273 2934.5,-273 2934.5,-261 2934.5,-261 2934.5,-255 2940.5,-249 2946.5,-249 2946.5,-249 3023.5,-249 3023.5,-249 3029.5,-249 3035.5,-255 3035.5,-261 3035.5,-261 3035.5,-273 3035.5,-273 3035.5,-279 3029.5,-285 3023.5,-285"/>
<text text-anchor="middle" x="2985" y="-263.3" font-family="Times,serif" font-size="14.00" fill="#cdd9e5">POST /login</text>
</g>
<!-- StandardError -->
<g id="node65" class="node">
<title>StandardError</title>
<path fill="#345a3f" stroke="black" d="M6126,-69C6126,-69 6028,-69 6028,-69 6022,-69 6016,-63 6016,-57 6016,-57 6016,-45 6016,-45 6016,-39 6022,-33 6028,-33 6028,-33 6126,-33 6126,-33 6132,-33 6138,-39 6138,-45 6138,-45 6138,-57 6138,-57 6138,-63 6132,-69 6126,-69"/>
<text text-anchor="middle" x="6077" y="-47.3" font-family="Times,serif" font-size="14.00" fill="#cdd9e5">StandardError</text>
</g>
<!-- POST /login&#45;&gt;StandardError -->
<g id="edge83" class="edge">
<title>POST /login&#45;&gt;StandardError</title>
<path fill="none" stroke="#53b668" d="M3006.61,-248.87C3019.56,-239.66 3036.81,-229.16 3054,-224 3681.03,-35.82 5385.87,-349.09 5998,-117 6020.2,-108.58 6040.76,-91.23 6055.34,-76.57"/>
<polygon fill="#53b668" stroke="#53b668" points="6058,-78.85 6062.39,-69.21 6052.95,-74.01 6058,-78.85"/>
</g>
<!-- POST /login&#45;&gt;BadRequest -->
<g id="edge82" class="edge">
<title>POST /login&#45;&gt;BadRequest</title>
<path fill="none" stroke="#d8a436" d="M3007.77,-248.96C3020.69,-240.14 3037.52,-229.98 3054,-224 3446.22,-81.54 3955.85,-57.05 4130.3,-52.86"/>
<polygon fill="#d8a436" stroke="#d8a436" points="4130.41,-56.36 4140.32,-52.63 4130.25,-49.36 4130.41,-56.36"/>
</g>
<!-- POST /logout -->
<g id="node41" class="node">
<title>POST /logout</title>
<path fill="#37516b" stroke="black" d="M9460,-285C9460,-285 9374,-285 9374,-285 9368,-285 9362,-279 9362,-273 9362,-273 9362,-261 9362,-261 9362,-255 9368,-249 9374,-249 9374,-249 9460,-249 9460,-249 9466,-249 9472,-255 9472,-261 9472,-261 9472,-273 9472,-273 9472,-279 9466,-285 9460,-285"/>
<text text-anchor="middle" x="9417" y="-263.3" font-family="Times,serif" font-size="14.00" fill="#cdd9e5">POST /logout</text>
</g>
<!-- POST /logout&#45;&gt;StandardError -->
<g id="edge84" class="edge">
<title>POST /logout&#45;&gt;StandardError</title>
<path fill="none" stroke="#53b668" d="M9394,-248.85C9380.25,-239.63 9362,-229.13 9344,-224 8662.34,-29.59 6819.15,-367.38 6156,-117 6133.79,-108.61 6113.23,-91.26 6098.65,-76.59"/>
<polygon fill="#53b668" stroke="#53b668" points="6101.05,-74.03 6091.6,-69.22 6095.99,-78.87 6101.05,-74.03"/>
</g>
<!-- POST /logout&#45;&gt;macaroonAuth -->
<g id="edge85" class="edge">
<title>POST /logout&#45;&gt;macaroonAuth</title>
<path fill="none" stroke="#e26a77" d="M9393.62,-248.84C9379.88,-239.74 9361.78,-229.36 9344,-224 8626.82,-7.79 8357.87,-394.24 7662,-117 7640.11,-108.28 7619.81,-90.94 7605.41,-76.36"/>
<polygon fill="#e26a77" stroke="#e26a77" points="7607.87,-73.87 7598.44,-69.05 7602.8,-78.7 7607.87,-73.87"/>
</g>
<!-- POST /snapctl -->
<g id="node42" class="node">
<title>POST /snapctl</title>
<path fill="#37516b" stroke="black" d="M4238.5,-285C4238.5,-285 4145.5,-285 4145.5,-285 4139.5,-285 4133.5,-279 4133.5,-273 4133.5,-273 4133.5,-261 4133.5,-261 4133.5,-255 4139.5,-249 4145.5,-249 4145.5,-249 4238.5,-249 4238.5,-249 4244.5,-249 4250.5,-255 4250.5,-261 4250.5,-261 4250.5,-273 4250.5,-273 4250.5,-279 4244.5,-285 4238.5,-285"/>
<text text-anchor="middle" x="4192" y="-263.3" font-family="Times,serif" font-size="14.00" fill="#cdd9e5">POST /snapctl</text>
</g>
<!-- POST /snapctl&#45;&gt;BadRequest -->
<g id="edge86" class="edge">
<title>POST /snapctl&#45;&gt;BadRequest</title>
<path fill="none" stroke="#d8a436" d="M4192,-248.85C4192,-211.83 4192,-124.18 4192,-79.39"/>
<polygon fill="#d8a436" stroke="#d8a436" points="4195.5,-79.23 4192,-69.23 4188.5,-79.23 4195.5,-79.23"/>
</g>
<!-- POST /snapctl&#45;&gt;macaroonAuth -->
<g id="edge87" class="edge">
<title>POST /snapctl&#45;&gt;macaroonAuth</title>
<path fill="none" stroke="#e26a77" d="M4216.4,-248.85C4230.95,-239.63 4250.2,-229.13 4269,-224 4962.09,-35 6824.14,-360.52 7500,-117 7523.19,-108.64 7545.07,-91.29 7560.68,-76.61"/>
<polygon fill="#e26a77" stroke="#e26a77" points="7563.53,-78.73 7568.25,-69.24 7558.64,-73.71 7563.53,-78.73"/>
</g>
<!-- POST /system&#45;recovery&#45;keys -->
<g id="node43" class="node">
<title>POST /system&#45;recovery&#45;keys</title>
<path fill="#37516b" stroke="black" d="M4085,-285C4085,-285 3889,-285 3889,-285 3883,-285 3877,-279 3877,-273 3877,-273 3877,-261 3877,-261 3877,-255 3883,-249 3889,-249 3889,-249 4085,-249 4085,-249 4091,-249 4097,-255 4097,-261 4097,-261 4097,-273 4097,-273 4097,-279 4091,-285 4085,-285"/>
<text text-anchor="middle" x="3987" y="-263.3" font-family="Times,serif" font-size="14.00" fill="#cdd9e5">POST /system&#45;recovery&#45;keys</text>
</g>
<!-- POST /system&#45;recovery&#45;keys&#45;&gt;BadRequest -->
<g id="edge88" class="edge">
<title>POST /system&#45;recovery&#45;keys&#45;&gt;BadRequest</title>
<path fill="none" stroke="#d8a436" d="M4003.43,-248.85C4039.64,-211.05 4126.43,-120.45 4168.43,-76.6"/>
<polygon fill="#d8a436" stroke="#d8a436" points="4171.1,-78.87 4175.49,-69.23 4166.05,-74.03 4171.1,-78.87"/>
</g>
<!-- POST /system&#45;recovery&#45;keys&#45;&gt;macaroonAuth -->
<g id="edge89" class="edge">
<title>POST /system&#45;recovery&#45;keys&#45;&gt;macaroonAuth</title>
<path fill="none" stroke="#e26a77" d="M4029.23,-248.9C4054.05,-239.7 4086.3,-229.2 4116,-224 4486.56,-159.18 7145.99,-244.26 7500,-117 7523.2,-108.66 7545.08,-91.3 7560.69,-76.62"/>
<polygon fill="#e26a77" stroke="#e26a77" points="7563.53,-78.74 7568.25,-69.25 7558.65,-73.72 7563.53,-78.74"/>
</g>
<!-- POST /systems -->
<g id="node44" class="node">
<title>POST /systems</title>
<path fill="#37516b" stroke="black" d="M9314,-285C9314,-285 9214,-285 9214,-285 9208,-285 9202,-279 9202,-273 9202,-273 9202,-261 9202,-261 9202,-255 9208,-249 9214,-249 9214,-249 9314,-249 9314,-249 9320,-249 9326,-255 9326,-261 9326,-261 9326,-273 9326,-273 9326,-279 9320,-285 9314,-285"/>
<text text-anchor="middle" x="9264" y="-263.3" font-family="Times,serif" font-size="14.00" fill="#cdd9e5">POST /systems</text>
</g>
<!-- POST /systems&#45;&gt;NotFound -->
<g id="edge90" class="edge">
<title>POST /systems&#45;&gt;NotFound</title>
<path fill="none" stroke="#d8a436" d="M9238.93,-249C9223.75,-239.7 9203.59,-229.08 9184,-224 8701.69,-98.97 5196.91,-165.29 4701,-117 4584.37,-105.64 4449.47,-79.19 4376.53,-63.75"/>
<polygon fill="#d8a436" stroke="#d8a436" points="4377.17,-60.31 4366.66,-61.65 4375.71,-67.16 4377.17,-60.31"/>
</g>
<!-- rootAuth -->
<g id="node72" class="node">
<title>rootAuth</title>
<path fill="#6b3940" stroke="black" d="M7748,-69C7748,-69 7692,-69 7692,-69 7686,-69 7680,-63 7680,-57 7680,-57 7680,-45 7680,-45 7680,-39 7686,-33 7692,-33 7692,-33 7748,-33 7748,-33 7754,-33 7760,-39 7760,-45 7760,-45 7760,-57 7760,-57 7760,-63 7754,-69 7748,-69"/>
<text text-anchor="middle" x="7720" y="-47.3" font-family="Times,serif" font-size="14.00" fill="#cdd9e5">rootAuth</text>
</g>
<!-- POST /systems&#45;&gt;rootAuth -->
<g id="edge91" class="edge">
<title>POST /systems&#45;&gt;rootAuth</title>
<path fill="none" stroke="#e26a77" d="M9237.31,-248.82C9222.24,-239.95 9202.73,-229.8 9184,-224 8649.55,-58.56 7960.26,-50.25 7770.35,-51.35"/>
<polygon fill="#e26a77" stroke="#e26a77" points="7770.09,-47.85 7760.12,-51.42 7770.14,-54.85 7770.09,-47.85"/>
</g>
<!-- POST /systems/{label} -->
<g id="node45" class="node">
<title>POST /systems/{label}</title>
<path fill="#37516b" stroke="black" d="M9677.5,-285C9677.5,-285 9520.5,-285 9520.5,-285 9514.5,-285 9508.5,-279 9508.5,-273 9508.5,-273 9508.5,-261 9508.5,-261 9508.5,-255 9514.5,-249 9520.5,-249 9520.5,-249 9677.5,-249 9677.5,-249 9683.5,-249 9689.5,-255 9689.5,-261 9689.5,-261 9689.5,-273 9689.5,-273 9689.5,-279 9683.5,-285 9677.5,-285"/>
<text text-anchor="middle" x="9599" y="-263.3" font-family="Times,serif" font-size="14.00" fill="#cdd9e5">POST /systems/{label}</text>
</g>
<!-- POST /systems/{label}&#45;&gt;NotFound -->
<g id="edge92" class="edge">
<title>POST /systems/{label}&#45;&gt;NotFound</title>
<path fill="none" stroke="#d8a436" d="M9564.09,-248.99C9543.14,-239.7 9515.66,-229.07 9490,-224 8445.7,-17.67 5760.55,-219.37 4701,-117 4584.37,-105.73 4449.47,-79.24 4376.53,-63.78"/>
<polygon fill="#d8a436" stroke="#d8a436" points="4377.17,-60.34 4366.66,-61.68 4375.71,-67.18 4377.17,-60.34"/>
</g>
<!-- POST /systems/{label}&#45;&gt;rootAuth -->
<g id="edge93" class="edge">
<title>POST /systems/{label}&#45;&gt;rootAuth</title>
<path fill="none" stroke="#e26a77" d="M9561.96,-248.85C9541.23,-239.99 9514.67,-229.84 9490,-224 8823.38,-66.28 7982.68,-52.75 7770.42,-51.95"/>
<polygon fill="#e26a77" stroke="#e26a77" points="7770.22,-48.45 7760.21,-51.92 7770.2,-55.45 7770.22,-48.45"/>
</g>
<!-- POST /users -->
<g id="node46" class="node">
<title>POST /users</title>
<path fill="#37516b" stroke="black" d="M547,-285C547,-285 467,-285 467,-285 461,-285 455,-279 455,-273 455,-273 455,-261 455,-261 455,-255 461,-249 467,-249 467,-249 547,-249 547,-249 553,-249 559,-255 559,-261 559,-261 559,-273 559,-273 559,-279 553,-285 547,-285"/>
<text text-anchor="middle" x="507" y="-263.3" font-family="Times,serif" font-size="14.00" fill="#cdd9e5">POST /users</text>
</g>
<!-- POST /users&#45;&gt;BadRequest -->
<g id="edge94" class="edge">
<title>POST /users&#45;&gt;BadRequest</title>
<path fill="none" stroke="#d8a436" d="M528.98,-248.94C542.14,-239.76 559.64,-229.26 577,-224 930.33,-117.03 3681.77,-61.5 4130.29,-53.12"/>
<polygon fill="#d8a436" stroke="#d8a436" points="4130.52,-56.62 4140.45,-52.93 4130.39,-49.62 4130.52,-56.62"/>
</g>
<!-- POST /validation&#45;sets/{account&#45;id}/{name} -->
<g id="node47" class="node">
<title>POST /validation&#45;sets/{account&#45;id}/{name}</title>
<path fill="#37516b" stroke="black" d="M3386.5,-285C3386.5,-285 3083.5,-285 3083.5,-285 3077.5,-285 3071.5,-279 3071.5,-273 3071.5,-273 3071.5,-261 3071.5,-261 3071.5,-255 3077.5,-249 3083.5,-249 3083.5,-249 3386.5,-249 3386.5,-249 3392.5,-249 3398.5,-255 3398.5,-261 3398.5,-261 3398.5,-273 3398.5,-273 3398.5,-279 3392.5,-285 3386.5,-285"/>
<text text-anchor="middle" x="3235" y="-263.3" font-family="Times,serif" font-size="14.00" fill="#cdd9e5">POST /validation&#45;sets/{account&#45;id}/{name}</text>
</g>
<!-- POST /validation&#45;sets/{account&#45;id}/{name}&#45;&gt;BadRequest -->
<g id="edge95" class="edge">
<title>POST /validation&#45;sets/{account&#45;id}/{name}&#45;&gt;BadRequest</title>
<path fill="none" stroke="#d8a436" d="M3308.03,-249C3341.26,-241.3 3381.1,-232.13 3417,-224 3682.29,-163.95 3999.15,-94.26 4130.39,-65.49"/>
<polygon fill="#d8a436" stroke="#d8a436" points="4131.25,-68.88 4140.27,-63.32 4129.75,-62.05 4131.25,-68.88"/>
</g>
<!-- POST /validation&#45;sets/{account&#45;id}/{name}&#45;&gt;NotFound -->
<g id="edge96" class="edge">
<title>POST /validation&#45;sets/{account&#45;id}/{name}&#45;&gt;NotFound</title>
<path fill="none" stroke="#d8a436" d="M3301.66,-248.92C3335.95,-240.56 3378.53,-230.86 3417,-224 3789.68,-157.58 3924.76,-288.96 4262,-117 4279.7,-107.98 4294.98,-91.66 4305.83,-77.63"/>
<polygon fill="#d8a436" stroke="#d8a436" points="4308.87,-79.41 4311.99,-69.28 4303.23,-75.25 4308.87,-79.41"/>
</g>
<!-- POST /validation&#45;sets/{account&#45;id}/{name}&#45;&gt;macaroonAuth -->
<g id="edge97" class="edge">
<title>POST /validation&#45;sets/{account&#45;id}/{name}&#45;&gt;macaroonAuth</title>
<path fill="none" stroke="#e26a77" d="M3295.12,-248.93C3330.32,-239.74 3375.82,-229.24 3417,-224 3867.2,-166.74 7072.52,-269.36 7500,-117 7523.22,-108.72 7545.1,-91.36 7560.7,-76.66"/>
<polygon fill="#e26a77" stroke="#e26a77" points="7563.55,-78.77 7568.26,-69.28 7558.66,-73.76 7563.55,-78.77"/>
</g>
<!-- POST /warnings -->
<g id="node48" class="node">
<title>POST /warnings</title>
<path fill="#37516b" stroke="black" d="M4405.5,-285C4405.5,-285 4298.5,-285 4298.5,-285 4292.5,-285 4286.5,-279 4286.5,-273 4286.5,-273 4286.5,-261 4286.5,-261 4286.5,-255 4292.5,-249 4298.5,-249 4298.5,-249 4405.5,-249 4405.5,-249 4411.5,-249 4417.5,-255 4417.5,-261 4417.5,-261 4417.5,-273 4417.5,-273 4417.5,-279 4411.5,-285 4405.5,-285"/>
<text text-anchor="middle" x="4352" y="-263.3" font-family="Times,serif" font-size="14.00" fill="#cdd9e5">POST /warnings</text>
</g>
<!-- POST /warnings&#45;&gt;BadRequest -->
<g id="edge98" class="edge">
<title>POST /warnings&#45;&gt;BadRequest</title>
<path fill="none" stroke="#d8a436" d="M4339.18,-248.85C4311.09,-211.28 4244.02,-121.58 4211.01,-77.43"/>
<polygon fill="#d8a436" stroke="#d8a436" points="4213.68,-75.15 4204.88,-69.23 4208.07,-79.34 4213.68,-75.15"/>
</g>
<!-- POST /warnings&#45;&gt;macaroonAuth -->
<g id="edge99" class="edge">
<title>POST /warnings&#45;&gt;macaroonAuth</title>
<path fill="none" stroke="#e26a77" d="M4378.83,-248.86C4394.78,-239.65 4415.78,-229.15 4436,-224 5096.25,-55.92 6859.24,-348.53 7500,-117 7523.19,-108.62 7545.06,-91.27 7560.68,-76.6"/>
<polygon fill="#e26a77" stroke="#e26a77" points="7563.52,-78.71 7568.24,-69.23 7558.64,-73.7 7563.52,-78.71"/>
</g>
</g>
</svg>
