<?xml version="1.0" encoding="UTF-8" standalone="no"?>
<!DOCTYPE svg PUBLIC "-//W3C//DTD SVG 1.1//EN"
 "http://www.w3.org/Graphics/SVG/1.1/DTD/svg11.dtd">
<!-- Generated by graphviz version 2.43.0 (0)
 -->
<!-- Title: OpenAPI_Dependencies Pages: 1 -->
<svg width="1959pt" height="349pt"
 viewBox="0.00 0.00 1959.00 349.00" xmlns="http://www.w3.org/2000/svg" xmlns:xlink="http://www.w3.org/1999/xlink">
<g id="graph0" class="graph" transform="scale(1 1) rotate(0) translate(4 345)">
<title>OpenAPI_Dependencies</title>
<polygon fill="#2d333b" stroke="transparent" points="-4,4 -4,-345 1955,-345 1955,4 -4,4"/>
<g id="clust1" class="cluster">
<title>cluster_endpoints</title>
<polygon fill="#2d333b" stroke="#cdd9e5" points="8,-224 8,-333 1943,-333 1943,-224 8,-224"/>
<text text-anchor="middle" x="975.5" y="-317.8" font-family="Times,serif" font-size="14.00" fill="#cdd9e5">Endpoints &#45; System</text>
</g>
<g id="clust2" class="cluster">
<title>cluster_schemas</title>
<polygon fill="#2d333b" stroke="#cdd9e5" points="982,-8 982,-117 1230,-117 1230,-8 982,-8"/>
<text text-anchor="middle" x="1106" y="-101.8" font-family="Times,serif" font-size="14.00" fill="#cdd9e5">Schemas</text>
</g>
<g id="clust3" class="cluster">
<title>cluster_responses</title>
<polygon fill="#2d333b" stroke="#cdd9e5" points="408,-8 408,-117 804,-117 804,-8 408,-8"/>
<text text-anchor="middle" x="606" y="-101.8" font-family="Times,serif" font-size="14.00" fill="#cdd9e5">Responses</text>
</g>
<g id="clust4" class="cluster">
<title>cluster_security</title>
<polygon fill="#2d333b" stroke="#cdd9e5" points="1263,-8 1263,-117 1433,-117 1433,-8 1263,-8"/>
<text text-anchor="middle" x="1348" y="-101.8" font-family="Times,serif" font-size="14.00" fill="#cdd9e5">Security</text>
</g>
<!-- GET /logs -->
<g id="node1" class="node">
<title>GET /logs</title>
<path fill="#37516b" stroke="black" d="M758,-285C758,-285 696,-285 696,-285 690,-285 684,-279 684,-273 684,-273 684,-261 684,-261 684,-255 690,-249 696,-249 696,-249 758,-249 758,-249 764,-249 770,-255 770,-261 770,-261 770,-273 770,-273 770,-279 764,-285 758,-285"/>
<text text-anchor="middle" x="727" y="-263.3" font-family="Times,serif" font-size="14.00" fill="#cdd9e5">GET /logs</text>
</g>
<!-- BadRequest -->
<g id="node15" class="node">
<title>BadRequest</title>
<path fill="#634c23" stroke="black" d="M766.5,-69C766.5,-69 687.5,-69 687.5,-69 681.5,-69 675.5,-63 675.5,-57 675.5,-57 675.5,-45 675.5,-45 675.5,-39 681.5,-33 687.5,-33 687.5,-33 766.5,-33 766.5,-33 772.5,-33 778.5,-39 778.5,-45 778.5,-45 778.5,-57 778.5,-57 778.5,-63 772.5,-69 766.5,-69"/>
<text text-anchor="middle" x="727" y="-47.3" font-family="Times,serif" font-size="14.00" fill="#cdd9e5">BadRequest</text>
</g>
<!-- GET /logs&#45;&gt;BadRequest -->
<g id="edge1" class="edge">
<title>GET /logs&#45;&gt;BadRequest</title>
<path fill="none" stroke="#d8a436" d="M727,-248.85C727,-211.83 727,-124.18 727,-79.39"/>
<polygon fill="#d8a436" stroke="#d8a436" points="730.5,-79.23 727,-69.23 723.5,-79.23 730.5,-79.23"/>
</g>
<!-- GET /model -->
<g id="node2" class="node">
<title>GET /model</title>
<path fill="#37516b" stroke="black" d="M121,-285C121,-285 45,-285 45,-285 39,-285 33,-279 33,-273 33,-273 33,-261 33,-261 33,-255 39,-249 45,-249 45,-249 121,-249 121,-249 127,-249 133,-255 133,-261 133,-261 133,-273 133,-273 133,-279 127,-285 121,-285"/>
<text text-anchor="middle" x="83" y="-263.3" font-family="Times,serif" font-size="14.00" fill="#cdd9e5">GET /model</text>
</g>
<!-- NotFound -->
<g id="node16" class="node">
<title>NotFound</title>
<path fill="#634c23" stroke="black" d="M508.5,-69C508.5,-69 445.5,-69 445.5,-69 439.5,-69 433.5,-63 433.5,-57 433.5,-57 433.5,-45 433.5,-45 433.5,-39 439.5,-33 445.5,-33 445.5,-33 508.5,-33 508.5,-33 514.5,-33 520.5,-39 520.5,-45 520.5,-45 520.5,-57 520.5,-57 520.5,-63 514.5,-69 508.5,-69"/>
<text text-anchor="middle" x="477" y="-47.3" font-family="Times,serif" font-size="14.00" fill="#cdd9e5">NotFound</text>
</g>
<!-- GET /model&#45;&gt;NotFound -->
<g id="edge2" class="edge">
<title>GET /model&#45;&gt;NotFound</title>
<path fill="none" stroke="#d8a436" d="M109.88,-248.82C122.28,-241.04 137.27,-231.85 151,-224 250.6,-167.05 370.6,-105.5 433.56,-73.73"/>
<polygon fill="#d8a436" stroke="#d8a436" points="435.44,-76.71 442.8,-69.08 432.29,-70.45 435.44,-76.71"/>
</g>
<!-- GET /model/serial -->
<g id="node3" class="node">
<title>GET /model/serial</title>
<path fill="#37516b" stroke="black" d="M301,-285C301,-285 181,-285 181,-285 175,-285 169,-279 169,-273 169,-273 169,-261 169,-261 169,-255 175,-249 181,-249 181,-249 301,-249 301,-249 307,-249 313,-255 313,-261 313,-261 313,-273 313,-273 313,-279 307,-285 301,-285"/>
<text text-anchor="middle" x="241" y="-263.3" font-family="Times,serif" font-size="14.00" fill="#cdd9e5">GET /model/serial</text>
</g>
<!-- GET /model/serial&#45;&gt;NotFound -->
<g id="edge3" class="edge">
<title>GET /model/serial&#45;&gt;NotFound</title>
<path fill="none" stroke="#d8a436" d="M259.91,-248.85C301.77,-210.89 402.34,-119.7 450.47,-76.06"/>
<polygon fill="#d8a436" stroke="#d8a436" points="452.94,-78.54 458,-69.23 448.24,-73.36 452.94,-78.54"/>
</g>
<!-- GET /notices -->
<g id="node4" class="node">
<title>GET /notices</title>
<path fill="#37516b" stroke="black" d="M1059.5,-285C1059.5,-285 976.5,-285 976.5,-285 970.5,-285 964.5,-279 964.5,-273 964.5,-273 964.5,-261 964.5,-261 964.5,-255 970.5,-249 976.5,-249 976.5,-249 1059.5,-249 1059.5,-249 1065.5,-249 1071.5,-255 1071.5,-261 1071.5,-261 1071.5,-273 1071.5,-273 1071.5,-279 1065.5,-285 1059.5,-285"/>
<text text-anchor="middle" x="1018" y="-263.3" font-family="Times,serif" font-size="14.00" fill="#cdd9e5">GET /notices</text>
</g>
<!-- Notice -->
<g id="node12" class="node">
<title>Notice</title>
<path fill="#345a3f" stroke="black" d="M1058.5,-69C1058.5,-69 1019.5,-69 1019.5,-69 1013.5,-69 1007.5,-63 1007.5,-57 1007.5,-57 1007.5,-45 1007.5,-45 1007.5,-39 1013.5,-33 1019.5,-33 1019.5,-33 1058.5,-33 1058.5,-33 1064.5,-33 1070.5,-39 1070.5,-45 1070.5,-45 1070.5,-57 1070.5,-57 1070.5,-63 1064.5,-69 1058.5,-69"/>
<text text-anchor="middle" x="1039" y="-47.3" font-family="Times,serif" font-size="14.00" fill="#cdd9e5">Notice</text>
</g>
<!-- GET /notices&#45;&gt;Notice -->
<g id="edge5" class="edge">
<title>GET /notices&#45;&gt;Notice</title>
<path fill="none" stroke="#53b668" d="M1019.68,-248.85C1023.32,-211.83 1031.92,-124.18 1036.31,-79.39"/>
<polygon fill="#53b668" stroke="#53b668" points="1039.82,-79.53 1037.31,-69.23 1032.85,-78.84 1039.82,-79.53"/>
</g>
<!-- GET /notices&#45;&gt;BadRequest -->
<g id="edge4" class="edge">
<title>GET /notices&#45;&gt;BadRequest</title>
<path fill="none" stroke="#d8a436" d="M994.68,-248.85C942.74,-210.66 817.52,-118.57 758.63,-75.26"/>
<polygon fill="#d8a436" stroke="#d8a436" points="760.56,-72.34 750.43,-69.23 756.42,-77.98 760.56,-72.34"/>
</g>
<!-- GET /system&#45;info -->
<g id="node5" class="node">
<title>GET /system&#45;info</title>
<path fill="#37516b" stroke="black" d="M1234.5,-285C1234.5,-285 1119.5,-285 1119.5,-285 1113.5,-285 1107.5,-279 1107.5,-273 1107.5,-273 1107.5,-261 1107.5,-261 1107.5,-255 1113.5,-249 1119.5,-249 1119.5,-249 1234.5,-249 1234.5,-249 1240.5,-249 1246.5,-255 1246.5,-261 1246.5,-261 1246.5,-273 1246.5,-273 1246.5,-279 1240.5,-285 1234.5,-285"/>
<text text-anchor="middle" x="1177" y="-263.3" font-family="Times,serif" font-size="14.00" fill="#cdd9e5">GET /system&#45;info</text>
</g>
<!-- SystemInfo -->
<g id="node13" class="node">
<title>SystemInfo</title>
<path fill="#345a3f" stroke="black" d="M1193,-69C1193,-69 1119,-69 1119,-69 1113,-69 1107,-63 1107,-57 1107,-57 1107,-45 1107,-45 1107,-39 1113,-33 1119,-33 1119,-33 1193,-33 1193,-33 1199,-33 1205,-39 1205,-45 1205,-45 1205,-57 1205,-57 1205,-63 1199,-69 1193,-69"/>
<text text-anchor="middle" x="1156" y="-47.3" font-family="Times,serif" font-size="14.00" fill="#cdd9e5">SystemInfo</text>
</g>
<!-- GET /system&#45;info&#45;&gt;SystemInfo -->
<g id="edge7" class="edge">
<title>GET /system&#45;info&#45;&gt;SystemInfo</title>
<path fill="none" stroke="#53b668" d="M1175.32,-248.85C1171.68,-211.83 1163.08,-124.18 1158.69,-79.39"/>
<polygon fill="#53b668" stroke="#53b668" points="1162.15,-78.84 1157.69,-69.23 1155.18,-79.53 1162.15,-78.84"/>
</g>
<!-- GET /system&#45;info&#45;&gt;BadRequest -->
<g id="edge6" class="edge">
<title>GET /system&#45;info&#45;&gt;BadRequest</title>
<path fill="none" stroke="#d8a436" d="M1141.89,-248.98C1126.05,-241.32 1107.1,-232.18 1090,-224 975.84,-169.4 841.13,-105.78 772.36,-73.37"/>
<polygon fill="#d8a436" stroke="#d8a436" points="773.64,-70.1 763.11,-69 770.66,-76.43 773.64,-70.1"/>
</g>
<!-- GET /system&#45;recovery&#45;keys -->
<g id="node6" class="node">
<title>GET /system&#45;recovery&#45;keys</title>
<path fill="#37516b" stroke="black" d="M1905.5,-285C1905.5,-285 1718.5,-285 1718.5,-285 1712.5,-285 1706.5,-279 1706.5,-273 1706.5,-273 1706.5,-261 1706.5,-261 1706.5,-255 1712.5,-249 1718.5,-249 1718.5,-249 1905.5,-249 1905.5,-249 1911.5,-249 1917.5,-255 1917.5,-261 1917.5,-261 1917.5,-273 1917.5,-273 1917.5,-279 1911.5,-285 1905.5,-285"/>
<text text-anchor="middle" x="1812" y="-263.3" font-family="Times,serif" font-size="14.00" fill="#cdd9e5">GET /system&#45;recovery&#45;keys</text>
</g>
<!-- GET /system&#45;recovery&#45;keys&#45;&gt;BadRequest -->
<g id="edge8" class="edge">
<title>GET /system&#45;recovery&#45;keys&#45;&gt;BadRequest</title>
<path fill="none" stroke="#d8a436" d="M1768.08,-248.99C1744.62,-240.45 1715.06,-230.55 1688,-224 1375.71,-148.38 1287.69,-181.92 973,-117 909.66,-103.93 838.3,-84.55 788.82,-70.35"/>
<polygon fill="#d8a436" stroke="#d8a436" points="789.49,-66.9 778.91,-67.49 787.55,-73.63 789.49,-66.9"/>
</g>
<!-- macaroonAuth -->
<g id="node17" class="node">
<title>macaroonAuth</title>
<path fill="#6b3940" stroke="black" d="M1396,-69C1396,-69 1300,-69 1300,-69 1294,-69 1288,-63 1288,-57 1288,-57 1288,-45 1288,-45 1288,-39 1294,-33 1300,-33 1300,-33 1396,-33 1396,-33 1402,-33 1408,-39 1408,-45 1408,-45 1408,-57 1408,-57 1408,-63 1402,-69 1396,-69"/>
<text text-anchor="middle" x="1348" y="-47.3" font-family="Times,serif" font-size="14.00" fill="#cdd9e5">macaroonAuth</text>
</g>
<!-- GET /system&#45;recovery&#45;keys&#45;&gt;macaroonAuth -->
<g id="edge9" class="edge">
<title>GET /system&#45;recovery&#45;keys&#45;&gt;macaroonAuth</title>
<path fill="none" stroke="#e26a77" d="M1774.81,-248.85C1690.8,-210.1 1486.5,-115.88 1394.39,-73.39"/>
<polygon fill="#e26a77" stroke="#e26a77" points="1395.59,-70.09 1385.04,-69.08 1392.66,-76.45 1395.59,-70.09"/>
</g>
<!-- GET /warnings -->
<g id="node7" class="node">
<title>GET /warnings</title>
<path fill="#37516b" stroke="black" d="M916,-285C916,-285 818,-285 818,-285 812,-285 806,-279 806,-273 806,-273 806,-261 806,-261 806,-255 812,-249 818,-249 818,-249 916,-249 916,-249 922,-249 928,-255 928,-261 928,-261 928,-273 928,-273 928,-279 922,-285 916,-285"/>
<text text-anchor="middle" x="867" y="-263.3" font-family="Times,serif" font-size="14.00" fill="#cdd9e5">GET /warnings</text>
</g>
<!-- GET /warnings&#45;&gt;BadRequest -->
<g id="edge10" class="edge">
<title>GET /warnings&#45;&gt;BadRequest</title>
<path fill="none" stroke="#d8a436" d="M855.78,-248.85C831.26,-211.36 772.76,-121.95 743.81,-77.7"/>
<polygon fill="#d8a436" stroke="#d8a436" points="746.68,-75.68 738.27,-69.23 740.82,-79.52 746.68,-75.68"/>
</g>
<!-- POST /model -->
<g id="node8" class="node">
<title>POST /model</title>
<path fill="#37516b" stroke="black" d="M635.5,-285C635.5,-285 550.5,-285 550.5,-285 544.5,-285 538.5,-279 538.5,-273 538.5,-273 538.5,-261 538.5,-261 538.5,-255 544.5,-249 550.5,-249 550.5,-249 635.5,-249 635.5,-249 641.5,-249 647.5,-255 647.5,-261 647.5,-261 647.5,-273 647.5,-273 647.5,-279 641.5,-285 635.5,-285"/>
<text text-anchor="middle" x="593" y="-263.3" font-family="Times,serif" font-size="14.00" fill="#cdd9e5">POST /model</text>
</g>
<!-- Accepted -->
<g id="node14" class="node">
<title>Accepted</title>
<path fill="#634c23" stroke="black" d="M627,-69C627,-69 569,-69 569,-69 563,-69 557,-63 557,-57 557,-57 557,-45 557,-45 557,-39 563,-33 569,-33 569,-33 627,-33 627,-33 633,-33 639,-39 639,-45 639,-45 639,-57 639,-57 639,-63 633,-69 627,-69"/>
<text text-anchor="middle" x="598" y="-47.3" font-family="Times,serif" font-size="14.00" fill="#cdd9e5">Accepted</text>
</g>
<!-- POST /model&#45;&gt;Accepted -->
<g id="edge11" class="edge">
<title>POST /model&#45;&gt;Accepted</title>
<path fill="none" stroke="#d8a436" d="M593.4,-248.85C594.27,-211.83 596.31,-124.18 597.36,-79.39"/>
<polygon fill="#d8a436" stroke="#d8a436" points="600.86,-79.31 597.6,-69.23 593.86,-79.15 600.86,-79.31"/>
</g>
<!-- POST /model&#45;&gt;BadRequest -->
<g id="edge12" class="edge">
<title>POST /model&#45;&gt;BadRequest</title>
<path fill="none" stroke="#d8a436" d="M603.74,-248.85C627.16,-211.44 682.97,-122.32 710.73,-77.98"/>
<polygon fill="#d8a436" stroke="#d8a436" points="713.87,-79.57 716.21,-69.23 707.94,-75.85 713.87,-79.57"/>
</g>
<!-- POST /model&#45;&gt;macaroonAuth -->
<g id="edge13" class="edge">
<title>POST /model&#45;&gt;macaroonAuth</title>
<path fill="none" stroke="#e26a77" d="M617.97,-248.81C631.62,-240.16 649.13,-230.22 666,-224 909.06,-134.35 996.64,-208.55 1239,-117 1266.77,-106.51 1295.51,-89.05 1316.5,-74.87"/>
<polygon fill="#e26a77" stroke="#e26a77" points="1318.74,-77.58 1324.99,-69.02 1314.77,-71.81 1318.74,-77.58"/>
</g>
<!-- POST /model/serial -->
<g id="node9" class="node">
<title>POST /model/serial</title>
<path fill="#37516b" stroke="black" d="M490.5,-285C490.5,-285 361.5,-285 361.5,-285 355.5,-285 349.5,-279 349.5,-273 349.5,-273 349.5,-261 349.5,-261 349.5,-255 355.5,-249 361.5,-249 361.5,-249 490.5,-249 490.5,-249 496.5,-249 502.5,-255 502.5,-261 502.5,-261 502.5,-273 502.5,-273 502.5,-279 496.5,-285 490.5,-285"/>
<text text-anchor="middle" x="426" y="-263.3" font-family="Times,serif" font-size="14.00" fill="#cdd9e5">POST /model/serial</text>
</g>
<!-- POST /model/serial&#45;&gt;Accepted -->
<g id="edge14" class="edge">
<title>POST /model/serial&#45;&gt;Accepted</title>
<path fill="none" stroke="#d8a436" d="M439.78,-248.85C470.04,-211.21 542.38,-121.2 577.79,-77.15"/>
<polygon fill="#d8a436" stroke="#d8a436" points="580.61,-79.22 584.15,-69.23 575.16,-74.83 580.61,-79.22"/>
</g>
<!-- POST /model/serial&#45;&gt;BadRequest -->
<g id="edge15" class="edge">
<title>POST /model/serial&#45;&gt;BadRequest</title>
<path fill="none" stroke="#d8a436" d="M455.93,-248.99C501.08,-222.83 588.61,-170.15 657,-117 673.09,-104.5 689.86,-89.02 702.96,-76.3"/>
<polygon fill="#d8a436" stroke="#d8a436" points="705.52,-78.69 710.21,-69.18 700.62,-73.69 705.52,-78.69"/>
</g>
<!-- POST /model/serial&#45;&gt;macaroonAuth -->
<g id="edge16" class="edge">
<title>POST /model/serial&#45;&gt;macaroonAuth</title>
<path fill="none" stroke="#e26a77" d="M458.23,-248.97C476,-240.26 498.72,-230.21 520,-224 830.14,-133.49 934.71,-225.57 1239,-117 1267.27,-106.91 1296.32,-89.15 1317.31,-74.75"/>
<polygon fill="#e26a77" stroke="#e26a77" points="1319.32,-77.61 1325.51,-69.01 1315.31,-71.88 1319.32,-77.61"/>
</g>
<!-- POST /system&#45;recovery&#45;keys -->
<g id="node10" class="node">
<title>POST /system&#45;recovery&#45;keys</title>
<path fill="#37516b" stroke="black" d="M1658,-285C1658,-285 1462,-285 1462,-285 1456,-285 1450,-279 1450,-273 1450,-273 1450,-261 1450,-261 1450,-255 1456,-249 1462,-249 1462,-249 1658,-249 1658,-249 1664,-249 1670,-255 1670,-261 1670,-261 1670,-273 1670,-273 1670,-279 1664,-285 1658,-285"/>
<text text-anchor="middle" x="1560" y="-263.3" font-family="Times,serif" font-size="14.00" fill="#cdd9e5">POST /system&#45;recovery&#45;keys</text>
</g>
<!-- POST /system&#45;recovery&#45;keys&#45;&gt;BadRequest -->
<g id="edge17" class="edge">
<title>POST /system&#45;recovery&#45;keys&#45;&gt;BadRequest</title>
<path fill="none" stroke="#d8a436" d="M1511.38,-248.93C1487.6,-240.87 1458.46,-231.41 1432,-224 1230.29,-167.51 1176.28,-167.54 973,-117 910.03,-101.35 838.34,-82.26 788.66,-68.83"/>
<polygon fill="#d8a436" stroke="#d8a436" points="789.29,-65.37 778.72,-66.14 787.46,-72.13 789.29,-65.37"/>
</g>
<!-- POST /system&#45;recovery&#45;keys&#45;&gt;macaroonAuth -->
<g id="edge18" class="edge">
<title>POST /system&#45;recovery&#45;keys&#45;&gt;macaroonAuth</title>
<path fill="none" stroke="#e26a77" d="M1543.01,-248.85C1505.56,-211.05 1415.81,-120.45 1372.37,-76.6"/>
<polygon fill="#e26a77" stroke="#e26a77" points="1374.6,-73.87 1365.07,-69.23 1369.62,-78.8 1374.6,-73.87"/>
</g>
<!-- POST /warnings -->
<g id="node11" class="node">
<title>POST /warnings</title>
<path fill="#37516b" stroke="black" d="M1401.5,-285C1401.5,-285 1294.5,-285 1294.5,-285 1288.5,-285 1282.5,-279 1282.5,-273 1282.5,-273 1282.5,-261 1282.5,-261 1282.5,-255 1288.5,-249 1294.5,-249 1294.5,-249 1401.5,-249 1401.5,-249 1407.5,-249 1413.5,-255 1413.5,-261 1413.5,-261 1413.5,-273 1413.5,-273 1413.5,-279 1407.5,-285 1401.5,-285"/>
<text text-anchor="middle" x="1348" y="-263.3" font-family="Times,serif" font-size="14.00" fill="#cdd9e5">POST /warnings</text>
</g>
<!-- POST /warnings&#45;&gt;BadRequest -->
<g id="edge19" class="edge">
<title>POST /warnings&#45;&gt;BadRequest</title>
<path fill="none" stroke="#d8a436" d="M1317.02,-248.84C1301.65,-240.71 1282.63,-231.23 1265,-224 1096.62,-154.99 889.66,-95.65 788.52,-68.22"/>
<polygon fill="#d8a436" stroke="#d8a436" points="789.34,-64.82 778.78,-65.59 787.52,-71.58 789.34,-64.82"/>
</g>
<!-- POST /warnings&#45;&gt;macaroonAuth -->
<g id="edge20" class="edge">
<title>POST /warnings&#45;&gt;macaroonAuth</title>
<path fill="none" stroke="#e26a77" d="M1348,-248.85C1348,-211.83 1348,-124.18 1348,-79.39"/>
<polygon fill="#e26a77" stroke="#e26a77" points="1351.5,-79.23 1348,-69.23 1344.5,-79.23 1351.5,-79.23"/>
</g>
</g>
</svg>
