<?xml version="1.0" encoding="UTF-8" standalone="no"?>
<!DOCTYPE svg PUBLIC "-//W3C//DTD SVG 1.1//EN"
 "http://www.w3.org/Graphics/SVG/1.1/DTD/svg11.dtd">
<!-- Generated by graphviz version 2.43.0 (0)
 -->
<!-- Title: OpenAPI_Dependencies Pages: 1 -->
<svg width="568pt" height="349pt"
 viewBox="0.00 0.00 568.00 349.00" xmlns="http://www.w3.org/2000/svg" xmlns:xlink="http://www.w3.org/1999/xlink">
<g id="graph0" class="graph" transform="scale(1 1) rotate(0) translate(4 345)">
<title>OpenAPI_Dependencies</title>
<polygon fill="#2d333b" stroke="transparent" points="-4,4 -4,-345 564,-345 564,4 -4,4"/>
<g id="clust1" class="cluster">
<title>cluster_endpoints</title>
<polygon fill="#2d333b" stroke="#cdd9e5" points="8,-224 8,-333 552,-333 552,-224 8,-224"/>
<text text-anchor="middle" x="280" y="-317.8" font-family="Times,serif" font-size="14.00" fill="#cdd9e5">Endpoints &#45; Systems</text>
</g>
<g id="clust2" class="cluster">
<title>cluster_schemas</title>
<polygon fill="#2d333b" stroke="#cdd9e5" points="31,-8 31,-117 151,-117 151,-8 31,-8"/>
<text text-anchor="middle" x="91" y="-101.8" font-family="Times,serif" font-size="14.00" fill="#cdd9e5">Schemas</text>
</g>
<g id="clust3" class="cluster">
<title>cluster_responses</title>
<polygon fill="#2d333b" stroke="#cdd9e5" points="178,-8 178,-117 316,-117 316,-8 178,-8"/>
<text text-anchor="middle" x="247" y="-101.8" font-family="Times,serif" font-size="14.00" fill="#cdd9e5">Responses</text>
</g>
<g id="clust4" class="cluster">
<title>cluster_security</title>
<polygon fill="#2d333b" stroke="#cdd9e5" points="347,-8 347,-117 477,-117 477,-8 347,-8"/>
<text text-anchor="middle" x="412" y="-101.8" font-family="Times,serif" font-size="14.00" fill="#cdd9e5">Security</text>
</g>
<!-- GET /systems -->
<g id="node1" class="node">
<title>GET /systems</title>
<path fill="#37516b" stroke="black" d="M136.5,-285C136.5,-285 45.5,-285 45.5,-285 39.5,-285 33.5,-279 33.5,-273 33.5,-273 33.5,-261 33.5,-261 33.5,-255 39.5,-249 45.5,-249 45.5,-249 136.5,-249 136.5,-249 142.5,-249 148.5,-255 148.5,-261 148.5,-261 148.5,-273 148.5,-273 148.5,-279 142.5,-285 136.5,-285"/>
<text text-anchor="middle" x="91" y="-263.3" font-family="Times,serif" font-size="14.00" fill="#cdd9e5">GET /systems</text>
</g>
<!-- System -->
<g id="node4" class="node">
<title>System</title>
<path fill="#345a3f" stroke="black" d="M114,-69C114,-69 68,-69 68,-69 62,-69 56,-63 56,-57 56,-57 56,-45 56,-45 56,-39 62,-33 68,-33 68,-33 114,-33 114,-33 120,-33 126,-39 126,-45 126,-45 126,-57 126,-57 126,-63 120,-69 114,-69"/>
<text text-anchor="middle" x="91" y="-47.3" font-family="Times,serif" font-size="14.00" fill="#cdd9e5">System</text>
</g>
<!-- GET /systems&#45;&gt;System -->
<g id="edge2" class="edge">
<title>GET /systems&#45;&gt;System</title>
<path fill="none" stroke="#53b668" d="M91,-248.85C91,-211.83 91,-124.18 91,-79.39"/>
<polygon fill="#53b668" stroke="#53b668" points="94.5,-79.23 91,-69.23 87.5,-79.23 94.5,-79.23"/>
</g>
<!-- NotFound -->
<g id="node5" class="node">
<title>NotFound</title>
<path fill="#634c23" stroke="black" d="M278.5,-69C278.5,-69 215.5,-69 215.5,-69 209.5,-69 203.5,-63 203.5,-57 203.5,-57 203.5,-45 203.5,-45 203.5,-39 209.5,-33 215.5,-33 215.5,-33 278.5,-33 278.5,-33 284.5,-33 290.5,-39 290.5,-45 290.5,-45 290.5,-57 290.5,-57 290.5,-63 284.5,-69 278.5,-69"/>
<text text-anchor="middle" x="247" y="-47.3" font-family="Times,serif" font-size="14.00" fill="#cdd9e5">NotFound</text>
</g>
<!-- GET /systems&#45;&gt;NotFound -->
<g id="edge1" class="edge">
<title>GET /systems&#45;&gt;NotFound</title>
<path fill="none" stroke="#d8a436" d="M103.5,-248.85C130.89,-211.28 196.28,-121.58 228.47,-77.43"/>
<polygon fill="#d8a436" stroke="#d8a436" points="231.38,-79.38 234.44,-69.23 225.72,-75.25 231.38,-79.38"/>
</g>
<!-- POST /systems -->
<g id="node2" class="node">
<title>POST /systems</title>
<path fill="#37516b" stroke="black" d="M297,-285C297,-285 197,-285 197,-285 191,-285 185,-279 185,-273 185,-273 185,-261 185,-261 185,-255 191,-249 197,-249 197,-249 297,-249 297,-249 303,-249 309,-255 309,-261 309,-261 309,-273 309,-273 309,-279 303,-285 297,-285"/>
<text text-anchor="middle" x="247" y="-263.3" font-family="Times,serif" font-size="14.00" fill="#cdd9e5">POST /systems</text>
</g>
<!-- POST /systems&#45;&gt;NotFound -->
<g id="edge3" class="edge">
<title>POST /systems&#45;&gt;NotFound</title>
<path fill="none" stroke="#d8a436" d="M247,-248.85C247,-211.83 247,-124.18 247,-79.39"/>
<polygon fill="#d8a436" stroke="#d8a436" points="250.5,-79.23 247,-69.23 243.5,-79.23 250.5,-79.23"/>
</g>
<!-- rootAuth -->
<g id="node6" class="node">
<title>rootAuth</title>
<path fill="#6b3940" stroke="black" d="M440,-69C440,-69 384,-69 384,-69 378,-69 372,-63 372,-57 372,-57 372,-45 372,-45 372,-39 378,-33 384,-33 384,-33 440,-33 440,-33 446,-33 452,-39 452,-45 452,-45 452,-57 452,-57 452,-63 446,-69 440,-69"/>
<text text-anchor="middle" x="412" y="-47.3" font-family="Times,serif" font-size="14.00" fill="#cdd9e5">rootAuth</text>
</g>
<!-- POST /systems&#45;&gt;rootAuth -->
<g id="edge4" class="edge">
<title>POST /systems&#45;&gt;rootAuth</title>
<path fill="none" stroke="#e26a77" d="M260.22,-248.85C289.19,-211.28 358.36,-121.58 392.4,-77.43"/>
<polygon fill="#e26a77" stroke="#e26a77" points="395.38,-79.29 398.71,-69.23 389.84,-75.01 395.38,-79.29"/>
</g>
<!-- POST /systems/{label} -->
<g id="node3" class="node">
<title>POST /systems/{label}</title>
<path fill="#37516b" stroke="black" d="M514.5,-285C514.5,-285 357.5,-285 357.5,-285 351.5,-285 345.5,-279 345.5,-273 345.5,-273 345.5,-261 345.5,-261 345.5,-255 351.5,-249 357.5,-249 357.5,-249 514.5,-249 514.5,-249 520.5,-249 526.5,-255 526.5,-261 526.5,-261 526.5,-273 526.5,-273 526.5,-279 520.5,-285 514.5,-285"/>
<text text-anchor="middle" x="436" y="-263.3" font-family="Times,serif" font-size="14.00" fill="#cdd9e5">POST /systems/{label}</text>
</g>
<!-- POST /systems/{label}&#45;&gt;NotFound -->
<g id="edge5" class="edge">
<title>POST /systems/{label}&#45;&gt;NotFound</title>
<path fill="none" stroke="#d8a436" d="M420.85,-248.85C387.54,-211.13 307.79,-120.83 268.97,-76.88"/>
<polygon fill="#d8a436" stroke="#d8a436" points="271.46,-74.41 262.22,-69.23 266.22,-79.04 271.46,-74.41"/>
</g>
<!-- POST /systems/{label}&#45;&gt;rootAuth -->
<g id="edge6" class="edge">
<title>POST /systems/{label}&#45;&gt;rootAuth</title>
<path fill="none" stroke="#e26a77" d="M434.08,-248.85C429.93,-211.83 420.1,-124.18 415.07,-79.39"/>
<polygon fill="#e26a77" stroke="#e26a77" points="418.53,-78.78 413.93,-69.23 411.57,-79.56 418.53,-78.78"/>
</g>
</g>
</svg>
