<?xml version="1.0" encoding="UTF-8" standalone="no"?>
<!DOCTYPE svg PUBLIC "-//W3C//DTD SVG 1.1//EN"
 "http://www.w3.org/Graphics/SVG/1.1/DTD/svg11.dtd">
<!-- Generated by graphviz version 2.43.0 (0)
 -->
<!-- Title: OpenAPI_Dependencies Pages: 1 -->
<svg width="310pt" height="349pt"
 viewBox="0.00 0.00 310.00 349.00" xmlns="http://www.w3.org/2000/svg" xmlns:xlink="http://www.w3.org/1999/xlink">
<g id="graph0" class="graph" transform="scale(1 1) rotate(0) translate(4 345)">
<title>OpenAPI_Dependencies</title>
<polygon fill="#2d333b" stroke="transparent" points="-4,4 -4,-345 306,-345 306,4 -4,4"/>
<g id="clust1" class="cluster">
<title>cluster_endpoints</title>
<polygon fill="#2d333b" stroke="#cdd9e5" points="8,-224 8,-333 294,-333 294,-224 8,-224"/>
<text text-anchor="middle" x="151" y="-317.8" font-family="Times,serif" font-size="14.00" fill="#cdd9e5">Endpoints &#45; Users</text>
</g>
<g id="clust2" class="cluster">
<title>cluster_schemas</title>
<polygon fill="#2d333b" stroke="#cdd9e5" points="28,-8 28,-117 132,-117 132,-8 28,-8"/>
<text text-anchor="middle" x="80" y="-101.8" font-family="Times,serif" font-size="14.00" fill="#cdd9e5">Schemas</text>
</g>
<g id="clust3" class="cluster">
<title>cluster_responses</title>
<polygon fill="#2d333b" stroke="#cdd9e5" points="140,-8 140,-117 294,-117 294,-8 140,-8"/>
<text text-anchor="middle" x="217" y="-101.8" font-family="Times,serif" font-size="14.00" fill="#cdd9e5">Responses</text>
</g>
<!-- GET /users -->
<g id="node1" class="node">
<title>GET /users</title>
<path fill="#37516b" stroke="black" d="M116.5,-285C116.5,-285 45.5,-285 45.5,-285 39.5,-285 33.5,-279 33.5,-273 33.5,-273 33.5,-261 33.5,-261 33.5,-255 39.5,-249 45.5,-249 45.5,-249 116.5,-249 116.5,-249 122.5,-249 128.5,-255 128.5,-261 128.5,-261 128.5,-273 128.5,-273 128.5,-279 122.5,-285 116.5,-285"/>
<text text-anchor="middle" x="81" y="-263.3" font-family="Times,serif" font-size="14.00" fill="#cdd9e5">GET /users</text>
</g>
<!-- User -->
<g id="node3" class="node">
<title>User</title>
<path fill="#345a3f" stroke="black" d="M95,-69C95,-69 65,-69 65,-69 59,-69 53,-63 53,-57 53,-57 53,-45 53,-45 53,-39 59,-33 65,-33 65,-33 95,-33 95,-33 101,-33 107,-39 107,-45 107,-45 107,-57 107,-57 107,-63 101,-69 95,-69"/>
<text text-anchor="middle" x="80" y="-47.3" font-family="Times,serif" font-size="14.00" fill="#cdd9e5">User</text>
</g>
<!-- GET /users&#45;&gt;User -->
<g id="edge2" class="edge">
<title>GET /users&#45;&gt;User</title>
<path fill="none" stroke="#53b668" d="M80.92,-248.85C80.75,-211.83 80.34,-124.18 80.13,-79.39"/>
<polygon fill="#53b668" stroke="#53b668" points="83.63,-79.22 80.08,-69.23 76.63,-79.25 83.63,-79.22"/>
</g>
<!-- BadRequest -->
<g id="node4" class="node">
<title>BadRequest</title>
<path fill="#634c23" stroke="black" d="M256.5,-69C256.5,-69 177.5,-69 177.5,-69 171.5,-69 165.5,-63 165.5,-57 165.5,-57 165.5,-45 165.5,-45 165.5,-39 171.5,-33 177.5,-33 177.5,-33 256.5,-33 256.5,-33 262.5,-33 268.5,-39 268.5,-45 268.5,-45 268.5,-57 268.5,-57 268.5,-63 262.5,-69 256.5,-69"/>
<text text-anchor="middle" x="217" y="-47.3" font-family="Times,serif" font-size="14.00" fill="#cdd9e5">BadRequest</text>
</g>
<!-- GET /users&#45;&gt;BadRequest -->
<g id="edge1" class="edge">
<title>GET /users&#45;&gt;BadRequest</title>
<path fill="none" stroke="#d8a436" d="M91.9,-248.85C115.72,-211.36 172.55,-121.95 200.67,-77.7"/>
<polygon fill="#d8a436" stroke="#d8a436" points="203.64,-79.55 206.05,-69.23 197.73,-75.8 203.64,-79.55"/>
</g>
<!-- POST /users -->
<g id="node2" class="node">
<title>POST /users</title>
<path fill="#37516b" stroke="black" d="M257,-285C257,-285 177,-285 177,-285 171,-285 165,-279 165,-273 165,-273 165,-261 165,-261 165,-255 171,-249 177,-249 177,-249 257,-249 257,-249 263,-249 269,-255 269,-261 269,-261 269,-273 269,-273 269,-279 263,-285 257,-285"/>
<text text-anchor="middle" x="217" y="-263.3" font-family="Times,serif" font-size="14.00" fill="#cdd9e5">POST /users</text>
</g>
<!-- POST /users&#45;&gt;BadRequest -->
<g id="edge3" class="edge">
<title>POST /users&#45;&gt;BadRequest</title>
<path fill="none" stroke="#d8a436" d="M217,-248.85C217,-211.83 217,-124.18 217,-79.39"/>
<polygon fill="#d8a436" stroke="#d8a436" points="220.5,-79.23 217,-69.23 213.5,-79.23 220.5,-79.23"/>
</g>
</g>
</svg>
